<svg xmlns="http://www.w3.org/2000/svg" width="167" height="81" fill="none"><rect width="164.753" height="78.753" x="1.123" y="1.123" fill="#122135" stroke="url(#a)" stroke-width="2.247" rx="8.612"/><circle cx="16.429" cy="40.429" r="8.429" fill="url(#b)" style="mix-blend-mode:color-dodge"/><circle cx="152.461" cy="65.461" r="8.429" fill="url(#c)" style="mix-blend-mode:color-dodge" transform="rotate(-7.53 152.461 65.461)"/><path fill="#fff" d="M14.722 32V14.546h6.545q2.012 0 3.375.75 1.372.75 2.071 2.062.707 1.305.707 2.966 0 1.679-.707 2.983-.708 1.305-2.088 2.054-1.38.741-3.4.741h-4.339v-2.6h3.912q1.176 0 1.926-.408.75-.41 1.108-1.125.367-.717.367-1.645 0-.93-.367-1.637-.357-.707-1.116-1.099-.75-.4-1.935-.4h-2.897V32zm15.445 0V14.546h6.545q2.011 0 3.375.698 1.372.7 2.071 1.96.708 1.253.708 2.924 0 1.679-.716 2.915-.708 1.227-2.088 1.9-1.38.665-3.392.665h-4.662v-2.625h4.236q1.176 0 1.926-.324.75-.332 1.108-.963.366-.64.366-1.568 0-.93-.366-1.585-.367-.666-1.117-1.006-.75-.35-1.934-.35h-2.898V32zm9.017-7.91L43.505 32h-3.528l-4.245-7.91zm9.754-9.544V32h-3.162V14.546zM52.038 32v-1.969l8.95-12.835h-9v-2.65h12.92v1.968l-8.94 12.835h8.99V32zm15.98 0V14.546h11.353v2.65h-8.19v4.739h7.602v2.65H71.18v4.764h8.259V32zm20.532 0V14.546h11.182v2.65h-8.02v4.739h7.252v2.65h-7.252V32zm25.065-17.454h3.162v11.403q0 1.876-.886 3.298-.878 1.423-2.472 2.225-1.593.792-3.724.792-2.14 0-3.733-.792-1.594-.802-2.472-2.225t-.878-3.298V14.545h3.162v11.14q0 1.09.477 1.943a3.47 3.47 0 0 0 1.364 1.338q.877.477 2.08.477 1.202 0 2.079-.477a3.4 3.4 0 0 0 1.364-1.338q.477-.852.477-1.943zm20.943 0V32h-2.813l-8.224-11.89h-.145V32h-3.162V14.546h2.829l8.216 11.897h.154V14.546zM143.918 32h-5.915V14.546h6.034q2.6 0 4.466 1.048 1.875 1.04 2.881 2.991t1.005 4.67q0 2.728-1.014 4.688a7 7 0 0 1-2.906 3.009Q146.576 32 143.918 32m-2.753-2.736h2.599q1.824 0 3.043-.665 1.218-.673 1.832-2.002.614-1.339.614-3.341t-.614-3.324q-.613-1.329-1.815-1.986-1.193-.665-2.966-.665h-2.693z"/><g filter="url(#d)"><mask id="g" width="138" height="30" x="14" y="39" fill="#000" maskUnits="userSpaceOnUse"><path fill="#fff" d="M14 39h138v30H14z"/><path d="M23.098 67.727V40.455h1.747v27.272zm4.634-18.27q-.127-1.29-1.097-2.003t-2.631-.714q-1.13 0-1.907.32-.778.309-1.194.863-.404.553-.404 1.257-.022.585.245 1.022.276.438.756.757.48.309 1.108.543.628.224 1.342.384l1.96.468q1.428.32 2.621.853a8 8 0 0 1 2.067 1.31 5.45 5.45 0 0 1 1.353 1.832q.49 1.056.5 2.419-.01 2.003-1.022 3.473-1.001 1.46-2.898 2.269-1.885.8-4.549.799-2.642 0-4.602-.81-1.95-.81-3.047-2.397-1.086-1.598-1.14-3.952h4.464q.076 1.097.628 1.832.566.724 1.503 1.098.948.362 2.141.362 1.172 0 2.035-.341.873-.341 1.353-.948t.48-1.396q0-.735-.438-1.236-.426-.501-1.257-.852-.82-.35-2.013-.64l-2.376-.596q-2.76-.67-4.357-2.099-1.598-1.427-1.588-3.845-.01-1.981 1.055-3.463 1.076-1.48 2.951-2.312 1.875-.83 4.261-.83 2.43 0 4.24.83 1.823.832 2.834 2.312 1.013 1.481 1.044 3.43zm17.187-6.275V65h-4.613V47.56h-.128l-4.996 3.133v-4.091l5.4-3.42zm13.74 22.297q-2.748-.01-4.73-1.353-1.971-1.342-3.036-3.888-1.055-2.546-1.044-6.126 0-3.569 1.054-6.083 1.065-2.513 3.037-3.825 1.98-1.32 4.72-1.32 2.736 0 4.708 1.32 1.98 1.322 3.047 3.836 1.065 2.503 1.054 6.072 0 3.591-1.065 6.137-1.055 2.545-3.025 3.888t-4.72 1.342m0-3.824q1.875 0 2.994-1.886 1.118-1.886 1.108-5.657 0-2.482-.512-4.133-.501-1.652-1.427-2.483a3.11 3.11 0 0 0-2.163-.83q-1.864-.001-2.983 1.864t-1.13 5.582q0 2.514.502 4.198.51 1.673 1.438 2.514.927.83 2.173.83m20.654 3.824q-2.748-.01-4.73-1.353-1.971-1.342-3.036-3.888-1.055-2.546-1.044-6.126 0-3.569 1.055-6.083 1.065-2.513 3.036-3.825 1.981-1.32 4.72-1.32 2.737 0 4.708 1.32 1.982 1.322 3.047 3.836 1.065 2.503 1.055 6.072 0 3.591-1.066 6.137-1.054 2.545-3.025 3.888t-4.72 1.342m0-3.824q1.875 0 2.994-1.886t1.108-5.657q0-2.482-.511-4.133-.501-1.652-1.428-2.483a3.11 3.11 0 0 0-2.163-.83q-1.864-.001-2.983 1.864t-1.129 5.582q0 2.514.5 4.198.512 1.673 1.44 2.514.925.83 2.172.83m20.655 3.824q-2.75-.01-4.73-1.353-1.97-1.342-3.037-3.888-1.054-2.546-1.044-6.126 0-3.569 1.055-6.083 1.065-2.513 3.036-3.825 1.981-1.32 4.72-1.32t4.708 1.32q1.983 1.322 3.047 3.836 1.066 2.503 1.055 6.072 0 3.591-1.065 6.137-1.055 2.545-3.026 3.888t-4.72 1.342m0-3.824q1.875 0 2.993-1.886 1.119-1.886 1.108-5.657 0-2.482-.511-4.133-.501-1.652-1.428-2.483a3.1 3.1 0 0 0-2.162-.83q-1.864-.001-2.983 1.864t-1.13 5.582q0 2.514.501 4.198.511 1.673 1.438 2.514.927.83 2.174.83m20.654 3.824q-2.748-.01-4.73-1.353-1.971-1.342-3.036-3.888-1.055-2.546-1.044-6.126 0-3.569 1.054-6.083 1.066-2.513 3.037-3.825 1.981-1.32 4.719-1.32t4.709 1.32q1.981 1.322 3.047 3.836 1.065 2.503 1.054 6.072 0 3.591-1.065 6.137-1.055 2.545-3.026 3.888t-4.719 1.342m0-3.824q1.875 0 2.994-1.886 1.118-1.886 1.108-5.657 0-2.482-.512-4.133-.5-1.652-1.427-2.483a3.12 3.12 0 0 0-2.163-.83q-1.864-.001-2.983 1.864t-1.129 5.582q0 2.514.5 4.198.512 1.673 1.439 2.514.927.83 2.173.83m20.654 3.824q-2.748-.01-4.73-1.353-1.971-1.342-3.036-3.888-1.054-2.546-1.044-6.126 0-3.569 1.055-6.083 1.065-2.513 3.036-3.825 1.982-1.32 4.719-1.32t4.709 1.32q1.982 1.322 3.047 3.836 1.065 2.503 1.055 6.072 0 3.591-1.066 6.137-1.054 2.545-3.025 3.888t-4.72 1.342m0-3.824q1.875 0 2.994-1.886t1.108-5.657q0-2.482-.512-4.133-.5-1.652-1.427-2.483a3.12 3.12 0 0 0-2.163-.83q-1.864-.001-2.983 1.864t-1.129 5.582q0 2.514.501 4.198.511 1.673 1.438 2.514.927.83 2.173.83"/></mask><path fill="url(#e)" d="M23.098 67.727V40.455h1.747v27.272zm4.634-18.27q-.127-1.29-1.097-2.003t-2.631-.714q-1.13 0-1.907.32-.778.309-1.194.863-.404.553-.404 1.257-.022.585.245 1.022.276.438.756.757.48.309 1.108.543.628.224 1.342.384l1.96.468q1.428.32 2.621.853a8 8 0 0 1 2.067 1.31 5.45 5.45 0 0 1 1.353 1.832q.49 1.056.5 2.419-.01 2.003-1.022 3.473-1.001 1.46-2.898 2.269-1.885.8-4.549.799-2.642 0-4.602-.81-1.95-.81-3.047-2.397-1.086-1.598-1.14-3.952h4.464q.076 1.097.628 1.832.566.724 1.503 1.098.948.362 2.141.362 1.172 0 2.035-.341.873-.341 1.353-.948t.48-1.396q0-.735-.438-1.236-.426-.501-1.257-.852-.82-.35-2.013-.64l-2.376-.596q-2.76-.67-4.357-2.099-1.598-1.427-1.588-3.845-.01-1.981 1.055-3.463 1.076-1.48 2.951-2.312 1.875-.83 4.261-.83 2.43 0 4.24.83 1.823.832 2.834 2.312 1.013 1.481 1.044 3.43zm17.187-6.275V65h-4.613V47.56h-.128l-4.996 3.133v-4.091l5.4-3.42zm13.74 22.297q-2.748-.01-4.73-1.353-1.971-1.342-3.036-3.888-1.055-2.546-1.044-6.126 0-3.569 1.054-6.083 1.065-2.513 3.037-3.825 1.98-1.32 4.72-1.32 2.736 0 4.708 1.32 1.98 1.322 3.047 3.836 1.065 2.503 1.054 6.072 0 3.591-1.065 6.137-1.055 2.545-3.025 3.888t-4.72 1.342m0-3.824q1.875 0 2.994-1.886 1.118-1.886 1.108-5.657 0-2.482-.512-4.133-.501-1.652-1.427-2.483a3.11 3.11 0 0 0-2.163-.83q-1.864-.001-2.983 1.864t-1.13 5.582q0 2.514.502 4.198.51 1.673 1.438 2.514.927.83 2.173.83m20.654 3.824q-2.748-.01-4.73-1.353-1.971-1.342-3.036-3.888-1.055-2.546-1.044-6.126 0-3.569 1.055-6.083 1.065-2.513 3.036-3.825 1.981-1.32 4.72-1.32 2.737 0 4.708 1.32 1.982 1.322 3.047 3.836 1.065 2.503 1.055 6.072 0 3.591-1.066 6.137-1.054 2.545-3.025 3.888t-4.72 1.342m0-3.824q1.875 0 2.994-1.886t1.108-5.657q0-2.482-.511-4.133-.501-1.652-1.428-2.483a3.11 3.11 0 0 0-2.163-.83q-1.864-.001-2.983 1.864t-1.129 5.582q0 2.514.5 4.198.512 1.673 1.44 2.514.925.83 2.172.83m20.655 3.824q-2.75-.01-4.73-1.353-1.97-1.342-3.037-3.888-1.054-2.546-1.044-6.126 0-3.569 1.055-6.083 1.065-2.513 3.036-3.825 1.981-1.32 4.72-1.32t4.708 1.32q1.983 1.322 3.047 3.836 1.066 2.503 1.055 6.072 0 3.591-1.065 6.137-1.055 2.545-3.026 3.888t-4.72 1.342m0-3.824q1.875 0 2.993-1.886 1.119-1.886 1.108-5.657 0-2.482-.511-4.133-.501-1.652-1.428-2.483a3.1 3.1 0 0 0-2.162-.83q-1.864-.001-2.983 1.864t-1.13 5.582q0 2.514.501 4.198.511 1.673 1.438 2.514.927.83 2.174.83m20.654 3.824q-2.748-.01-4.73-1.353-1.971-1.342-3.036-3.888-1.055-2.546-1.044-6.126 0-3.569 1.054-6.083 1.066-2.513 3.037-3.825 1.981-1.32 4.719-1.32t4.709 1.32q1.981 1.322 3.047 3.836 1.065 2.503 1.054 6.072 0 3.591-1.065 6.137-1.055 2.545-3.026 3.888t-4.719 1.342m0-3.824q1.875 0 2.994-1.886 1.118-1.886 1.108-5.657 0-2.482-.512-4.133-.5-1.652-1.427-2.483a3.12 3.12 0 0 0-2.163-.83q-1.864-.001-2.983 1.864t-1.129 5.582q0 2.514.5 4.198.512 1.673 1.439 2.514.927.83 2.173.83m20.654 3.824q-2.748-.01-4.73-1.353-1.971-1.342-3.036-3.888-1.054-2.546-1.044-6.126 0-3.569 1.055-6.083 1.065-2.513 3.036-3.825 1.982-1.32 4.719-1.32t4.709 1.32q1.982 1.322 3.047 3.836 1.065 2.503 1.055 6.072 0 3.591-1.066 6.137-1.054 2.545-3.025 3.888t-4.72 1.342m0-3.824q1.875 0 2.994-1.886t1.108-5.657q0-2.482-.512-4.133-.5-1.652-1.427-2.483a3.12 3.12 0 0 0-2.163-.83q-1.864-.001-2.983 1.864t-1.129 5.582q0 2.514.501 4.198.511 1.673 1.438 2.514.927.83 2.173.83"/><path fill="url(#f)" d="M23.098 67.727h-1v1h1zm0-27.272v-1h-1v1zm1.747 0h1v-1h-1zm0 27.272v1h1v-1zm2.887-18.27-.995.098.09.902h.905zm-5.635-2.397.369.93.01-.005zm-1.194.863-.8-.6-.007.01zM20.5 49.18l.999.036v-.036zm.245 1.022-.854.521.004.008.005.007zm.756.757-.555.832.007.004.006.004zm1.108.543-.35.937.008.003.007.002zm1.342.384.233-.973-.007-.002-.007-.001zm1.96.468-.232.973.007.002.007.001zm2.621.853-.407.913zm2.067 1.31.665-.747zm1.353 1.832-.91.414.003.008zm.5 2.419 1 .005v-.013zM31.43 62.24l-.824-.567v.001zm-2.898 2.269.39.92h.003zm-9.151-.01-.384.923h.002zm-3.047-2.398-.827.563.005.006zm-1.14-3.952v-1H14.17l.023 1.023zm4.464 0 .998-.068-.064-.932h-.934zm.628 1.832-.798.602.005.007.005.006zm1.503 1.098-.37.929.013.005zm4.176.02-.364-.93h-.004zm1.353-.947.785.62zm.042-2.632-.761.648.008.01zm-1.257-.852-.394.92.005.001zm-2.013-.64-.244.97.01.003zm-2.376-.596.244-.97-.008-.001zm-4.357-2.099-.666.746zm-1.588-3.845 1 .004v-.01zm1.055-3.463-.809-.588-.003.004zm11.453-2.312-.418.91h.003zm2.833 2.312-.825.564zm1.044 3.43v1h1.017l-.017-1.016zm-8.055 18.271V40.455h-2v27.272zm-1-26.272h1.747v-2h-1.747zm.747-1v27.272h2V40.455zm1 26.272h-1.747v2h1.747zm3.882-17.369c-.11-1.117-.606-2.052-1.5-2.71l-1.185 1.611c.4.294.635.695.695 1.296zm-1.5-2.71c-.872-.642-1.982-.908-3.223-.908v2c.974 0 1.618.21 2.038.52zm-3.223-.908c-.841 0-1.615.118-2.288.395l.76 1.85c.365-.15.863-.245 1.528-.245zm-2.277.39c-.653.26-1.215.648-1.624 1.193l1.6 1.2c.146-.194.38-.382.763-.534zm-1.631 1.203a3.08 3.08 0 0 0-.597 1.847h2c0-.263.07-.474.212-.667zm-.597 1.81c-.02.557.097 1.098.39 1.58l1.708-1.041c-.06-.1-.107-.242-.1-.466zm.4 1.595c.268.422.624.771 1.046 1.053l1.11-1.664a1.6 1.6 0 0 1-.467-.46zm1.06 1.061c.389.251.825.463 1.3.64l.698-1.874a4.8 4.8 0 0 1-.915-.447zm1.314.645q.69.246 1.459.417l.437-1.951q-.66-.149-1.226-.35zm1.445.414 1.96.469.465-1.945-1.96-.469zm1.974.472q1.34.301 2.432.79l.815-1.826q-1.295-.578-2.81-.915zm2.432.79a7 7 0 0 1 1.81 1.144l1.329-1.494a9 9 0 0 0-2.324-1.477zm1.81 1.144c.478.427.845.924 1.107 1.5l1.82-.828a6.45 6.45 0 0 0-1.598-2.166zm1.11 1.507c.257.553.402 1.214.408 2.005l2-.016c-.008-1.028-.198-1.979-.594-2.832zm.408 1.991c-.007 1.16-.3 2.117-.847 2.912l1.648 1.134c.802-1.165 1.19-2.525 1.199-4.035zm-.848 2.913c-.543.792-1.346 1.438-2.465 1.915l.785 1.84c1.41-.602 2.538-1.47 3.33-2.624zm-2.463 1.914c-1.102.467-2.479.72-4.159.72v2c1.871 0 3.528-.28 4.94-.878zm-4.159.72c-1.661 0-3.06-.255-4.22-.734l-.764 1.849c1.454.6 3.123.885 4.984.885zm-4.218-.733c-1.14-.474-1.996-1.157-2.608-2.042L15.51 62.67c.85 1.23 2.026 2.146 3.485 2.752zM17.16 61.54c-.594-.874-.935-1.993-.967-3.413l-2 .045c.04 1.72.459 3.236 1.313 4.493zm-1.967-2.39h4.464v-2h-4.464zm3.466-.932c.06.886.32 1.693.828 2.366l1.597-1.204c-.231-.307-.39-.722-.43-1.298zm.838 2.379c.496.637 1.148 1.104 1.921 1.412l.74-1.859c-.477-.19-.827-.453-1.084-.782zm1.934 1.417c.764.292 1.601.428 2.498.428v-2c-.694 0-1.284-.106-1.784-.297zm2.498.428c.875 0 1.684-.127 2.402-.411l-.735-1.86c-.432.17-.98.27-1.667.27zm2.398-.41c.713-.278 1.324-.688 1.775-1.26l-1.57-1.239c-.188.238-.48.46-.932.636zm1.775-1.26c.461-.585.694-1.27.694-2.015h-2c0 .305-.087.551-.264.776zm.694-2.015c0-.704-.216-1.357-.683-1.893l-1.507 1.315c.115.132.19.302.19.578zm-.675-1.884c-.416-.488-.982-.851-1.63-1.125l-.778 1.842c.46.195.732.4.885.58zm-1.625-1.123c-.613-.263-1.341-.492-2.173-.692l-.469 1.944c.76.183 1.374.38 1.854.586zm-2.164-.69-2.375-.597-.488 1.94 2.376.597zm-2.383-.598c-1.73-.421-3.018-1.06-3.927-1.873L16.69 54.08c1.22 1.091 2.837 1.85 4.787 2.325zm-3.927-1.873c-.823-.736-1.26-1.73-1.253-3.096l-2-.009c-.009 1.858.613 3.428 1.92 4.596zm-1.253-3.106c-.007-1.129.29-2.072.866-2.873l-1.624-1.168c-.844 1.174-1.25 2.539-1.242 4.052zm.863-2.869c.602-.828 1.438-1.494 2.547-1.985l-.81-1.829c-1.391.617-2.522 1.492-3.355 2.639zm2.547-1.985c1.104-.49 2.383-.745 3.857-.745v-2c-1.708 0-3.27.297-4.667.916zm3.857-.745c1.506 0 2.771.257 3.822.74l.835-1.818c-1.364-.626-2.925-.922-4.658-.922zm3.825.74c1.068.488 1.863 1.147 2.423 1.966l1.651-1.128c-.79-1.155-1.884-2.037-3.244-2.657zm2.423 1.966c.554.812.851 1.761.87 2.883l2-.033c-.025-1.477-.424-2.815-1.219-3.978zm1.87 1.867h-4.422v2h4.421zm12.765-5.275h1v-1h-1zm0 21.818v1h1v-1zm-4.613 0h-1v1h1zm0-17.44h1v-1h-1zm-.128 0v-1h-.287l-.244.153zm-4.996 3.133h-1V52.5l1.53-.96zm0-4.091-.535-.845-.465.294v.55zm5.4-3.42v-1h-.289l-.245.155zm3.337 0V65h2V43.182zm1 20.818h-4.613v2h4.613zm-3.613 1V47.56h-2V65zm-1-18.44h-.128v2h.128zm-.659.153-4.996 3.132 1.062 1.695 4.996-3.132zm-3.465 3.98v-4.091h-2v4.09zm-.465-3.246 5.4-3.42-1.069-1.69-5.401 3.42zm4.866-3.265h4.336v-2h-4.336zm18.076 21.297-.004 1h.004zm-4.73-1.353-.563.827.002.001zm-3.036-3.888-.924.383.001.003zm-1.044-6.126 1 .003v-.003zm1.054-6.083-.92-.39-.002.003zm3.037-3.825.553.833h.001zm9.428 0-.557.831.002.002zm3.047 3.836-.921.39v.001zm1.054 6.072-1-.003v.003zm-1.065 6.137-.922-.386-.002.003zm-3.025 3.888.563.827zm-1.726-4.368.86.51zm1.108-5.657h-1v.003zm-.512-4.133-.957.29.002.006zm-1.427-2.483-.672.741.004.004zm-5.146 1.034-.857-.515zm-1.13 5.582-1-.003v.003zm.502 4.198-.959.285.002.007zm1.438 2.514-.672.74.004.004zm2.177 3.655c-1.664-.006-3.04-.413-4.173-1.18l-1.122 1.655c1.509 1.023 3.286 1.518 5.287 1.525zm-4.171-1.18c-1.13-.769-2.03-1.9-2.677-3.447l-1.845.772c.773 1.847 1.898 3.309 3.396 4.329zm-2.675-3.444c-.64-1.544-.975-3.448-.968-5.74l-2-.006c-.008 2.481.353 4.661 1.12 6.512zm-.968-5.743c0-2.285.338-4.174.977-5.696l-1.845-.774c-.767 1.83-1.132 3.997-1.132 6.47zm.975-5.693c.646-1.524 1.542-2.633 2.67-3.382l-1.108-1.665c-1.501.998-2.629 2.439-3.403 4.267zm2.67-3.382c1.133-.756 2.507-1.154 4.165-1.154v-2c-1.992 0-3.765.484-5.274 1.49zm4.165-1.154c1.659 0 3.027.398 4.152 1.152l1.114-1.661c-1.503-1.008-3.274-1.49-5.266-1.49zm4.154 1.154c1.136.757 2.035 1.87 2.681 3.393l1.841-.78c-.774-1.83-1.906-3.273-3.412-4.277zm2.682 3.394c.643 1.512.981 3.394.974 5.678l2 .006c.008-2.474-.357-4.64-1.134-6.467zm.974 5.681c0 2.3-.341 4.206-.987 5.75l1.845.773c.774-1.85 1.142-4.035 1.142-6.523zm-.989 5.754c-.64 1.546-1.535 2.676-2.664 3.445l1.125 1.653c1.5-1.021 2.621-2.484 3.387-4.333zm-2.664 3.445c-1.124.765-2.494 1.168-4.157 1.168v2c2.002 0 3.778-.49 5.282-1.515zm-4.157-.656c1.669 0 2.964-.876 3.854-2.376l-1.72-1.02c-.602 1.014-1.302 1.396-2.134 1.396zm3.854-2.376c.882-1.487 1.255-3.589 1.248-6.17l-2 .006c.007 2.448-.36 4.117-.968 5.144zm1.248-6.167c0-1.715-.176-3.2-.556-4.43l-1.911.593c.302.973.467 2.243.467 3.837zm-.555-4.424c-.367-1.21-.92-2.222-1.717-2.936l-1.335 1.489c.439.393.838 1.037 1.138 2.028zm-1.713-2.932a4.1 4.1 0 0 0-2.834-1.09v2c.585 0 1.066.186 1.49.571zm-2.834-1.09c-1.658 0-2.95.864-3.84 2.35l1.715 1.028c.6-1 1.297-1.378 2.125-1.378zm-3.84 2.35c-.883 1.471-1.265 3.547-1.272 6.093l2 .006c.007-2.41.378-4.057.987-5.07zm-1.272 6.096c0 1.735.172 3.238.542 4.483l1.917-.57c-.297-1-.46-2.295-.46-3.913zm.544 4.49c.374 1.222.929 2.241 1.722 2.962l1.345-1.48c-.442-.402-.846-1.059-1.154-2.067zm1.727 2.966a4.15 4.15 0 0 0 2.841 1.087v-2a2.15 2.15 0 0 1-1.506-.576zm23.495 3.911-.004 1h.004zm-4.73-1.353-.563.827.002.001zm-3.036-3.888-.924.383.001.003zm-1.044-6.126 1 .003v-.003zm1.055-6.083-.921-.39-.001.003zm3.036-3.825.554.833zm9.428 0-.557.831.002.002zm3.047 3.836-.92.39v.001zm1.055 6.072-1-.003v.003zm-1.066 6.137-.922-.386-.001.003zm-3.025 3.888.563.827zm-1.726-4.368.86.51zm1.108-5.657h-1v.003zm-.511-4.133-.957.29.001.006zm-1.428-2.483-.672.741.004.004zM76.33 48.53l-.857-.515zm-1.129 5.582-1-.003v.003zm.5 4.198-.958.285.003.007zm1.44 2.514-.673.74.004.004zm2.176 3.655c-1.664-.006-3.04-.413-4.173-1.18l-1.122 1.655c1.51 1.023 3.287 1.518 5.287 1.525zm-4.17-1.18c-1.13-.769-2.03-1.9-2.677-3.447l-1.846.772c.773 1.847 1.898 3.309 3.396 4.329zm-2.676-3.444c-.64-1.544-.975-3.448-.968-5.74l-2-.006c-.007 2.481.354 4.661 1.12 6.512zm-.968-5.743c0-2.285.338-4.174.977-5.696l-1.844-.774c-.768 1.83-1.133 3.997-1.133 6.47zm.975-5.693c.646-1.524 1.543-2.633 2.67-3.382l-1.108-1.665c-1.5.998-2.629 2.439-3.403 4.267zm2.67-3.382c1.134-.756 2.507-1.154 4.165-1.154v-2c-1.992 0-3.765.484-5.274 1.49zm4.165-1.154c1.659 0 3.028.398 4.152 1.152l1.114-1.661c-1.503-1.008-3.273-1.49-5.266-1.49zm4.154 1.154c1.136.757 2.036 1.87 2.681 3.393l1.842-.78c-.775-1.83-1.907-3.273-3.413-4.277zm2.682 3.394c.643 1.512.982 3.394.975 5.678l2 .006c.007-2.474-.358-4.64-1.135-6.467zm.975 5.681c0 2.3-.342 4.206-.988 5.75l1.845.773c.774-1.85 1.143-4.035 1.143-6.523zm-.99 5.754c-.64 1.546-1.535 2.676-2.664 3.445l1.126 1.653c1.499-1.021 2.62-2.484 3.386-4.333zM83.47 63.31c-1.124.765-2.493 1.168-4.157 1.168v2c2.002 0 3.779-.49 5.283-1.515zm-4.157-.656c1.669 0 2.964-.876 3.854-2.376l-1.72-1.02c-.602 1.014-1.302 1.396-2.134 1.396zm3.854-2.376c.882-1.487 1.255-3.589 1.248-6.17l-2 .006c.007 2.448-.359 4.117-.968 5.144zm1.248-6.167c0-1.715-.176-3.2-.556-4.43l-1.91.593c.3.973.466 2.243.466 3.837zm-.554-4.424c-.368-1.21-.92-2.222-1.717-2.936l-1.336 1.489c.44.393.838 1.037 1.139 2.028zm-1.713-2.932a4.1 4.1 0 0 0-2.835-1.09v2c.585 0 1.066.186 1.491.571zm-2.835-1.09c-1.658 0-2.95.864-3.84 2.35l1.715 1.028c.6-1 1.298-1.378 2.125-1.378zm-3.84 2.35c-.883 1.471-1.264 3.547-1.272 6.093l2 .006c.007-2.41.379-4.057.987-5.07zM74.2 54.111c0 1.735.172 3.238.542 4.483l1.917-.57c-.297-1-.459-2.295-.459-3.913zm.545 4.49c.373 1.222.928 2.241 1.722 2.962l1.344-1.48c-.441-.402-.846-1.059-1.154-2.067zm1.727 2.966a4.15 4.15 0 0 0 2.84 1.087v-2a2.15 2.15 0 0 1-1.505-.576zm23.495 3.911-.004 1h.004zm-4.73-1.353-.563.827.002.001zM92.2 60.238l-.923.383v.003zm-1.044-6.126 1 .003v-.003zm1.055-6.083-.92-.39-.002.003zm3.036-3.825.554.833zm9.428 0-.556.831.002.002zm3.047 3.836-.92.39v.001zm1.055 6.072-1-.003v.003zm-1.065 6.137-.923-.386-.001.003zm-3.026 3.888.563.827zm-1.726-4.368.86.51zm1.108-5.657h-1v.003zm-.511-4.133-.957.29.002.006zm-1.428-2.483-.671.741.004.004zm-5.145 1.034-.858-.515zm-1.13 5.582-1-.003v.003zm.501 4.198-.958.285.002.007zm1.438 2.514-.672.74.005.004zm2.178 3.655c-1.664-.006-3.04-.413-4.174-1.18l-1.121 1.655c1.509 1.023 3.286 1.518 5.287 1.525zM95.8 63.3c-1.13-.769-2.03-1.9-2.677-3.447l-1.845.772c.773 1.847 1.898 3.309 3.396 4.329zm-2.676-3.444c-.64-1.544-.975-3.448-.968-5.74l-2-.006c-.007 2.481.354 4.661 1.12 6.512zm-.968-5.743c0-2.285.339-4.174.977-5.696l-1.844-.774c-.768 1.83-1.133 3.997-1.133 6.47zm.976-5.693c.646-1.524 1.542-2.633 2.669-3.382l-1.107-1.665c-1.501.998-2.63 2.439-3.404 4.267zm2.67-3.382c1.133-.756 2.506-1.154 4.165-1.154v-2c-1.993 0-3.766.484-5.275 1.49zm4.165-1.154c1.658 0 3.027.398 4.152 1.152l1.113-1.661c-1.503-1.008-3.273-1.49-5.265-1.49zm4.154 1.154c1.135.757 2.035 1.87 2.681 3.393l1.841-.78c-.775-1.83-1.906-3.273-3.413-4.277zm2.681 3.394c.644 1.512.982 3.394.975 5.678l2 .006c.007-2.474-.357-4.64-1.134-6.467zm.975 5.681c0 2.3-.342 4.206-.988 5.75l1.845.773c.774-1.85 1.143-4.035 1.143-6.523zm-.989 5.754c-.641 1.546-1.536 2.676-2.665 3.445l1.126 1.653c1.499-1.021 2.621-2.484 3.387-4.333zm-2.665 3.445c-1.123.765-2.493 1.168-4.156 1.168v2c2.001 0 3.778-.49 5.282-1.515zm-4.156-.656c1.668 0 2.964-.876 3.853-2.376l-1.72-1.02c-.601 1.014-1.302 1.396-2.133 1.396zm3.853-2.376c.883-1.487 1.256-3.589 1.248-6.17l-2 .006c.007 2.448-.359 4.117-.968 5.144zm1.248-6.167c0-1.715-.175-3.2-.556-4.43l-1.91.593c.301.973.466 2.243.466 3.837zm-.554-4.424c-.367-1.21-.92-2.222-1.717-2.936l-1.335 1.489c.439.393.838 1.037 1.138 2.028zm-1.713-2.932a4.1 4.1 0 0 0-2.834-1.09v2c.584 0 1.065.186 1.491.571zm-2.834-1.09c-1.658 0-2.95.864-3.84 2.35l1.714 1.028c.6-1 1.298-1.378 2.126-1.378zm-3.84 2.35c-.884 1.471-1.265 3.547-1.272 6.093l2 .006c.006-2.41.378-4.057.986-5.07zm-1.272 6.096c0 1.735.171 3.238.542 4.483l1.917-.57c-.298-1-.46-2.295-.46-3.913zm.544 4.49c.373 1.222.928 2.241 1.722 2.962l1.345-1.48c-.442-.402-.846-1.059-1.154-2.067zm1.727 2.966a4.15 4.15 0 0 0 2.84 1.087v-2a2.15 2.15 0 0 1-1.505-.576zm23.495 3.911-.004 1h.004zm-4.73-1.353-.563.827.002.001zm-3.036-3.888-.924.383.001.003zm-1.044-6.126 1 .003v-.003zm1.054-6.083-.92-.39-.002.003zm3.037-3.825.553.833h.001zm9.428 0-.557.831.002.002zm3.047 3.836-.921.39.001.001zm1.054 6.072-1-.003v.003zm-1.065 6.137-.923-.386-.001.003zm-3.026 3.888.563.827zm-1.725-4.368.86.51zm1.108-5.657h-1v.003zm-.512-4.133-.957.29.002.006zm-1.427-2.483-.672.741.004.004zm-5.146 1.034-.857-.515zm-1.129 5.582-1-.003v.003zm.5 4.198-.958.285.002.007zm1.439 2.514-.673.74.005.004zm2.177 3.655c-1.664-.006-3.04-.413-4.173-1.18l-1.122 1.655c1.509 1.023 3.286 1.518 5.287 1.525zm-4.171-1.18c-1.13-.769-2.029-1.9-2.677-3.447l-1.845.772c.773 1.847 1.898 3.309 3.396 4.329zm-2.675-3.444c-.64-1.544-.975-3.448-.968-5.74l-2-.006c-.008 2.481.353 4.661 1.12 6.512zm-.968-5.743c0-2.285.338-4.174.976-5.696l-1.844-.774c-.768 1.83-1.132 3.997-1.132 6.47zm.975-5.693c.646-1.524 1.542-2.633 2.669-3.382l-1.107-1.665c-1.501.998-2.629 2.439-3.403 4.267zm2.67-3.382c1.133-.756 2.507-1.154 4.165-1.154v-2c-1.992 0-3.765.484-5.274 1.49zm4.165-1.154c1.658 0 3.027.398 4.152 1.152l1.114-1.661c-1.503-1.008-3.274-1.49-5.266-1.49zm4.154 1.154c1.136.757 2.035 1.87 2.681 3.393l1.841-.78c-.775-1.83-1.906-3.273-3.413-4.277zm2.682 3.394c.643 1.512.981 3.394.974 5.678l2 .006c.008-2.474-.357-4.64-1.134-6.467zm.974 5.681c0 2.3-.341 4.206-.987 5.75l1.845.773c.774-1.85 1.142-4.035 1.142-6.523zm-.989 5.754c-.64 1.546-1.535 2.676-2.664 3.445l1.125 1.653c1.499-1.021 2.621-2.484 3.387-4.333zm-2.664 3.445c-1.124.765-2.494 1.168-4.157 1.168v2c2.002 0 3.778-.49 5.282-1.515zm-4.157-.656c1.669 0 2.964-.876 3.854-2.376l-1.72-1.02c-.602 1.014-1.303 1.396-2.134 1.396zm3.854-2.376c.882-1.487 1.255-3.589 1.248-6.17l-2 .006c.006 2.448-.359 4.117-.968 5.144zm1.248-6.167c0-1.715-.176-3.2-.557-4.43l-1.91.593c.301.973.467 2.243.467 3.837zm-.555-4.424c-.367-1.21-.92-2.222-1.717-2.936l-1.335 1.489c.439.393.838 1.037 1.138 2.028zm-1.713-2.932a4.1 4.1 0 0 0-2.834-1.09v2c.585 0 1.066.186 1.491.571zm-2.834-1.09c-1.658 0-2.95.864-3.84 2.35l1.715 1.028c.6-1 1.297-1.378 2.125-1.378zm-3.84 2.35c-.883 1.471-1.265 3.547-1.272 6.093l2 .006c.007-2.41.378-4.057.987-5.07zm-1.272 6.096c0 1.735.172 3.238.542 4.483l1.917-.57c-.297-1-.459-2.295-.459-3.913zm.544 4.49c.374 1.222.929 2.241 1.722 2.962l1.345-1.48c-.442-.402-.846-1.059-1.154-2.067zm1.727 2.966a4.15 4.15 0 0 0 2.841 1.087v-2a2.15 2.15 0 0 1-1.506-.576zm23.495 3.911-.004 1h.004zm-4.73-1.353-.563.827.002.001zm-3.036-3.888-.924.383.001.003zm-1.044-6.126 1 .003v-.003zm1.055-6.083-.921-.39-.002.003zm3.036-3.825.553.833h.002zm9.428 0-.557.831.002.002zm3.047 3.836-.921.39.001.001zm1.055 6.072-1-.003v.003zm-1.066 6.137-.922-.386-.002.003zm-3.025 3.888.563.827zm-1.726-4.368.86.51zm1.108-5.657h-1v.003zm-.512-4.133-.957.29.002.006zm-1.427-2.483-.672.741.004.004zm-5.146 1.034-.857-.515zm-1.129 5.582-1-.003v.003zm.501 4.198-.959.285.002.007zm1.438 2.514-.672.74.004.004zm2.177 3.655c-1.664-.006-3.04-.413-4.173-1.18l-1.122 1.655c1.509 1.023 3.287 1.518 5.287 1.525zm-4.171-1.18c-1.13-.769-2.029-1.9-2.677-3.447l-1.845.772c.773 1.847 1.898 3.309 3.396 4.329zm-2.675-3.444c-.64-1.544-.975-3.448-.968-5.74l-2-.006c-.007 2.481.354 4.661 1.12 6.512zm-.968-5.743c0-2.285.338-4.174.977-5.696l-1.845-.774c-.767 1.83-1.132 3.997-1.132 6.47zm.975-5.693c.646-1.524 1.543-2.633 2.669-3.382l-1.107-1.665c-1.501.998-2.629 2.439-3.403 4.267zm2.671-3.382c1.133-.756 2.506-1.154 4.164-1.154v-2c-1.992 0-3.765.484-5.274 1.49zm4.164-1.154c1.659 0 3.027.398 4.152 1.152l1.114-1.661c-1.503-1.008-3.274-1.49-5.266-1.49zm4.154 1.154c1.136.757 2.036 1.87 2.681 3.393l1.842-.78c-.775-1.83-1.907-3.273-3.413-4.277zm2.682 3.394c.643 1.512.981 3.394.975 5.678l2 .006c.007-2.474-.358-4.64-1.135-6.467zm.975 5.681c0 2.3-.342 4.206-.988 5.75l1.845.773c.774-1.85 1.143-4.035 1.143-6.523zm-.99 5.754c-.64 1.546-1.535 2.676-2.664 3.445l1.126 1.653c1.498-1.021 2.62-2.484 3.386-4.333zm-2.664 3.445c-1.124.765-2.494 1.168-4.157 1.168v2c2.002 0 3.778-.49 5.283-1.515zm-4.157-.656c1.669 0 2.964-.876 3.854-2.376l-1.72-1.02c-.602 1.014-1.302 1.396-2.134 1.396zm3.854-2.376c.882-1.487 1.255-3.589 1.248-6.17l-2 .006c.007 2.448-.359 4.117-.968 5.144zm1.248-6.167c0-1.715-.176-3.2-.556-4.43l-1.911.593c.302.973.467 2.243.467 3.837zm-.555-4.424c-.367-1.21-.92-2.222-1.717-2.936l-1.335 1.489c.439.393.838 1.037 1.139 2.028zm-1.712-2.932a4.12 4.12 0 0 0-2.835-1.09v2c.585 0 1.066.186 1.491.571zm-2.835-1.09c-1.658 0-2.949.864-3.84 2.35l1.715 1.028c.6-1 1.298-1.378 2.125-1.378zm-3.84 2.35c-.883 1.471-1.265 3.547-1.272 6.093l2 .006c.007-2.41.378-4.057.987-5.07zm-1.272 6.096c0 1.735.172 3.238.542 4.483l1.917-.57c-.297-1-.459-2.295-.459-3.913zm.544 4.49c.374 1.222.929 2.241 1.723 2.962l1.344-1.48c-.442-.402-.846-1.059-1.154-2.067zm1.727 2.966a4.15 4.15 0 0 0 2.841 1.087v-2a2.15 2.15 0 0 1-1.505-.576z" mask="url(#g)"/></g><defs><linearGradient id="a" x1="83.5" x2="83.5" y1="0" y2="81" gradientUnits="userSpaceOnUse"><stop stop-color="#FCF6D1"/><stop offset=".104" stop-color="#BD9457"/><stop offset=".25" stop-color="#E3CA89"/><stop offset=".698" stop-color="#FEE8C8"/><stop offset=".854" stop-color="#4D3A1A"/><stop offset="1" stop-color="#FCF0D1"/></linearGradient><linearGradient id="e" x1="129.5" x2="129" y1="69.5" y2="41" gradientUnits="userSpaceOnUse"><stop offset=".01" stop-color="#FFF0DA"/><stop offset=".042" stop-color="#94641E"/><stop offset=".828" stop-color="#FFF2DB"/><stop offset=".938" stop-color="#EAC885"/><stop offset=".979" stop-color="#FBF5D1"/><stop offset="1" stop-color="#BD9A4B"/><stop offset="1" stop-color="#ECD8A3"/></linearGradient><linearGradient id="f" x1="83" x2="83" y1="36" y2="72" gradientUnits="userSpaceOnUse"><stop stop-color="#FCF6D1"/><stop offset=".104" stop-color="#BD9457"/><stop offset=".25" stop-color="#E3CA89"/><stop offset=".698" stop-color="#FEE8C8"/><stop offset=".854" stop-color="#4D3A1A"/><stop offset="1" stop-color="#FCF0D1"/></linearGradient><radialGradient id="b" cx="0" cy="0" r="1" gradientTransform="rotate(90 -12 28.43)scale(8.42942)" gradientUnits="userSpaceOnUse"><stop stop-color="#fff"/><stop offset="1"/></radialGradient><radialGradient id="c" cx="0" cy="0" r="1" gradientTransform="rotate(90 43.5 108.961)scale(8.42942)" gradientUnits="userSpaceOnUse"><stop stop-color="#fff"/><stop offset="1"/></radialGradient><filter id="d" width="142.904" height="35.273" x="11.193" y="40.454" color-interpolation-filters="sRGB" filterUnits="userSpaceOnUse"><feFlood flood-opacity="0" result="BackgroundImageFix"/><feColorMatrix in="SourceAlpha" result="hardAlpha" values="0 0 0 0 0 0 0 0 0 0 0 0 0 0 0 0 0 0 127 0"/><feOffset dy="4"/><feGaussianBlur stdDeviation="2"/><feComposite in2="hardAlpha" operator="out"/><feColorMatrix values="0 0 0 0 0 0 0 0 0 0 0 0 0 0 0 0 0 0 0.6 0"/><feBlend in2="BackgroundImageFix" result="effect1_dropShadow_153_1257"/><feBlend in="SourceGraphic" in2="effect1_dropShadow_153_1257" result="shape"/></filter></defs></svg>