<svg xmlns="http://www.w3.org/2000/svg" width="127" height="44" fill="none"><rect width="125" height="42" x="1" y="1" fill="url(#a)" stroke="url(#b)" stroke-width="2" rx="6.305"/><path fill="#122135" d="M15.578 19V8.818H22.1v1.546h-4.678v2.765h4.23v1.546h-4.23V19zm17.58-5.09q0 1.645-.616 2.818-.61 1.168-1.67 1.79-1.054.621-2.392.621t-2.396-.621q-1.055-.627-1.67-1.795-.612-1.173-.612-2.814 0-1.646.612-2.814.615-1.173 1.67-1.795 1.06-.621 2.396-.621 1.338 0 2.392.621 1.06.622 1.67 1.795.617 1.17.617 2.814m-1.854 0q0-1.159-.363-1.955-.357-.8-.994-1.208a2.64 2.64 0 0 0-1.467-.412q-.83 0-1.466.412-.636.408-1 1.208-.357.796-.357 1.954t.358 1.959q.362.795.999 1.208.636.408 1.466.408.831 0 1.467-.408.636-.413.994-1.208.363-.801.363-1.959M35.182 19V8.818h1.845v8.636h4.484V19zm8.21 0V8.818h1.845v8.636h4.484V19zm16.911-5.09q0 1.645-.616 2.818-.612 1.168-1.67 1.79-1.054.621-2.392.621t-2.396-.621q-1.055-.627-1.67-1.795-.612-1.173-.612-2.814 0-1.646.611-2.814.617-1.173 1.67-1.795 1.06-.621 2.397-.621 1.338 0 2.391.621 1.06.622 1.67 1.795.617 1.17.617 2.814m-1.854 0q0-1.159-.363-1.955-.358-.8-.994-1.208a2.64 2.64 0 0 0-1.467-.412q-.83 0-1.467.412-.636.408-.999 1.208-.357.796-.358 1.954 0 1.158.358 1.959.363.795 1 1.208.636.408 1.466.408t1.467-.408q.636-.413.994-1.208.363-.801.363-1.959M64.21 19 61.337 8.818h1.983l1.835 7.482h.094l1.959-7.482h1.805l1.963 7.487h.09L72.9 8.818h1.984L72.011 19h-1.82l-2.038-7.144h-.08L66.03 19zM86.614 8.818h1.844v6.652q0 1.094-.516 1.924a3.5 3.5 0 0 1-1.442 1.298q-.93.462-2.173.462-1.248 0-2.177-.462a3.5 3.5 0 0 1-1.442-1.298q-.513-.83-.512-1.924V8.818h1.844v6.498q0 .636.279 1.134.283.497.795.78.512.279 1.213.279t1.213-.279q.517-.284.796-.78a2.3 2.3 0 0 0 .278-1.134zm9.663 2.8a1.36 1.36 0 0 0-.587-1.015q-.511-.363-1.332-.363-.578 0-.99.174a1.47 1.47 0 0 0-.631.472q-.219.299-.224.682 0 .318.144.551.15.234.403.398.254.16.562.269.307.109.621.184l.955.238q.576.134 1.109.363.537.229.959.577.427.348.676.84t.249 1.153q0 .895-.458 1.576-.457.676-1.322 1.06-.86.377-2.083.377-1.188 0-2.063-.368-.87-.367-1.363-1.074-.486-.706-.527-1.72h1.815q.04.532.328.885.289.354.75.527.468.174 1.045.174.601 0 1.054-.179.457-.184.716-.507.258-.328.263-.766a.97.97 0 0 0-.233-.656 1.7 1.7 0 0 0-.642-.437 6 6 0 0 0-.954-.319l-1.159-.298q-1.257-.323-1.988-.98-.726-.66-.726-1.754 0-.9.487-1.576.492-.675 1.338-1.05.844-.377 1.913-.377 1.084 0 1.9.378.82.373 1.287 1.039.468.66.483 1.521zm10.554 7.531q-1.044 0-1.795-.378a2.86 2.86 0 0 1-1.158-1.019 2.7 2.7 0 0 1-.403-1.456q0-.613.249-1.084.253-.473.696-.875a10 10 0 0 1 1.034-.8l1.804-1.229q.398-.258.602-.547.209-.288.209-.676 0-.328-.279-.621-.273-.293-.755-.293-.324-.001-.572.154-.243.149-.383.392a1.06 1.06 0 0 0-.134.517q0 .333.184.677.189.342.487.71.303.369.646.781L112.041 19h-1.949l-3.967-4.544a66 66 0 0 1-.855-1.02 5.4 5.4 0 0 1-.671-1.043 2.7 2.7 0 0 1-.259-1.184q0-.72.333-1.287a2.4 2.4 0 0 1 .93-.9q.601-.328 1.407-.328.805 0 1.382.318t.89.845.313 1.149q0 .72-.358 1.292-.358.567-.994 1.03l-2.058 1.506q-.508.368-.726.745-.219.374-.219.637 0 .402.204.73.203.33.572.528.372.194.87.194.547 0 1.078-.244.532-.249.97-.706.437-.458.696-1.094.258-.64.258-1.422h1.547q0 .965-.214 1.68a4.3 4.3 0 0 1-.552 1.204 3.5 3.5 0 0 1-.716.78q-.12.085-.229.17a7 7 0 0 1-.228.168 3.4 3.4 0 0 1-1.258.716 4.6 4.6 0 0 1-1.407.23M17.915 36V25.818h1.845v8.636h4.484V36zm8.21 0V25.818h6.622v1.546h-4.778v2.765h4.435v1.546h-4.435v2.779h4.818V36zm10.091 0h-1.968l3.584-10.182h2.277L43.699 36h-1.97l-2.719-8.094h-.08zm.065-3.992h5.37v1.481h-5.37zM45.32 36V25.818h3.818q1.173 0 1.968.408.801.408 1.209 1.143.412.732.412 1.706 0 .979-.417 1.7-.412.716-1.218 1.109-.806.387-1.98.387h-2.718v-1.53h2.47q.686 0 1.124-.19.438-.194.646-.562.214-.372.214-.914 0-.543-.214-.925a1.36 1.36 0 0 0-.651-.587q-.438-.204-1.129-.204h-1.69V36zm5.26-4.614L53.1 36h-2.058l-2.476-4.614zm12.492-5.568V36h-1.64l-4.798-6.935h-.084V36h-1.845V25.818h1.65l4.793 6.94h.09v-6.94zm6.043 0h2.257l3.022 7.378h.12l3.023-7.378h2.257V36h-1.77v-6.995h-.095l-2.814 6.965h-1.322l-2.814-6.98h-.094V36h-1.77zM91.18 30.91q0 1.646-.616 2.819-.612 1.168-1.67 1.79-1.054.621-2.392.621t-2.396-.621q-1.055-.627-1.67-1.795-.613-1.173-.612-2.814 0-1.646.611-2.814.617-1.173 1.67-1.795 1.06-.621 2.397-.621 1.338 0 2.391.621 1.06.622 1.67 1.795.618 1.17.617 2.814m-1.854 0q0-1.158-.363-1.954-.358-.8-.994-1.208a2.64 2.64 0 0 0-1.467-.413q-.83 0-1.467.413-.636.408-.999 1.208-.358.796-.358 1.954t.358 1.959q.363.795 1 1.208.636.408 1.466.408t1.467-.408q.636-.413.994-1.208.363-.801.363-1.959M93.204 36V25.818h3.818q1.174 0 1.969.408.8.408 1.208 1.143.413.732.413 1.706 0 .979-.418 1.7-.413.716-1.218 1.109-.806.387-1.979.387h-2.72v-1.53h2.472q.686 0 1.123-.19.438-.194.647-.562.213-.372.213-.914 0-.543-.213-.925a1.36 1.36 0 0 0-.652-.587q-.437-.204-1.128-.204h-1.69V36zm5.26-4.614L100.985 36h-2.059l-2.476-4.614zM102.589 36V25.818h6.623v1.546h-4.778v2.765h4.435v1.546h-4.435v2.779h4.817V36z"/><defs><linearGradient id="a" x1="130.221" x2="6.914" y1="3.729" y2="60.323" gradientUnits="userSpaceOnUse"><stop offset=".01" stop-color="#FFF0DA"/><stop offset=".042" stop-color="#94641E"/><stop offset=".828" stop-color="#FFF2DB"/><stop offset=".938" stop-color="#EAC885"/><stop offset=".979" stop-color="#FBF5D1"/><stop offset="1" stop-color="#BD9A4B"/><stop offset="1" stop-color="#ECD8A3"/></linearGradient><linearGradient id="b" x1="63.5" x2="63.5" y1="0" y2="44" gradientUnits="userSpaceOnUse"><stop stop-color="#FCF6D1"/><stop offset=".104" stop-color="#BD9457"/><stop offset=".25" stop-color="#E3CA89"/><stop offset=".698" stop-color="#FEE8C8"/><stop offset=".854" stop-color="#4D3A1A"/><stop offset="1" stop-color="#FCF0D1"/></linearGradient></defs></svg>