<svg xmlns="http://www.w3.org/2000/svg" width="35" height="25" fill="none"><mask id="c" fill="#fff"><path d="M11.011.727V24h-4.92V5.398h-.136l-5.33 3.34V4.376L6.386.727zm14.463 23.591a10.5 10.5 0 0 1-3.465-.602q-1.66-.591-2.978-1.92-1.317-1.33-2.09-3.523-.762-2.193-.762-5.387.012-2.931.67-5.238.67-2.318 1.91-3.932 1.25-1.614 2.988-2.455Q23.487.41 25.645.41q2.33 0 4.114.91 1.783.897 2.863 2.442a7.4 7.4 0 0 1 1.318 3.466h-4.852q-.285-1.216-1.193-1.909t-2.25-.693q-2.273 0-3.455 1.977-1.17 1.977-1.193 5.375h.16a5.4 5.4 0 0 1 1.408-1.761A6.4 6.4 0 0 1 24.6 9.09a7.3 7.3 0 0 1 2.42-.398q2.07 0 3.683.977a6.93 6.93 0 0 1 2.545 2.66q.932 1.693.932 3.874 0 2.364-1.102 4.205-1.091 1.841-3.057 2.887-1.954 1.034-4.546 1.022m-.022-3.864q1.136 0 2.034-.545a3.9 3.9 0 0 0 1.409-1.477q.51-.931.511-2.091 0-1.16-.511-2.08a3.85 3.85 0 0 0-1.386-1.465q-.887-.546-2.023-.546-.852 0-1.58.318a4 4 0 0 0-1.261.886 4.3 4.3 0 0 0-.841 1.319 4.1 4.1 0 0 0-.307 1.58q0 1.125.512 2.056a4.1 4.1 0 0 0 1.409 1.489q.897.556 2.034.556"/></mask><path fill="url(#a)" d="M11.011.727V24h-4.92V5.398h-.136l-5.33 3.34V4.376L6.386.727zm14.463 23.591a10.5 10.5 0 0 1-3.465-.602q-1.66-.591-2.978-1.92-1.317-1.33-2.09-3.523-.762-2.193-.762-5.387.012-2.931.67-5.238.67-2.318 1.91-3.932 1.25-1.614 2.988-2.455Q23.487.41 25.645.41q2.33 0 4.114.91 1.783.897 2.863 2.442a7.4 7.4 0 0 1 1.318 3.466h-4.852q-.285-1.216-1.193-1.909t-2.25-.693q-2.273 0-3.455 1.977-1.17 1.977-1.193 5.375h.16a5.4 5.4 0 0 1 1.408-1.761A6.4 6.4 0 0 1 24.6 9.09a7.3 7.3 0 0 1 2.42-.398q2.07 0 3.683.977a6.93 6.93 0 0 1 2.545 2.66q.932 1.693.932 3.874 0 2.364-1.102 4.205-1.091 1.841-3.057 2.887-1.954 1.034-4.546 1.022m-.022-3.864q1.136 0 2.034-.545a3.9 3.9 0 0 0 1.409-1.477q.51-.931.511-2.091 0-1.16-.511-2.08a3.85 3.85 0 0 0-1.386-1.465q-.887-.546-2.023-.546-.852 0-1.58.318a4 4 0 0 0-1.261.886 4.3 4.3 0 0 0-.841 1.319 4.1 4.1 0 0 0-.307 1.58q0 1.125.512 2.056a4.1 4.1 0 0 0 1.409 1.489q.897.556 2.034.556"/><path fill="url(#b)" d="M11.011.727h1v-1h-1zm0 23.273v1h1v-1zm-4.92 0h-1v1h1zm0-18.602h1v-1h-1zm-.136 0v-1h-.288l-.244.152zm-5.33 3.34h-1v1.808l1.531-.96zm0-4.363L.09 3.53l-.465.295v.55zM6.386.727v-1h-.29l-.245.155zm3.625 0V24h2V.727zm1 22.273h-4.92v2h4.92zm-3.92 1V5.398h-2V24zm-1-19.602h-.136v2h.136zm-.668.152L.093 7.891l1.063 1.695 5.33-3.341zM1.625 8.74V4.375h-2v4.364zm-.465-3.52L6.92 1.573l-1.07-1.69L.091 3.53zm5.226-3.492h4.625v-2H6.386zm19.088 22.591-.006 1h.002zm-3.465-.602-.336.942h.002zm-2.978-1.92-.71.704zm-2.09-3.523-.945.328.001.004zm-.762-5.387-1-.003v.003zm.67-5.238-.96-.278-.001.003zm1.91-3.932-.791-.613-.003.004zm2.988-2.455.436.9.004-.002zm8.012.057-.454.891.004.002zm2.863 2.443-.82.573.003.004zm1.318 3.466v1h1.126l-.133-1.117zm-4.852 0-.974.228.18.772h.794zm-6.898-.625-.858-.513-.002.004zm-1.193 5.375-1-.006-.007 1.006h1.007zm.16 0v1h.614l.278-.549zm1.408-1.761.635.773zM24.6 9.09l.322.947.006-.002zm6.103.58-.518.855.004.002zm2.375 10.738-.858-.514-.003.004zm-3.057 2.887.468.883h.001zm-2.534-3.387.52.855zm1.409-1.477.877.48zm0-4.17-.879.477.005.008zm-1.386-1.466.524-.852zm-3.603-.228-.4-.916-.006.002zm-1.261.886-.721-.692-.008.008zm-.841 1.319.924.383.002-.005zm.205 3.636-.877.481.004.008zm1.409 1.489-.532.846.005.003zm2.063 3.42a9.5 9.5 0 0 1-3.139-.545l-.667 1.886a11.5 11.5 0 0 0 3.793.66zm-3.137-.544c-.956-.34-1.823-.896-2.603-1.683l-1.42 1.409c.978.985 2.096 1.71 3.352 2.158zm-2.603-1.683c-.752-.759-1.38-1.795-1.857-3.15l-1.887.664c.553 1.569 1.319 2.88 2.324 3.895zm-1.856-3.146c-.46-1.326-.706-3.003-.706-5.059h-2c0 2.202.262 4.116.817 5.715zm-.706-5.055c.007-1.882.223-3.535.632-4.968l-1.923-.549c-.47 1.643-.701 3.483-.709 5.51zm.631-4.964c.419-1.448 1.005-2.641 1.742-3.601l-1.587-1.218c-.914 1.191-1.6 2.62-2.076 4.263zm1.74-3.598c.743-.96 1.62-1.677 2.633-2.166l-.871-1.8c-1.306.63-2.422 1.55-3.344 2.742zm2.637-2.169c1.007-.493 2.153-.75 3.458-.75v-2c-1.574 0-3.027.312-4.338.954zm3.458-.75c1.42 0 2.632.277 3.66.8l.907-1.782C28.862-.26 27.33-.59 25.646-.59zm3.664.802c1.05.529 1.874 1.237 2.493 2.123l1.64-1.145c-.82-1.175-1.906-2.096-3.234-2.764zm2.496 2.127a6.4 6.4 0 0 1 1.142 3.007l1.986-.235a8.4 8.4 0 0 0-1.494-3.925zm2.135 1.89h-4.852v2h4.852zM30.062 7c-.237-1.015-.753-1.86-1.56-2.477l-1.213 1.59c.403.308.683.735.825 1.342zm-1.56-2.477c-.81-.617-1.783-.898-2.857-.898v2c.714 0 1.24.181 1.643.488zm-2.857-.898c-1.873 0-3.348.85-4.313 2.464l1.717 1.026c.61-1.02 1.438-1.49 2.596-1.49zM21.33 6.093c-.904 1.526-1.317 3.514-1.333 5.878l2 .013c.015-2.167.397-3.762 1.054-4.872zm-.333 6.884h.16v-2h-.16zm1.052-.549a4.4 4.4 0 0 1 1.15-1.439l-1.268-1.546a6.4 6.4 0 0 0-1.667 2.083zm1.152-1.44a5.4 5.4 0 0 1 1.72-.95l-.643-1.894a7.4 7.4 0 0 0-2.348 1.3zm1.726-.952a6.3 6.3 0 0 1 2.093-.343v-2a8.3 8.3 0 0 0-2.748.453zm2.093-.343c1.214 0 2.259.285 3.164.833l1.036-1.71c-1.247-.756-2.657-1.123-4.2-1.123zm3.168.835a5.93 5.93 0 0 1 2.183 2.284l1.752-.965a7.93 7.93 0 0 0-2.908-3.035zm2.183 2.284c.53.963.808 2.085.808 3.393h2c0-1.601-.343-3.063-1.056-4.358zm.808 3.393c0 1.413-.328 2.634-.96 3.69l1.716 1.028c.837-1.398 1.244-2.98 1.244-4.718zm-.963 3.694c-.63 1.063-1.51 1.9-2.666 2.514l.94 1.765c1.465-.78 2.622-1.867 3.447-3.26zm-2.664 2.512c-1.134.6-2.482.914-4.073.907l-.009 2c1.864.008 3.546-.36 5.018-1.139zm-4.1-.957c.925 0 1.785-.224 2.553-.69l-1.038-1.71c-.43.261-.925.4-1.515.4zm2.553-.69a4.9 4.9 0 0 0 1.767-1.851l-1.754-.962c-.257.47-.605.832-1.052 1.104zm1.767-1.851c.429-.782.634-1.647.634-2.572h-2c0 .62-.135 1.15-.388 1.61zm.634-2.572c0-.925-.205-1.789-.637-2.565l-1.748.971c.25.45.385.974.385 1.594zm-.632-2.557a4.85 4.85 0 0 0-1.741-1.84l-1.049 1.703c.441.271.782.63 1.032 1.092zm-1.741-1.84c-.763-.47-1.622-.694-2.547-.694v2c.59 0 1.08.14 1.498.397zm-2.547-.694c-.696 0-1.36.13-1.98.402l.801 1.832a2.9 2.9 0 0 1 1.179-.234zm-1.986.404a5 5 0 0 0-1.576 1.108l1.442 1.385q.41-.428.946-.665zm-1.584 1.116a5.3 5.3 0 0 0-1.038 1.624l1.852.757q.24-.584.643-1.011zm-1.035 1.62a5.1 5.1 0 0 0-.384 1.962h2c0-.436.079-.831.23-1.196zm-.384 1.962c0 .908.208 1.76.635 2.538l1.753-.962a3.2 3.2 0 0 1-.388-1.576zm.64 2.546a5.1 5.1 0 0 0 1.749 1.846l1.064-1.693c-.447-.28-.8-.652-1.07-1.131zm1.753 1.85c.77.476 1.633.706 2.562.706v-2c-.586 0-1.08-.14-1.507-.406z" mask="url(#c)"/><defs><linearGradient id="a" x1="30" x2="30" y1="25" y2="0" gradientUnits="userSpaceOnUse"><stop stop-color="#FFF0DA"/><stop offset=".042" stop-color="#94641E"/><stop offset=".828" stop-color="#FFF2DB"/><stop offset=".938" stop-color="#EAC885"/><stop offset=".979" stop-color="#FBF5D1"/><stop offset="1" stop-color="#BD9A4B"/><stop offset="1" stop-color="#ECD8A3"/></linearGradient><linearGradient id="b" x1="17.5" x2="17.5" y1="4.244" y2="21.346" gradientUnits="userSpaceOnUse"><stop stop-color="#FCF6D1"/><stop offset=".104" stop-color="#BD9457"/><stop offset=".25" stop-color="#E3CA89"/><stop offset=".698" stop-color="#FEE8C8"/><stop offset=".854" stop-color="#4D3A1A"/><stop offset="1" stop-color="#FCF0D1"/></linearGradient></defs></svg>