<svg xmlns="http://www.w3.org/2000/svg" width="33" height="24" fill="none"><mask id="c" fill="#fff"><path d="M11.011.727V24h-4.92V5.398h-.136l-5.33 3.34V4.376L6.386.727zM17.463 24l9.648-19.09v-.16H15.872V.727h16.33v4.08L22.542 24z"/></mask><path fill="url(#a)" d="M11.011.727V24h-4.92V5.398h-.136l-5.33 3.34V4.376L6.386.727zM17.463 24l9.648-19.09v-.16H15.872V.727h16.33v4.08L22.542 24z"/><path fill="url(#b)" d="M11.011.727h1v-1h-1zm0 23.273v1h1v-1zm-4.92 0h-1v1h1zm0-18.602h1v-1h-1zm-.136 0v-1h-.288l-.244.152zm-5.33 3.34h-1v1.808l1.531-.96zm0-4.363L.09 3.53l-.465.295v.55zM6.386.727v-1h-.29l-.245.155zm3.625 0V24h2V.727zm1 22.273h-4.92v2h4.92zm-3.92 1V5.398h-2V24zm-1-19.602h-.136v2h.136zm-.668.152L.093 7.891l1.063 1.695 5.33-3.341zM1.625 8.74V4.375h-2v4.364zm-.465-3.52L6.92 1.573l-1.07-1.69L.091 3.53zm5.226-3.492h4.625v-2H6.386zM17.463 24l-.892-.451L15.837 25h1.626zm9.648-19.09.892.45.108-.213V4.91zm0-.16h1v-1h-1zm-11.239 0h-1v1h1zm0-4.023v-1h-1v1zm16.33 0h1v-1h-1zm0 4.08.893.45.107-.213v-.237zM22.542 24v1h.617l.277-.55zm-4.186.451 9.647-19.09-1.785-.903-9.647 19.091zM28.11 4.909V4.75h-2v.16zm-1-1.159H15.872v2h11.239zm-10.239 1V.727h-2V4.75zm-1-3.023h16.33v-2h-16.33zm15.33-1v4.08h2V.727zm.106 3.63L21.65 23.551l1.787.899 9.659-19.194zM22.543 23h-5.08v2h5.08z" mask="url(#c)"/><defs><linearGradient id="a" x1="28.474" x2="28.474" y1="20.462" y2="4.244" gradientUnits="userSpaceOnUse"><stop stop-color="#FFF0DA"/><stop offset=".042" stop-color="#94641E"/><stop offset=".828" stop-color="#FFF2DB"/><stop offset=".938" stop-color="#EAC885"/><stop offset=".979" stop-color="#FBF5D1"/><stop offset="1" stop-color="#BD9A4B"/><stop offset="1" stop-color="#ECD8A3"/></linearGradient><linearGradient id="b" x1="16.5" x2="16.5" y1="4.244" y2="21.346" gradientUnits="userSpaceOnUse"><stop stop-color="#FCF6D1"/><stop offset=".104" stop-color="#BD9457"/><stop offset=".25" stop-color="#E3CA89"/><stop offset=".698" stop-color="#FEE8C8"/><stop offset=".854" stop-color="#4D3A1A"/><stop offset="1" stop-color="#FCF0D1"/></linearGradient></defs></svg>