<svg width="184" height="79" viewBox="0 0 184 79" fill="none" xmlns="http://www.w3.org/2000/svg">
<path d="M176.283 41.3643H7.47314V42.5957H176.283V41.3643Z" fill="url(#paint0_linear_108_8588)"/>
<path d="M176.283 41.3643H7.47314V42.5957H176.283V41.3643Z" fill="url(#paint1_linear_108_8588)"/>
<path d="M7.77148 14.5596V15.7901H83.1324L80.8262 14.5596H7.77148ZM102.928 14.5596L100.623 15.7901H176.273V14.5596H102.928Z" fill="url(#paint2_linear_108_8588)"/>
<path d="M79.7313 66.8554C78.8809 66.6598 78.0519 66.1841 77.3129 65.7213C77.6838 65.4598 78.0779 65.2354 78.5007 65.062C81.099 64.0132 82.4863 64.9016 82.5493 65.7899C82.592 66.3918 82.0282 66.9927 80.8227 66.9927C80.5037 66.9927 80.1402 66.9509 79.7313 66.8554ZM101.206 65.7899C101.27 64.9016 102.658 64.0132 105.259 65.062C105.677 65.2354 106.076 65.4608 106.442 65.7213C105.705 66.1841 104.874 66.6588 104.023 66.8554C103.614 66.9509 103.25 66.9927 102.931 66.9927C101.726 66.9927 101.162 66.3918 101.206 65.7899ZM65.3302 67.5908C60.8681 67.4804 60.2857 63.0553 64.1108 61.6384C66.7481 60.649 70.3553 62.46 72.5493 63.8695C72.2442 64.0763 71.9382 64.2868 71.6331 64.501C70.1912 65.5043 67.1932 67.5926 65.3979 67.5926C65.3757 67.5917 65.3534 67.5917 65.3302 67.5908ZM112.12 64.501C111.818 64.2868 111.512 64.0763 111.205 63.8695C113.397 62.46 117.008 60.6499 119.645 61.6384C123.472 63.0563 122.886 67.4804 118.424 67.5908C118.402 67.5917 118.379 67.5917 118.356 67.5917C116.563 67.5917 113.568 65.5034 112.12 64.501ZM110.232 63.2417L110.214 63.2324C108.323 62.0984 106.157 61.1265 103.942 60.7927C102.456 60.5702 100.859 60.6295 99.4754 61.2434C97.9119 61.9407 96.6193 63.4012 96.7231 65.1362C96.8558 67.2875 98.7196 69.2488 101.867 69.2033C102.299 69.1904 102.247 68.8463 101.906 68.8519C98.0251 69.0837 95.6948 64.1032 99.5755 62.1679C100.79 61.6273 102.322 61.6273 103.621 61.8257C105.596 62.1243 107.535 62.9255 109.255 63.8964C108.951 64.0986 108.646 64.3007 108.339 64.5029L107.88 64.8061C106.575 64.1134 105.251 63.6432 103.886 63.6154C103.092 63.5347 102.296 63.6618 101.599 64.1551C101.117 64.4964 100.767 64.9813 100.702 65.5591C100.687 65.6666 100.693 65.7751 100.693 65.8836V65.8966L100.702 65.9671V65.9726C100.777 66.6922 101.198 67.2263 101.853 67.5509C103.707 68.4801 105.69 67.3413 107.268 66.44C109.043 68.3465 109.112 72.0836 106.676 73.7202C104.782 74.9906 102.307 74.5956 100.29 73.7926C97.1135 72.5296 94.7536 69.5335 92.4214 67.1327L94.3298 65.1649L91.8771 62.638L89.4253 65.1649L91.3346 67.1327C89.0024 69.5335 86.6424 72.5296 83.4683 73.7926C81.4458 74.5956 78.9709 74.9906 77.0773 73.7202C74.6441 72.0836 74.7127 68.3465 76.4885 66.44C78.0667 67.3423 80.0484 68.4801 81.9011 67.5509C82.554 67.2263 82.9796 66.6922 83.0547 65.9726L83.0575 65.9671L83.0621 65.8966V65.8836C83.0621 65.7751 83.0668 65.6666 83.0547 65.5591C82.9861 64.9813 82.6384 64.4964 82.1543 64.1551C81.4597 63.6618 80.6651 63.5347 79.8722 63.6154C78.5054 63.6432 77.1812 64.1134 75.8774 64.8061L75.4147 64.5029C75.1096 64.3007 74.8045 64.0986 74.4985 63.8964C76.2205 62.9246 78.1595 62.1243 80.1346 61.8257C81.4329 61.6282 82.962 61.6282 84.1814 62.1679C88.0612 64.1023 85.729 69.0837 81.8492 68.8519C81.5061 68.8473 81.4542 69.1904 81.8863 69.2033C85.0336 69.2488 86.903 67.2875 87.0291 65.1362C87.1348 63.4012 85.8403 61.9407 84.2787 61.2434C82.8952 60.6295 81.2984 60.5692 79.8147 60.7927C77.5975 61.1265 75.4323 62.0984 73.5424 63.2324L73.5239 63.2417C67.4315 58.927 63.0268 60.1584 58.343 61.3908C54.006 62.5314 49.4298 63.6729 43.0527 60.407C50.0038 66.9315 58.3783 62.5889 62.1005 61.8072C61.7833 62.141 61.5255 62.5249 61.3391 62.9635C60.9358 63.9159 60.9469 64.9971 61.3818 65.9374C62.1515 67.613 63.9198 68.3502 65.7336 68.4059C67.8803 68.4717 70.5593 66.5346 72.2665 65.3476C72.6754 65.062 73.0844 64.7746 73.5016 64.5029C73.9338 64.7912 74.3659 65.0796 74.8026 65.3662L74.8499 65.394C69.3826 68.7555 64.2073 75.0444 57.8284 67.6158C59.1359 71.7488 63.4729 72.9654 66.329 72.2143C69.7581 71.312 72.2989 68.5719 75.1124 66.4344C72.1348 70.5183 74.7442 75.6639 79.9408 75.573C81.2891 75.5489 82.6272 75.1242 83.8068 74.6512C86.7278 73.4773 89.7294 70.1779 91.8761 67.7382C94.0247 70.1779 97.0264 73.4773 99.9483 74.6512C101.125 75.1242 102.468 75.5489 103.811 75.573C109.01 75.6639 111.618 70.5183 108.644 66.4344C111.456 68.5719 113.996 71.312 117.422 72.2143C120.278 72.9663 124.617 71.7488 125.922 67.6158C119.544 75.0444 114.369 68.7545 108.904 65.394L108.951 65.3662C109.386 65.0796 109.819 64.7912 110.252 64.5029C110.668 64.7746 111.079 65.062 111.49 65.3476C113.195 66.5346 115.877 68.4717 118.019 68.4059C119.835 68.3493 121.603 67.6121 122.373 65.9374C122.805 64.9962 122.82 63.9149 122.415 62.9635C122.23 62.5258 121.971 62.141 121.656 61.8072C125.374 62.5889 133.751 66.9315 140.704 60.407C134.326 63.6729 129.75 62.5323 125.412 61.3908C123.205 60.8103 121.059 60.2298 118.771 60.2298C116.203 60.2298 113.454 60.9606 110.232 63.2417Z" fill="url(#paint3_linear_108_8588)"/>
<path d="M88.1958 10.4846L91.8772 12.5794L95.5595 10.4846L91.8772 8.39355L88.1958 10.4846Z" fill="url(#paint4_linear_108_8588)"/>
<path d="M116.86 3.03503C116.646 3.00443 116.43 2.99052 116.214 2.99052C114.563 2.99052 112.879 3.82881 111.557 4.71902C109.228 6.28801 101.89 10.5425 99.4859 11.9918C97.6832 13.0768 95.862 14.1543 94.0241 15.1855L91.8774 13.967L89.7307 15.1855C87.8946 14.1543 86.0743 13.0768 84.2735 11.9918C81.8643 10.5425 74.5275 6.28801 72.1982 4.71902C70.707 3.71289 68.7504 2.77168 66.8949 3.03503C64.7955 3.32806 63.3693 5.25129 63.6679 7.34699C63.9313 9.2016 65.6171 10.6992 67.4439 10.7697C69.1279 10.8309 70.8304 9.57252 71.549 8.25297C71.8384 7.74573 71.716 7.60942 71.2866 8.03227C70.3936 8.91042 68.7106 9.30916 67.4346 9.15894C66.6881 9.07177 65.9222 8.75742 65.3676 8.24277C63.6067 6.60237 64.7055 4.30729 67.0303 4.33604C68.5288 4.35273 70.1349 5.15856 71.358 5.96995C73.7226 7.53987 81.0595 11.8194 83.4927 13.2827C85.0478 14.2174 86.6168 15.1521 88.2043 16.0534L88.195 16.059L91.8774 18.151L95.5597 16.059L95.5532 16.0534C97.1389 15.1521 98.7088 14.2174 100.264 13.2827C102.695 11.8194 110.033 7.53894 112.398 5.96995C113.62 5.15856 115.226 4.3518 116.726 4.33604C119.049 4.30729 120.147 6.60237 118.389 8.24277C117.837 8.75742 117.069 9.0727 116.324 9.15894C115.047 9.30916 113.361 8.91042 112.468 8.03227C112.041 7.60942 111.919 7.74573 112.21 8.25297C112.926 9.57252 114.629 10.8309 116.31 10.7697C118.143 10.6992 119.826 9.20067 120.09 7.34699C120.386 5.25129 118.96 3.32899 116.86 3.03503Z" fill="url(#paint5_linear_108_8588)"/>
<path d="M56.5109 23.6314V23.9476L58.4295 24.6004V30.9497L51.8429 23.6305H48.2626V23.9467L49.7268 24.5995V33.7186L48.2626 34.3714V34.708H52.8518V34.3714L50.9332 33.6991V26.736L58.232 34.7869H59.6359V24.6014L61.0798 23.9485V23.6323H56.5109V23.6314ZM67.0349 24.6403H67.7072C69.1445 24.6403 70.2257 25.0326 70.9509 25.8171C71.676 26.6016 72.0386 27.7125 72.0386 29.1507C72.0386 30.5621 71.6862 31.673 70.9806 32.4834C70.2749 33.2948 69.2493 33.7001 67.9047 33.7001H67.034V24.6403H67.0349ZM62.6831 23.6314V23.9476L64.1473 24.6004V33.739L62.6831 34.3918V34.708H68.5186C69.8112 34.708 70.9444 34.4512 71.9209 33.9365C72.8964 33.4219 73.6577 32.7097 74.2057 31.8C74.7528 30.8903 75.0264 29.8416 75.0264 28.6546C75.0264 27.6791 74.776 26.8148 74.2743 26.0637C73.7727 25.3117 73.0484 24.7182 72.0989 24.2833C71.1493 23.8484 69.9948 23.6305 68.6373 23.6305H62.6831V23.6314ZM95.6375 23.6314V23.9476L97.1008 24.6004V33.739L95.6375 34.3918V34.708H105.666V31.1472H105.35L103.985 33.6991H99.9894V29.4465H102.541L103.451 30.8505H103.748V27.0921H103.451L102.541 28.5164H99.9894V24.6394H103.589L104.875 26.5978H105.192V23.6305H95.6375V23.6314ZM107.565 23.6314V23.9476L109.03 24.6004V33.739L107.565 34.3918V34.708H117.357V30.4749H117.041L115.557 33.6991H111.917V24.6014L113.539 23.9485V23.6323H107.565V23.6314ZM119.176 23.6314V23.9476L120.64 24.6004V33.739L119.176 34.3918V34.708H128.968V30.4749H128.651L127.168 33.6991H123.528V24.6014L125.15 23.9485V23.6323H119.176V23.6314ZM156.878 23.6314V23.9476L158.184 24.6004V33.739L156.878 34.3918V34.708H162.496V34.3918L161.072 33.739V24.6014L162.496 23.9485V23.6323H156.878V23.6314ZM39.7768 26.302L41.3588 30.0799H38.2143L39.7768 26.302ZM26.9587 24.542H27.5123C28.9237 24.542 29.6294 25.2282 29.6294 26.5988C29.6294 27.2451 29.4615 27.7625 29.1249 28.1511C28.7883 28.5405 28.2709 28.7344 27.5726 28.7344H26.9597V24.542H26.9587ZM39.8167 23.5331L35.4055 33.8188L34.5163 34.3251L33.3682 33.7594L30.3221 28.9133C31.7993 28.3987 32.5374 27.5353 32.5374 26.3224C32.5374 25.4916 32.1915 24.836 31.4988 24.3547C30.807 23.8734 29.8603 23.6323 28.6603 23.6323H22.6078V23.9485L24.072 24.6014V33.7399L22.6078 34.3928V34.709H28.2254V34.3928L26.9597 33.7205V29.6644H27.6913L30.5595 34.708H34.3966H38.0762V34.3918L36.6713 33.7984L37.7989 31.0888H41.7946L42.9222 33.7984L41.5183 34.3918V34.708H47.0571V34.3918L45.8312 33.6991L41.4988 23.5322H39.8167V23.5331ZM135.436 26.302L137.018 30.0799H133.873L135.436 26.302ZM135.475 23.5331L131.064 33.8188L130.055 34.3928V34.709H133.735V34.3928L132.33 33.7993L133.458 31.0897H137.453L138.581 33.7993L137.177 34.3928V34.709H142.716V34.3928L141.49 33.7001L137.157 23.5331H135.475ZM147.641 23.8391C146.85 24.1229 146.15 24.5318 145.544 25.0659C144.938 25.6001 144.463 26.2334 144.12 26.9651C143.777 27.6967 143.605 28.5053 143.605 29.3881C143.605 30.4823 143.872 31.4449 144.406 32.2757C144.94 33.1066 145.659 33.7529 146.562 34.2147C147.465 34.6765 148.477 34.9074 149.598 34.9074C150.165 34.9074 150.732 34.8481 151.299 34.7294C151.865 34.6107 152.397 34.4456 152.891 34.2351C153.385 34.0246 153.791 33.7798 154.108 33.5035V30.754L155.373 29.963V29.6663H149.775V29.963L151.278 30.7345V33.7613C150.922 33.8401 150.566 33.88 150.21 33.88C149.036 33.88 148.127 33.4413 147.48 32.5641C146.834 31.6869 146.511 30.5305 146.511 29.0923C146.511 28.1696 146.662 27.3555 146.966 26.6498C147.27 25.9441 147.708 25.3905 148.282 24.9881C148.856 24.5856 149.545 24.3844 150.349 24.3844C150.731 24.3844 151.064 24.427 151.348 24.5133C151.632 24.5995 151.952 24.7544 152.308 24.9778L153.752 27.1932H154.088L153.91 24.2258C153.422 24.0014 152.898 23.8104 152.337 23.6518C151.776 23.4932 151.055 23.4144 150.171 23.4144C149.276 23.4144 148.433 23.5563 147.641 23.8391ZM168.906 33.2058C168.418 32.7579 168.035 32.1376 167.758 31.3466C167.481 30.5556 167.343 29.6524 167.343 28.637C167.343 27.8061 167.458 27.0745 167.689 26.4411C167.92 25.8078 168.243 25.3135 168.658 24.9575C169.073 24.6014 169.558 24.4233 170.112 24.4233C170.731 24.4233 171.282 24.6477 171.763 25.0956C172.245 25.5444 172.62 26.1611 172.891 26.9456C173.161 27.7301 173.296 28.6305 173.296 29.6459C173.296 30.8857 173.055 31.9011 172.574 32.6921C172.093 33.4831 171.43 33.879 170.586 33.879C169.953 33.8781 169.393 33.6537 168.906 33.2058ZM167.234 24.1461C166.343 24.6477 165.641 25.333 165.127 26.2028C164.612 27.0736 164.355 28.0556 164.355 29.1507C164.355 30.2588 164.612 31.2446 165.127 32.1079C165.641 32.9721 166.343 33.6546 167.234 34.1554C168.124 34.657 169.148 34.9074 170.309 34.9074C171.47 34.9074 172.498 34.657 173.396 34.1554C174.292 33.6546 174.998 32.9721 175.512 32.1079C176.026 31.2446 176.283 30.2588 176.283 29.1507C176.283 28.0565 176.026 27.0736 175.512 26.2028C174.997 25.3321 174.292 24.6468 173.396 24.1461C172.499 23.6453 171.47 23.394 170.309 23.394C169.149 23.394 168.124 23.6453 167.234 24.1461ZM86.4192 28.458H87.7842C88.8256 28.458 89.6268 28.6657 90.1878 29.0812C90.7479 29.4966 91.0288 30.1392 91.0288 31.01C91.0288 31.775 90.7553 32.4018 90.2082 32.8896C89.6611 33.3774 88.8988 33.6212 87.9233 33.6212H86.4202V28.458H86.4192ZM86.4192 22.7412H87.0915C89.0166 22.7412 89.9791 23.5526 89.9791 25.1744C89.9791 25.8866 89.7353 26.4504 89.2475 26.8658C88.7597 27.2813 88.08 27.489 87.2102 27.489H86.4192V22.7412ZM81.7512 21.6535V21.9697L83.4324 22.7811V33.5814L81.7512 34.3928V34.709H88.5557C89.637 34.709 90.6032 34.5439 91.4535 34.2147C92.3039 33.8855 92.9734 33.433 93.4612 32.8599C93.9489 32.2859 94.1928 31.6368 94.1928 30.9117C94.1928 30.0409 93.8265 29.3195 93.0949 28.7455C92.3632 28.1715 91.3571 27.7996 90.0784 27.6281C91.0279 27.4037 91.7558 27.0086 92.264 26.4411C92.7712 25.8746 93.0253 25.2542 93.0253 24.5819C93.0253 23.9226 92.8111 23.3783 92.3827 22.9498C91.9543 22.5214 91.3673 22.1978 90.6227 21.9808C89.8771 21.7629 89.0305 21.6544 88.0809 21.6544H81.7512V21.6535ZM12.4001 21.9697C11.5034 22.3128 10.705 22.8005 10.0067 23.4339C9.30754 24.0672 8.76043 24.8091 8.36447 25.6594C7.96851 26.5098 7.771 27.4426 7.771 28.458C7.771 29.3816 7.94533 30.2357 8.29492 31.0192C8.64451 31.8037 9.13228 32.4862 9.75913 33.0667C10.3851 33.6472 11.1111 34.0988 11.9355 34.4215C12.7599 34.7442 13.6464 34.9065 14.5959 34.9065C15.1625 34.9065 15.7597 34.8369 16.3866 34.6988C17.0125 34.5606 17.6134 34.3696 18.1865 34.1248C18.7605 33.8809 19.251 33.5879 19.6599 33.2448V30.04L21.1436 29.0904V28.7742H14.9326V29.0904L16.6926 30.0205V33.6797C16.4283 33.7325 16.1649 33.7687 15.9016 33.7881C15.6373 33.8076 15.3934 33.8178 15.1699 33.8178C14.365 33.8178 13.6371 33.5869 12.9843 33.1251C12.3315 32.6633 11.814 32.0077 11.432 31.1565C11.049 30.3061 10.858 29.287 10.858 28.1001C10.858 26.966 11.0555 25.9738 11.4515 25.1234C11.8474 24.2731 12.3806 23.6101 13.0538 23.1353C13.7261 22.6605 14.4782 22.4231 15.309 22.4231C15.731 22.4231 16.1065 22.4658 16.4366 22.552C16.7658 22.6383 17.1089 22.7931 17.465 23.0166L19.3641 25.8848H19.7202L19.5023 22.4037C19.1193 22.2191 18.7336 22.0541 18.345 21.9094C17.9556 21.7647 17.5142 21.6525 17.0199 21.5728C16.5257 21.494 15.9285 21.4541 15.2293 21.4541C14.2399 21.456 13.2968 21.6275 12.4001 21.9697Z" fill="url(#paint6_linear_108_8588)"/>
<path d="M56.5109 23.6314V23.9476L58.4295 24.6004V30.9497L51.8429 23.6305H48.2626V23.9467L49.7268 24.5995V33.7186L48.2626 34.3714V34.708H52.8518V34.3714L50.9332 33.6991V26.736L58.232 34.7869H59.6359V24.6014L61.0798 23.9485V23.6323H56.5109V23.6314ZM67.0349 24.6403H67.7072C69.1445 24.6403 70.2257 25.0326 70.9509 25.8171C71.676 26.6016 72.0386 27.7125 72.0386 29.1507C72.0386 30.5621 71.6862 31.673 70.9806 32.4834C70.2749 33.2948 69.2493 33.7001 67.9047 33.7001H67.034V24.6403H67.0349ZM62.6831 23.6314V23.9476L64.1473 24.6004V33.739L62.6831 34.3918V34.708H68.5186C69.8112 34.708 70.9444 34.4512 71.9209 33.9365C72.8964 33.4219 73.6577 32.7097 74.2057 31.8C74.7528 30.8903 75.0264 29.8416 75.0264 28.6546C75.0264 27.6791 74.776 26.8148 74.2743 26.0637C73.7727 25.3117 73.0484 24.7182 72.0989 24.2833C71.1493 23.8484 69.9948 23.6305 68.6373 23.6305H62.6831V23.6314ZM95.6375 23.6314V23.9476L97.1008 24.6004V33.739L95.6375 34.3918V34.708H105.666V31.1472H105.35L103.985 33.6991H99.9894V29.4465H102.541L103.451 30.8505H103.748V27.0921H103.451L102.541 28.5164H99.9894V24.6394H103.589L104.875 26.5978H105.192V23.6305H95.6375V23.6314ZM107.565 23.6314V23.9476L109.03 24.6004V33.739L107.565 34.3918V34.708H117.357V30.4749H117.041L115.557 33.6991H111.917V24.6014L113.539 23.9485V23.6323H107.565V23.6314ZM119.176 23.6314V23.9476L120.64 24.6004V33.739L119.176 34.3918V34.708H128.968V30.4749H128.651L127.168 33.6991H123.528V24.6014L125.15 23.9485V23.6323H119.176V23.6314ZM156.878 23.6314V23.9476L158.184 24.6004V33.739L156.878 34.3918V34.708H162.496V34.3918L161.072 33.739V24.6014L162.496 23.9485V23.6323H156.878V23.6314ZM39.7768 26.302L41.3588 30.0799H38.2143L39.7768 26.302ZM26.9587 24.542H27.5123C28.9237 24.542 29.6294 25.2282 29.6294 26.5988C29.6294 27.2451 29.4615 27.7625 29.1249 28.1511C28.7883 28.5405 28.2709 28.7344 27.5726 28.7344H26.9597V24.542H26.9587ZM39.8167 23.5331L35.4055 33.8188L34.5163 34.3241L33.3682 33.7594L30.3221 28.9133C31.7993 28.3987 32.5374 27.5353 32.5374 26.3224C32.5374 25.4916 32.1915 24.836 31.4988 24.3547C30.807 23.8734 29.8603 23.6323 28.6603 23.6323H22.6078V23.9485L24.072 24.6014V33.7399L22.6078 34.3928V34.709H28.2254V34.3928L26.9597 33.7205V29.6644H27.6913L30.5595 34.708H34.3966H38.0762V34.3918L36.6713 33.7984L37.7989 31.0888H41.7946L42.9222 33.7984L41.5183 34.3918V34.708H47.0571V34.3918L45.8312 33.6991L41.4988 23.5322H39.8167V23.5331ZM135.436 26.302L137.018 30.0799H133.873L135.436 26.302ZM135.475 23.5331L131.064 33.8188L130.055 34.3928V34.709H133.735V34.3928L132.33 33.7993L133.458 31.0897H137.453L138.581 33.7993L137.177 34.3928V34.709H142.716V34.3928L141.49 33.7001L137.157 23.5331H135.475ZM147.641 23.8391C146.85 24.1229 146.15 24.5318 145.544 25.0659C144.938 25.6001 144.463 26.2334 144.12 26.9651C143.777 27.6967 143.605 28.5053 143.605 29.3881C143.605 30.4823 143.872 31.4449 144.406 32.2757C144.94 33.1066 145.659 33.7529 146.562 34.2147C147.465 34.6765 148.477 34.9074 149.598 34.9074C150.165 34.9074 150.732 34.8481 151.299 34.7294C151.865 34.6107 152.397 34.4456 152.891 34.2351C153.385 34.0246 153.791 33.7798 154.108 33.5035V30.754L155.373 29.963V29.6663H149.775V29.963L151.278 30.7345V33.7613C150.922 33.8401 150.566 33.88 150.21 33.88C149.036 33.88 148.127 33.4413 147.48 32.5641C146.834 31.6869 146.511 30.5305 146.511 29.0923C146.511 28.1696 146.662 27.3555 146.966 26.6498C147.27 25.9441 147.708 25.3905 148.282 24.9881C148.856 24.5856 149.545 24.3844 150.349 24.3844C150.731 24.3844 151.064 24.427 151.348 24.5133C151.632 24.5995 151.952 24.7544 152.308 24.9778L153.752 27.1932H154.088L153.91 24.2258C153.422 24.0014 152.898 23.8104 152.337 23.6518C151.776 23.4932 151.055 23.4144 150.171 23.4144C149.276 23.4144 148.433 23.5563 147.641 23.8391ZM168.906 33.2058C168.418 32.7579 168.035 32.1376 167.758 31.3466C167.481 30.5556 167.343 29.6524 167.343 28.637C167.343 27.8061 167.458 27.0745 167.689 26.4411C167.92 25.8078 168.243 25.3135 168.658 24.9575C169.073 24.6014 169.558 24.4233 170.112 24.4233C170.731 24.4233 171.282 24.6477 171.763 25.0956C172.245 25.5444 172.62 26.1611 172.891 26.9456C173.161 27.7301 173.296 28.6305 173.296 29.6459C173.296 30.8857 173.055 31.9011 172.574 32.6921C172.093 33.4831 171.43 33.879 170.586 33.879C169.953 33.8781 169.393 33.6537 168.906 33.2058ZM167.234 24.1461C166.343 24.6477 165.641 25.333 165.127 26.2028C164.612 27.0736 164.355 28.0556 164.355 29.1507C164.355 30.2588 164.612 31.2446 165.127 32.1079C165.641 32.9721 166.343 33.6546 167.234 34.1554C168.124 34.657 169.148 34.9074 170.309 34.9074C171.47 34.9074 172.498 34.657 173.396 34.1554C174.292 33.6546 174.998 32.9721 175.512 32.1079C176.026 31.2446 176.283 30.2588 176.283 29.1507C176.283 28.0565 176.026 27.0736 175.512 26.2028C174.997 25.3321 174.292 24.6468 173.396 24.1461C172.499 23.6453 171.47 23.394 170.309 23.394C169.149 23.394 168.124 23.6453 167.234 24.1461ZM86.4192 28.458H87.7842C88.8256 28.458 89.6268 28.6657 90.1878 29.0812C90.7479 29.4966 91.0288 30.1392 91.0288 31.01C91.0288 31.775 90.7553 32.4018 90.2082 32.8896C89.6611 33.3774 88.8988 33.6212 87.9233 33.6212H86.4202V28.458H86.4192ZM86.4192 22.7412H87.0915C89.0166 22.7412 89.9791 23.5526 89.9791 25.1744C89.9791 25.8866 89.7353 26.4504 89.2475 26.8658C88.7597 27.2813 88.08 27.489 87.2102 27.489H86.4192V22.7412ZM81.7512 21.6535V21.9697L83.4324 22.7811V33.5814L81.7512 34.3928V34.709H88.5557C89.637 34.709 90.6032 34.5439 91.4535 34.2147C92.3039 33.8855 92.9734 33.433 93.4612 32.8599C93.9489 32.2859 94.1928 31.6368 94.1928 30.9117C94.1928 30.0409 93.8265 29.3195 93.0949 28.7455C92.3632 28.1715 91.3571 27.7996 90.0784 27.6281C91.0279 27.4037 91.7558 27.0086 92.264 26.4411C92.7712 25.8746 93.0253 25.2542 93.0253 24.5819C93.0253 23.9226 92.8111 23.3783 92.3827 22.9498C91.9543 22.5214 91.3673 22.1978 90.6227 21.9808C89.8771 21.7629 89.0305 21.6544 88.0809 21.6544H81.7512V21.6535ZM12.4001 21.9697C11.5034 22.3128 10.705 22.8005 10.0067 23.4339C9.30754 24.0672 8.76043 24.8091 8.36447 25.6594C7.96851 26.5098 7.771 27.4426 7.771 28.458C7.771 29.3816 7.94533 30.2357 8.29492 31.0192C8.64451 31.8037 9.13228 32.4862 9.75913 33.0667C10.3851 33.6472 11.1111 34.0988 11.9355 34.4215C12.7599 34.7442 13.6464 34.9065 14.5959 34.9065C15.1625 34.9065 15.7597 34.8369 16.3866 34.6988C17.0125 34.5606 17.6134 34.3696 18.1865 34.1248C18.7605 33.8809 19.251 33.5879 19.6599 33.2448V30.04L21.1436 29.0904V28.7742H14.9326V29.0904L16.6926 30.0205V33.6797C16.4283 33.7325 16.1649 33.7687 15.9016 33.7881C15.6373 33.8076 15.3934 33.8178 15.1699 33.8178C14.365 33.8178 13.6371 33.5869 12.9843 33.1251C12.3315 32.6633 11.814 32.0077 11.432 31.1565C11.049 30.3061 10.858 29.287 10.858 28.1001C10.858 26.966 11.0555 25.9738 11.4515 25.1234C11.8474 24.2731 12.3806 23.6101 13.0538 23.1353C13.7261 22.6605 14.4782 22.4231 15.309 22.4231C15.731 22.4231 16.1065 22.4658 16.4366 22.552C16.7658 22.6383 17.1089 22.7931 17.465 23.0166L19.3641 25.8848H19.7202L19.5023 22.4037C19.1193 22.2191 18.7336 22.0541 18.345 21.9094C17.9556 21.7647 17.5142 21.6525 17.0199 21.5728C16.5257 21.494 15.9285 21.4541 15.2293 21.4541C14.2399 21.456 13.2968 21.6275 12.4001 21.9697Z" fill="url(#paint7_linear_108_8588)"/>
<path d="M60.4009 47.7284C60.2507 47.7126 60.1088 47.7052 59.9734 47.7052C58.2792 47.7052 57.708 48.8699 57.555 49.2723C57.389 48.8365 56.7362 47.5142 54.7091 47.7284C52.8174 48.078 52.1878 49.7499 52.4335 51.3467C52.8239 53.8801 56.7019 55.5511 57.5216 57.1201L57.555 57.1822L57.5884 57.1201C58.4081 55.5502 62.2852 53.8801 62.6765 51.3467C62.9232 49.749 62.2935 48.077 60.4009 47.7284Z" fill="url(#paint8_linear_108_8588)"/>
<path d="M48.1825 50.8926C47.8561 50.8926 47.5454 50.9566 47.258 51.0688C47.6335 50.6274 47.8607 50.0571 47.8607 49.4321C47.8607 48.0356 46.7294 46.9033 45.3329 46.9033C43.9364 46.9033 42.8032 48.0356 42.8032 49.4321C42.8032 50.0571 43.0313 50.6274 43.406 51.0688C43.1204 50.9556 42.8088 50.8926 42.4824 50.8926C41.0859 50.8926 39.9536 52.0248 39.9536 53.4204C39.9536 54.8169 41.0849 55.9492 42.4824 55.9492C43.7008 55.9492 44.7153 55.0868 44.9555 53.9397C44.9889 55.1266 45.0695 55.8768 43.6916 57.1584H46.9724C45.5656 55.8472 45.6639 55.1062 45.7066 53.9313C45.9375 55.0886 46.9557 55.9492 48.1816 55.9492C49.5772 55.9492 50.7103 54.8169 50.7103 53.4204C50.7103 52.0248 49.5781 50.8926 48.1825 50.8926Z" fill="url(#paint9_linear_108_8588)"/>
<path d="M33.7335 46.2939C32.797 48.206 30.9229 50.7561 29.5171 52.0302C30.9229 53.3053 32.797 55.8544 33.7335 57.7665C34.6701 55.8544 36.5442 53.3053 37.95 52.0302C36.5442 50.7561 34.6701 48.207 33.7335 46.2939Z" fill="url(#paint10_linear_108_8588)"/>
<path d="M25.6418 50.0863C25.4378 49.9259 25.2273 49.759 25.0112 49.58C23.4422 48.2762 22.1987 46.5273 22.1968 46.5273C22.1959 46.5264 20.9515 48.2762 19.3825 49.58C19.1664 49.759 18.9559 49.9259 18.7519 50.0863C17.6929 50.9218 16.8565 51.5821 16.8463 52.8376C16.8398 53.5776 17.1338 54.2768 17.6725 54.8054C18.2104 55.3321 18.9281 55.626 19.694 55.6316L19.7228 55.6325C20.5258 55.6325 21.2417 55.307 21.7805 54.7414C21.6905 55.1346 21.6163 55.6084 21.506 55.907C21.0859 57.0494 20.3858 57.5344 20.4322 57.5363H23.9615C24.0079 57.5354 23.3077 57.0494 22.8877 55.907C22.7783 55.6084 22.7031 55.1346 22.6141 54.7414C23.1529 55.307 23.8688 55.6325 24.6718 55.6325L24.7005 55.6316C25.4665 55.626 26.1842 55.3321 26.7221 54.8054C27.2608 54.2768 27.5548 53.5776 27.5483 52.8376C27.5372 51.5811 26.7007 50.9209 25.6418 50.0863Z" fill="url(#paint11_linear_108_8588)"/>
<path d="M164.221 47.7284C164.071 47.7126 163.929 47.7052 163.793 47.7052C162.099 47.7052 161.528 48.8699 161.375 49.2723C161.209 48.8365 160.556 47.5142 158.529 47.7284C156.637 48.078 156.008 49.7499 156.253 51.3467C156.644 53.8801 160.522 55.5511 161.341 57.1201L161.375 57.1822L161.408 57.1201C162.228 55.5502 166.105 53.8801 166.496 51.3467C166.742 49.749 166.112 48.077 164.221 47.7284Z" fill="url(#paint12_linear_108_8588)"/>
<path d="M152.001 50.8926C151.675 50.8926 151.363 50.9566 151.077 51.0688C151.452 50.6274 151.68 50.0571 151.68 49.4321C151.68 48.0356 150.548 46.9033 149.152 46.9033C147.755 46.9033 146.622 48.0356 146.622 49.4321C146.622 50.0571 146.85 50.6274 147.225 51.0688C146.939 50.9556 146.628 50.8926 146.301 50.8926C144.905 50.8926 143.772 52.0248 143.772 53.4204C143.772 54.8169 144.904 55.9492 146.301 55.9492C147.52 55.9492 148.534 55.0868 148.774 53.9397C148.808 55.1266 148.888 55.8768 147.51 57.1584H150.791C149.385 55.8472 149.483 55.1062 149.525 53.9313C149.756 55.0886 150.775 55.9492 152 55.9492C153.396 55.9492 154.529 54.8169 154.529 53.4204C154.53 52.0248 153.397 50.8926 152.001 50.8926Z" fill="url(#paint13_linear_108_8588)"/>
<path d="M137.552 46.2939C136.616 48.206 134.742 50.7561 133.336 52.0302C134.742 53.3053 136.616 55.8544 137.552 57.7665C138.49 55.8544 140.363 53.3053 141.769 52.0302C140.363 50.7561 138.49 48.207 137.552 46.2939Z" fill="url(#paint14_linear_108_8588)"/>
<path d="M129.461 50.0863C129.257 49.9259 129.045 49.759 128.83 49.58C127.261 48.2762 126.018 46.5273 126.016 46.5273C126.015 46.5264 124.77 48.2762 123.201 49.58C122.985 49.759 122.775 49.9259 122.571 50.0863C121.512 50.9218 120.675 51.5821 120.665 52.8376C120.659 53.5776 120.953 54.2768 121.491 54.8054C122.029 55.3321 122.747 55.626 123.513 55.6316L123.542 55.6325C124.345 55.6325 125.061 55.307 125.599 54.7414C125.509 55.1346 125.435 55.6084 125.325 55.907C124.905 57.0494 124.205 57.5344 124.251 57.5363H127.78C127.827 57.5354 127.127 57.0494 126.707 55.907C126.597 55.6084 126.522 55.1346 126.433 54.7414C126.972 55.307 127.688 55.6325 128.491 55.6325L128.519 55.6316C129.285 55.626 130.003 55.3321 130.541 54.8054C131.08 54.2768 131.373 53.5776 131.367 52.8376C131.356 51.5811 130.52 50.9209 129.461 50.0863Z" fill="url(#paint15_linear_108_8588)"/>
<path d="M93.1023 47.9901V48.1885L93.9202 48.5975V54.3226L93.1023 54.7316V54.93H96.6214V54.7316L95.7293 54.3226V48.5975L96.6214 48.1885V47.9901H93.1023ZM102.867 47.9901V48.1885L104.069 48.5975V52.5756L99.9421 47.9901H97.6989V48.1885L98.616 48.5975V54.3106L97.6989 54.7195V54.93H100.574V54.7195L99.3727 54.2985V49.9365L103.945 54.9801H104.825V48.5984L105.73 48.1895V47.991H102.867V47.9901ZM81.4155 49.6629L82.4068 52.0294H80.4363L81.4155 49.6629ZM81.4405 47.928L78.6772 54.3718L78.0447 54.7316V54.93H80.35V54.7316L79.47 54.3597L80.1766 52.6618H82.6803L83.3869 54.3597L82.5069 54.7316V54.93H85.9769V54.7316L85.2091 54.2976L82.4949 47.928H81.4405ZM88.3248 48.1514C87.9326 48.3499 87.6182 48.6123 87.3836 48.9387C87.1481 49.2651 87.0303 49.6259 87.0303 50.0227C87.0303 50.4855 87.1564 50.874 87.4077 51.1874C87.6599 51.5018 88.042 51.7744 88.5539 52.0053C89.0082 52.2204 89.3736 52.3957 89.6509 52.532C89.9272 52.6683 90.1275 52.8046 90.2518 52.941C90.3751 53.0773 90.4372 53.2609 90.4372 53.4927C90.4372 53.8071 90.3213 54.0426 90.0904 54.1993C89.8595 54.356 89.5414 54.4348 89.1362 54.4348C88.6485 54.4348 88.2191 54.3152 87.8473 54.075L86.9923 52.749H86.7938L86.9051 54.509C87.2352 54.6741 87.5802 54.8067 87.94 54.9059C88.2998 55.0051 88.7143 55.0543 89.1854 55.0543C89.6972 55.0543 90.1618 54.968 90.58 54.7937C90.9973 54.6203 91.3274 54.3727 91.5713 54.05C91.8152 53.7282 91.9367 53.3517 91.9367 52.9224C91.9367 52.5756 91.8708 52.2779 91.7382 52.0303C91.6065 51.7828 91.3998 51.5556 91.1188 51.3488C90.8378 51.142 90.478 50.9315 90.0403 50.7164C89.6852 50.543 89.3977 50.3946 89.1789 50.2703C88.96 50.1461 88.8024 50.0209 88.7078 49.8929C88.6123 49.7649 88.565 49.6055 88.565 49.4154C88.565 49.126 88.6661 48.897 88.8682 48.7273C89.0704 48.5576 89.3374 48.4732 89.6676 48.4732C89.8493 48.4732 90.0125 48.4899 90.1572 48.5233C90.3018 48.5567 90.4446 48.6142 90.5847 48.6967L91.4897 50.0227H91.6882L91.5769 48.3369C91.3042 48.1885 91.0029 48.0708 90.6718 47.9836C90.3417 47.8964 89.9856 47.8538 89.6064 47.8538C89.1446 47.8538 88.7171 47.953 88.3248 48.1514ZM109.695 53.9879C109.389 53.7069 109.15 53.3184 108.977 52.8232C108.803 52.3271 108.716 51.7614 108.716 51.1253C108.716 50.6051 108.789 50.1461 108.933 49.7501C109.078 49.3532 109.28 49.0435 109.541 48.821C109.801 48.5984 110.104 48.4862 110.452 48.4862C110.841 48.4862 111.185 48.6271 111.487 48.9072C111.788 49.1882 112.024 49.5748 112.194 50.0663C112.363 50.5578 112.448 51.1216 112.448 51.7577C112.448 52.5339 112.297 53.17 111.995 53.6661C111.694 54.1613 111.278 54.4098 110.75 54.4098C110.352 54.4098 110.001 54.2689 109.695 53.9879ZM108.649 48.3128C108.091 48.6271 107.651 49.0565 107.329 49.6017C107.007 50.147 106.846 50.7627 106.846 51.448C106.846 52.1416 107.007 52.7601 107.329 53.3007C107.651 53.8423 108.091 54.2698 108.649 54.5832C109.206 54.8976 109.848 55.0543 110.575 55.0543C111.302 55.0543 111.947 54.8976 112.509 54.5832C113.071 54.2689 113.512 53.8414 113.835 53.3007C114.157 52.7601 114.318 52.1416 114.318 51.448C114.318 50.7627 114.157 50.147 113.835 49.6017C113.512 49.0565 113.071 48.6271 112.509 48.3128C111.947 47.9994 111.302 47.8417 110.575 47.8417C109.848 47.8417 109.206 47.9984 108.649 48.3128ZM72.5366 46.9617C71.995 47.1852 71.5119 47.4968 71.0863 47.8974C70.6606 48.298 70.324 48.7635 70.0764 49.292C69.8288 49.8206 69.7046 50.3946 69.7046 51.015C69.7046 51.7837 69.8845 52.4708 70.2434 53.0782C70.6031 53.6856 71.1085 54.1668 71.7613 54.522C72.4142 54.8772 73.1736 55.0552 74.0416 55.0552C74.636 55.0552 75.171 54.9977 75.6467 54.8818C76.1215 54.7659 76.5286 54.6092 76.8671 54.4107L77.0405 52.3169H76.83L75.7144 53.9777C75.4919 54.1019 75.2582 54.203 75.0143 54.2809C74.7704 54.3597 74.496 54.3987 74.19 54.3987C73.7105 54.3987 73.2793 54.2559 72.8954 53.9712C72.5115 53.6865 72.2074 53.2813 71.9848 52.7564C71.7623 52.2316 71.6501 51.6103 71.6501 50.8916C71.6501 50.1646 71.766 49.5266 71.9969 48.9767C72.2278 48.4268 72.544 48.0021 72.9446 47.6998C73.3452 47.3985 73.7977 47.2473 74.3012 47.2473C74.5572 47.2473 74.776 47.2761 74.9578 47.3336C75.1395 47.3911 75.3333 47.4866 75.5401 47.6182L76.7178 49.5387H76.9413L76.8049 47.2214C76.574 47.1054 76.3422 47.0025 76.1113 46.9116C75.8804 46.8208 75.6199 46.7503 75.3305 46.7011C75.0412 46.652 74.6777 46.627 74.24 46.627C73.6456 46.627 73.0781 46.7382 72.5366 46.9617Z" fill="url(#paint16_linear_108_8588)"/>
<path d="M93.1023 47.9901V48.1885L93.9202 48.5975V54.3226L93.1023 54.7316V54.93H96.6214V54.7316L95.7293 54.3226V48.5975L96.6214 48.1885V47.9901H93.1023ZM102.867 47.9901V48.1885L104.069 48.5975V52.5756L99.9421 47.9901H97.6989V48.1885L98.616 48.5975V54.3106L97.6989 54.7195V54.93H100.574V54.7195L99.3727 54.2985V49.9365L103.945 54.9801H104.825V48.5984L105.73 48.1895V47.991H102.867V47.9901ZM81.4155 49.6629L82.4068 52.0294H80.4363L81.4155 49.6629ZM81.4405 47.928L78.6772 54.3718L78.0447 54.7316V54.93H80.35V54.7316L79.47 54.3597L80.1766 52.6618H82.6803L83.3869 54.3597L82.5069 54.7316V54.93H85.9769V54.7316L85.2091 54.2976L82.4949 47.928H81.4405ZM88.3248 48.1514C87.9326 48.3499 87.6182 48.6123 87.3836 48.9387C87.1481 49.2651 87.0303 49.6259 87.0303 50.0227C87.0303 50.4855 87.1564 50.874 87.4077 51.1874C87.6599 51.5018 88.042 51.7744 88.5539 52.0053C89.0082 52.2204 89.3736 52.3957 89.6509 52.532C89.9272 52.6683 90.1275 52.8046 90.2518 52.941C90.3751 53.0773 90.4372 53.2609 90.4372 53.4927C90.4372 53.8071 90.3213 54.0426 90.0904 54.1993C89.8595 54.356 89.5414 54.4348 89.1362 54.4348C88.6485 54.4348 88.2191 54.3152 87.8473 54.075L86.9923 52.749H86.7938L86.9051 54.509C87.2352 54.6741 87.5802 54.8067 87.94 54.9059C88.2998 55.0051 88.7143 55.0543 89.1854 55.0543C89.6972 55.0543 90.1618 54.968 90.58 54.7937C90.9973 54.6203 91.3274 54.3727 91.5713 54.05C91.8152 53.7282 91.9367 53.3517 91.9367 52.9224C91.9367 52.5756 91.8708 52.2779 91.7382 52.0303C91.6065 51.7828 91.3998 51.5556 91.1188 51.3488C90.8378 51.142 90.478 50.9315 90.0403 50.7164C89.6852 50.543 89.3977 50.3946 89.1789 50.2703C88.96 50.1461 88.8024 50.0209 88.7078 49.8929C88.6123 49.7649 88.565 49.6055 88.565 49.4154C88.565 49.126 88.6661 48.897 88.8682 48.7273C89.0704 48.5576 89.3374 48.4732 89.6676 48.4732C89.8493 48.4732 90.0125 48.4899 90.1572 48.5233C90.3018 48.5567 90.4446 48.6142 90.5847 48.6967L91.4897 50.0227H91.6882L91.5769 48.3369C91.3042 48.1885 91.0029 48.0708 90.6718 47.9836C90.3417 47.8964 89.9856 47.8538 89.6064 47.8538C89.1446 47.8538 88.7171 47.953 88.3248 48.1514ZM109.695 53.9879C109.389 53.7069 109.15 53.3184 108.977 52.8232C108.803 52.3271 108.716 51.7614 108.716 51.1253C108.716 50.6051 108.789 50.1461 108.933 49.7501C109.078 49.3532 109.28 49.0435 109.541 48.821C109.801 48.5984 110.104 48.4862 110.452 48.4862C110.841 48.4862 111.185 48.6271 111.487 48.9072C111.788 49.1882 112.024 49.5748 112.194 50.0663C112.363 50.5578 112.448 51.1216 112.448 51.7577C112.448 52.5339 112.297 53.17 111.995 53.6661C111.694 54.1613 111.278 54.4098 110.75 54.4098C110.352 54.4098 110.001 54.2689 109.695 53.9879ZM108.649 48.3128C108.091 48.6271 107.651 49.0565 107.329 49.6017C107.007 50.147 106.846 50.7627 106.846 51.448C106.846 52.1416 107.007 52.7601 107.329 53.3007C107.651 53.8423 108.091 54.2698 108.649 54.5832C109.206 54.8976 109.848 55.0543 110.575 55.0543C111.302 55.0543 111.947 54.8976 112.509 54.5832C113.071 54.2689 113.512 53.8414 113.835 53.3007C114.157 52.7601 114.318 52.1416 114.318 51.448C114.318 50.7627 114.157 50.147 113.835 49.6017C113.512 49.0565 113.071 48.6271 112.509 48.3128C111.947 47.9994 111.302 47.8417 110.575 47.8417C109.848 47.8417 109.206 47.9984 108.649 48.3128ZM72.5366 46.9617C71.995 47.1852 71.5119 47.4968 71.0863 47.8974C70.6606 48.298 70.324 48.7635 70.0764 49.292C69.8288 49.8206 69.7046 50.3946 69.7046 51.015C69.7046 51.7837 69.8845 52.4708 70.2434 53.0782C70.6031 53.6856 71.1085 54.1668 71.7613 54.522C72.4142 54.8772 73.1736 55.0552 74.0416 55.0552C74.636 55.0552 75.171 54.9977 75.6467 54.8818C76.1215 54.7659 76.5286 54.6092 76.8671 54.4107L77.0405 52.3169H76.83L75.7144 53.9777C75.4919 54.1019 75.2582 54.203 75.0143 54.2809C74.7704 54.3597 74.496 54.3987 74.19 54.3987C73.7105 54.3987 73.2793 54.2559 72.8954 53.9712C72.5115 53.6865 72.2074 53.2813 71.9848 52.7564C71.7623 52.2316 71.6501 51.6103 71.6501 50.8916C71.6501 50.1646 71.766 49.5266 71.9969 48.9767C72.2278 48.4268 72.544 48.0021 72.9446 47.6998C73.3452 47.3985 73.7977 47.2473 74.3012 47.2473C74.5572 47.2473 74.776 47.2761 74.9578 47.3336C75.1395 47.3911 75.3333 47.4866 75.5401 47.6182L76.7178 49.5387H76.9413L76.8049 47.2214C76.574 47.1054 76.3422 47.0025 76.1113 46.9116C75.8804 46.8208 75.6199 46.7503 75.3305 46.7011C75.0412 46.652 74.6777 46.627 74.24 46.627C73.6456 46.627 73.0781 46.7382 72.5366 46.9617Z" fill="url(#paint17_linear_108_8588)"/>
<defs>
<linearGradient id="paint0_linear_108_8588" x1="7.4769" y1="41.9714" x2="176.288" y2="41.9714" gradientUnits="userSpaceOnUse">
<stop stop-color="#C89135"/>
<stop offset="0.1131" stop-color="#FCC456"/>
<stop offset="0.2624" stop-color="#BF862C"/>
<stop offset="0.4796" stop-color="#FCC456"/>
<stop offset="0.7014" stop-color="#FFD382"/>
<stop offset="0.8371" stop-color="#FCC456"/>
<stop offset="1" stop-color="#815F26"/>
</linearGradient>
<linearGradient id="paint1_linear_108_8588" x1="7.47308" y1="41.9804" x2="176.283" y2="41.9804" gradientUnits="userSpaceOnUse">
<stop stop-color="#C89135"/>
<stop offset="0.1131" stop-color="#FCC456"/>
<stop offset="0.2624" stop-color="#BF862C"/>
<stop offset="0.4796" stop-color="#FCC456"/>
<stop offset="0.7014" stop-color="#FFD382"/>
<stop offset="0.8371" stop-color="#FCC456"/>
<stop offset="1" stop-color="#815F26"/>
</linearGradient>
<linearGradient id="paint2_linear_108_8588" x1="7.77114" y1="15.1748" x2="176.272" y2="15.1748" gradientUnits="userSpaceOnUse">
<stop stop-color="#C89135"/>
<stop offset="0.1131" stop-color="#FCC456"/>
<stop offset="0.2624" stop-color="#BF862C"/>
<stop offset="0.4796" stop-color="#FCC456"/>
<stop offset="0.7014" stop-color="#FFD382"/>
<stop offset="0.8371" stop-color="#FCC456"/>
<stop offset="1" stop-color="#815F26"/>
</linearGradient>
<linearGradient id="paint3_linear_108_8588" x1="43.0541" y1="67.9026" x2="140.705" y2="67.9026" gradientUnits="userSpaceOnUse">
<stop stop-color="#C89135"/>
<stop offset="0.1131" stop-color="#FCC456"/>
<stop offset="0.2624" stop-color="#BF862C"/>
<stop offset="0.4796" stop-color="#FCC456"/>
<stop offset="0.7014" stop-color="#FFD382"/>
<stop offset="0.8371" stop-color="#FCC456"/>
<stop offset="1" stop-color="#815F26"/>
</linearGradient>
<linearGradient id="paint4_linear_108_8588" x1="88.1955" y1="10.4865" x2="95.5593" y2="10.4865" gradientUnits="userSpaceOnUse">
<stop stop-color="#C89135"/>
<stop offset="0.1131" stop-color="#FCC456"/>
<stop offset="0.2624" stop-color="#BF862C"/>
<stop offset="0.4796" stop-color="#FCC456"/>
<stop offset="0.7014" stop-color="#FFD382"/>
<stop offset="0.8371" stop-color="#FCC456"/>
<stop offset="1" stop-color="#815F26"/>
</linearGradient>
<linearGradient id="paint5_linear_108_8588" x1="63.629" y1="10.5708" x2="120.129" y2="10.5708" gradientUnits="userSpaceOnUse">
<stop stop-color="#C89135"/>
<stop offset="0.1131" stop-color="#FCC456"/>
<stop offset="0.2624" stop-color="#BF862C"/>
<stop offset="0.4796" stop-color="#FCC456"/>
<stop offset="0.7014" stop-color="#FFD382"/>
<stop offset="0.8371" stop-color="#FCC456"/>
<stop offset="1" stop-color="#815F26"/>
</linearGradient>
<linearGradient id="paint6_linear_108_8588" x1="7.77158" y1="28.1813" x2="176.284" y2="28.1813" gradientUnits="userSpaceOnUse">
<stop stop-color="#C89135"/>
<stop offset="0.1131" stop-color="#FCC456"/>
<stop offset="0.2624" stop-color="#BF862C"/>
<stop offset="0.4796" stop-color="#FCC456"/>
<stop offset="0.7014" stop-color="#FFD382"/>
<stop offset="0.8371" stop-color="#FCC456"/>
<stop offset="1" stop-color="#815F26"/>
</linearGradient>
<linearGradient id="paint7_linear_108_8588" x1="7.77158" y1="28.1813" x2="176.284" y2="28.1813" gradientUnits="userSpaceOnUse">
<stop stop-color="#C89135"/>
<stop offset="0.1131" stop-color="#FCC456"/>
<stop offset="0.2624" stop-color="#BF862C"/>
<stop offset="0.4796" stop-color="#FCC456"/>
<stop offset="0.7014" stop-color="#FFD382"/>
<stop offset="0.8371" stop-color="#FCC456"/>
<stop offset="1" stop-color="#815F26"/>
</linearGradient>
<linearGradient id="paint8_linear_108_8588" x1="52.3831" y1="52.4435" x2="62.7275" y2="52.4435" gradientUnits="userSpaceOnUse">
<stop stop-color="#C89135"/>
<stop offset="0.1131" stop-color="#FCC456"/>
<stop offset="0.2624" stop-color="#BF862C"/>
<stop offset="0.4796" stop-color="#FCC456"/>
<stop offset="0.7014" stop-color="#FFD382"/>
<stop offset="0.8371" stop-color="#FCC456"/>
<stop offset="1" stop-color="#815F26"/>
</linearGradient>
<linearGradient id="paint9_linear_108_8588" x1="39.9558" y1="52.0312" x2="50.7106" y2="52.0312" gradientUnits="userSpaceOnUse">
<stop stop-color="#C89135"/>
<stop offset="0.1131" stop-color="#FCC456"/>
<stop offset="0.2624" stop-color="#BF862C"/>
<stop offset="0.4796" stop-color="#FCC456"/>
<stop offset="0.7014" stop-color="#FFD382"/>
<stop offset="0.8371" stop-color="#FCC456"/>
<stop offset="1" stop-color="#815F26"/>
</linearGradient>
<linearGradient id="paint10_linear_108_8588" x1="29.5169" y1="52.0311" x2="37.9496" y2="52.0311" gradientUnits="userSpaceOnUse">
<stop stop-color="#C89135"/>
<stop offset="0.1131" stop-color="#FCC456"/>
<stop offset="0.2624" stop-color="#BF862C"/>
<stop offset="0.4796" stop-color="#FCC456"/>
<stop offset="0.7014" stop-color="#FFD382"/>
<stop offset="0.8371" stop-color="#FCC456"/>
<stop offset="1" stop-color="#815F26"/>
</linearGradient>
<linearGradient id="paint11_linear_108_8588" x1="16.8457" y1="52.0317" x2="27.5477" y2="52.0317" gradientUnits="userSpaceOnUse">
<stop stop-color="#C89135"/>
<stop offset="0.1131" stop-color="#FCC456"/>
<stop offset="0.2624" stop-color="#BF862C"/>
<stop offset="0.4796" stop-color="#FCC456"/>
<stop offset="0.7014" stop-color="#FFD382"/>
<stop offset="0.8371" stop-color="#FCC456"/>
<stop offset="1" stop-color="#815F26"/>
</linearGradient>
<linearGradient id="paint12_linear_108_8588" x1="156.202" y1="52.4435" x2="166.547" y2="52.4435" gradientUnits="userSpaceOnUse">
<stop stop-color="#C89135"/>
<stop offset="0.1131" stop-color="#FCC456"/>
<stop offset="0.2624" stop-color="#BF862C"/>
<stop offset="0.4796" stop-color="#FCC456"/>
<stop offset="0.7014" stop-color="#FFD382"/>
<stop offset="0.8371" stop-color="#FCC456"/>
<stop offset="1" stop-color="#815F26"/>
</linearGradient>
<linearGradient id="paint13_linear_108_8588" x1="143.775" y1="52.0312" x2="154.53" y2="52.0312" gradientUnits="userSpaceOnUse">
<stop stop-color="#C89135"/>
<stop offset="0.1131" stop-color="#FCC456"/>
<stop offset="0.2624" stop-color="#BF862C"/>
<stop offset="0.4796" stop-color="#FCC456"/>
<stop offset="0.7014" stop-color="#FFD382"/>
<stop offset="0.8371" stop-color="#FCC456"/>
<stop offset="1" stop-color="#815F26"/>
</linearGradient>
<linearGradient id="paint14_linear_108_8588" x1="133.336" y1="52.0311" x2="141.769" y2="52.0311" gradientUnits="userSpaceOnUse">
<stop stop-color="#C89135"/>
<stop offset="0.1131" stop-color="#FCC456"/>
<stop offset="0.2624" stop-color="#BF862C"/>
<stop offset="0.4796" stop-color="#FCC456"/>
<stop offset="0.7014" stop-color="#FFD382"/>
<stop offset="0.8371" stop-color="#FCC456"/>
<stop offset="1" stop-color="#815F26"/>
</linearGradient>
<linearGradient id="paint15_linear_108_8588" x1="120.665" y1="52.0317" x2="131.367" y2="52.0317" gradientUnits="userSpaceOnUse">
<stop stop-color="#C89135"/>
<stop offset="0.1131" stop-color="#FCC456"/>
<stop offset="0.2624" stop-color="#BF862C"/>
<stop offset="0.4796" stop-color="#FCC456"/>
<stop offset="0.7014" stop-color="#FFD382"/>
<stop offset="0.8371" stop-color="#FCC456"/>
<stop offset="1" stop-color="#815F26"/>
</linearGradient>
<linearGradient id="paint16_linear_108_8588" x1="69.7052" y1="50.8404" x2="114.318" y2="50.8404" gradientUnits="userSpaceOnUse">
<stop stop-color="#C89135"/>
<stop offset="0.1131" stop-color="#FCC456"/>
<stop offset="0.2624" stop-color="#BF862C"/>
<stop offset="0.4796" stop-color="#FCC456"/>
<stop offset="0.7014" stop-color="#FFD382"/>
<stop offset="0.8371" stop-color="#FCC456"/>
<stop offset="1" stop-color="#815F26"/>
</linearGradient>
<linearGradient id="paint17_linear_108_8588" x1="69.7052" y1="50.8404" x2="114.318" y2="50.8404" gradientUnits="userSpaceOnUse">
<stop stop-color="#C89135"/>
<stop offset="0.1131" stop-color="#FCC456"/>
<stop offset="0.2624" stop-color="#BF862C"/>
<stop offset="0.4796" stop-color="#FCC456"/>
<stop offset="0.7014" stop-color="#FFD382"/>
<stop offset="0.8371" stop-color="#FCC456"/>
<stop offset="1" stop-color="#815F26"/>
</linearGradient>
</defs>
</svg>
