<svg xmlns="http://www.w3.org/2000/svg" width="184" height="79" fill="none"><path fill="url(#a)" d="M176.283 41.364H7.473v1.232h168.81z"/><path fill="url(#b)" d="M176.283 41.364H7.473v1.232h168.81z"/><path fill="url(#c)" d="M7.771 14.56v1.23h75.361l-2.306-1.23zm95.157 0-2.305 1.23h75.65v-1.23z"/><path fill="url(#d)" d="M79.731 66.855c-.85-.195-1.68-.67-2.418-1.134.37-.261.765-.486 1.188-.659 2.598-1.049 3.985-.16 4.048.728.043.602-.52 1.203-1.726 1.203-.32 0-.683-.042-1.092-.138m21.475-1.065c.064-.888 1.452-1.777 4.053-.728.418.173.817.399 1.183.66-.737.462-1.568.937-2.419 1.133a4.8 4.8 0 0 1-1.092.138c-1.205 0-1.769-.601-1.725-1.203m-35.876 1.8c-4.462-.11-5.044-4.535-1.22-5.952 2.638-.989 6.245.822 8.44 2.232q-.46.31-.917.631c-1.442 1.003-4.44 3.092-6.235 3.092zm46.79-3.089a46 46 0 0 0-.915-.632c2.192-1.409 5.803-3.22 8.44-2.23 3.827 1.417 3.241 5.841-1.221 5.952h-.068c-1.793 0-4.788-2.088-6.236-3.09m-1.888-1.26-.018-.009c-1.891-1.134-4.057-2.105-6.272-2.44-1.486-.222-3.083-.163-4.467.451-1.563.698-2.856 2.158-2.752 3.893.133 2.151 1.997 4.113 5.144 4.067.432-.013.38-.357.039-.351-3.88.232-6.211-4.749-2.33-6.684 1.214-.54 2.746-.54 4.045-.342 1.975.298 3.914 1.1 5.634 2.07q-.456.304-.916.607l-.459.303c-1.305-.693-2.629-1.163-3.994-1.19-.794-.081-1.59.046-2.287.54-.482.34-.832.825-.897 1.403-.015.108-.009.216-.009.325v.013l.009.07v.006c.075.72.496 1.253 1.151 1.578 1.854.93 3.837-.21 5.415-1.111 1.775 1.907 1.844 5.644-.592 7.28-1.894 1.27-4.369.876-6.386.073-3.177-1.263-5.536-4.26-7.869-6.66l1.909-1.968-2.453-2.527-2.452 2.527 1.91 1.968c-2.333 2.4-4.693 5.397-7.867 6.66-2.022.803-4.497 1.198-6.39-.073-2.434-1.636-2.365-5.373-.59-7.28 1.579.902 3.56 2.04 5.413 1.11.653-.324 1.079-.858 1.154-1.577l.002-.006.005-.07v-.013c0-.109.005-.217-.007-.325-.069-.578-.417-1.063-.9-1.404-.695-.493-1.49-.62-2.283-.54-1.367.028-2.69.498-3.995 1.191l-.462-.303-.916-.607c1.722-.971 3.66-1.772 5.636-2.07 1.298-.198 2.827-.198 4.046.342 3.88 1.934 1.548 6.916-2.332 6.684-.343-.005-.395.338.037.351 3.148.046 5.017-1.916 5.143-4.067.106-1.735-1.189-3.195-2.75-3.893-1.384-.614-2.98-.674-4.464-.45-2.218.334-4.383 1.305-6.273 2.44l-.018.009c-6.093-4.315-10.497-3.084-15.181-1.851-4.337 1.14-8.913 2.282-15.29-.984 6.95 6.525 15.325 2.182 19.048 1.4a3.9 3.9 0 0 0-.762 1.157 3.68 3.68 0 0 0 .043 2.973c.77 1.676 2.538 2.413 4.352 2.469 2.146.066 4.825-1.871 6.532-3.058.41-.286.818-.573 1.236-.845q.647.433 1.3.863l.048.028c-5.467 3.361-10.643 9.65-17.022 2.222 1.308 4.133 5.645 5.35 8.501 4.598 3.43-.902 5.97-3.642 8.783-5.78-2.977 4.084-.368 9.23 4.829 9.139 1.348-.024 2.686-.449 3.866-.922 2.92-1.174 5.922-4.473 8.07-6.913 2.148 2.44 5.15 5.74 8.071 6.913 1.177.473 2.52.898 3.863.922 5.199.09 7.807-5.055 4.833-9.139 2.812 2.138 5.352 4.878 8.778 5.78 2.856.752 7.195-.465 8.5-4.598-6.378 7.428-11.553 1.138-17.018-2.222l.047-.028q.652-.43 1.301-.863c.416.272.827.559 1.238.845 1.705 1.187 4.387 3.124 6.529 3.058 1.816-.057 3.584-.794 4.354-2.469a3.68 3.68 0 0 0 .042-2.973 3.9 3.9 0 0 0-.759-1.157c3.718.782 12.095 5.124 19.048-1.4-6.378 3.266-10.954 2.125-15.292.984-2.207-.58-4.353-1.161-6.641-1.161-2.568 0-5.317.73-8.539 3.012"/><path fill="url(#e)" d="m88.196 10.485 3.681 2.094 3.683-2.094-3.683-2.091z"/><path fill="url(#f)" d="M116.86 3.035a4.6 4.6 0 0 0-.646-.044c-1.651 0-3.335.838-4.657 1.728-2.329 1.569-9.667 5.824-12.071 7.273a208 208 0 0 1-5.462 3.193l-2.147-1.218-2.146 1.218a207 207 0 0 1-5.457-3.193c-2.41-1.45-9.746-5.704-12.076-7.273-1.491-1.006-3.448-1.947-5.303-1.684a3.785 3.785 0 0 0-3.227 4.312c.263 1.855 1.95 3.352 3.776 3.423 1.684.06 3.386-1.197 4.105-2.517.29-.507.167-.644-.262-.22-.893.877-2.576 1.276-3.852 1.126-.747-.087-1.513-.402-2.067-.916-1.761-1.64-.662-3.936 1.662-3.907 1.499.017 3.105.823 4.328 1.634 2.365 1.57 9.701 5.85 12.135 7.313a220 220 0 0 0 4.711 2.77l-.009.006 3.682 2.092 3.683-2.092-.007-.006a225 225 0 0 0 4.711-2.77c2.431-1.464 9.769-5.744 12.134-7.313 1.222-.811 2.828-1.618 4.328-1.634 2.323-.029 3.421 2.266 1.663 3.907-.552.514-1.32.83-2.065.916-1.277.15-2.963-.249-3.856-1.127-.427-.423-.549-.286-.258.221.716 1.32 2.419 2.578 4.1 2.517 1.833-.07 3.516-1.57 3.78-3.423.296-2.096-1.13-4.018-3.23-4.312"/><path fill="url(#g)" d="M56.51 23.631v.317l1.92.652v6.35l-6.587-7.32h-3.58v.317l1.464.652v9.12l-1.464.652v.337h4.589v-.337l-1.919-.672v-6.963l7.299 8.05h1.404V24.602l1.444-.652v-.317h-4.57m10.525 1.01h.672q2.157 0 3.244 1.176 1.088 1.177 1.088 3.334 0 2.117-1.058 3.332-1.06 1.218-3.076 1.217h-.871zm-4.352-1.01v.317l1.464.652v9.139l-1.464.653v.316h5.836q1.937 0 3.402-.771a5.73 5.73 0 0 0 2.285-2.137q.82-1.365.82-3.145 0-1.464-.752-2.591t-2.175-1.78q-1.425-.654-3.462-.653zm32.955 0v.317l1.463.652v9.139l-1.463.653v.316h10.028v-3.56h-.316l-1.365 2.551h-3.996v-4.252h2.552l.91 1.404h.297v-3.759h-.297l-.91 1.424h-2.552V24.64h3.6l1.286 1.959h.317V23.63zm11.927 0v.317l1.465.652v9.139l-1.465.653v.316h9.792v-4.233h-.316l-1.484 3.224h-3.64v-9.098l1.622-.652v-.317h-5.974m11.611 0v.317l1.464.652v9.139l-1.464.653v.316h9.792v-4.233h-.317l-1.483 3.224h-3.64v-9.098l1.622-.652v-.317h-5.974m37.702 0v.317l1.306.652v9.139l-1.306.653v.316h5.618v-.316l-1.424-.653v-9.138l1.424-.652v-.317h-5.618M39.777 26.302l1.582 3.778h-3.145zm-12.818-1.76h.553q2.117 0 2.117 2.057 0 .969-.504 1.552-.505.584-1.552.583h-.613zm12.858-1.009L35.406 33.82l-.89.506-1.148-.566-3.046-4.846q2.215-.772 2.215-2.59 0-1.246-1.038-1.968-1.039-.723-2.839-.723h-6.052v.316l1.464.653v9.139l-1.464.653v.316h5.617v-.316l-1.265-.672v-4.057h.731l2.869 5.044h7.517v-.316l-1.406-.594 1.128-2.71h3.996l1.127 2.71-1.404.594v.316h5.54v-.316l-1.227-.693L41.5 23.532zm95.619 2.769 1.582 3.778h-3.145zm.039-2.769-4.411 10.286-1.009.574v.316h3.68v-.316l-1.405-.594 1.128-2.71h3.995l1.128 2.71-1.404.594v.316h5.539v-.316l-1.226-.693-4.333-10.167zm12.166.306a6.4 6.4 0 0 0-2.097 1.227 5.8 5.8 0 0 0-1.424 1.9q-.515 1.097-.515 2.422 0 1.641.801 2.888a5.5 5.5 0 0 0 2.156 1.939q1.354.692 3.036.692.85 0 1.701-.178a8.5 8.5 0 0 0 1.592-.494q.741-.316 1.217-.731v-2.75l1.265-.791v-.297h-5.598v.297l1.503.771v3.027a5 5 0 0 1-1.068.119q-1.76 0-2.73-1.316-.969-1.315-.969-3.472 0-1.383.455-2.442.456-1.059 1.316-1.662.861-.604 2.067-.604.573 0 .999.13a4 4 0 0 1 .96.464l1.444 2.215h.336l-.178-2.967a11 11 0 0 0-1.573-.574q-.84-.238-2.166-.238-1.342 0-2.53.425m21.265 9.367q-.732-.672-1.148-1.86-.415-1.186-.415-2.709 0-1.245.346-2.196.347-.95.969-1.483.623-.535 1.454-.535.929 0 1.651.673.722.672 1.128 1.85t.405 2.7q0 1.86-.722 3.046-.722 1.187-1.988 1.187-.95 0-1.68-.673m-1.672-9.06a5.6 5.6 0 0 0-2.107 2.057q-.772 1.305-.772 2.948 0 1.662.772 2.957a5.6 5.6 0 0 0 2.107 2.047q1.334.753 3.075.752 1.74 0 3.087-.752a5.6 5.6 0 0 0 2.116-2.047q.771-1.296.771-2.957 0-1.641-.771-2.948a5.57 5.57 0 0 0-2.116-2.057q-1.345-.751-3.087-.752-1.74 0-3.075.752m-80.815 4.312h1.365q1.563 0 2.404.623.84.623.84 1.929 0 1.148-.82 1.88-.821.73-2.285.731H86.42v-5.163m0-5.717h.672q2.888 0 2.888 2.433 0 1.069-.731 1.692-.733.623-2.038.623h-.79zm-4.668-1.087v.316l1.681.811v10.8l-1.68.812v.316h6.804q1.621 0 2.898-.494 1.276-.495 2.007-1.355t.732-1.948q0-1.306-1.098-2.166t-3.017-1.118q1.425-.336 2.186-1.187.76-.85.761-1.86 0-.988-.642-1.631-.644-.643-1.76-.97-1.119-.326-2.542-.326zm-69.35.316a7.5 7.5 0 0 0-2.394 1.464 6.9 6.9 0 0 0-1.643 2.225q-.593 1.276-.593 2.799 0 1.386.524 2.561a6.2 6.2 0 0 0 1.464 2.048 6.8 6.8 0 0 0 2.176 1.355q1.237.484 2.66.485.851 0 1.792-.208.938-.207 1.8-.574a5.8 5.8 0 0 0 1.473-.88V30.04l1.484-.95v-.316h-6.211v.316l1.76.93v3.66a7 7 0 0 1-.791.108q-.398.03-.732.03-1.207 0-2.186-.693-.979-.692-1.552-1.968t-.574-3.057q0-1.7.593-2.977.594-1.275 1.603-1.988a3.8 3.8 0 0 1 2.255-.712q.633 0 1.128.129t1.028.465l1.9 2.868h.355l-.218-3.481a14 14 0 0 0-1.157-.495 7 7 0 0 0-1.325-.336 11.6 11.6 0 0 0-1.79-.119 7.9 7.9 0 0 0-2.83.516"/><path fill="url(#h)" d="M56.51 23.631v.317l1.92.652v6.35l-6.587-7.32h-3.58v.317l1.464.652v9.12l-1.464.652v.337h4.589v-.337l-1.919-.672v-6.963l7.299 8.05h1.404V24.602l1.444-.652v-.317h-4.57m10.525 1.01h.672q2.157 0 3.244 1.176 1.088 1.177 1.088 3.334 0 2.117-1.058 3.332-1.06 1.218-3.076 1.217h-.871zm-4.352-1.01v.317l1.464.652v9.139l-1.464.653v.316h5.836q1.937 0 3.402-.771a5.73 5.73 0 0 0 2.285-2.137q.82-1.365.82-3.145 0-1.464-.752-2.591t-2.175-1.78q-1.425-.654-3.462-.653zm32.955 0v.317l1.463.652v9.139l-1.463.653v.316h10.028v-3.56h-.316l-1.365 2.551h-3.996v-4.252h2.552l.91 1.404h.297v-3.759h-.297l-.91 1.424h-2.552V24.64h3.6l1.286 1.959h.317V23.63zm11.927 0v.317l1.465.652v9.139l-1.465.653v.316h9.792v-4.233h-.316l-1.484 3.224h-3.64v-9.098l1.622-.652v-.317h-5.974m11.611 0v.317l1.464.652v9.139l-1.464.653v.316h9.792v-4.233h-.317l-1.483 3.224h-3.64v-9.098l1.622-.652v-.317h-5.974m37.702 0v.317l1.306.652v9.139l-1.306.653v.316h5.618v-.316l-1.424-.653v-9.138l1.424-.652v-.317h-5.618M39.777 26.302l1.582 3.778h-3.145zm-12.818-1.76h.553q2.117 0 2.117 2.057 0 .969-.504 1.552-.505.584-1.552.583h-.613zm12.858-1.009L35.406 33.82l-.89.505-1.148-.565-3.046-4.846q2.215-.772 2.215-2.59 0-1.246-1.038-1.968-1.039-.723-2.839-.723h-6.052v.316l1.464.653v9.139l-1.464.653v.316h5.617v-.316l-1.265-.672v-4.057h.731l2.869 5.044h7.517v-.316l-1.406-.594 1.128-2.71h3.996l1.127 2.71-1.404.594v.316h5.54v-.316l-1.227-.693L41.5 23.532zm95.619 2.769 1.582 3.778h-3.145zm.039-2.769-4.411 10.286-1.009.574v.316h3.68v-.316l-1.405-.594 1.128-2.71h3.995l1.128 2.71-1.404.594v.316h5.539v-.316l-1.226-.693-4.333-10.167zm12.166.306a6.4 6.4 0 0 0-2.097 1.227 5.8 5.8 0 0 0-1.424 1.9q-.515 1.097-.515 2.422 0 1.641.801 2.888a5.5 5.5 0 0 0 2.156 1.939q1.354.692 3.036.692.85 0 1.701-.178a8.5 8.5 0 0 0 1.592-.494q.741-.316 1.217-.731v-2.75l1.265-.791v-.297h-5.598v.297l1.503.771v3.027a5 5 0 0 1-1.068.119q-1.76 0-2.73-1.316-.969-1.315-.969-3.472 0-1.383.455-2.442.456-1.059 1.316-1.662.861-.604 2.067-.604.573 0 .999.13a4 4 0 0 1 .96.464l1.444 2.215h.336l-.178-2.967a11 11 0 0 0-1.573-.574q-.84-.238-2.166-.238-1.342 0-2.53.425m21.265 9.367q-.732-.672-1.148-1.86-.415-1.186-.415-2.709 0-1.245.346-2.196.347-.95.969-1.483.623-.535 1.454-.535.929 0 1.651.673.722.672 1.128 1.85t.405 2.7q0 1.86-.722 3.046-.722 1.187-1.988 1.187-.95 0-1.68-.673m-1.672-9.06a5.6 5.6 0 0 0-2.107 2.057q-.772 1.305-.772 2.948 0 1.662.772 2.957a5.6 5.6 0 0 0 2.107 2.047q1.334.753 3.075.752 1.74 0 3.087-.752a5.6 5.6 0 0 0 2.116-2.047q.771-1.296.771-2.957 0-1.641-.771-2.948a5.57 5.57 0 0 0-2.116-2.057q-1.345-.751-3.087-.752-1.74 0-3.075.752m-80.815 4.312h1.365q1.563 0 2.404.623.84.623.84 1.929 0 1.148-.82 1.88-.821.73-2.285.731H86.42v-5.163m0-5.717h.672q2.888 0 2.888 2.433 0 1.069-.731 1.692-.733.623-2.038.623h-.79zm-4.668-1.087v.316l1.681.811v10.8l-1.68.812v.316h6.804q1.621 0 2.898-.494 1.276-.495 2.007-1.355t.732-1.948q0-1.306-1.098-2.166t-3.017-1.118q1.425-.336 2.186-1.187.76-.85.761-1.86 0-.988-.642-1.631-.644-.643-1.76-.97-1.119-.326-2.542-.326zm-69.35.316a7.5 7.5 0 0 0-2.394 1.464 6.9 6.9 0 0 0-1.643 2.225q-.593 1.276-.593 2.799 0 1.386.524 2.561a6.2 6.2 0 0 0 1.464 2.048 6.8 6.8 0 0 0 2.176 1.355q1.237.484 2.66.485.851 0 1.792-.208.938-.207 1.8-.574a5.8 5.8 0 0 0 1.473-.88V30.04l1.484-.95v-.316h-6.211v.316l1.76.93v3.66a7 7 0 0 1-.791.108q-.398.03-.732.03-1.207 0-2.186-.693-.979-.692-1.552-1.968t-.574-3.057q0-1.7.593-2.977.594-1.275 1.603-1.988a3.8 3.8 0 0 1 2.255-.712q.633 0 1.128.129t1.028.465l1.9 2.868h.355l-.218-3.481a14 14 0 0 0-1.157-.495 7 7 0 0 0-1.325-.336 11.6 11.6 0 0 0-1.79-.119 7.9 7.9 0 0 0-2.83.516"/><path fill="url(#i)" d="M60.4 47.728a4 4 0 0 0-.427-.023c-1.694 0-2.265 1.165-2.418 1.567-.166-.435-.819-1.758-2.846-1.544-1.892.35-2.521 2.022-2.276 3.619.39 2.533 4.269 4.204 5.089 5.773l.033.062.033-.062c.82-1.57 4.697-3.24 5.088-5.773.247-1.598-.383-3.27-2.275-3.619"/><path fill="url(#j)" d="M48.183 50.893c-.327 0-.638.064-.925.176a2.528 2.528 0 1 0-3.852 0 2.529 2.529 0 1 0 1.55 2.87c.033 1.188.113 1.938-1.264 3.22h3.28c-1.406-1.312-1.308-2.053-1.265-3.228a2.514 2.514 0 0 0 2.475 2.018 2.53 2.53 0 0 0 0-5.056"/><path fill="url(#k)" d="M33.734 46.294c-.937 1.912-2.811 4.462-4.217 5.736 1.406 1.275 3.28 3.824 4.217 5.736.936-1.912 2.81-4.46 4.216-5.736-1.406-1.274-3.28-3.823-4.217-5.736"/><path fill="url(#l)" d="M25.642 50.086q-.307-.239-.63-.506c-1.57-1.304-2.813-3.053-2.815-3.053s-1.245 1.75-2.814 3.053q-.325.267-.631.506c-1.06.836-1.895 1.496-1.906 2.752-.006.74.288 1.439.826 1.967.538.527 1.256.821 2.022.827h.029c.803 0 1.519-.325 2.058-.89-.09.393-.165.866-.275 1.165-.42 1.142-1.12 1.627-1.074 1.63h3.53c.046-.002-.654-.488-1.074-1.63-.11-.299-.185-.772-.274-1.166a2.8 2.8 0 0 0 2.058.892l.029-.001a2.9 2.9 0 0 0 2.021-.827 2.7 2.7 0 0 0 .826-1.967c-.01-1.257-.847-1.917-1.906-2.752"/><path fill="url(#m)" d="M164.221 47.728a4 4 0 0 0-.428-.023c-1.694 0-2.265 1.165-2.418 1.567-.166-.435-.819-1.758-2.846-1.544-1.892.35-2.521 2.022-2.276 3.619.391 2.533 4.269 4.204 5.088 5.773l.034.062.033-.062c.82-1.57 4.697-3.24 5.088-5.773.246-1.598-.384-3.27-2.275-3.619"/><path fill="url(#n)" d="M152.001 50.893c-.326 0-.638.064-.924.176a2.529 2.529 0 1 0-3.852 0 2.53 2.53 0 1 0-.924 4.88 2.53 2.53 0 0 0 2.473-2.01c.034 1.188.114 1.938-1.264 3.22h3.281c-1.406-1.312-1.308-2.053-1.266-3.228A2.515 2.515 0 0 0 152 55.95a2.53 2.53 0 0 0 .001-5.056"/><path fill="url(#o)" d="M137.552 46.294c-.936 1.912-2.81 4.462-4.216 5.736 1.406 1.275 3.28 3.824 4.216 5.736.938-1.912 2.811-4.46 4.217-5.736-1.406-1.274-3.279-3.823-4.217-5.736"/><path fill="url(#p)" d="M129.461 50.086a29 29 0 0 1-.631-.506c-1.569-1.304-2.812-3.053-2.814-3.053-.001 0-1.246 1.75-2.815 3.053a31 31 0 0 1-.63.506c-1.059.836-1.896 1.496-1.906 2.752-.006.74.288 1.439.826 1.967.538.527 1.256.821 2.022.827h.029a2.8 2.8 0 0 0 2.057-.89c-.09.393-.164.866-.274 1.165-.42 1.142-1.12 1.627-1.074 1.63h3.529c.047-.002-.653-.488-1.073-1.63-.11-.299-.185-.772-.274-1.166a2.8 2.8 0 0 0 2.058.892l.028-.001a2.9 2.9 0 0 0 2.022-.827 2.7 2.7 0 0 0 .826-1.967c-.011-1.257-.847-1.917-1.906-2.752"/><path fill="url(#q)" d="M93.102 47.99v.198l.818.41v5.725l-.818.409v.198h3.52v-.198l-.893-.41v-5.725l.892-.409v-.198zm9.765 0v.198l1.202.41v3.978l-4.127-4.586H97.7v.198l.917.41v5.713l-.917.408v.211h2.875v-.21l-1.201-.422v-4.361l4.572 5.043h.88v-6.382l.905-.408v-.199zm-21.452 1.673.992 2.366h-1.97zm.025-1.735-2.763 6.444-.632.36v.198h2.305v-.198l-.88-.372.707-1.698h2.503l.707 1.698-.88.372v.198h3.47v-.198l-.768-.434-2.714-6.37zm6.885.223q-.589.298-.941.788a1.8 1.8 0 0 0-.354 1.084q0 .694.378 1.164.378.472 1.146.818.681.322 1.097.527.415.204.6.409.186.204.186.552 0 .471-.347.706-.346.236-.954.236-.73 0-1.289-.36l-.855-1.326h-.198l.111 1.76q.495.248 1.035.397t1.245.148a3.6 3.6 0 0 0 1.395-.26 2.33 2.33 0 0 0 .991-.744q.366-.483.366-1.128 0-.52-.199-.892a2.1 2.1 0 0 0-.62-.681 7 7 0 0 0-1.078-.633 16 16 0 0 1-.861-.446q-.33-.186-.471-.377a.78.78 0 0 1-.143-.478q0-.433.303-.688.304-.254.8-.254.271 0 .49.05.217.05.427.174l.905 1.326h.198l-.111-1.686a4 4 0 0 0-.905-.353 4.2 4.2 0 0 0-1.066-.13q-.692 0-1.281.297m21.37 5.837q-.459-.422-.718-1.165-.261-.744-.261-1.698 0-.78.217-1.375t.608-.929q.39-.335.911-.335.583 0 1.035.421.452.422.707 1.16.254.736.254 1.69 0 1.165-.453 1.91-.452.742-1.245.743-.596 0-1.055-.422m-1.046-5.675a3.5 3.5 0 0 0-1.32 1.289 3.56 3.56 0 0 0-.483 1.846q0 1.041.483 1.853t1.32 1.282q.835.472 1.926.471 1.09 0 1.934-.47a3.5 3.5 0 0 0 1.326-1.283q.483-.812.483-1.853 0-1.028-.483-1.846a3.5 3.5 0 0 0-1.326-1.29q-.843-.47-1.934-.47t-1.926.47m-36.112-1.351a4.7 4.7 0 0 0-1.45.935q-.64.602-1.01 1.395a4 4 0 0 0-.372 1.723q0 1.153.538 2.063.54.912 1.518 1.444.98.533 2.28.533.892 0 1.606-.173a4.5 4.5 0 0 0 1.22-.471l.173-2.094h-.21l-1.116 1.66a4 4 0 0 1-.7.304 2.7 2.7 0 0 1-.824.118q-.719 0-1.295-.428-.576-.427-.91-1.215-.335-.787-.335-1.864 0-1.09.347-1.915.346-.825.948-1.277a2.2 2.2 0 0 1 1.356-.453q.384 0 .657.087.271.086.582.284l1.178 1.92h.223l-.136-2.317a8 8 0 0 0-.694-.31 4 4 0 0 0-.78-.21 7 7 0 0 0-1.091-.074 4.4 4.4 0 0 0-1.703.335"/><path fill="url(#r)" d="M93.102 47.99v.198l.818.41v5.725l-.818.409v.198h3.52v-.198l-.893-.41v-5.725l.892-.409v-.198zm9.765 0v.198l1.202.41v3.978l-4.127-4.586H97.7v.198l.917.41v5.713l-.917.408v.211h2.875v-.21l-1.201-.422v-4.361l4.572 5.043h.88v-6.382l.905-.408v-.199zm-21.452 1.673.992 2.366h-1.97zm.025-1.735-2.763 6.444-.632.36v.198h2.305v-.198l-.88-.372.707-1.698h2.503l.707 1.698-.88.372v.198h3.47v-.198l-.768-.434-2.714-6.37zm6.885.223q-.589.298-.941.788a1.8 1.8 0 0 0-.354 1.084q0 .694.378 1.164.378.472 1.146.818.681.322 1.097.527.415.204.6.409.186.204.186.552 0 .471-.347.706-.346.236-.954.236-.73 0-1.289-.36l-.855-1.326h-.198l.111 1.76q.495.248 1.035.397t1.245.148a3.6 3.6 0 0 0 1.395-.26 2.33 2.33 0 0 0 .991-.744q.366-.483.366-1.128 0-.52-.199-.892a2.1 2.1 0 0 0-.62-.681 7 7 0 0 0-1.078-.633 16 16 0 0 1-.861-.446q-.33-.186-.471-.377a.78.78 0 0 1-.143-.478q0-.433.303-.688.304-.254.8-.254.271 0 .49.05.217.05.427.174l.905 1.326h.198l-.111-1.686a4 4 0 0 0-.905-.353 4.2 4.2 0 0 0-1.066-.13q-.692 0-1.281.297m21.37 5.837q-.459-.422-.718-1.165-.261-.744-.261-1.698 0-.78.217-1.375t.608-.929q.39-.335.911-.335.583 0 1.035.421.452.422.707 1.16.254.736.254 1.69 0 1.165-.453 1.91-.452.742-1.245.743-.596 0-1.055-.422m-1.046-5.675a3.5 3.5 0 0 0-1.32 1.289 3.56 3.56 0 0 0-.483 1.846q0 1.041.483 1.853t1.32 1.282q.835.472 1.926.471 1.09 0 1.934-.47a3.5 3.5 0 0 0 1.326-1.283q.483-.812.483-1.853 0-1.028-.483-1.846a3.5 3.5 0 0 0-1.326-1.29q-.843-.47-1.934-.47t-1.926.47m-36.112-1.351a4.7 4.7 0 0 0-1.45.935q-.64.602-1.01 1.395a4 4 0 0 0-.372 1.723q0 1.153.538 2.063.54.912 1.518 1.444.98.533 2.28.533.892 0 1.606-.173a4.5 4.5 0 0 0 1.22-.471l.173-2.094h-.21l-1.116 1.66a4 4 0 0 1-.7.304 2.7 2.7 0 0 1-.824.118q-.719 0-1.295-.428-.576-.427-.91-1.215-.335-.787-.335-1.864 0-1.09.347-1.915.346-.825.948-1.277a2.2 2.2 0 0 1 1.356-.453q.384 0 .657.087.271.086.582.284l1.178 1.92h.223l-.136-2.317a8 8 0 0 0-.694-.31 4 4 0 0 0-.78-.21 7 7 0 0 0-1.091-.074 4.4 4.4 0 0 0-1.703.335"/><defs><linearGradient id="a" x1="7.477" x2="176.288" y1="41.971" y2="41.971" gradientUnits="userSpaceOnUse"><stop stop-color="#C89135"/><stop offset=".113" stop-color="#FCC456"/><stop offset=".262" stop-color="#BF862C"/><stop offset=".48" stop-color="#FCC456"/><stop offset=".701" stop-color="#FFD382"/><stop offset=".837" stop-color="#FCC456"/><stop offset="1" stop-color="#815F26"/></linearGradient><linearGradient id="b" x1="7.473" x2="176.283" y1="41.98" y2="41.98" gradientUnits="userSpaceOnUse"><stop stop-color="#C89135"/><stop offset=".113" stop-color="#FCC456"/><stop offset=".262" stop-color="#BF862C"/><stop offset=".48" stop-color="#FCC456"/><stop offset=".701" stop-color="#FFD382"/><stop offset=".837" stop-color="#FCC456"/><stop offset="1" stop-color="#815F26"/></linearGradient><linearGradient id="c" x1="7.771" x2="176.272" y1="15.175" y2="15.175" gradientUnits="userSpaceOnUse"><stop stop-color="#C89135"/><stop offset=".113" stop-color="#FCC456"/><stop offset=".262" stop-color="#BF862C"/><stop offset=".48" stop-color="#FCC456"/><stop offset=".701" stop-color="#FFD382"/><stop offset=".837" stop-color="#FCC456"/><stop offset="1" stop-color="#815F26"/></linearGradient><linearGradient id="d" x1="43.054" x2="140.705" y1="67.903" y2="67.903" gradientUnits="userSpaceOnUse"><stop stop-color="#C89135"/><stop offset=".113" stop-color="#FCC456"/><stop offset=".262" stop-color="#BF862C"/><stop offset=".48" stop-color="#FCC456"/><stop offset=".701" stop-color="#FFD382"/><stop offset=".837" stop-color="#FCC456"/><stop offset="1" stop-color="#815F26"/></linearGradient><linearGradient id="e" x1="88.195" x2="95.559" y1="10.486" y2="10.486" gradientUnits="userSpaceOnUse"><stop stop-color="#C89135"/><stop offset=".113" stop-color="#FCC456"/><stop offset=".262" stop-color="#BF862C"/><stop offset=".48" stop-color="#FCC456"/><stop offset=".701" stop-color="#FFD382"/><stop offset=".837" stop-color="#FCC456"/><stop offset="1" stop-color="#815F26"/></linearGradient><linearGradient id="f" x1="63.629" x2="120.129" y1="10.571" y2="10.571" gradientUnits="userSpaceOnUse"><stop stop-color="#C89135"/><stop offset=".113" stop-color="#FCC456"/><stop offset=".262" stop-color="#BF862C"/><stop offset=".48" stop-color="#FCC456"/><stop offset=".701" stop-color="#FFD382"/><stop offset=".837" stop-color="#FCC456"/><stop offset="1" stop-color="#815F26"/></linearGradient><linearGradient id="g" x1="7.772" x2="176.284" y1="28.181" y2="28.181" gradientUnits="userSpaceOnUse"><stop stop-color="#C89135"/><stop offset=".113" stop-color="#FCC456"/><stop offset=".262" stop-color="#BF862C"/><stop offset=".48" stop-color="#FCC456"/><stop offset=".701" stop-color="#FFD382"/><stop offset=".837" stop-color="#FCC456"/><stop offset="1" stop-color="#815F26"/></linearGradient><linearGradient id="h" x1="7.772" x2="176.284" y1="28.181" y2="28.181" gradientUnits="userSpaceOnUse"><stop stop-color="#C89135"/><stop offset=".113" stop-color="#FCC456"/><stop offset=".262" stop-color="#BF862C"/><stop offset=".48" stop-color="#FCC456"/><stop offset=".701" stop-color="#FFD382"/><stop offset=".837" stop-color="#FCC456"/><stop offset="1" stop-color="#815F26"/></linearGradient><linearGradient id="i" x1="52.383" x2="62.727" y1="52.444" y2="52.444" gradientUnits="userSpaceOnUse"><stop stop-color="#C89135"/><stop offset=".113" stop-color="#FCC456"/><stop offset=".262" stop-color="#BF862C"/><stop offset=".48" stop-color="#FCC456"/><stop offset=".701" stop-color="#FFD382"/><stop offset=".837" stop-color="#FCC456"/><stop offset="1" stop-color="#815F26"/></linearGradient><linearGradient id="j" x1="39.956" x2="50.711" y1="52.031" y2="52.031" gradientUnits="userSpaceOnUse"><stop stop-color="#C89135"/><stop offset=".113" stop-color="#FCC456"/><stop offset=".262" stop-color="#BF862C"/><stop offset=".48" stop-color="#FCC456"/><stop offset=".701" stop-color="#FFD382"/><stop offset=".837" stop-color="#FCC456"/><stop offset="1" stop-color="#815F26"/></linearGradient><linearGradient id="k" x1="29.517" x2="37.95" y1="52.031" y2="52.031" gradientUnits="userSpaceOnUse"><stop stop-color="#C89135"/><stop offset=".113" stop-color="#FCC456"/><stop offset=".262" stop-color="#BF862C"/><stop offset=".48" stop-color="#FCC456"/><stop offset=".701" stop-color="#FFD382"/><stop offset=".837" stop-color="#FCC456"/><stop offset="1" stop-color="#815F26"/></linearGradient><linearGradient id="l" x1="16.846" x2="27.548" y1="52.032" y2="52.032" gradientUnits="userSpaceOnUse"><stop stop-color="#C89135"/><stop offset=".113" stop-color="#FCC456"/><stop offset=".262" stop-color="#BF862C"/><stop offset=".48" stop-color="#FCC456"/><stop offset=".701" stop-color="#FFD382"/><stop offset=".837" stop-color="#FCC456"/><stop offset="1" stop-color="#815F26"/></linearGradient><linearGradient id="m" x1="156.202" x2="166.547" y1="52.444" y2="52.444" gradientUnits="userSpaceOnUse"><stop stop-color="#C89135"/><stop offset=".113" stop-color="#FCC456"/><stop offset=".262" stop-color="#BF862C"/><stop offset=".48" stop-color="#FCC456"/><stop offset=".701" stop-color="#FFD382"/><stop offset=".837" stop-color="#FCC456"/><stop offset="1" stop-color="#815F26"/></linearGradient><linearGradient id="n" x1="143.775" x2="154.53" y1="52.031" y2="52.031" gradientUnits="userSpaceOnUse"><stop stop-color="#C89135"/><stop offset=".113" stop-color="#FCC456"/><stop offset=".262" stop-color="#BF862C"/><stop offset=".48" stop-color="#FCC456"/><stop offset=".701" stop-color="#FFD382"/><stop offset=".837" stop-color="#FCC456"/><stop offset="1" stop-color="#815F26"/></linearGradient><linearGradient id="o" x1="133.336" x2="141.769" y1="52.031" y2="52.031" gradientUnits="userSpaceOnUse"><stop stop-color="#C89135"/><stop offset=".113" stop-color="#FCC456"/><stop offset=".262" stop-color="#BF862C"/><stop offset=".48" stop-color="#FCC456"/><stop offset=".701" stop-color="#FFD382"/><stop offset=".837" stop-color="#FCC456"/><stop offset="1" stop-color="#815F26"/></linearGradient><linearGradient id="p" x1="120.665" x2="131.367" y1="52.032" y2="52.032" gradientUnits="userSpaceOnUse"><stop stop-color="#C89135"/><stop offset=".113" stop-color="#FCC456"/><stop offset=".262" stop-color="#BF862C"/><stop offset=".48" stop-color="#FCC456"/><stop offset=".701" stop-color="#FFD382"/><stop offset=".837" stop-color="#FCC456"/><stop offset="1" stop-color="#815F26"/></linearGradient><linearGradient id="q" x1="69.705" x2="114.318" y1="50.84" y2="50.84" gradientUnits="userSpaceOnUse"><stop stop-color="#C89135"/><stop offset=".113" stop-color="#FCC456"/><stop offset=".262" stop-color="#BF862C"/><stop offset=".48" stop-color="#FCC456"/><stop offset=".701" stop-color="#FFD382"/><stop offset=".837" stop-color="#FCC456"/><stop offset="1" stop-color="#815F26"/></linearGradient><linearGradient id="r" x1="69.705" x2="114.318" y1="50.84" y2="50.84" gradientUnits="userSpaceOnUse"><stop stop-color="#C89135"/><stop offset=".113" stop-color="#FCC456"/><stop offset=".262" stop-color="#BF862C"/><stop offset=".48" stop-color="#FCC456"/><stop offset=".701" stop-color="#FFD382"/><stop offset=".837" stop-color="#FCC456"/><stop offset="1" stop-color="#815F26"/></linearGradient></defs></svg>