<svg xmlns="http://www.w3.org/2000/svg" width="91" height="40" fill="none"><path fill="url(#a)" d="M87.184 21.218H3.697v.609h83.487z"/><path fill="url(#b)" d="M87.184 21.218H3.697v.609h83.487z"/><path fill="url(#c)" d="M3.844 7.96v.61h37.27l-1.14-.61zm47.061 0-1.14.61h37.414v-.61z"/><path fill="url(#d)" d="M39.432 33.825c-.42-.097-.83-.332-1.196-.561q.275-.196.588-.326c1.285-.519 1.97-.08 2.002.36.021.297-.258.595-.854.595q-.236.001-.54-.068m10.62-.527c.033-.44.72-.879 2.005-.36.207.086.405.197.586.326-.365.229-.776.464-1.197.56a2.4 2.4 0 0 1-.54.069c-.596 0-.875-.297-.853-.595m-17.742.89c-2.207-.054-2.495-2.243-.603-2.943 1.304-.49 3.088.406 4.173 1.103q-.226.153-.453.312c-.713.497-2.196 1.53-3.083 1.53zm23.14-1.528q-.224-.158-.452-.312c1.084-.697 2.87-1.592 4.174-1.103 1.893.7 1.603 2.889-.604 2.943h-.033c-.887 0-2.368-1.032-3.084-1.528m-.933-.622-.01-.005c-.934-.56-2.005-1.042-3.1-1.207-.736-.11-1.526-.08-2.21.223-.773.345-1.412 1.068-1.361 1.925.066 1.065.987 2.035 2.544 2.012.214-.006.188-.177.02-.174-1.92.115-3.073-2.348-1.153-3.305.6-.268 1.358-.268 2-.17.977.148 1.936.544 2.787 1.024l-.453.3-.227.15c-.646-.342-1.3-.575-1.976-.589-.392-.04-.786.023-1.13.267-.24.17-.412.409-.444.695-.007.053-.005.107-.005.16v.007l.005.035v.002c.037.356.245.62.569.78.917.46 1.898-.103 2.678-.549.878.943.912 2.791-.293 3.6-.936.63-2.16.434-3.158.037-1.57-.625-2.738-2.107-3.892-3.294l.944-.973-1.213-1.25-1.212 1.25.944.973c-1.153 1.187-2.32 2.669-3.89 3.294-1 .397-2.225.592-3.161-.036-1.203-.81-1.17-2.658-.291-3.6.78.446 1.76 1.008 2.677.549.322-.16.533-.425.57-.78l.001-.004.003-.034v-.007c0-.053.002-.107-.004-.16-.034-.286-.206-.526-.445-.695-.344-.244-.737-.306-1.129-.267-.676.014-1.33.247-1.976.59l-.228-.15-.454-.3c.852-.481 1.811-.877 2.788-1.025.642-.097 1.398-.097 2.001.17 1.92.956.766 3.42-1.153 3.305-.17-.002-.195.168.018.174 1.557.023 2.481-.947 2.544-2.011.052-.858-.588-1.58-1.36-1.926-.685-.303-1.474-.333-2.208-.223-1.097.165-2.168.646-3.102 1.207l-.01.005c-3.013-2.134-5.191-1.525-7.507-.916-2.145.564-4.409 1.129-7.562-.486 3.437 3.226 7.579 1.079 9.42.692a1.9 1.9 0 0 0-.377.572c-.2.471-.194 1.006.021 1.47.381.83 1.256 1.194 2.153 1.222 1.061.032 2.386-.926 3.23-1.513.203-.141.405-.283.611-.418q.32.215.644.427l.023.014c-2.704 1.663-5.263 4.773-8.418 1.099.647 2.044 2.792 2.646 4.204 2.274 1.696-.446 2.953-1.801 4.344-2.858-1.473 2.02-.182 4.564 2.388 4.52.667-.013 1.329-.223 1.912-.457 1.445-.58 2.93-2.212 3.99-3.419 1.063 1.207 2.548 2.839 3.993 3.42.582.233 1.246.443 1.91.455 2.572.045 3.862-2.5 2.39-4.52 1.391 1.058 2.648 2.413 4.342 2.86 1.412.371 3.559-.231 4.204-2.275-3.155 3.674-5.714.563-8.417-1.099l.024-.014q.322-.212.643-.427c.206.135.409.277.612.418.843.587 2.17 1.545 3.229 1.513.898-.028 1.773-.393 2.154-1.221.213-.466.22-1 .02-1.471a1.9 1.9 0 0 0-.375-.572c1.839.387 5.982 2.534 9.42-.692-3.154 1.615-5.417 1.05-7.562.486-1.092-.287-2.153-.574-3.285-.574-1.27 0-2.63.361-4.223 1.49"/><path fill="url(#e)" d="m43.62 5.946 1.82 1.036 1.822-1.036-1.822-1.034z"/><path fill="url(#f)" d="M57.795 2.262a2 2 0 0 0-.32-.022c-.816 0-1.65.415-2.303.855-1.152.776-4.78 2.88-5.97 3.597-.891.537-1.792 1.07-2.701 1.58l-1.062-.603-1.062.603c-.908-.51-1.808-1.043-2.698-1.58-1.192-.717-4.82-2.82-5.972-3.597-.738-.497-1.706-.963-2.623-.833a1.87 1.87 0 0 0-1.596 2.133c.13.917.964 1.658 1.867 1.693.833.03 1.675-.592 2.03-1.245.144-.25.083-.318-.13-.11-.44.435-1.273.632-1.904.558a1.84 1.84 0 0 1-1.023-.453c-.87-.811-.327-1.946.823-1.932.74.008 1.535.407 2.14.808 1.17.776 4.798 2.893 6.001 3.617.77.462 1.545.924 2.33 1.37l-.004.003 1.821 1.034 1.821-1.034-.003-.003c.784-.446 1.56-.908 2.33-1.37 1.202-.724 4.831-2.841 6-3.617.605-.401 1.4-.8 2.142-.808 1.148-.014 1.691 1.12.822 1.932-.273.254-.653.41-1.021.453-.632.074-1.466-.123-1.907-.557-.212-.21-.272-.142-.128.109.354.653 1.196 1.275 2.028 1.245.906-.035 1.739-.776 1.869-1.693a1.874 1.874 0 0 0-1.597-2.133"/><path fill="url(#g)" d="M27.949 12.449v.156l.949.323v3.14l-3.258-3.62h-1.77v.157l.724.323v4.51l-.725.323v.166h2.27v-.166l-.949-.333v-3.444l3.61 3.982h.694v-5.037l.714-.323v-.157zm5.205.499h.332q1.067 0 1.604.582t.538 1.649q0 1.047-.523 1.648t-1.521.601h-.43zm-2.153-.5v.157l.724.323v4.52l-.724.323v.156h2.886q.96 0 1.683-.382a2.83 2.83 0 0 0 1.13-1.056q.406-.675.406-1.556 0-.724-.372-1.281-.371-.559-1.076-.88-.704-.324-1.712-.324zm16.299 0v.157l.723.323v4.52l-.724.323v.156h4.96v-1.761h-.156l-.675 1.262h-1.976v-2.103h1.262l.45.694h.146V14.16h-.146l-.45.705h-1.262v-1.918h1.78l.636.969h.157v-1.468zm5.899 0v.157l.724.323v4.52l-.724.323v.156h4.842v-2.094h-.156l-.734 1.595h-1.8v-4.5l.802-.322v-.157h-2.954m5.742 0v.157l.724.323v4.52l-.724.323v.156h4.842v-2.094h-.156l-.734 1.595h-1.8v-4.5l.802-.322v-.157h-2.954m18.646 0v.157l.646.323v4.52l-.646.323v.156h2.778v-.156l-.704-.323v-4.52l.704-.322v-.157h-2.778M19.673 13.77l.782 1.868H18.9zm-6.34-.87h.274q1.047 0 1.047 1.016 0 .48-.25.768-.25.29-.767.289h-.303zm6.36-.5-2.182 5.087-.44.25-.568-.28-1.506-2.396q1.095-.381 1.095-1.281 0-.616-.513-.973-.513-.358-1.404-.358H11.18v.157l.725.323v4.52l-.725.322v.156h2.779v-.156l-.626-.332v-2.006h.362l1.418 2.494h3.718v-.156l-.695-.294.558-1.34h1.976l.557 1.34-.694.294v.156h2.74v-.156l-.607-.343-2.143-5.028zm47.29 1.37.782 1.868h-1.556zm.019-1.37-2.182 5.087-.499.284v.156h1.82v-.156l-.695-.293.558-1.34h1.976l.558 1.34-.694.293v.156h2.739v-.156l-.607-.343-2.142-5.028zm6.016.152q-.586.21-1.037.606t-.704.94q-.255.542-.255 1.198 0 .811.397 1.428t1.066.959q.67.343 1.502.343.42 0 .84-.088.421-.089.788-.245a2.3 2.3 0 0 0 .602-.362v-1.36l.626-.39v-.147h-2.769v.146l.744.382v1.497a2.4 2.4 0 0 1-.529.058q-.87 0-1.35-.65t-.48-1.717q0-.686.226-1.208.225-.524.65-.822.427-.3 1.023-.299.284 0 .494.064.21.065.475.23l.714 1.095h.166l-.088-1.467a5.3 5.3 0 0 0-.778-.284q-.415-.117-1.071-.117-.664 0-1.252.21m10.517 4.632q-.36-.332-.567-.92a4 4 0 0 1-.206-1.34q0-.615.172-1.085.17-.47.479-.734t.719-.264q.46 0 .817.332.357.333.557.915t.2 1.335q0 .92-.356 1.507-.357.587-.984.587-.469 0-.83-.333m-.827-4.48a2.77 2.77 0 0 0-1.423 2.474 2.8 2.8 0 0 0 .382 1.463q.381.642 1.041 1.013.66.372 1.522.372.86 0 1.526-.372a2.76 2.76 0 0 0 1.046-1.013 2.8 2.8 0 0 0 .382-1.462 2.8 2.8 0 0 0-.382-1.458 2.75 2.75 0 0 0-1.046-1.018q-.665-.37-1.526-.371-.86 0-1.522.371M42.74 14.835h.675q.773 0 1.19.308.414.308.415.954 0 .567-.406.93-.405.361-1.13.362h-.743zm0-2.827h.333q1.428 0 1.428 1.203 0 .528-.362.837t-1.007.308h-.392zm-2.308-.538v.156l.831.401v5.342l-.831.401v.156h3.365q.803 0 1.433-.244.63-.245.993-.67.362-.426.362-.964 0-.645-.543-1.07-.544-.427-1.492-.553.705-.166 1.081-.588.376-.42.377-.919 0-.489-.318-.807t-.87-.48a4.5 4.5 0 0 0-1.258-.16zm-34.299.156q-.665.255-1.184.724-.518.47-.812 1.1-.293.632-.293 1.385 0 .686.259 1.267.26.582.724 1.012.465.43 1.076.67.612.24 1.316.24.42 0 .886-.103.465-.102.89-.284a2.9 2.9 0 0 0 .729-.435v-1.585l.733-.47v-.156H7.386v.157l.87.46v1.81q-.195.038-.391.053-.195.015-.362.015-.597 0-1.08-.343-.486-.342-.769-.973-.285-.631-.284-1.512 0-.841.294-1.472t.792-.983a1.9 1.9 0 0 1 1.116-.353q.312 0 .557.064.245.065.51.23l.938 1.418h.176l-.107-1.721a7 7 0 0 0-.573-.245 3.5 3.5 0 0 0-.655-.166 6 6 0 0 0-.886-.059q-.733.002-1.399.255"/><path fill="url(#h)" d="M27.949 12.449v.156l.949.323v3.14l-3.258-3.62h-1.77v.157l.724.323v4.51l-.725.323v.166h2.27v-.166l-.949-.333v-3.444l3.61 3.982h.694v-5.037l.714-.323v-.157zm5.205.499h.332q1.067 0 1.604.582t.538 1.649q0 1.047-.523 1.648t-1.521.601h-.43zm-2.153-.5v.157l.724.323v4.52l-.724.323v.156h2.886q.96 0 1.683-.382a2.83 2.83 0 0 0 1.13-1.056q.406-.675.406-1.556 0-.724-.372-1.281-.371-.559-1.076-.88-.704-.324-1.712-.324zm16.299 0v.157l.723.323v4.52l-.724.323v.156h4.96v-1.761h-.156l-.675 1.262h-1.976v-2.103h1.262l.45.694h.146V14.16h-.146l-.45.705h-1.262v-1.918h1.78l.636.969h.157v-1.468zm5.899 0v.157l.724.323v4.52l-.724.323v.156h4.842v-2.094h-.156l-.734 1.595h-1.8v-4.5l.802-.322v-.157h-2.954m5.742 0v.157l.724.323v4.52l-.724.323v.156h4.842v-2.094h-.156l-.734 1.595h-1.8v-4.5l.802-.322v-.157h-2.954m18.646 0v.157l.646.323v4.52l-.646.323v.156h2.778v-.156l-.704-.323v-4.52l.704-.322v-.157h-2.778M19.673 13.77l.782 1.868H18.9zm-6.34-.87h.274q1.047 0 1.047 1.016 0 .48-.25.768-.25.29-.767.289h-.303zm6.36-.5-2.182 5.087-.44.25-.568-.28-1.506-2.396q1.095-.381 1.095-1.281 0-.616-.513-.973-.513-.358-1.404-.358H11.18v.157l.725.323v4.52l-.725.322v.156h2.779v-.156l-.626-.332v-2.006h.362l1.418 2.494h3.718v-.156l-.695-.294.558-1.34h1.976l.557 1.34-.694.294v.156h2.74v-.156l-.607-.343-2.143-5.028zm47.29 1.37.782 1.868h-1.556zm.019-1.37-2.182 5.087-.499.284v.156h1.82v-.156l-.695-.293.558-1.34h1.976l.558 1.34-.694.293v.156h2.739v-.156l-.607-.343-2.142-5.028zm6.016.152q-.586.21-1.037.606t-.704.94q-.255.542-.255 1.198 0 .811.397 1.428t1.066.959q.67.343 1.502.343.42 0 .84-.088.421-.089.788-.245a2.3 2.3 0 0 0 .602-.362v-1.36l.626-.39v-.147h-2.769v.146l.744.382v1.497a2.4 2.4 0 0 1-.529.058q-.87 0-1.35-.65t-.48-1.717q0-.686.226-1.208.225-.524.65-.822.427-.3 1.023-.299.284 0 .494.064.21.065.475.23l.714 1.095h.166l-.088-1.467a5.3 5.3 0 0 0-.778-.284q-.415-.117-1.071-.117-.664 0-1.252.21m10.517 4.632q-.36-.332-.567-.92a4 4 0 0 1-.206-1.34q0-.615.172-1.085.17-.47.479-.734t.719-.264q.46 0 .817.332.357.333.557.915t.2 1.335q0 .92-.356 1.507-.357.587-.984.587-.469 0-.83-.333m-.827-4.48a2.77 2.77 0 0 0-1.423 2.474 2.8 2.8 0 0 0 .382 1.463q.381.642 1.041 1.013.66.372 1.522.372.86 0 1.526-.372a2.76 2.76 0 0 0 1.046-1.013 2.8 2.8 0 0 0 .382-1.462 2.8 2.8 0 0 0-.382-1.458 2.75 2.75 0 0 0-1.046-1.018q-.665-.37-1.526-.371-.86 0-1.522.371M42.74 14.835h.675q.773 0 1.19.308.414.308.415.954 0 .567-.406.93-.405.361-1.13.362h-.743zm0-2.827h.333q1.428 0 1.428 1.203 0 .528-.362.837t-1.007.308h-.392zm-2.308-.538v.156l.831.401v5.342l-.831.401v.156h3.365q.803 0 1.433-.244.63-.245.993-.67.362-.426.362-.964 0-.645-.543-1.07-.544-.427-1.492-.553.705-.166 1.081-.588.376-.42.377-.919 0-.489-.318-.807t-.87-.48a4.5 4.5 0 0 0-1.258-.16zm-34.299.156q-.665.255-1.184.724-.518.47-.812 1.1-.293.632-.293 1.385 0 .686.259 1.267.26.582.724 1.012.465.43 1.076.67.612.24 1.316.24.42 0 .886-.103.465-.102.89-.284a2.9 2.9 0 0 0 .729-.435v-1.585l.733-.47v-.156H7.386v.157l.87.46v1.81q-.195.038-.391.053-.195.015-.362.015-.597 0-1.08-.343-.486-.342-.769-.973-.285-.631-.284-1.512 0-.841.294-1.472t.792-.983a1.9 1.9 0 0 1 1.116-.353q.312 0 .557.064.245.065.51.23l.938 1.418h.176l-.107-1.721a7 7 0 0 0-.573-.245 3.5 3.5 0 0 0-.655-.166 6 6 0 0 0-.886-.059q-.733.002-1.399.255"/><path fill="url(#i)" d="M29.873 24.366a2 2 0 0 0-.212-.011c-.838 0-1.12.576-1.196.775-.082-.216-.405-.87-1.407-.764-.936.173-1.247 1-1.126 1.79.193 1.252 2.111 2.079 2.517 2.855l.016.03.017-.03c.405-.777 2.323-1.603 2.516-2.855.122-.79-.19-1.617-1.125-1.79"/><path fill="url(#j)" d="M23.83 25.931c-.161 0-.315.032-.457.087a1.25 1.25 0 1 0-1.905 0 1.25 1.25 0 1 0 .766 1.42c.017.587.056.958-.625 1.592h1.622c-.695-.649-.647-1.015-.626-1.596a1.251 1.251 0 1 0 1.224-1.503"/><path fill="url(#k)" d="M16.684 23.657c-.463.946-1.39 2.207-2.085 2.837.695.63 1.622 1.892 2.085 2.837.463-.945 1.39-2.206 2.085-2.837-.695-.63-1.622-1.89-2.085-2.837"/><path fill="url(#l)" d="M12.682 25.533q-.15-.119-.312-.25c-.776-.646-1.39-1.51-1.392-1.51 0-.001-.616.864-1.392 1.51q-.16.131-.311.25c-.524.413-.938.74-.943 1.36-.003.366.142.712.409.973.266.261.62.406 1 .41h.014c.397 0 .75-.161 1.017-.441-.044.194-.08.429-.135.576-.208.565-.554.805-.532.806h1.746c.023 0-.323-.24-.531-.806-.054-.147-.091-.382-.135-.576.266.28.62.44 1.017.44h.014a1.44 1.44 0 0 0 1-.409c.267-.26.412-.607.409-.973-.006-.621-.42-.948-.943-1.36"/><path fill="url(#m)" d="M81.22 24.366a2 2 0 0 0-.212-.011c-.837 0-1.12.576-1.196.775-.082-.216-.405-.87-1.407-.764-.936.173-1.247 1-1.126 1.79.194 1.252 2.112 2.079 2.517 2.855l.016.03.017-.03c.405-.777 2.323-1.603 2.516-2.855.122-.79-.19-1.617-1.125-1.79"/><path fill="url(#n)" d="M75.176 25.931c-.162 0-.316.032-.458.087a1.25 1.25 0 1 0-1.905 0 1.25 1.25 0 1 0 .766 1.42c.017.587.057.958-.624 1.592h1.622c-.695-.649-.647-1.015-.626-1.596a1.251 1.251 0 1 0 1.225-1.503"/><path fill="url(#o)" d="M68.03 23.657c-.464.946-1.39 2.207-2.086 2.837.696.63 1.622 1.892 2.086 2.837.463-.945 1.39-2.206 2.085-2.837-.695-.63-1.622-1.89-2.085-2.837"/><path fill="url(#p)" d="M64.028 25.533q-.152-.119-.312-.25c-.776-.646-1.391-1.51-1.392-1.51 0-.001-.616.864-1.392 1.51q-.16.131-.312.25c-.523.413-.937.74-.942 1.36-.003.366.142.712.408.973s.621.406 1 .41h.014c.398 0 .752-.161 1.018-.441-.044.194-.081.429-.136.576-.207.565-.554.805-.53.806h1.745c.023 0-.324-.24-.531-.806-.054-.147-.092-.382-.136-.576.267.28.62.44 1.018.44h.014a1.44 1.44 0 0 0 1-.409 1.34 1.34 0 0 0 .409-.973c-.006-.621-.42-.948-.943-1.36"/><path fill="url(#q)" d="M46.045 24.495v.099l.404.202v2.831l-.404.203v.098h1.74v-.098l-.44-.203v-2.831l.44-.202v-.099zm4.829 0v.099l.594.202v1.967l-2.04-2.268h-1.11v.099l.454.202v2.825l-.454.203v.104h1.422v-.104l-.594-.209v-2.157l2.261 2.495h.436v-3.157l.447-.202v-.098zm-10.61.828.491 1.17h-.974zm.013-.858-1.366 3.187-.313.178v.098h1.14v-.098l-.435-.184.35-.84h1.238l.349.84-.435.184v.098h1.716v-.098l-.38-.215-1.342-3.15zm3.405.11q-.292.147-.465.39a.9.9 0 0 0-.175.536q0 .343.186.576.188.233.567.404.337.16.543.26.205.102.297.203a.4.4 0 0 1 .092.273q0 .233-.172.35-.17.116-.472.116-.36 0-.637-.178l-.423-.656h-.098l.055.87q.245.123.512.197.267.073.616.073.38 0 .69-.129.309-.128.49-.367.18-.24.18-.558a.9.9 0 0 0-.098-.441 1 1 0 0 0-.306-.337 3.6 3.6 0 0 0-.533-.313 8 8 0 0 1-.427-.22.7.7 0 0 1-.233-.187.4.4 0 0 1-.07-.237q0-.214.15-.34a.6.6 0 0 1 .395-.126q.135 0 .242.025a.8.8 0 0 1 .212.086l.447.656h.098l-.055-.834a2 2 0 0 0-.974-.239q-.343 0-.634.147m10.57 2.887a1.4 1.4 0 0 1-.356-.576 2.5 2.5 0 0 1-.13-.84q0-.386.108-.68t.3-.46a.67.67 0 0 1 .452-.165q.288 0 .511.208.224.209.35.573t.125.837q0 .576-.223.944-.225.367-.616.367a.75.75 0 0 1-.522-.208m-.519-2.807a1.73 1.73 0 0 0-.891 1.55q0 .516.239.917.239.403.652.634.414.233.953.233.54 0 .957-.233t.655-.634.24-.916q0-.51-.24-.913a1.73 1.73 0 0 0-.655-.638 1.93 1.93 0 0 0-.957-.233q-.54 0-.953.233m-17.86-.668q-.4.165-.716.463a2.3 2.3 0 0 0-.5.69 2 2 0 0 0-.184.851q0 .57.267 1.02.265.452.75.715.484.264 1.128.264.441 0 .794-.086.352-.087.604-.233l.085-1.036h-.104l-.552.822q-.165.091-.346.15t-.408.058q-.355 0-.64-.212-.285-.21-.45-.6a2.35 2.35 0 0 1-.166-.923q0-.54.172-.947t.468-.631.671-.224q.19 0 .325.043t.288.14l.583.95h.11l-.067-1.146a4 4 0 0 0-.343-.153 2 2 0 0 0-.387-.104 3.3 3.3 0 0 0-.539-.037q-.44 0-.842.166"/><path fill="url(#r)" d="M46.045 24.495v.099l.404.202v2.831l-.404.203v.098h1.74v-.098l-.44-.203v-2.831l.44-.202v-.099zm4.829 0v.099l.594.202v1.967l-2.04-2.268h-1.11v.099l.454.202v2.825l-.454.203v.104h1.422v-.104l-.594-.209v-2.157l2.261 2.495h.436v-3.157l.447-.202v-.098zm-10.61.828.491 1.17h-.974zm.013-.858-1.366 3.187-.313.178v.098h1.14v-.098l-.435-.184.35-.84h1.238l.349.84-.435.184v.098h1.716v-.098l-.38-.215-1.342-3.15zm3.405.11q-.292.147-.465.39a.9.9 0 0 0-.175.536q0 .343.186.576.188.233.567.404.337.16.543.26.205.102.297.203a.4.4 0 0 1 .092.273q0 .233-.172.35-.17.116-.472.116-.36 0-.637-.178l-.423-.656h-.098l.055.87q.245.123.512.197.267.073.616.073.38 0 .69-.129.309-.128.49-.367.18-.24.18-.558a.9.9 0 0 0-.098-.441 1 1 0 0 0-.306-.337 3.6 3.6 0 0 0-.533-.313 8 8 0 0 1-.427-.22.7.7 0 0 1-.233-.187.4.4 0 0 1-.07-.237q0-.214.15-.34a.6.6 0 0 1 .395-.126q.135 0 .242.025a.8.8 0 0 1 .212.086l.447.656h.098l-.055-.834a2 2 0 0 0-.974-.239q-.343 0-.634.147m10.57 2.887a1.4 1.4 0 0 1-.356-.576 2.5 2.5 0 0 1-.13-.84q0-.386.108-.68t.3-.46a.67.67 0 0 1 .452-.165q.288 0 .511.208.224.209.35.573t.125.837q0 .576-.223.944-.225.367-.616.367a.75.75 0 0 1-.522-.208m-.519-2.807a1.73 1.73 0 0 0-.891 1.55q0 .516.239.917.239.403.652.634.414.233.953.233.54 0 .957-.233t.655-.634.24-.916q0-.51-.24-.913a1.73 1.73 0 0 0-.655-.638 1.93 1.93 0 0 0-.957-.233q-.54 0-.953.233m-17.86-.668q-.4.165-.716.463a2.3 2.3 0 0 0-.5.69 2 2 0 0 0-.184.851q0 .57.267 1.02.265.452.75.715.484.264 1.128.264.441 0 .794-.086.352-.087.604-.233l.085-1.036h-.104l-.552.822q-.165.091-.346.15t-.408.058q-.355 0-.64-.212-.285-.21-.45-.6a2.35 2.35 0 0 1-.166-.923q0-.54.172-.947t.468-.631.671-.224q.19 0 .325.043t.288.14l.583.95h.11l-.067-1.146a4 4 0 0 0-.343-.153 2 2 0 0 0-.387-.104 3.3 3.3 0 0 0-.539-.037q-.44 0-.842.166"/><defs><linearGradient id="a" x1="3.699" x2="87.187" y1="21.518" y2="21.518" gradientUnits="userSpaceOnUse"><stop stop-color="#C89135"/><stop offset=".113" stop-color="#FCC456"/><stop offset=".262" stop-color="#BF862C"/><stop offset=".48" stop-color="#FCC456"/><stop offset=".701" stop-color="#FFD382"/><stop offset=".837" stop-color="#FCC456"/><stop offset="1" stop-color="#815F26"/></linearGradient><linearGradient id="b" x1="3.697" x2="87.184" y1="21.523" y2="21.523" gradientUnits="userSpaceOnUse"><stop stop-color="#C89135"/><stop offset=".113" stop-color="#FCC456"/><stop offset=".262" stop-color="#BF862C"/><stop offset=".48" stop-color="#FCC456"/><stop offset=".701" stop-color="#FFD382"/><stop offset=".837" stop-color="#FCC456"/><stop offset="1" stop-color="#815F26"/></linearGradient><linearGradient id="c" x1="3.844" x2="87.178" y1="8.265" y2="8.265" gradientUnits="userSpaceOnUse"><stop stop-color="#C89135"/><stop offset=".113" stop-color="#FCC456"/><stop offset=".262" stop-color="#BF862C"/><stop offset=".48" stop-color="#FCC456"/><stop offset=".701" stop-color="#FFD382"/><stop offset=".837" stop-color="#FCC456"/><stop offset="1" stop-color="#815F26"/></linearGradient><linearGradient id="d" x1="21.293" x2="69.588" y1="34.343" y2="34.343" gradientUnits="userSpaceOnUse"><stop stop-color="#C89135"/><stop offset=".113" stop-color="#FCC456"/><stop offset=".262" stop-color="#BF862C"/><stop offset=".48" stop-color="#FCC456"/><stop offset=".701" stop-color="#FFD382"/><stop offset=".837" stop-color="#FCC456"/><stop offset="1" stop-color="#815F26"/></linearGradient><linearGradient id="e" x1="43.62" x2="47.261" y1="5.947" y2="5.947" gradientUnits="userSpaceOnUse"><stop stop-color="#C89135"/><stop offset=".113" stop-color="#FCC456"/><stop offset=".262" stop-color="#BF862C"/><stop offset=".48" stop-color="#FCC456"/><stop offset=".701" stop-color="#FFD382"/><stop offset=".837" stop-color="#FCC456"/><stop offset="1" stop-color="#815F26"/></linearGradient><linearGradient id="f" x1="31.468" x2="59.411" y1="5.989" y2="5.989" gradientUnits="userSpaceOnUse"><stop stop-color="#C89135"/><stop offset=".113" stop-color="#FCC456"/><stop offset=".262" stop-color="#BF862C"/><stop offset=".48" stop-color="#FCC456"/><stop offset=".701" stop-color="#FFD382"/><stop offset=".837" stop-color="#FCC456"/><stop offset="1" stop-color="#815F26"/></linearGradient><linearGradient id="g" x1="3.844" x2="87.184" y1="14.699" y2="14.699" gradientUnits="userSpaceOnUse"><stop stop-color="#C89135"/><stop offset=".113" stop-color="#FCC456"/><stop offset=".262" stop-color="#BF862C"/><stop offset=".48" stop-color="#FCC456"/><stop offset=".701" stop-color="#FFD382"/><stop offset=".837" stop-color="#FCC456"/><stop offset="1" stop-color="#815F26"/></linearGradient><linearGradient id="h" x1="3.844" x2="87.184" y1="14.699" y2="14.699" gradientUnits="userSpaceOnUse"><stop stop-color="#C89135"/><stop offset=".113" stop-color="#FCC456"/><stop offset=".262" stop-color="#BF862C"/><stop offset=".48" stop-color="#FCC456"/><stop offset=".701" stop-color="#FFD382"/><stop offset=".837" stop-color="#FCC456"/><stop offset="1" stop-color="#815F26"/></linearGradient><linearGradient id="i" x1="25.907" x2="31.023" y1="26.698" y2="26.698" gradientUnits="userSpaceOnUse"><stop stop-color="#C89135"/><stop offset=".113" stop-color="#FCC456"/><stop offset=".262" stop-color="#BF862C"/><stop offset=".48" stop-color="#FCC456"/><stop offset=".701" stop-color="#FFD382"/><stop offset=".837" stop-color="#FCC456"/><stop offset="1" stop-color="#815F26"/></linearGradient><linearGradient id="j" x1="19.761" x2="25.08" y1="26.494" y2="26.494" gradientUnits="userSpaceOnUse"><stop stop-color="#C89135"/><stop offset=".113" stop-color="#FCC456"/><stop offset=".262" stop-color="#BF862C"/><stop offset=".48" stop-color="#FCC456"/><stop offset=".701" stop-color="#FFD382"/><stop offset=".837" stop-color="#FCC456"/><stop offset="1" stop-color="#815F26"/></linearGradient><linearGradient id="k" x1="14.598" x2="18.769" y1="26.495" y2="26.495" gradientUnits="userSpaceOnUse"><stop stop-color="#C89135"/><stop offset=".113" stop-color="#FCC456"/><stop offset=".262" stop-color="#BF862C"/><stop offset=".48" stop-color="#FCC456"/><stop offset=".701" stop-color="#FFD382"/><stop offset=".837" stop-color="#FCC456"/><stop offset="1" stop-color="#815F26"/></linearGradient><linearGradient id="l" x1="8.332" x2="13.625" y1="26.495" y2="26.495" gradientUnits="userSpaceOnUse"><stop stop-color="#C89135"/><stop offset=".113" stop-color="#FCC456"/><stop offset=".262" stop-color="#BF862C"/><stop offset=".48" stop-color="#FCC456"/><stop offset=".701" stop-color="#FFD382"/><stop offset=".837" stop-color="#FCC456"/><stop offset="1" stop-color="#815F26"/></linearGradient><linearGradient id="m" x1="77.254" x2="82.37" y1="26.698" y2="26.698" gradientUnits="userSpaceOnUse"><stop stop-color="#C89135"/><stop offset=".113" stop-color="#FCC456"/><stop offset=".262" stop-color="#BF862C"/><stop offset=".48" stop-color="#FCC456"/><stop offset=".701" stop-color="#FFD382"/><stop offset=".837" stop-color="#FCC456"/><stop offset="1" stop-color="#815F26"/></linearGradient><linearGradient id="n" x1="71.107" x2="76.426" y1="26.494" y2="26.494" gradientUnits="userSpaceOnUse"><stop stop-color="#C89135"/><stop offset=".113" stop-color="#FCC456"/><stop offset=".262" stop-color="#BF862C"/><stop offset=".48" stop-color="#FCC456"/><stop offset=".701" stop-color="#FFD382"/><stop offset=".837" stop-color="#FCC456"/><stop offset="1" stop-color="#815F26"/></linearGradient><linearGradient id="o" x1="65.944" x2="70.115" y1="26.495" y2="26.495" gradientUnits="userSpaceOnUse"><stop stop-color="#C89135"/><stop offset=".113" stop-color="#FCC456"/><stop offset=".262" stop-color="#BF862C"/><stop offset=".48" stop-color="#FCC456"/><stop offset=".701" stop-color="#FFD382"/><stop offset=".837" stop-color="#FCC456"/><stop offset="1" stop-color="#815F26"/></linearGradient><linearGradient id="p" x1="59.678" x2="64.97" y1="26.495" y2="26.495" gradientUnits="userSpaceOnUse"><stop stop-color="#C89135"/><stop offset=".113" stop-color="#FCC456"/><stop offset=".262" stop-color="#BF862C"/><stop offset=".48" stop-color="#FCC456"/><stop offset=".701" stop-color="#FFD382"/><stop offset=".837" stop-color="#FCC456"/><stop offset="1" stop-color="#815F26"/></linearGradient><linearGradient id="q" x1="34.474" x2="56.537" y1="25.905" y2="25.905" gradientUnits="userSpaceOnUse"><stop stop-color="#C89135"/><stop offset=".113" stop-color="#FCC456"/><stop offset=".262" stop-color="#BF862C"/><stop offset=".48" stop-color="#FCC456"/><stop offset=".701" stop-color="#FFD382"/><stop offset=".837" stop-color="#FCC456"/><stop offset="1" stop-color="#815F26"/></linearGradient><linearGradient id="r" x1="34.474" x2="56.537" y1="25.905" y2="25.905" gradientUnits="userSpaceOnUse"><stop stop-color="#C89135"/><stop offset=".113" stop-color="#FCC456"/><stop offset=".262" stop-color="#BF862C"/><stop offset=".48" stop-color="#FCC456"/><stop offset=".701" stop-color="#FFD382"/><stop offset=".837" stop-color="#FCC456"/><stop offset="1" stop-color="#815F26"/></linearGradient></defs></svg>