<svg width="91" height="40" viewBox="0 0 91 40" fill="none" xmlns="http://www.w3.org/2000/svg">
<path d="M87.1843 21.2178H3.69678V21.8268H87.1843V21.2178Z" fill="url(#paint0_linear_109_9434)"/>
<path d="M87.1843 21.2178H3.69678V21.8268H87.1843V21.2178Z" fill="url(#paint1_linear_109_9434)"/>
<path d="M3.84375 7.96094V8.56952H41.1147L39.9741 7.96094H3.84375ZM50.9051 7.96094L49.765 8.56952H87.1785V7.96094H50.9051Z" fill="url(#paint2_linear_109_9434)"/>
<path d="M39.4324 33.8248C39.0119 33.728 38.6019 33.4928 38.2363 33.2639C38.4198 33.1346 38.6147 33.0236 38.8238 32.9379C40.1089 32.4192 40.7949 32.8585 40.8261 33.2979C40.8472 33.5955 40.5684 33.8927 39.9722 33.8927C39.8144 33.8927 39.6347 33.872 39.4324 33.8248ZM50.0529 33.2979C50.0846 32.8585 50.7711 32.4192 52.0575 32.9379C52.2644 33.0236 52.4616 33.1351 52.6427 33.2639C52.2781 33.4928 51.8672 33.7276 51.4462 33.8248C51.2439 33.872 51.0642 33.8927 50.9064 33.8927C50.3102 33.8927 50.0314 33.5955 50.0529 33.2979ZM32.3102 34.1885C30.1033 34.1339 29.8153 31.9454 31.7071 31.2447C33.0114 30.7553 34.7954 31.651 35.8805 32.3481C35.7296 32.4503 35.5782 32.5545 35.4273 32.6604C34.7142 33.1566 33.2315 34.1894 32.3436 34.1894C32.3326 34.1889 32.3216 34.1889 32.3102 34.1885ZM55.4508 32.6604C55.3013 32.5545 55.1499 32.4503 54.9981 32.3481C56.0823 31.651 57.8681 30.7558 59.1724 31.2447C61.0651 31.9459 60.7753 34.1339 58.5684 34.1885C58.5574 34.1889 58.5464 34.1889 58.535 34.1889C57.648 34.1889 56.1667 33.1562 55.4508 32.6604ZM54.5171 32.0376L54.5079 32.033C53.5728 31.4721 52.5015 30.9915 51.4063 30.8264C50.6711 30.7163 49.8814 30.7457 49.1972 31.0493C48.4239 31.3942 47.7846 32.1165 47.836 32.9745C47.9016 34.0385 48.8234 35.0085 50.3799 34.986C50.5936 34.9796 50.5679 34.8094 50.3992 34.8122C48.4799 34.9268 47.3274 32.4636 49.2467 31.5065C49.8475 31.2392 50.6051 31.2392 51.2476 31.3373C52.2245 31.485 53.1834 31.8812 54.0337 32.3614C53.8837 32.4614 53.7328 32.5613 53.5806 32.6613L53.3536 32.8113C52.7083 32.4687 52.0534 32.2362 51.3783 32.2224C50.9857 32.1825 50.5923 32.2453 50.2474 32.4893C50.0089 32.6581 49.836 32.898 49.8039 33.1837C49.7966 33.2369 49.7993 33.2905 49.7993 33.3442V33.3506L49.8039 33.3855V33.3882C49.841 33.7441 50.0493 34.0082 50.373 34.1688C51.2898 34.6283 52.2708 34.0651 53.0513 33.6193C53.9291 34.5623 53.9631 36.4105 52.7583 37.2199C51.8218 37.8482 50.5978 37.6528 49.5998 37.2557C48.0291 36.631 46.8619 35.1493 45.7085 33.9619L46.6523 32.9888L45.4393 31.739L44.2267 32.9888L45.171 33.9619C44.0176 35.1493 42.8504 36.631 41.2806 37.2557C40.2804 37.6528 39.0563 37.8482 38.1199 37.2199C36.9165 36.4105 36.9504 34.5623 37.8286 33.6193C38.6092 34.0656 39.5892 34.6283 40.5056 34.1688C40.8284 34.0082 41.0389 33.7441 41.0761 33.3882L41.0774 33.3855L41.0797 33.3506V33.3442C41.0797 33.2905 41.082 33.2369 41.0761 33.1837C41.0421 32.898 40.8702 32.6581 40.6308 32.4893C40.2873 32.2453 39.8942 32.1825 39.5021 32.2224C38.8261 32.2362 38.1712 32.4687 37.5264 32.8113L37.2976 32.6613C37.1467 32.5613 36.9958 32.4614 36.8445 32.3614C37.6961 31.8808 38.6551 31.485 39.6319 31.3373C40.274 31.2396 41.0302 31.2396 41.6333 31.5065C43.5521 32.4632 42.3987 34.9268 40.4799 34.8122C40.3102 34.8099 40.2845 34.9796 40.4982 34.986C42.0547 35.0085 42.9793 34.0385 43.0417 32.9745C43.094 32.1165 42.4537 31.3942 41.6814 31.0493C40.9972 30.7457 40.2075 30.7159 39.4737 30.8264C38.3771 30.9915 37.3063 31.4721 36.3716 32.033L36.3625 32.0376C33.3494 29.9037 31.171 30.5127 28.8545 31.1222C26.7096 31.6863 24.4464 32.2509 21.2925 30.6356C24.7302 33.8624 28.872 31.7147 30.7128 31.3281C30.556 31.4932 30.4285 31.6831 30.3363 31.9C30.1368 32.371 30.1423 32.9057 30.3574 33.3708C30.738 34.1995 31.6126 34.5641 32.5097 34.5916C33.5713 34.6242 34.8963 33.6661 35.7406 33.0791C35.9428 32.9378 36.1451 32.7957 36.3515 32.6613C36.5652 32.8039 36.7789 32.9466 36.9949 33.0883L37.0183 33.102C34.3143 34.7645 31.7548 37.8748 28.6 34.2009C29.2466 36.2449 31.3916 36.8466 32.8041 36.4751C34.5 36.0289 35.7566 34.6737 37.1481 33.6166C35.6755 35.6363 36.966 38.1812 39.5361 38.1362C40.2029 38.1243 40.8646 37.9142 41.448 37.6804C42.8926 37.0997 44.3772 35.468 45.4388 34.2614C46.5014 35.468 47.986 37.0997 49.431 37.6804C50.013 37.9142 50.6771 38.1243 51.3416 38.1362C53.9126 38.1812 55.2027 35.6363 53.7315 33.6166C55.1224 34.6737 56.3786 36.0289 58.0731 36.4751C59.4852 36.8471 61.6315 36.2449 62.2768 34.2009C59.1224 37.8748 56.5629 34.764 53.8603 33.102L53.8837 33.0883C54.0988 32.9466 54.313 32.8039 54.5271 32.6613C54.7326 32.7957 54.9358 32.9378 55.1394 33.0791C55.9823 33.6661 57.3086 34.6242 58.368 34.5916C59.2664 34.5636 60.1406 34.199 60.5217 33.3708C60.7354 32.9053 60.7427 32.3705 60.5423 31.9C60.4506 31.6835 60.3226 31.4932 60.1667 31.3281C62.0057 31.7147 66.1488 33.8624 69.5875 30.6356C66.4332 32.2509 64.1699 31.6868 62.0245 31.1222C60.933 30.8351 59.8718 30.548 58.7399 30.548C57.4701 30.548 56.1103 30.9094 54.5171 32.0376Z" fill="url(#paint3_linear_109_9434)"/>
<path d="M43.6196 5.94628L45.4403 6.98228L47.2615 5.94628L45.4403 4.91211L43.6196 5.94628Z" fill="url(#paint4_linear_109_9434)"/>
<path d="M57.7947 2.26239C57.6887 2.24726 57.5823 2.24038 57.4755 2.24038C56.6587 2.24038 55.8258 2.65496 55.1719 3.09523C54.0203 3.8712 50.3913 5.97531 49.2021 6.69212C48.3106 7.2287 47.4099 7.7616 46.5009 8.27158L45.4392 7.66896L44.3775 8.27158C43.4695 7.7616 42.5692 7.2287 41.6786 6.69212C40.4871 5.97531 36.8586 3.8712 35.7066 3.09523C34.9691 2.59764 34.0014 2.13215 33.0838 2.26239C32.0455 2.40731 31.3401 3.35847 31.4878 4.39493C31.618 5.31216 32.4518 6.05282 33.3553 6.08767C34.1881 6.11794 35.0301 5.4956 35.3855 4.843C35.5286 4.59214 35.4681 4.52472 35.2557 4.73385C34.8141 5.16815 33.9817 5.36536 33.3507 5.29106C32.9815 5.24795 32.6027 5.09248 32.3284 4.83795C31.4575 4.02667 32.001 2.89161 33.1507 2.90582C33.8918 2.91408 34.6861 3.31261 35.2911 3.7139C36.4605 4.49033 40.089 6.60682 41.2924 7.33051C42.0615 7.79279 42.8375 8.25507 43.6226 8.70084L43.6181 8.70359L45.4392 9.73822L47.2604 8.70359L47.2571 8.70084C48.0414 8.25507 48.8178 7.79279 49.5869 7.33051C50.7894 6.60682 54.4184 4.48987 55.5878 3.7139C56.1923 3.31261 56.9866 2.91362 57.7286 2.90582C58.8774 2.89161 59.4204 4.02667 58.5509 4.83795C58.278 5.09248 57.8983 5.24841 57.5296 5.29106C56.8981 5.36536 56.0643 5.16815 55.6227 4.73385C55.4113 4.52472 55.3512 4.59214 55.4952 4.843C55.8492 5.4956 56.6912 6.11794 57.5227 6.08767C58.4294 6.05282 59.2618 5.3117 59.392 4.39493C59.5388 3.35847 58.8334 2.40777 57.7947 2.26239Z" fill="url(#paint5_linear_109_9434)"/>
<path d="M27.9488 12.4489V12.6053L28.8977 12.9281V16.0683L25.6402 12.4484H23.8695V12.6048L24.5936 12.9277V17.4377L23.8695 17.7605V17.927H26.1392V17.7605L25.1903 17.428V13.9843L28.8 17.966H29.4944V12.9286L30.2084 12.6057V12.4493H27.9488V12.4489ZM33.1536 12.9479H33.4861C34.197 12.9479 34.7317 13.1419 35.0903 13.5298C35.449 13.9178 35.6283 14.4672 35.6283 15.1785C35.6283 15.8766 35.454 16.426 35.105 16.8268C34.756 17.2281 34.2488 17.4285 33.5838 17.4285H33.1532V12.9479H33.1536ZM31.0013 12.4489V12.6053L31.7255 12.9281V17.4478L31.0013 17.7706V17.927H33.8874C34.5267 17.927 35.0871 17.8 35.57 17.5454C36.0525 17.2909 36.429 16.9387 36.7001 16.4888C36.9706 16.0389 37.1059 15.5202 37.1059 14.9332C37.1059 14.4507 36.9821 14.0233 36.734 13.6518C36.4859 13.2799 36.1277 12.9864 35.6581 12.7713C35.1885 12.5562 34.6175 12.4484 33.9461 12.4484H31.0013V12.4489ZM47.2995 12.4489V12.6053L48.0232 12.9281V17.4478L47.2995 17.7706V17.927H52.2594V16.1659H52.103L51.4279 17.428H49.4518V15.3248H50.7139L51.1637 16.0192H51.3105V14.1604H51.1637L50.7139 14.8649H49.4518V12.9474H51.2321L51.8682 13.916H52.0246V12.4484H47.2995V12.4489ZM53.1986 12.4489V12.6053L53.9228 12.9281V17.4478L53.1986 17.7706V17.927H58.0411V15.8334H57.8847L57.1509 17.428H55.3509V12.9286L56.153 12.6057V12.4493H53.1986V12.4489ZM58.9409 12.4489V12.6053L59.665 12.9281V17.4478L58.9409 17.7706V17.927H63.7834V15.8334H63.627L62.8932 17.428H61.0931V12.9286L61.8953 12.6057V12.4493H58.9409V12.4489ZM77.5871 12.4489V12.6053L78.2328 12.9281V17.4478L77.5871 17.7706V17.927H80.3654V17.7706L79.6609 17.4478V12.9286L80.3654 12.6057V12.4493H77.5871V12.4489ZM19.6727 13.7697L20.4551 15.6381H18.9L19.6727 13.7697ZM13.3333 12.8992H13.6071C14.3051 12.8992 14.6541 13.2386 14.6541 13.9164C14.6541 14.2361 14.5711 14.492 14.4047 14.6842C14.2382 14.8768 13.9823 14.9726 13.6369 14.9726H13.3338V12.8992H13.3333ZM19.6924 12.4003L17.5108 17.4872L17.071 17.7376L16.5033 17.4578L14.9967 15.0611C15.7273 14.8066 16.0923 14.3796 16.0923 13.7798C16.0923 13.3689 15.9213 13.0446 15.5787 12.8066C15.2366 12.5686 14.7683 12.4493 14.1749 12.4493H11.1815V12.6057L11.9057 12.9286V17.4482L11.1815 17.7711V17.9275H13.9598V17.7711L13.3338 17.4386V15.4326H13.6956L15.1141 17.927H17.0119H18.8316V17.7706L18.1368 17.4771L18.6945 16.137H20.6707L21.2283 17.4771L20.534 17.7706V17.927H23.2733V17.7706L22.667 17.428L20.5244 12.3998H19.6924V12.4003ZM66.9826 13.7697L67.765 15.6381H66.2094L66.9826 13.7697ZM67.0019 12.4003L64.8203 17.4872L64.3213 17.7711V17.9275H66.1411V17.7711L65.4463 17.4776L66.004 16.1375H67.9801L68.5378 17.4776L67.8435 17.7711V17.9275H70.5827V17.7711L69.9764 17.4285L67.8338 12.4003H67.0019ZM73.0184 12.5516C72.6272 12.692 72.2814 12.8942 71.9815 13.1584C71.6816 13.4225 71.4468 13.7358 71.2771 14.0976C71.1074 14.4594 71.0225 14.8594 71.0225 15.296C71.0225 15.8371 71.1546 16.3132 71.4188 16.7241C71.6829 17.135 72.0384 17.4546 72.4851 17.683C72.9317 17.9114 73.4321 18.0256 73.9865 18.0256C74.2668 18.0256 74.5474 17.9963 74.8276 17.9376C75.1079 17.8788 75.3706 17.7972 75.6151 17.6931C75.8595 17.589 76.0604 17.4679 76.2168 17.3313V15.9715L76.8428 15.5803V15.4335H74.0742V15.5803L74.8176 15.9619V17.4588C74.6414 17.4977 74.4653 17.5175 74.2892 17.5175C73.7086 17.5175 73.2587 17.3005 72.9391 16.8667C72.6194 16.4328 72.4598 15.861 72.4598 15.1497C72.4598 14.6933 72.5346 14.2907 72.685 13.9417C72.835 13.5927 73.0519 13.3189 73.3358 13.1198C73.6197 12.9208 73.9604 12.8213 74.358 12.8213C74.547 12.8213 74.7116 12.8424 74.852 12.885C74.9923 12.9277 75.1505 13.0043 75.3266 13.1148L76.0407 14.2104H76.2071L76.1191 12.7429C75.8779 12.6319 75.6183 12.5374 75.3413 12.459C75.0638 12.3806 74.707 12.3416 74.27 12.3416C73.8274 12.3416 73.4101 12.4117 73.0184 12.5516ZM83.5353 17.1841C83.2941 16.9625 83.1047 16.6557 82.968 16.2645C82.8309 15.8733 82.7625 15.4267 82.7625 14.9245C82.7625 14.5136 82.8194 14.1517 82.9336 13.8385C83.0478 13.5253 83.2074 13.2808 83.4129 13.1047C83.6183 12.9286 83.8582 12.8405 84.132 12.8405C84.4383 12.8405 84.7107 12.9515 84.9487 13.173C85.1868 13.395 85.3725 13.7 85.5064 14.088C85.6399 14.476 85.7068 14.9213 85.7068 15.4234C85.7068 16.0366 85.5876 16.5388 85.3496 16.93C85.1115 17.3212 84.7836 17.517 84.3663 17.517C84.0535 17.5165 83.7765 17.4056 83.5353 17.1841ZM82.7084 12.7034C82.2682 12.9515 81.921 13.2904 81.6665 13.7206C81.4119 14.1513 81.2849 14.6369 81.2849 15.1785C81.2849 15.7266 81.4119 16.2141 81.6665 16.6411C81.921 17.0685 82.2682 17.406 82.7084 17.6537C83.1487 17.9018 83.6555 18.0256 84.2296 18.0256C84.8034 18.0256 85.312 17.9018 85.7559 17.6537C86.1994 17.406 86.5484 17.0685 86.8024 16.6411C87.057 16.2141 87.184 15.7266 87.184 15.1785C87.184 14.6374 87.057 14.1513 86.8024 13.7206C86.5479 13.29 86.1994 12.9511 85.7559 12.7034C85.3124 12.4558 84.8038 12.3315 84.2296 12.3315C83.6559 12.3315 83.1487 12.4558 82.7084 12.7034ZM42.7404 14.836H43.4155C43.9305 14.836 44.3268 14.9387 44.6042 15.1441C44.8812 15.3496 45.0202 15.6674 45.0202 16.0981C45.0202 16.4764 44.8849 16.7864 44.6143 17.0277C44.3437 17.2689 43.9668 17.3895 43.4843 17.3895H42.7409V14.836H42.7404ZM42.7404 12.0086H43.0729C44.025 12.0086 44.501 12.4099 44.501 13.212C44.501 13.5642 44.3804 13.8431 44.1392 14.0485C43.898 14.254 43.5618 14.3567 43.1316 14.3567H42.7404V12.0086ZM40.4318 11.4707V11.6271L41.2632 12.0283V17.3698L40.4318 17.7711V17.9275H43.7971C44.3318 17.9275 44.8097 17.8458 45.2302 17.683C45.6508 17.5202 45.9819 17.2964 46.2231 17.013C46.4644 16.7291 46.585 16.4081 46.585 16.0494C46.585 15.6188 46.4038 15.262 46.042 14.9781C45.6801 14.6943 45.1825 14.5103 44.5501 14.4255C45.0197 14.3145 45.3797 14.1192 45.6311 13.8385C45.8819 13.5583 46.0076 13.2515 46.0076 12.919C46.0076 12.5929 45.9016 12.3237 45.6898 12.1118C45.4779 11.8999 45.1876 11.7399 44.8193 11.6326C44.4506 11.5248 44.0319 11.4711 43.5623 11.4711H40.4318V11.4707ZM6.13314 11.6271C5.68966 11.7967 5.2948 12.038 4.94946 12.3512C4.60367 12.6644 4.33309 13.0313 4.13726 13.4519C3.94143 13.8724 3.84375 14.3338 3.84375 14.836C3.84375 15.2927 3.92997 15.7151 4.10287 16.1026C4.27576 16.4906 4.51699 16.8282 4.82701 17.1153C5.13658 17.4024 5.49567 17.6257 5.90337 17.7853C6.31108 17.9449 6.74951 18.0251 7.21913 18.0251C7.49934 18.0251 7.79469 17.9908 8.10471 17.9224C8.41427 17.8541 8.71145 17.7596 8.99487 17.6385C9.27876 17.5179 9.52136 17.373 9.72361 17.2033V15.6184L10.4574 15.1487V14.9923H7.38561V15.1487L8.25605 15.6087V17.4184C8.12535 17.4445 7.9951 17.4624 7.86486 17.4721C7.73415 17.4817 7.61354 17.4867 7.50301 17.4867C7.10494 17.4867 6.74493 17.3725 6.42206 17.1442C6.0992 16.9158 5.8433 16.5915 5.65435 16.1705C5.46494 15.75 5.37047 15.246 5.37047 14.6589C5.37047 14.0981 5.46815 13.6073 5.66398 13.1868C5.85981 12.7662 6.12351 12.4383 6.45646 12.2035C6.78895 11.9687 7.16089 11.8513 7.5718 11.8513C7.78047 11.8513 7.96621 11.8724 8.12947 11.9151C8.29228 11.9577 8.46197 12.0343 8.63807 12.1448L9.57731 13.5633H9.75342L9.64564 11.8417C9.45624 11.7504 9.26546 11.6688 9.0733 11.5972C8.88068 11.5257 8.66238 11.4702 8.41794 11.4308C8.1735 11.3918 7.87816 11.3721 7.53236 11.3721C7.04302 11.373 6.57662 11.4578 6.13314 11.6271Z" fill="url(#paint6_linear_109_9434)"/>
<path d="M27.9488 12.4489V12.6053L28.8977 12.9281V16.0683L25.6402 12.4484H23.8695V12.6048L24.5936 12.9277V17.4377L23.8695 17.7605V17.927H26.1392V17.7605L25.1903 17.428V13.9843L28.8 17.966H29.4944V12.9286L30.2084 12.6057V12.4493H27.9488V12.4489ZM33.1536 12.9479H33.4861C34.197 12.9479 34.7317 13.1419 35.0903 13.5298C35.449 13.9178 35.6283 14.4672 35.6283 15.1785C35.6283 15.8766 35.454 16.426 35.105 16.8268C34.756 17.2281 34.2488 17.4285 33.5838 17.4285H33.1532V12.9479H33.1536ZM31.0013 12.4489V12.6053L31.7255 12.9281V17.4478L31.0013 17.7706V17.927H33.8874C34.5267 17.927 35.0871 17.8 35.57 17.5454C36.0525 17.2909 36.429 16.9387 36.7001 16.4888C36.9706 16.0389 37.1059 15.5202 37.1059 14.9332C37.1059 14.4507 36.9821 14.0233 36.734 13.6518C36.4859 13.2799 36.1277 12.9864 35.6581 12.7713C35.1885 12.5562 34.6175 12.4484 33.9461 12.4484H31.0013V12.4489ZM47.2995 12.4489V12.6053L48.0232 12.9281V17.4478L47.2995 17.7706V17.927H52.2594V16.1659H52.103L51.4279 17.428H49.4518V15.3248H50.7139L51.1637 16.0192H51.3105V14.1604H51.1637L50.7139 14.8649H49.4518V12.9474H51.2321L51.8682 13.916H52.0246V12.4484H47.2995V12.4489ZM53.1986 12.4489V12.6053L53.9228 12.9281V17.4478L53.1986 17.7706V17.927H58.0411V15.8334H57.8847L57.1509 17.428H55.3509V12.9286L56.153 12.6057V12.4493H53.1986V12.4489ZM58.9409 12.4489V12.6053L59.665 12.9281V17.4478L58.9409 17.7706V17.927H63.7834V15.8334H63.627L62.8932 17.428H61.0931V12.9286L61.8953 12.6057V12.4493H58.9409V12.4489ZM77.5871 12.4489V12.6053L78.2328 12.9281V17.4478L77.5871 17.7706V17.927H80.3654V17.7706L79.6609 17.4478V12.9286L80.3654 12.6057V12.4493H77.5871V12.4489ZM19.6727 13.7697L20.4551 15.6381H18.9L19.6727 13.7697ZM13.3333 12.8992H13.6071C14.3051 12.8992 14.6541 13.2386 14.6541 13.9164C14.6541 14.2361 14.5711 14.492 14.4047 14.6842C14.2382 14.8768 13.9823 14.9726 13.6369 14.9726H13.3338V12.8992H13.3333ZM19.6924 12.4003L17.5108 17.4872L17.071 17.7371L16.5033 17.4578L14.9967 15.0611C15.7273 14.8066 16.0923 14.3796 16.0923 13.7798C16.0923 13.3689 15.9213 13.0446 15.5787 12.8066C15.2366 12.5686 14.7683 12.4493 14.1749 12.4493H11.1815V12.6057L11.9057 12.9286V17.4482L11.1815 17.7711V17.9275H13.9598V17.7711L13.3338 17.4386V15.4326H13.6956L15.1141 17.927H17.0119H18.8316V17.7706L18.1368 17.4771L18.6945 16.137H20.6707L21.2283 17.4771L20.534 17.7706V17.927H23.2733V17.7706L22.667 17.428L20.5244 12.3998H19.6924V12.4003ZM66.9826 13.7697L67.765 15.6381H66.2094L66.9826 13.7697ZM67.0019 12.4003L64.8203 17.4872L64.3213 17.7711V17.9275H66.1411V17.7711L65.4463 17.4776L66.004 16.1375H67.9801L68.5378 17.4776L67.8435 17.7711V17.9275H70.5827V17.7711L69.9764 17.4285L67.8338 12.4003H67.0019ZM73.0184 12.5516C72.6272 12.692 72.2814 12.8942 71.9815 13.1584C71.6816 13.4225 71.4468 13.7358 71.2771 14.0976C71.1074 14.4594 71.0225 14.8594 71.0225 15.296C71.0225 15.8371 71.1546 16.3132 71.4188 16.7241C71.6829 17.135 72.0384 17.4546 72.4851 17.683C72.9317 17.9114 73.4321 18.0256 73.9865 18.0256C74.2668 18.0256 74.5474 17.9963 74.8276 17.9376C75.1079 17.8788 75.3706 17.7972 75.6151 17.6931C75.8595 17.589 76.0604 17.4679 76.2168 17.3313V15.9715L76.8428 15.5803V15.4335H74.0742V15.5803L74.8176 15.9619V17.4588C74.6414 17.4977 74.4653 17.5175 74.2892 17.5175C73.7086 17.5175 73.2587 17.3005 72.9391 16.8667C72.6194 16.4328 72.4598 15.861 72.4598 15.1497C72.4598 14.6933 72.5346 14.2907 72.685 13.9417C72.835 13.5927 73.0519 13.3189 73.3358 13.1198C73.6197 12.9208 73.9604 12.8213 74.358 12.8213C74.547 12.8213 74.7116 12.8424 74.852 12.885C74.9923 12.9277 75.1505 13.0043 75.3266 13.1148L76.0407 14.2104H76.2071L76.1191 12.7429C75.8779 12.6319 75.6183 12.5374 75.3413 12.459C75.0638 12.3806 74.707 12.3416 74.27 12.3416C73.8274 12.3416 73.4101 12.4117 73.0184 12.5516ZM83.5353 17.1841C83.2941 16.9625 83.1047 16.6557 82.968 16.2645C82.8309 15.8733 82.7625 15.4267 82.7625 14.9245C82.7625 14.5136 82.8194 14.1517 82.9336 13.8385C83.0478 13.5253 83.2074 13.2808 83.4129 13.1047C83.6183 12.9286 83.8582 12.8405 84.132 12.8405C84.4383 12.8405 84.7107 12.9515 84.9487 13.173C85.1868 13.395 85.3725 13.7 85.5064 14.088C85.6399 14.476 85.7068 14.9213 85.7068 15.4234C85.7068 16.0366 85.5876 16.5388 85.3496 16.93C85.1115 17.3212 84.7836 17.517 84.3663 17.517C84.0535 17.5165 83.7765 17.4056 83.5353 17.1841ZM82.7084 12.7034C82.2682 12.9515 81.921 13.2904 81.6665 13.7206C81.4119 14.1513 81.2849 14.6369 81.2849 15.1785C81.2849 15.7266 81.4119 16.2141 81.6665 16.6411C81.921 17.0685 82.2682 17.406 82.7084 17.6537C83.1487 17.9018 83.6555 18.0256 84.2296 18.0256C84.8034 18.0256 85.312 17.9018 85.7559 17.6537C86.1994 17.406 86.5484 17.0685 86.8024 16.6411C87.057 16.2141 87.184 15.7266 87.184 15.1785C87.184 14.6374 87.057 14.1513 86.8024 13.7206C86.5479 13.29 86.1994 12.9511 85.7559 12.7034C85.3124 12.4558 84.8038 12.3315 84.2296 12.3315C83.6559 12.3315 83.1487 12.4558 82.7084 12.7034ZM42.7404 14.836H43.4155C43.9305 14.836 44.3268 14.9387 44.6042 15.1441C44.8812 15.3496 45.0202 15.6674 45.0202 16.0981C45.0202 16.4764 44.8849 16.7864 44.6143 17.0277C44.3437 17.2689 43.9668 17.3895 43.4843 17.3895H42.7409V14.836H42.7404ZM42.7404 12.0086H43.0729C44.025 12.0086 44.501 12.4099 44.501 13.212C44.501 13.5642 44.3804 13.8431 44.1392 14.0485C43.898 14.254 43.5618 14.3567 43.1316 14.3567H42.7404V12.0086ZM40.4318 11.4707V11.6271L41.2632 12.0283V17.3698L40.4318 17.7711V17.9275H43.7971C44.3318 17.9275 44.8097 17.8458 45.2302 17.683C45.6508 17.5202 45.9819 17.2964 46.2231 17.013C46.4644 16.7291 46.585 16.4081 46.585 16.0494C46.585 15.6188 46.4038 15.262 46.042 14.9781C45.6801 14.6943 45.1825 14.5103 44.5501 14.4255C45.0197 14.3145 45.3797 14.1192 45.6311 13.8385C45.8819 13.5583 46.0076 13.2515 46.0076 12.919C46.0076 12.5929 45.9016 12.3237 45.6898 12.1118C45.4779 11.8999 45.1876 11.7399 44.8193 11.6326C44.4506 11.5248 44.0319 11.4711 43.5623 11.4711H40.4318V11.4707ZM6.13314 11.6271C5.68966 11.7967 5.2948 12.038 4.94946 12.3512C4.60367 12.6644 4.33309 13.0313 4.13726 13.4519C3.94143 13.8724 3.84375 14.3338 3.84375 14.836C3.84375 15.2927 3.92997 15.7151 4.10287 16.1026C4.27576 16.4906 4.51699 16.8282 4.82701 17.1153C5.13658 17.4024 5.49567 17.6257 5.90337 17.7853C6.31108 17.9449 6.74951 18.0251 7.21913 18.0251C7.49934 18.0251 7.79469 17.9908 8.10471 17.9224C8.41427 17.8541 8.71145 17.7596 8.99487 17.6385C9.27876 17.5179 9.52136 17.373 9.72361 17.2033V15.6184L10.4574 15.1487V14.9923H7.38561V15.1487L8.25605 15.6087V17.4184C8.12535 17.4445 7.9951 17.4624 7.86486 17.4721C7.73415 17.4817 7.61354 17.4867 7.50301 17.4867C7.10494 17.4867 6.74493 17.3725 6.42206 17.1442C6.0992 16.9158 5.8433 16.5915 5.65435 16.1705C5.46494 15.75 5.37047 15.246 5.37047 14.6589C5.37047 14.0981 5.46815 13.6073 5.66398 13.1868C5.85981 12.7662 6.12351 12.4383 6.45646 12.2035C6.78895 11.9687 7.16089 11.8513 7.5718 11.8513C7.78047 11.8513 7.96621 11.8724 8.12947 11.9151C8.29228 11.9577 8.46197 12.0343 8.63807 12.1448L9.57731 13.5633H9.75342L9.64564 11.8417C9.45624 11.7504 9.26546 11.6688 9.0733 11.5972C8.88068 11.5257 8.66238 11.4702 8.41794 11.4308C8.1735 11.3918 7.87816 11.3721 7.53236 11.3721C7.04302 11.373 6.57662 11.4578 6.13314 11.6271Z" fill="url(#paint7_linear_109_9434)"/>
<path d="M29.8727 24.366C29.7984 24.3582 29.7282 24.3545 29.6613 24.3545C28.8234 24.3545 28.5409 24.9306 28.4652 25.1296C28.3831 24.9141 28.0603 24.2601 27.0577 24.366C26.1222 24.5389 25.8108 25.3658 25.9323 26.1555C26.1254 27.4084 28.0433 28.2349 28.4487 29.0108L28.4652 29.0416L28.4817 29.0108C28.8871 28.2344 30.8046 27.4084 30.9981 26.1555C31.1201 25.3653 30.8087 24.5385 29.8727 24.366Z" fill="url(#paint8_linear_109_9434)"/>
<path d="M23.83 25.931C23.6685 25.931 23.5149 25.9626 23.3727 26.0181C23.5585 25.7998 23.6708 25.5177 23.6708 25.2086C23.6708 24.518 23.1113 23.958 22.4207 23.958C21.73 23.958 21.1696 24.518 21.1696 25.2086C21.1696 25.5177 21.2824 25.7998 21.4677 26.0181C21.3264 25.9621 21.1723 25.931 21.0109 25.931C20.3202 25.931 19.7603 26.4909 19.7603 27.1811C19.7603 27.8718 20.3198 28.4318 21.0109 28.4318C21.6135 28.4318 22.1152 28.0053 22.234 27.438C22.2505 28.025 22.2904 28.396 21.6089 29.0298H23.2315C22.5358 28.3813 22.5844 28.0149 22.6055 27.4338C22.7197 28.0062 23.2232 28.4318 23.8295 28.4318C24.5197 28.4318 25.0801 27.8718 25.0801 27.1811C25.0801 26.4909 24.5202 25.931 23.83 25.931Z" fill="url(#paint9_linear_109_9434)"/>
<path d="M16.6839 23.6572C16.2207 24.6029 15.2939 25.8641 14.5986 26.4942C15.2939 27.1248 16.2207 28.3855 16.6839 29.3312C17.1471 28.3855 18.074 27.1248 18.7692 26.4942C18.074 25.8641 17.1471 24.6033 16.6839 23.6572Z" fill="url(#paint10_linear_109_9434)"/>
<path d="M12.682 25.5326C12.5811 25.4533 12.477 25.3707 12.3702 25.2822C11.5942 24.6374 10.9792 23.7725 10.9783 23.7725C10.9778 23.772 10.3624 24.6374 9.58639 25.2822C9.47953 25.3707 9.37542 25.4533 9.27453 25.5326C8.7508 25.9458 8.33713 26.2724 8.33208 26.8933C8.32887 27.2593 8.47425 27.6051 8.74071 27.8665C9.0067 28.127 9.36167 28.2724 9.74048 28.2751L9.7547 28.2756C10.1519 28.2756 10.5059 28.1146 10.7724 27.8348C10.7279 28.0293 10.6912 28.2636 10.6366 28.4113C10.4289 28.9763 10.0826 29.2162 10.1055 29.2171H11.851C11.8739 29.2166 11.5277 28.9763 11.3199 28.4113C11.2658 28.2636 11.2287 28.0293 11.1846 27.8348C11.4511 28.1146 11.8051 28.2756 12.2023 28.2756L12.2165 28.2751C12.5953 28.2724 12.9503 28.127 13.2163 27.8665C13.4827 27.6051 13.6281 27.2593 13.6249 26.8933C13.6194 26.2719 13.2057 25.9454 12.682 25.5326Z" fill="url(#paint11_linear_109_9434)"/>
<path d="M81.2199 24.366C81.146 24.3582 81.0754 24.3545 81.0084 24.3545C80.1706 24.3545 79.8881 24.9306 79.8124 25.1296C79.7303 24.9141 79.4074 24.2601 78.4049 24.366C77.4693 24.5389 77.1579 25.3658 77.2795 26.1555C77.4726 27.4084 79.3905 28.2349 79.7959 29.0108L79.8124 29.0416L79.8289 29.0108C80.2343 28.2344 82.1518 27.4084 82.3453 26.1555C82.4668 25.3653 82.1554 24.5385 81.2199 24.366Z" fill="url(#paint12_linear_109_9434)"/>
<path d="M75.1757 25.931C75.0142 25.931 74.8602 25.9626 74.7184 26.0181C74.9042 25.7998 75.0165 25.5177 75.0165 25.2086C75.0165 24.518 74.457 23.958 73.7664 23.958C73.0757 23.958 72.5153 24.518 72.5153 25.2086C72.5153 25.5177 72.6281 25.7998 72.8134 26.0181C72.6721 25.9621 72.518 25.931 72.3566 25.931C71.6659 25.931 71.106 26.4909 71.106 27.1811C71.106 27.8718 71.6655 28.4318 72.3566 28.4318C72.9592 28.4318 73.4609 28.0053 73.5797 27.438C73.5962 28.025 73.6361 28.396 72.9546 29.0298H74.5772C73.8819 28.3813 73.9301 28.0149 73.9512 27.4338C74.0654 28.0062 74.5689 28.4318 75.1752 28.4318C75.8654 28.4318 76.4259 27.8718 76.4259 27.1811C76.4263 26.4909 75.8659 25.931 75.1757 25.931Z" fill="url(#paint13_linear_109_9434)"/>
<path d="M68.0296 23.6572C67.5664 24.6029 66.6396 25.8641 65.9443 26.4942C66.6396 27.1248 67.5664 28.3855 68.0296 29.3312C68.4933 28.3855 69.4197 27.1248 70.1149 26.4942C69.4197 25.8641 68.4933 24.6033 68.0296 23.6572Z" fill="url(#paint14_linear_109_9434)"/>
<path d="M64.0277 25.5326C63.9268 25.4533 63.8223 25.3707 63.7159 25.2822C62.9399 24.6374 62.3249 23.7725 62.324 23.7725C62.3235 23.772 61.7081 24.6374 60.9321 25.2822C60.8252 25.3707 60.7211 25.4533 60.6202 25.5326C60.0965 25.9458 59.6828 26.2724 59.6778 26.8933C59.6746 27.2593 59.82 27.6051 60.0864 27.8665C60.3524 28.127 60.7074 28.2724 61.0862 28.2751L61.1004 28.2756C61.4976 28.2756 61.8516 28.1146 62.1181 27.8348C62.0736 28.0293 62.0369 28.2636 61.9823 28.4113C61.7746 28.9763 61.4283 29.2162 61.4512 29.2171H63.1967C63.2196 29.2166 62.8734 28.9763 62.6656 28.4113C62.6115 28.2636 62.5744 28.0293 62.5303 27.8348C62.7968 28.1146 63.1509 28.2756 63.548 28.2756L63.5622 28.2751C63.941 28.2724 64.296 28.127 64.562 27.8665C64.8285 27.6051 64.9734 27.2593 64.9706 26.8933C64.9651 26.2719 64.5514 25.9454 64.0277 25.5326Z" fill="url(#paint15_linear_109_9434)"/>
<path d="M46.0448 24.4954V24.5936L46.4493 24.7958V27.6273L46.0448 27.8296V27.9277H47.7853V27.8296L47.3441 27.6273V24.7958L47.7853 24.5936V24.4954H46.0448ZM50.874 24.4954V24.5936L51.4684 24.7958V26.7633L49.4276 24.4954H48.3182V24.5936L48.7717 24.7958V27.6213L48.3182 27.8236V27.9277H49.7403V27.8236L49.146 27.6154V25.4581L51.4074 27.9525H51.8426V24.7963L52.2902 24.594V24.4959H50.874V24.4954ZM40.2649 25.3228L40.7552 26.4932H39.7807L40.2649 25.3228ZM40.2773 24.4647L38.9107 27.6516L38.5979 27.8296V27.9277H39.738V27.8296L39.3028 27.6456L39.6522 26.8059H40.8905L41.24 27.6456L40.8047 27.8296V27.9277H42.5209V27.8296L42.1411 27.6149L40.7988 24.4647H40.2773ZM43.6821 24.5752C43.4881 24.6734 43.3326 24.8032 43.2166 24.9646C43.1001 25.126 43.0418 25.3044 43.0418 25.5007C43.0418 25.7296 43.1042 25.9217 43.2285 26.0767C43.3532 26.2322 43.5422 26.367 43.7953 26.4812C44.0201 26.5876 44.2008 26.6743 44.3379 26.7417C44.4745 26.8091 44.5736 26.8766 44.6351 26.944C44.6961 27.0114 44.7268 27.1022 44.7268 27.2168C44.7268 27.3723 44.6695 27.4888 44.5553 27.5663C44.4411 27.6438 44.2838 27.6828 44.0833 27.6828C43.8421 27.6828 43.6298 27.6236 43.4459 27.5049L43.023 26.849H42.9249L42.9799 27.7195C43.1432 27.8011 43.3138 27.8667 43.4917 27.9158C43.6697 27.9648 43.8747 27.9892 44.1077 27.9892C44.3608 27.9892 44.5906 27.9465 44.7974 27.8603C45.0038 27.7745 45.167 27.6521 45.2877 27.4925C45.4083 27.3333 45.4684 27.1471 45.4684 26.9348C45.4684 26.7633 45.4358 26.6161 45.3702 26.4936C45.3051 26.3712 45.2028 26.2588 45.0639 26.1565C44.9249 26.0543 44.747 25.9502 44.5305 25.8438C44.3548 25.758 44.2127 25.6846 44.1044 25.6232C43.9962 25.5617 43.9182 25.4998 43.8715 25.4365C43.8242 25.3732 43.8008 25.2944 43.8008 25.2003C43.8008 25.0572 43.8508 24.944 43.9508 24.86C44.0508 24.7761 44.1829 24.7344 44.3461 24.7344C44.436 24.7344 44.5167 24.7426 44.5883 24.7592C44.6598 24.7757 44.7304 24.8041 44.7997 24.8449L45.2473 25.5007H45.3454L45.2904 24.667C45.1556 24.5936 45.0065 24.5353 44.8428 24.4922C44.6795 24.4491 44.5034 24.428 44.3159 24.428C44.0875 24.428 43.8761 24.4771 43.6821 24.5752ZM54.2512 27.4617C54.0999 27.3228 53.9816 27.1306 53.8958 26.8857C53.81 26.6404 53.7669 26.3606 53.7669 26.046C53.7669 25.7887 53.8027 25.5617 53.8742 25.3659C53.9458 25.1696 54.0458 25.0164 54.1746 24.9064C54.3035 24.7963 54.4535 24.7408 54.6255 24.7408C54.8176 24.7408 54.9878 24.8105 55.1373 24.949C55.2863 25.088 55.4028 25.2792 55.4867 25.5223C55.5707 25.7653 55.6124 26.0442 55.6124 26.3588C55.6124 26.7426 55.5376 27.0573 55.3886 27.3026C55.2395 27.5475 55.0341 27.6704 54.7727 27.6704C54.5759 27.6704 54.4026 27.6007 54.2512 27.4617ZM53.7335 24.655C53.4578 24.8105 53.24 25.0229 53.0809 25.2925C52.9217 25.5622 52.8419 25.8667 52.8419 26.2056C52.8419 26.5487 52.9217 26.8545 53.0809 27.1219C53.24 27.3897 53.4578 27.6012 53.7335 27.7562C54.0091 27.9116 54.3269 27.9892 54.6864 27.9892C55.046 27.9892 55.3647 27.9116 55.6427 27.7562C55.9206 27.6007 56.1389 27.3893 56.2985 27.1219C56.4576 26.8545 56.5374 26.5487 56.5374 26.2056C56.5374 25.8667 56.4576 25.5622 56.2985 25.2925C56.1389 25.0229 55.9206 24.8105 55.6427 24.655C55.3647 24.5 55.046 24.4221 54.6864 24.4221C54.3269 24.4221 54.0091 24.4996 53.7335 24.655ZM35.8737 23.9868C35.6059 24.0974 35.367 24.2515 35.1565 24.4496C34.946 24.6477 34.7795 24.8779 34.657 25.1393C34.5346 25.4007 34.4731 25.6846 34.4731 25.9914C34.4731 26.3716 34.5621 26.7115 34.7396 27.0119C34.9175 27.3122 35.1675 27.5503 35.4903 27.7259C35.8132 27.9016 36.1888 27.9896 36.6181 27.9896C36.912 27.9896 37.1767 27.9612 37.4119 27.9038C37.6467 27.8465 37.8481 27.769 38.0155 27.6709L38.1012 26.6353H37.9971L37.4454 27.4567C37.3353 27.5182 37.2198 27.5681 37.0992 27.6067C36.9785 27.6457 36.8428 27.6649 36.6914 27.6649C36.4543 27.6649 36.2411 27.5943 36.0512 27.4535C35.8614 27.3127 35.7109 27.1123 35.6009 26.8527C35.4908 26.5931 35.4353 26.2859 35.4353 25.9304C35.4353 25.5709 35.4926 25.2554 35.6068 24.9834C35.721 24.7115 35.8774 24.5014 36.0755 24.3519C36.2737 24.2029 36.4975 24.1281 36.7465 24.1281C36.8731 24.1281 36.9813 24.1423 37.0712 24.1708C37.1611 24.1992 37.2569 24.2464 37.3592 24.3115L37.9416 25.2613H38.0521L37.9847 24.1153C37.8705 24.0579 37.7559 24.007 37.6417 23.9621C37.5275 23.9171 37.3986 23.8823 37.2555 23.858C37.1125 23.8337 36.9327 23.8213 36.7162 23.8213C36.4222 23.8213 36.1416 23.8763 35.8737 23.9868Z" fill="url(#paint16_linear_109_9434)"/>
<path d="M46.0448 24.4954V24.5936L46.4493 24.7958V27.6273L46.0448 27.8296V27.9277H47.7853V27.8296L47.3441 27.6273V24.7958L47.7853 24.5936V24.4954H46.0448ZM50.874 24.4954V24.5936L51.4684 24.7958V26.7633L49.4276 24.4954H48.3182V24.5936L48.7717 24.7958V27.6213L48.3182 27.8236V27.9277H49.7403V27.8236L49.146 27.6154V25.4581L51.4074 27.9525H51.8426V24.7963L52.2902 24.594V24.4959H50.874V24.4954ZM40.2649 25.3228L40.7552 26.4932H39.7807L40.2649 25.3228ZM40.2773 24.4647L38.9107 27.6516L38.5979 27.8296V27.9277H39.738V27.8296L39.3028 27.6456L39.6522 26.8059H40.8905L41.24 27.6456L40.8047 27.8296V27.9277H42.5209V27.8296L42.1411 27.6149L40.7988 24.4647H40.2773ZM43.6821 24.5752C43.4881 24.6734 43.3326 24.8032 43.2166 24.9646C43.1001 25.126 43.0418 25.3044 43.0418 25.5007C43.0418 25.7296 43.1042 25.9217 43.2285 26.0767C43.3532 26.2322 43.5422 26.367 43.7953 26.4812C44.0201 26.5876 44.2008 26.6743 44.3379 26.7417C44.4745 26.8091 44.5736 26.8766 44.6351 26.944C44.6961 27.0114 44.7268 27.1022 44.7268 27.2168C44.7268 27.3723 44.6695 27.4888 44.5553 27.5663C44.4411 27.6438 44.2838 27.6828 44.0833 27.6828C43.8421 27.6828 43.6298 27.6236 43.4459 27.5049L43.023 26.849H42.9249L42.9799 27.7195C43.1432 27.8011 43.3138 27.8667 43.4917 27.9158C43.6697 27.9648 43.8747 27.9892 44.1077 27.9892C44.3608 27.9892 44.5906 27.9465 44.7974 27.8603C45.0038 27.7745 45.167 27.6521 45.2877 27.4925C45.4083 27.3333 45.4684 27.1471 45.4684 26.9348C45.4684 26.7633 45.4358 26.6161 45.3702 26.4936C45.3051 26.3712 45.2028 26.2588 45.0639 26.1565C44.9249 26.0543 44.747 25.9502 44.5305 25.8438C44.3548 25.758 44.2127 25.6846 44.1044 25.6232C43.9962 25.5617 43.9182 25.4998 43.8715 25.4365C43.8242 25.3732 43.8008 25.2944 43.8008 25.2003C43.8008 25.0572 43.8508 24.944 43.9508 24.86C44.0508 24.7761 44.1829 24.7344 44.3461 24.7344C44.436 24.7344 44.5167 24.7426 44.5883 24.7592C44.6598 24.7757 44.7304 24.8041 44.7997 24.8449L45.2473 25.5007H45.3454L45.2904 24.667C45.1556 24.5936 45.0065 24.5353 44.8428 24.4922C44.6795 24.4491 44.5034 24.428 44.3159 24.428C44.0875 24.428 43.8761 24.4771 43.6821 24.5752ZM54.2512 27.4617C54.0999 27.3228 53.9816 27.1306 53.8958 26.8857C53.81 26.6404 53.7669 26.3606 53.7669 26.046C53.7669 25.7887 53.8027 25.5617 53.8742 25.3659C53.9458 25.1696 54.0458 25.0164 54.1746 24.9064C54.3035 24.7963 54.4535 24.7408 54.6255 24.7408C54.8176 24.7408 54.9878 24.8105 55.1373 24.949C55.2863 25.088 55.4028 25.2792 55.4867 25.5223C55.5707 25.7653 55.6124 26.0442 55.6124 26.3588C55.6124 26.7426 55.5376 27.0573 55.3886 27.3026C55.2395 27.5475 55.0341 27.6704 54.7727 27.6704C54.5759 27.6704 54.4026 27.6007 54.2512 27.4617ZM53.7335 24.655C53.4578 24.8105 53.24 25.0229 53.0809 25.2925C52.9217 25.5622 52.8419 25.8667 52.8419 26.2056C52.8419 26.5487 52.9217 26.8545 53.0809 27.1219C53.24 27.3897 53.4578 27.6012 53.7335 27.7562C54.0091 27.9116 54.3269 27.9892 54.6864 27.9892C55.046 27.9892 55.3647 27.9116 55.6427 27.7562C55.9206 27.6007 56.1389 27.3893 56.2985 27.1219C56.4576 26.8545 56.5374 26.5487 56.5374 26.2056C56.5374 25.8667 56.4576 25.5622 56.2985 25.2925C56.1389 25.0229 55.9206 24.8105 55.6427 24.655C55.3647 24.5 55.046 24.4221 54.6864 24.4221C54.3269 24.4221 54.0091 24.4996 53.7335 24.655ZM35.8737 23.9868C35.6059 24.0974 35.367 24.2515 35.1565 24.4496C34.946 24.6477 34.7795 24.8779 34.657 25.1393C34.5346 25.4007 34.4731 25.6846 34.4731 25.9914C34.4731 26.3716 34.5621 26.7115 34.7396 27.0119C34.9175 27.3122 35.1675 27.5503 35.4903 27.7259C35.8132 27.9016 36.1888 27.9896 36.6181 27.9896C36.912 27.9896 37.1767 27.9612 37.4119 27.9038C37.6467 27.8465 37.8481 27.769 38.0155 27.6709L38.1012 26.6353H37.9971L37.4454 27.4567C37.3353 27.5182 37.2198 27.5681 37.0992 27.6067C36.9785 27.6457 36.8428 27.6649 36.6914 27.6649C36.4543 27.6649 36.2411 27.5943 36.0512 27.4535C35.8614 27.3127 35.7109 27.1123 35.6009 26.8527C35.4908 26.5931 35.4353 26.2859 35.4353 25.9304C35.4353 25.5709 35.4926 25.2554 35.6068 24.9834C35.721 24.7115 35.8774 24.5014 36.0755 24.3519C36.2737 24.2029 36.4975 24.1281 36.7465 24.1281C36.8731 24.1281 36.9813 24.1423 37.0712 24.1708C37.1611 24.1992 37.2569 24.2464 37.3592 24.3115L37.9416 25.2613H38.0521L37.9847 24.1153C37.8705 24.0579 37.7559 24.007 37.6417 23.9621C37.5275 23.9171 37.3986 23.8823 37.2555 23.858C37.1125 23.8337 36.9327 23.8213 36.7162 23.8213C36.4222 23.8213 36.1416 23.8763 35.8737 23.9868Z" fill="url(#paint17_linear_109_9434)"/>
<defs>
<linearGradient id="paint0_linear_109_9434" x1="3.69863" y1="21.518" x2="87.1869" y2="21.518" gradientUnits="userSpaceOnUse">
<stop stop-color="#C89135"/>
<stop offset="0.1131" stop-color="#FCC456"/>
<stop offset="0.2624" stop-color="#BF862C"/>
<stop offset="0.4796" stop-color="#FCC456"/>
<stop offset="0.7014" stop-color="#FFD382"/>
<stop offset="0.8371" stop-color="#FCC456"/>
<stop offset="1" stop-color="#815F26"/>
</linearGradient>
<linearGradient id="paint1_linear_109_9434" x1="3.69675" y1="21.5225" x2="87.1844" y2="21.5225" gradientUnits="userSpaceOnUse">
<stop stop-color="#C89135"/>
<stop offset="0.1131" stop-color="#FCC456"/>
<stop offset="0.2624" stop-color="#BF862C"/>
<stop offset="0.4796" stop-color="#FCC456"/>
<stop offset="0.7014" stop-color="#FFD382"/>
<stop offset="0.8371" stop-color="#FCC456"/>
<stop offset="1" stop-color="#815F26"/>
</linearGradient>
<linearGradient id="paint2_linear_109_9434" x1="3.84358" y1="8.26523" x2="87.1784" y2="8.26523" gradientUnits="userSpaceOnUse">
<stop stop-color="#C89135"/>
<stop offset="0.1131" stop-color="#FCC456"/>
<stop offset="0.2624" stop-color="#BF862C"/>
<stop offset="0.4796" stop-color="#FCC456"/>
<stop offset="0.7014" stop-color="#FFD382"/>
<stop offset="0.8371" stop-color="#FCC456"/>
<stop offset="1" stop-color="#815F26"/>
</linearGradient>
<linearGradient id="paint3_linear_109_9434" x1="21.2932" y1="34.3427" x2="69.588" y2="34.3427" gradientUnits="userSpaceOnUse">
<stop stop-color="#C89135"/>
<stop offset="0.1131" stop-color="#FCC456"/>
<stop offset="0.2624" stop-color="#BF862C"/>
<stop offset="0.4796" stop-color="#FCC456"/>
<stop offset="0.7014" stop-color="#FFD382"/>
<stop offset="0.8371" stop-color="#FCC456"/>
<stop offset="1" stop-color="#815F26"/>
</linearGradient>
<linearGradient id="paint4_linear_109_9434" x1="43.6195" y1="5.9472" x2="47.2614" y2="5.9472" gradientUnits="userSpaceOnUse">
<stop stop-color="#C89135"/>
<stop offset="0.1131" stop-color="#FCC456"/>
<stop offset="0.2624" stop-color="#BF862C"/>
<stop offset="0.4796" stop-color="#FCC456"/>
<stop offset="0.7014" stop-color="#FFD382"/>
<stop offset="0.8371" stop-color="#FCC456"/>
<stop offset="1" stop-color="#815F26"/>
</linearGradient>
<linearGradient id="paint5_linear_109_9434" x1="31.4685" y1="5.98931" x2="59.4113" y2="5.98931" gradientUnits="userSpaceOnUse">
<stop stop-color="#C89135"/>
<stop offset="0.1131" stop-color="#FCC456"/>
<stop offset="0.2624" stop-color="#BF862C"/>
<stop offset="0.4796" stop-color="#FCC456"/>
<stop offset="0.7014" stop-color="#FFD382"/>
<stop offset="0.8371" stop-color="#FCC456"/>
<stop offset="1" stop-color="#815F26"/>
</linearGradient>
<linearGradient id="paint6_linear_109_9434" x1="3.84404" y1="14.6991" x2="87.1842" y2="14.6991" gradientUnits="userSpaceOnUse">
<stop stop-color="#C89135"/>
<stop offset="0.1131" stop-color="#FCC456"/>
<stop offset="0.2624" stop-color="#BF862C"/>
<stop offset="0.4796" stop-color="#FCC456"/>
<stop offset="0.7014" stop-color="#FFD382"/>
<stop offset="0.8371" stop-color="#FCC456"/>
<stop offset="1" stop-color="#815F26"/>
</linearGradient>
<linearGradient id="paint7_linear_109_9434" x1="3.84404" y1="14.6991" x2="87.1842" y2="14.6991" gradientUnits="userSpaceOnUse">
<stop stop-color="#C89135"/>
<stop offset="0.1131" stop-color="#FCC456"/>
<stop offset="0.2624" stop-color="#BF862C"/>
<stop offset="0.4796" stop-color="#FCC456"/>
<stop offset="0.7014" stop-color="#FFD382"/>
<stop offset="0.8371" stop-color="#FCC456"/>
<stop offset="1" stop-color="#815F26"/>
</linearGradient>
<linearGradient id="paint8_linear_109_9434" x1="25.9074" y1="26.6979" x2="31.0234" y2="26.6979" gradientUnits="userSpaceOnUse">
<stop stop-color="#C89135"/>
<stop offset="0.1131" stop-color="#FCC456"/>
<stop offset="0.2624" stop-color="#BF862C"/>
<stop offset="0.4796" stop-color="#FCC456"/>
<stop offset="0.7014" stop-color="#FFD382"/>
<stop offset="0.8371" stop-color="#FCC456"/>
<stop offset="1" stop-color="#815F26"/>
</linearGradient>
<linearGradient id="paint9_linear_109_9434" x1="19.7613" y1="26.4941" x2="25.0803" y2="26.4941" gradientUnits="userSpaceOnUse">
<stop stop-color="#C89135"/>
<stop offset="0.1131" stop-color="#FCC456"/>
<stop offset="0.2624" stop-color="#BF862C"/>
<stop offset="0.4796" stop-color="#FCC456"/>
<stop offset="0.7014" stop-color="#FFD382"/>
<stop offset="0.8371" stop-color="#FCC456"/>
<stop offset="1" stop-color="#815F26"/>
</linearGradient>
<linearGradient id="paint10_linear_109_9434" x1="14.5985" y1="26.4946" x2="18.7691" y2="26.4946" gradientUnits="userSpaceOnUse">
<stop stop-color="#C89135"/>
<stop offset="0.1131" stop-color="#FCC456"/>
<stop offset="0.2624" stop-color="#BF862C"/>
<stop offset="0.4796" stop-color="#FCC456"/>
<stop offset="0.7014" stop-color="#FFD382"/>
<stop offset="0.8371" stop-color="#FCC456"/>
<stop offset="1" stop-color="#815F26"/>
</linearGradient>
<linearGradient id="paint11_linear_109_9434" x1="8.33179" y1="26.4947" x2="13.6246" y2="26.4947" gradientUnits="userSpaceOnUse">
<stop stop-color="#C89135"/>
<stop offset="0.1131" stop-color="#FCC456"/>
<stop offset="0.2624" stop-color="#BF862C"/>
<stop offset="0.4796" stop-color="#FCC456"/>
<stop offset="0.7014" stop-color="#FFD382"/>
<stop offset="0.8371" stop-color="#FCC456"/>
<stop offset="1" stop-color="#815F26"/>
</linearGradient>
<linearGradient id="paint12_linear_109_9434" x1="77.2542" y1="26.6979" x2="82.3701" y2="26.6979" gradientUnits="userSpaceOnUse">
<stop stop-color="#C89135"/>
<stop offset="0.1131" stop-color="#FCC456"/>
<stop offset="0.2624" stop-color="#BF862C"/>
<stop offset="0.4796" stop-color="#FCC456"/>
<stop offset="0.7014" stop-color="#FFD382"/>
<stop offset="0.8371" stop-color="#FCC456"/>
<stop offset="1" stop-color="#815F26"/>
</linearGradient>
<linearGradient id="paint13_linear_109_9434" x1="71.1071" y1="26.4941" x2="76.4261" y2="26.4941" gradientUnits="userSpaceOnUse">
<stop stop-color="#C89135"/>
<stop offset="0.1131" stop-color="#FCC456"/>
<stop offset="0.2624" stop-color="#BF862C"/>
<stop offset="0.4796" stop-color="#FCC456"/>
<stop offset="0.7014" stop-color="#FFD382"/>
<stop offset="0.8371" stop-color="#FCC456"/>
<stop offset="1" stop-color="#815F26"/>
</linearGradient>
<linearGradient id="paint14_linear_109_9434" x1="65.9443" y1="26.4946" x2="70.1149" y2="26.4946" gradientUnits="userSpaceOnUse">
<stop stop-color="#C89135"/>
<stop offset="0.1131" stop-color="#FCC456"/>
<stop offset="0.2624" stop-color="#BF862C"/>
<stop offset="0.4796" stop-color="#FCC456"/>
<stop offset="0.7014" stop-color="#FFD382"/>
<stop offset="0.8371" stop-color="#FCC456"/>
<stop offset="1" stop-color="#815F26"/>
</linearGradient>
<linearGradient id="paint15_linear_109_9434" x1="59.6776" y1="26.4947" x2="64.9704" y2="26.4947" gradientUnits="userSpaceOnUse">
<stop stop-color="#C89135"/>
<stop offset="0.1131" stop-color="#FCC456"/>
<stop offset="0.2624" stop-color="#BF862C"/>
<stop offset="0.4796" stop-color="#FCC456"/>
<stop offset="0.7014" stop-color="#FFD382"/>
<stop offset="0.8371" stop-color="#FCC456"/>
<stop offset="1" stop-color="#815F26"/>
</linearGradient>
<linearGradient id="paint16_linear_109_9434" x1="34.4735" y1="25.9051" x2="56.5372" y2="25.9051" gradientUnits="userSpaceOnUse">
<stop stop-color="#C89135"/>
<stop offset="0.1131" stop-color="#FCC456"/>
<stop offset="0.2624" stop-color="#BF862C"/>
<stop offset="0.4796" stop-color="#FCC456"/>
<stop offset="0.7014" stop-color="#FFD382"/>
<stop offset="0.8371" stop-color="#FCC456"/>
<stop offset="1" stop-color="#815F26"/>
</linearGradient>
<linearGradient id="paint17_linear_109_9434" x1="34.4735" y1="25.9051" x2="56.5372" y2="25.9051" gradientUnits="userSpaceOnUse">
<stop stop-color="#C89135"/>
<stop offset="0.1131" stop-color="#FCC456"/>
<stop offset="0.2624" stop-color="#BF862C"/>
<stop offset="0.4796" stop-color="#FCC456"/>
<stop offset="0.7014" stop-color="#FFD382"/>
<stop offset="0.8371" stop-color="#FCC456"/>
<stop offset="1" stop-color="#815F26"/>
</linearGradient>
</defs>
</svg>
