<svg width="504" height="53" viewBox="0 0 504 53" fill="none" xmlns="http://www.w3.org/2000/svg">
<path d="M4.13778 48V34.9091H12.8054V37.1911H6.90554V40.3104H12.2301V42.5923H6.90554V48H4.13778ZM18.3697 48.1918C17.3597 48.1918 16.4904 47.9872 15.7617 47.5781C15.0373 47.1648 14.479 46.581 14.087 45.8267C13.695 45.0682 13.4989 44.1712 13.4989 43.1357C13.4989 42.1257 13.695 41.2393 14.087 40.4766C14.479 39.7138 15.0309 39.1193 15.7425 38.6932C16.4585 38.267 17.2979 38.054 18.261 38.054C18.9087 38.054 19.5117 38.1584 20.07 38.3672C20.6325 38.5717 21.1225 38.8807 21.5401 39.294C21.962 39.7074 22.2901 40.2273 22.5245 40.8537C22.7589 41.4759 22.8761 42.2045 22.8761 43.0398V43.7876H14.5856V42.1001H20.3129C20.3129 41.7081 20.2276 41.3608 20.0572 41.0582C19.8867 40.7557 19.6502 40.5192 19.3477 40.3487C19.0494 40.174 18.7021 40.0866 18.3058 40.0866C17.8924 40.0866 17.5259 40.1825 17.2063 40.3743C16.891 40.5618 16.6438 40.8153 16.4648 41.1349C16.2859 41.4503 16.1942 41.8018 16.19 42.1896V43.794C16.19 44.2798 16.2795 44.6996 16.4585 45.0533C16.6417 45.407 16.8995 45.6797 17.2319 45.8714C17.5643 46.0632 17.9585 46.1591 18.4144 46.1591C18.717 46.1591 18.994 46.1165 19.2454 46.0312C19.4968 45.946 19.712 45.8182 19.891 45.6477C20.07 45.4773 20.2063 45.2685 20.3001 45.0213L22.8185 45.1875C22.6907 45.7926 22.4286 46.321 22.0323 46.7727C21.6403 47.2202 21.1332 47.5696 20.511 47.821C19.8931 48.0682 19.1793 48.1918 18.3697 48.1918ZM24.7042 48V34.9091H27.4272V39.831H27.5103C27.6296 39.5668 27.8022 39.2983 28.0281 39.0256C28.2582 38.7486 28.5565 38.5185 28.9229 38.3352C29.2937 38.1477 29.7539 38.054 30.3036 38.054C31.0195 38.054 31.68 38.2415 32.2852 38.6165C32.8903 38.9872 33.3739 39.5476 33.7362 40.2976C34.0984 41.0433 34.2795 41.9787 34.2795 43.1037C34.2795 44.1989 34.1026 45.1236 33.7489 45.8778C33.3995 46.6278 32.9222 47.1967 32.3171 47.5845C31.7163 47.968 31.043 48.1598 30.2972 48.1598C29.7688 48.1598 29.3192 48.0724 28.9485 47.8977C28.582 47.723 28.2816 47.5036 28.0472 47.2393C27.8129 46.9709 27.6339 46.7003 27.5103 46.4276H27.3888V48H24.7042ZM27.3697 43.0909C27.3697 43.6747 27.4506 44.1839 27.6126 44.6186C27.7745 45.0533 28.0089 45.392 28.3157 45.6349C28.6225 45.8736 28.9954 45.9929 29.4343 45.9929C29.8775 45.9929 30.2525 45.8714 30.5593 45.6286C30.8661 45.3814 31.0984 45.0405 31.256 44.6058C31.418 44.1669 31.4989 43.6619 31.4989 43.0909C31.4989 42.5241 31.4201 42.0256 31.2624 41.5952C31.1048 41.1648 30.8725 40.8281 30.5657 40.5852C30.2589 40.3423 29.8817 40.2209 29.4343 40.2209C28.9911 40.2209 28.6161 40.3381 28.3093 40.5724C28.0067 40.8068 27.7745 41.1392 27.6126 41.5696C27.4506 42 27.3697 42.5071 27.3697 43.0909Z" fill="white"/>
<mask id="path-2-inside-1_150_30" fill="white">
<path d="M12.0114 4.72727V28H7.09091V9.39773H6.95455L1.625 12.7386V8.375L7.38636 4.72727H12.0114ZM26.4744 28.3182C25.2775 28.3106 24.1222 28.1098 23.0085 27.7159C21.9025 27.322 20.91 26.6818 20.0312 25.7955C19.1525 24.9091 18.4555 23.7348 17.9403 22.2727C17.4328 20.8106 17.179 19.0152 17.179 16.8864C17.1866 14.9318 17.41 13.1856 17.8494 11.6477C18.2964 10.1023 18.9328 8.79167 19.7585 7.71591C20.5919 6.64015 21.5881 5.82197 22.7472 5.26136C23.9063 4.69318 25.2055 4.40909 26.6449 4.40909C28.1979 4.40909 29.5691 4.71212 30.7585 5.31818C31.9479 5.91667 32.9025 6.73106 33.6222 7.76136C34.3494 8.79167 34.7888 9.94697 34.9403 11.2273H30.0881C29.8987 10.4167 29.5009 9.7803 28.8949 9.31818C28.2888 8.85606 27.5388 8.625 26.6449 8.625C25.1297 8.625 23.9782 9.28409 23.1903 10.6023C22.41 11.9205 22.0123 13.7121 21.9972 15.9773H22.1562C22.5047 15.2879 22.9744 14.7008 23.5653 14.2159C24.1638 13.7235 24.8419 13.3485 25.5994 13.0909C26.3646 12.8258 27.1714 12.6932 28.0199 12.6932C29.3987 12.6932 30.6259 13.0189 31.7017 13.6705C32.7775 14.3144 33.6259 15.2008 34.2472 16.3295C34.8684 17.4583 35.179 18.75 35.179 20.2045C35.179 21.7803 34.8116 23.1818 34.0767 24.4091C33.3494 25.6364 32.3305 26.5985 31.0199 27.2955C29.7169 27.9848 28.2017 28.3258 26.4744 28.3182ZM26.4517 24.4545C27.2093 24.4545 27.8873 24.2727 28.4858 23.9091C29.0843 23.5455 29.554 23.053 29.8949 22.4318C30.2358 21.8106 30.4062 21.1136 30.4062 20.3409C30.4062 19.5682 30.2358 18.875 29.8949 18.2614C29.5616 17.6477 29.0994 17.1591 28.5085 16.7955C27.9176 16.4318 27.2434 16.25 26.4858 16.25C25.9176 16.25 25.3911 16.3561 24.9062 16.5682C24.429 16.7803 24.0085 17.0758 23.6449 17.4545C23.2888 17.8333 23.0085 18.2727 22.804 18.7727C22.5994 19.2652 22.4972 19.7917 22.4972 20.3523C22.4972 21.1023 22.6676 21.7879 23.0085 22.4091C23.357 23.0303 23.8267 23.5265 24.4176 23.8977C25.0161 24.2689 25.6941 24.4545 26.4517 24.4545Z"/>
</mask>
<path d="M12.0114 4.72727V28H7.09091V9.39773H6.95455L1.625 12.7386V8.375L7.38636 4.72727H12.0114ZM26.4744 28.3182C25.2775 28.3106 24.1222 28.1098 23.0085 27.7159C21.9025 27.322 20.91 26.6818 20.0312 25.7955C19.1525 24.9091 18.4555 23.7348 17.9403 22.2727C17.4328 20.8106 17.179 19.0152 17.179 16.8864C17.1866 14.9318 17.41 13.1856 17.8494 11.6477C18.2964 10.1023 18.9328 8.79167 19.7585 7.71591C20.5919 6.64015 21.5881 5.82197 22.7472 5.26136C23.9063 4.69318 25.2055 4.40909 26.6449 4.40909C28.1979 4.40909 29.5691 4.71212 30.7585 5.31818C31.9479 5.91667 32.9025 6.73106 33.6222 7.76136C34.3494 8.79167 34.7888 9.94697 34.9403 11.2273H30.0881C29.8987 10.4167 29.5009 9.7803 28.8949 9.31818C28.2888 8.85606 27.5388 8.625 26.6449 8.625C25.1297 8.625 23.9782 9.28409 23.1903 10.6023C22.41 11.9205 22.0123 13.7121 21.9972 15.9773H22.1562C22.5047 15.2879 22.9744 14.7008 23.5653 14.2159C24.1638 13.7235 24.8419 13.3485 25.5994 13.0909C26.3646 12.8258 27.1714 12.6932 28.0199 12.6932C29.3987 12.6932 30.6259 13.0189 31.7017 13.6705C32.7775 14.3144 33.6259 15.2008 34.2472 16.3295C34.8684 17.4583 35.179 18.75 35.179 20.2045C35.179 21.7803 34.8116 23.1818 34.0767 24.4091C33.3494 25.6364 32.3305 26.5985 31.0199 27.2955C29.7169 27.9848 28.2017 28.3258 26.4744 28.3182ZM26.4517 24.4545C27.2093 24.4545 27.8873 24.2727 28.4858 23.9091C29.0843 23.5455 29.554 23.053 29.8949 22.4318C30.2358 21.8106 30.4062 21.1136 30.4062 20.3409C30.4062 19.5682 30.2358 18.875 29.8949 18.2614C29.5616 17.6477 29.0994 17.1591 28.5085 16.7955C27.9176 16.4318 27.2434 16.25 26.4858 16.25C25.9176 16.25 25.3911 16.3561 24.9062 16.5682C24.429 16.7803 24.0085 17.0758 23.6449 17.4545C23.2888 17.8333 23.0085 18.2727 22.804 18.7727C22.5994 19.2652 22.4972 19.7917 22.4972 20.3523C22.4972 21.1023 22.6676 21.7879 23.0085 22.4091C23.357 23.0303 23.8267 23.5265 24.4176 23.8977C25.0161 24.2689 25.6941 24.4545 26.4517 24.4545Z" fill="url(#paint0_linear_150_30)"/>
<path d="M12.0114 4.72727H13.0114V3.72727H12.0114V4.72727ZM12.0114 28V29H13.0114V28H12.0114ZM7.09091 28H6.09091V29H7.09091V28ZM7.09091 9.39773H8.09091V8.39773H7.09091V9.39773ZM6.95455 9.39773V8.39773H6.66702L6.42341 8.55044L6.95455 9.39773ZM1.625 12.7386H0.625V14.5457L2.15614 13.5859L1.625 12.7386ZM1.625 8.375L1.09007 7.53011L0.625 7.82456V8.375H1.625ZM7.38636 4.72727V3.72727H7.09641L6.85143 3.88238L7.38636 4.72727ZM11.0114 4.72727V28H13.0114V4.72727H11.0114ZM12.0114 27H7.09091V29H12.0114V27ZM8.09091 28V9.39773H6.09091V28H8.09091ZM7.09091 8.39773H6.95455V10.3977H7.09091V8.39773ZM6.42341 8.55044L1.09386 11.8913L2.15614 13.5859L7.48568 10.245L6.42341 8.55044ZM2.625 12.7386V8.375H0.625V12.7386H2.625ZM2.15993 9.21989L7.9213 5.57217L6.85143 3.88238L1.09007 7.53011L2.15993 9.21989ZM7.38636 5.72727H12.0114V3.72727H7.38636V5.72727ZM26.4744 28.3182L26.4681 29.3182L26.47 29.3182L26.4744 28.3182ZM23.0085 27.7159L22.673 28.6579L22.675 28.6587L23.0085 27.7159ZM20.0312 25.7955L19.3211 26.4995L20.0312 25.7955ZM17.9403 22.2727L16.9956 22.6007L16.9972 22.605L17.9403 22.2727ZM17.179 16.8864L16.179 16.8825V16.8864H17.179ZM17.8494 11.6477L16.8888 11.3699L16.8879 11.373L17.8494 11.6477ZM19.7585 7.71591L18.968 7.1035L18.9653 7.10701L19.7585 7.71591ZM22.7472 5.26136L23.1826 6.16161L23.1873 6.15928L22.7472 5.26136ZM30.7585 5.31818L30.3045 6.20919L30.309 6.21147L30.7585 5.31818ZM33.6222 7.76136L32.8024 8.33402L32.8052 8.33805L33.6222 7.76136ZM34.9403 11.2273V12.2273H36.0657L35.9334 11.1097L34.9403 11.2273ZM30.0881 11.2273L29.1143 11.4548L29.2948 12.2273H30.0881V11.2273ZM23.1903 10.6023L22.332 10.0892L22.3298 10.0929L23.1903 10.6023ZM21.9972 15.9773L20.9972 15.9706L20.9904 16.9773H21.9972V15.9773ZM22.1562 15.9773V16.9773H22.7713L23.0487 16.4284L22.1562 15.9773ZM23.5653 14.2159L24.1997 14.989L24.2007 14.9881L23.5653 14.2159ZM25.5994 13.0909L25.9213 14.0377L25.9269 14.0358L25.5994 13.0909ZM31.7017 13.6705L31.1837 14.5258L31.1881 14.5285L31.7017 13.6705ZM34.0767 24.4091L33.2187 23.8954L33.2164 23.8993L34.0767 24.4091ZM31.0199 27.2955L31.4875 28.1794L31.4894 28.1784L31.0199 27.2955ZM28.4858 23.9091L29.0051 24.7637L28.4858 23.9091ZM29.8949 22.4318L30.7716 22.9129H30.7716L29.8949 22.4318ZM29.8949 18.2614L29.0161 18.7387L29.0207 18.747L29.8949 18.2614ZM28.5085 16.7955L29.0326 15.9438L29.0326 15.9438L28.5085 16.7955ZM24.9062 16.5682L24.5054 15.652L24.5001 15.6544L24.9062 16.5682ZM23.6449 17.4545L22.9235 16.762L22.9163 16.7696L23.6449 17.4545ZM22.804 18.7727L23.7275 19.1563L23.7295 19.1514L22.804 18.7727ZM23.0085 22.4091L22.1318 22.8902L22.1364 22.8983L23.0085 22.4091ZM24.4176 23.8977L23.8857 24.7445L23.8905 24.7475L24.4176 23.8977ZM26.4808 27.3182C25.3938 27.3113 24.3491 27.1294 23.342 26.7732L22.675 28.6587C23.8952 29.0903 25.1612 29.3099 26.4681 29.3182L26.4808 27.3182ZM23.344 26.7739C22.3879 26.4333 21.5215 25.8782 20.7414 25.0914L19.3211 26.4995C20.2986 27.4854 21.417 28.2106 22.673 28.6579L23.344 26.7739ZM20.7414 25.0914C19.9889 24.3324 19.3611 23.2959 18.8835 21.9404L16.9972 22.605C17.5499 24.1738 18.316 25.4857 19.3211 26.4995L20.7414 25.0914ZM18.885 21.9448C18.425 20.6195 18.179 18.9424 18.179 16.8864H16.179C16.179 19.0879 16.4406 21.0017 16.9956 22.6007L18.885 21.9448ZM18.179 16.8902C18.1863 15.0078 18.4016 13.3553 18.811 11.9224L16.8879 11.373C16.4185 13.0159 16.1868 14.8558 16.179 16.8825L18.179 16.8902ZM18.8101 11.9256C19.2287 10.4781 19.8147 9.28504 20.5518 8.32481L18.9653 7.10701C18.0508 8.29829 17.3641 9.72647 16.8888 11.3699L18.8101 11.9256ZM20.5491 8.32831C21.2934 7.3675 22.1704 6.65115 23.1826 6.1616L22.3118 4.36113C21.0058 4.99279 19.8904 5.9128 18.968 7.10351L20.5491 8.32831ZM23.1873 6.15928C24.1943 5.66566 25.3403 5.40909 26.6449 5.40909V3.40909C25.0706 3.40909 23.6182 3.7207 22.307 4.36344L23.1873 6.15928ZM26.6449 5.40909C28.0659 5.40909 29.277 5.68563 30.3045 6.20918L31.2125 4.42719C29.8612 3.73861 28.3299 3.40909 26.6449 3.40909V5.40909ZM30.309 6.21147C31.3594 6.74 32.1833 7.44774 32.8024 8.33402L34.442 7.18871C33.6217 6.01438 32.5364 5.09333 31.208 4.4249L30.309 6.21147ZM32.8052 8.33805C33.4343 9.22922 33.8149 10.226 33.9473 11.3448L35.9334 11.1097C35.7628 9.66796 35.2646 8.35412 34.4391 7.18468L32.8052 8.33805ZM34.9403 10.2273H30.0881V12.2273H34.9403V10.2273ZM31.0618 10.9998C30.8248 9.98532 30.3094 9.13922 29.5012 8.52298L28.2885 10.1134C28.6925 10.4214 28.9725 10.848 29.1143 11.4548L31.0618 10.9998ZM29.5012 8.52298C28.6921 7.906 27.7186 7.625 26.6449 7.625V9.625C27.3591 9.625 27.8856 9.80613 28.2885 10.1134L29.5012 8.52298ZM26.6449 7.625C24.772 7.625 23.2974 8.47406 22.332 10.0892L24.0487 11.1153C24.6591 10.0941 25.4874 9.625 26.6449 9.625V7.625ZM22.3298 10.0929C21.4262 11.6193 21.013 13.6074 20.9972 15.9706L22.9971 15.984C23.0116 13.8168 23.3938 12.2216 24.0509 11.1117L22.3298 10.0929ZM21.9972 16.9773H22.1562V14.9773H21.9972V16.9773ZM23.0487 16.4284C23.3351 15.8617 23.7174 15.3847 24.1997 14.989L22.931 13.4428C22.2315 14.0168 21.6743 14.714 21.2638 15.5261L23.0487 16.4284ZM24.2007 14.9881C24.7031 14.5748 25.2742 14.2577 25.9213 14.0377L25.2775 12.1441C24.4096 12.4392 23.6246 12.8722 22.93 13.4437L24.2007 14.9881ZM25.9269 14.0358C26.5817 13.8088 27.2775 13.6932 28.0199 13.6932V11.6932C27.0653 11.6932 26.1474 11.8427 25.272 12.146L25.9269 14.0358ZM28.0199 13.6932C29.2342 13.6932 30.279 13.9779 31.1837 14.5258L32.2197 12.8151C30.9729 12.06 29.5632 11.6932 28.0199 11.6932V13.6932ZM31.1881 14.5285C32.1075 15.0788 32.8328 15.8336 33.3711 16.8117L35.1233 15.8474C34.4191 14.5679 33.4474 13.5499 32.2153 12.8124L31.1881 14.5285ZM33.3711 16.8117C33.901 17.7746 34.179 18.8965 34.179 20.2045H36.179C36.179 18.6035 35.8358 17.1421 35.1233 15.8474L33.3711 16.8117ZM34.179 20.2045C34.179 21.6183 33.8514 22.8388 33.2187 23.8954L34.9347 24.9228C35.7717 23.5248 36.179 21.9423 36.179 20.2045H34.179ZM33.2164 23.8993C32.5866 24.9621 31.7058 25.7981 30.5504 26.4125L31.4894 28.1784C32.9552 27.3989 34.1123 26.3106 34.937 24.9189L33.2164 23.8993ZM30.5522 26.4115C29.4177 27.0118 28.0699 27.3252 26.4788 27.3182L26.47 29.3182C28.3335 29.3263 30.016 28.9579 31.4875 28.1794L30.5522 26.4115ZM26.4517 25.4545C27.3769 25.4545 28.2373 25.2302 29.0051 24.7637L27.9665 23.0545C27.5373 23.3153 27.0417 23.4545 26.4517 23.4545V25.4545ZM29.0051 24.7637C29.7552 24.3079 30.3474 23.6859 30.7716 22.9129L29.0182 21.9507C28.7606 22.4202 28.4133 22.783 27.9665 23.0545L29.0051 24.7637ZM30.7716 22.9129C31.2006 22.1312 31.4062 21.2662 31.4062 20.3409H29.4062C29.4062 20.9611 29.271 21.4901 29.0182 21.9507L30.7716 22.9129ZM31.4062 20.3409C31.4062 19.4158 31.2006 18.5525 30.769 17.7757L29.0207 18.747C29.271 19.1975 29.4062 19.7206 29.4062 20.3409H31.4062ZM30.7736 17.784C30.3574 17.0178 29.7734 16.3997 29.0326 15.9438L27.9844 17.6471C28.4254 17.9185 28.7657 18.2776 29.0162 18.7387L30.7736 17.784ZM29.0326 15.9438C28.2698 15.4743 27.4108 15.25 26.4858 15.25V17.25C27.0759 17.25 27.5655 17.3893 27.9844 17.6471L29.0326 15.9438ZM26.4858 15.25C25.79 15.25 25.1258 15.3806 24.5054 15.652L25.3071 17.4843C25.6564 17.3315 26.0453 17.25 26.4858 17.25V15.25ZM24.5001 15.6544C23.9038 15.9194 23.3764 16.2902 22.9235 16.762L24.3663 18.1471C24.6407 17.8613 24.9542 17.6412 25.3124 17.482L24.5001 15.6544ZM22.9163 16.7696C22.4731 17.2411 22.1275 17.7853 21.8784 18.3941L23.7295 19.1514C23.8896 18.7601 24.1046 18.4256 24.3735 18.1395L22.9163 16.7696ZM21.8805 18.3891C21.6229 19.0093 21.4972 19.6669 21.4972 20.3523H23.4972C23.4972 19.9164 23.576 19.521 23.7275 19.1563L21.8805 18.3891ZM21.4972 20.3523C21.4972 21.2603 21.7053 22.1129 22.1319 22.8902L23.8852 21.928C23.6299 21.4629 23.4972 20.9442 23.4972 20.3523H21.4972ZM22.1364 22.8983C22.5648 23.6621 23.1502 24.2825 23.8857 24.7445L24.9496 23.051C24.5032 22.7705 24.1492 22.3985 23.8807 21.9198L22.1364 22.8983ZM23.8905 24.7475C24.6593 25.2244 25.5225 25.4545 26.4517 25.4545V23.4545C25.8657 23.4545 25.3729 23.3135 24.9447 23.0479L23.8905 24.7475Z" fill="url(#paint1_linear_150_30)" mask="url(#path-2-inside-1_150_30)"/>
<path d="M55.3239 23.7102C55.2784 23.2519 55.0833 22.8958 54.7386 22.642C54.3939 22.3883 53.9261 22.2614 53.3352 22.2614C52.9337 22.2614 52.5947 22.3182 52.3182 22.4318C52.0417 22.5417 51.8295 22.6951 51.6818 22.892C51.5379 23.089 51.4659 23.3125 51.4659 23.5625C51.4583 23.7708 51.5019 23.9527 51.5966 24.108C51.6951 24.2633 51.8295 24.3977 52 24.5114C52.1705 24.6212 52.3674 24.7178 52.5909 24.8011C52.8144 24.8807 53.053 24.9489 53.3068 25.0057L54.3523 25.2557C54.8598 25.3693 55.3258 25.5208 55.75 25.7102C56.1742 25.8996 56.5417 26.1326 56.8523 26.4091C57.1629 26.6856 57.4034 27.0114 57.5739 27.3864C57.7481 27.7614 57.8371 28.1913 57.8409 28.6761C57.8371 29.3883 57.6553 30.0057 57.2955 30.5284C56.9394 31.0473 56.4242 31.4508 55.75 31.7386C55.0795 32.0227 54.2708 32.1648 53.3239 32.1648C52.3845 32.1648 51.5663 32.0208 50.8693 31.733C50.1761 31.4451 49.6345 31.0189 49.2443 30.4545C48.858 29.8864 48.6553 29.1837 48.6364 28.3466H51.017C51.0436 28.7367 51.1553 29.0625 51.3523 29.3239C51.553 29.5814 51.8201 29.7765 52.1534 29.9091C52.4905 30.0379 52.8712 30.1023 53.2955 30.1023C53.7121 30.1023 54.0739 30.0417 54.3807 29.9205C54.6913 29.7992 54.9318 29.6307 55.1023 29.4148C55.2727 29.1989 55.358 28.9508 55.358 28.6705C55.358 28.4091 55.2803 28.1894 55.125 28.0114C54.9735 27.8333 54.75 27.6818 54.4545 27.5568C54.1629 27.4318 53.8049 27.3182 53.3807 27.2159L52.1136 26.8977C51.1326 26.6591 50.358 26.286 49.7898 25.7784C49.2216 25.2708 48.9394 24.5871 48.9432 23.7273C48.9394 23.0227 49.1269 22.4072 49.5057 21.8807C49.8883 21.3542 50.4129 20.9432 51.0795 20.6477C51.7462 20.3523 52.5038 20.2045 53.3523 20.2045C54.2159 20.2045 54.9697 20.3523 55.6136 20.6477C56.2614 20.9432 56.7652 21.3542 57.125 21.8807C57.4848 22.4072 57.6705 23.017 57.6818 23.7102H55.3239ZM61.8707 20.3636V32H59.4503V20.3636H61.8707ZM67.7528 32.1705C66.8703 32.1705 66.107 31.983 65.4631 31.608C64.8229 31.2292 64.3286 30.7027 63.9801 30.0284C63.6316 29.3504 63.4574 28.5644 63.4574 27.6705C63.4574 26.7689 63.6316 25.9811 63.9801 25.3068C64.3286 24.6288 64.8229 24.1023 65.4631 23.7273C66.107 23.3485 66.8703 23.1591 67.7528 23.1591C68.6354 23.1591 69.3968 23.3485 70.0369 23.7273C70.6809 24.1023 71.1771 24.6288 71.5256 25.3068C71.8741 25.9811 72.0483 26.7689 72.0483 27.6705C72.0483 28.5644 71.8741 29.3504 71.5256 30.0284C71.1771 30.7027 70.6809 31.2292 70.0369 31.608C69.3968 31.983 68.6354 32.1705 67.7528 32.1705ZM67.7642 30.2955C68.1657 30.2955 68.5009 30.1818 68.7699 29.9545C69.0388 29.7235 69.2415 29.4091 69.3778 29.0114C69.518 28.6136 69.5881 28.161 69.5881 27.6534C69.5881 27.1458 69.518 26.6932 69.3778 26.2955C69.2415 25.8977 69.0388 25.5833 68.7699 25.3523C68.5009 25.1212 68.1657 25.0057 67.7642 25.0057C67.3589 25.0057 67.018 25.1212 66.7415 25.3523C66.4688 25.5833 66.2623 25.8977 66.1222 26.2955C65.9858 26.6932 65.9176 27.1458 65.9176 27.6534C65.9176 28.161 65.9858 28.6136 66.1222 29.0114C66.2623 29.4091 66.4688 29.7235 66.7415 29.9545C67.018 30.1818 67.3589 30.2955 67.7642 30.2955ZM78.2642 23.2727V25.0909H73.0085V23.2727H78.2642ZM74.2017 21.1818H76.6222V29.3182C76.6222 29.5417 76.6563 29.7159 76.7244 29.8409C76.7926 29.9621 76.8873 30.0473 77.0085 30.0966C77.1335 30.1458 77.2775 30.1705 77.4403 30.1705C77.554 30.1705 77.6676 30.161 77.7812 30.142C77.8949 30.1193 77.982 30.1023 78.0426 30.0909L78.4233 31.892C78.3021 31.9299 78.1316 31.9735 77.9119 32.0227C77.6922 32.0758 77.4252 32.108 77.1108 32.1193C76.5275 32.142 76.0161 32.0644 75.5767 31.8864C75.1411 31.7083 74.8021 31.4318 74.5597 31.0568C74.3172 30.6818 74.1979 30.2083 74.2017 29.6364V21.1818ZM88.1861 23.2727V25.0909H82.9304V23.2727H88.1861ZM84.1236 21.1818H86.544V29.3182C86.544 29.5417 86.5781 29.7159 86.6463 29.8409C86.7145 29.9621 86.8092 30.0473 86.9304 30.0966C87.0554 30.1458 87.1993 30.1705 87.3622 30.1705C87.4759 30.1705 87.5895 30.161 87.7031 30.142C87.8168 30.1193 87.9039 30.1023 87.9645 30.0909L88.3452 31.892C88.224 31.9299 88.0535 31.9735 87.8338 32.0227C87.6141 32.0758 87.3471 32.108 87.0327 32.1193C86.4493 32.142 85.938 32.0644 85.4986 31.8864C85.063 31.7083 84.724 31.4318 84.4815 31.0568C84.2391 30.6818 84.1198 30.2083 84.1236 29.6364V21.1818ZM93.6122 32.1705C92.7296 32.1705 91.9664 31.983 91.3224 31.608C90.6823 31.2292 90.188 30.7027 89.8395 30.0284C89.491 29.3504 89.3168 28.5644 89.3168 27.6705C89.3168 26.7689 89.491 25.9811 89.8395 25.3068C90.188 24.6288 90.6823 24.1023 91.3224 23.7273C91.9664 23.3485 92.7296 23.1591 93.6122 23.1591C94.4948 23.1591 95.2562 23.3485 95.8963 23.7273C96.5402 24.1023 97.0365 24.6288 97.3849 25.3068C97.7334 25.9811 97.9077 26.7689 97.9077 27.6705C97.9077 28.5644 97.7334 29.3504 97.3849 30.0284C97.0365 30.7027 96.5402 31.2292 95.8963 31.608C95.2562 31.983 94.4948 32.1705 93.6122 32.1705ZM93.6236 30.2955C94.0251 30.2955 94.3603 30.1818 94.6293 29.9545C94.8982 29.7235 95.1009 29.4091 95.2372 29.0114C95.3774 28.6136 95.4474 28.161 95.4474 27.6534C95.4474 27.1458 95.3774 26.6932 95.2372 26.2955C95.1009 25.8977 94.8982 25.5833 94.6293 25.3523C94.3603 25.1212 94.0251 25.0057 93.6236 25.0057C93.2183 25.0057 92.8774 25.1212 92.6009 25.3523C92.3281 25.5833 92.1217 25.8977 91.9815 26.2955C91.8452 26.6932 91.777 27.1458 91.777 27.6534C91.777 28.161 91.8452 28.6136 91.9815 29.0114C92.1217 29.4091 92.3281 29.7235 92.6009 29.9545C92.8774 30.1818 93.2183 30.2955 93.6236 30.2955ZM105.078 28.2841V23.2727H107.499V32H105.175V30.4148H105.084C104.887 30.9261 104.559 31.3371 104.101 31.6477C103.646 31.9583 103.091 32.1136 102.436 32.1136C101.853 32.1136 101.339 31.9811 100.896 31.7159C100.453 31.4508 100.107 31.0739 99.8565 30.5852C99.6103 30.0966 99.4853 29.5114 99.4815 28.8295V23.2727H101.902V28.3977C101.906 28.9129 102.044 29.3201 102.317 29.6193C102.589 29.9186 102.955 30.0682 103.413 30.0682C103.705 30.0682 103.978 30.0019 104.232 29.8693C104.485 29.733 104.69 29.5322 104.845 29.267C105.004 29.0019 105.082 28.6742 105.078 28.2841ZM109.435 32V23.2727H111.781V24.7955H111.872C112.031 24.2538 112.298 23.8447 112.673 23.5682C113.048 23.2879 113.48 23.1477 113.969 23.1477C114.09 23.1477 114.221 23.1553 114.361 23.1705C114.501 23.1856 114.624 23.2064 114.73 23.233V25.3807C114.616 25.3466 114.459 25.3163 114.259 25.2898C114.058 25.2633 113.874 25.25 113.707 25.25C113.351 25.25 113.033 25.3277 112.753 25.483C112.476 25.6345 112.257 25.8466 112.094 26.1193C111.935 26.392 111.855 26.7064 111.855 27.0625V32H109.435ZM118.402 26.9545V32H115.982V23.2727H118.288V24.8125H118.391C118.584 24.3049 118.908 23.9034 119.362 23.608C119.817 23.3087 120.368 23.1591 121.016 23.1591C121.622 23.1591 122.15 23.2917 122.601 23.5568C123.052 23.822 123.402 24.2008 123.652 24.6932C123.902 25.1818 124.027 25.7652 124.027 26.4432V32H121.607V26.875C121.61 26.3409 121.474 25.9242 121.197 25.625C120.921 25.322 120.54 25.1705 120.055 25.1705C119.73 25.1705 119.442 25.2405 119.192 25.3807C118.946 25.5208 118.752 25.7254 118.612 25.9943C118.476 26.2595 118.406 26.5795 118.402 26.9545ZM128.423 32.1648C127.866 32.1648 127.37 32.0682 126.935 31.875C126.499 31.678 126.154 31.3883 125.901 31.0057C125.651 30.6193 125.526 30.1383 125.526 29.5625C125.526 29.0777 125.615 28.6705 125.793 28.3409C125.971 28.0114 126.213 27.7462 126.52 27.5455C126.827 27.3447 127.175 27.1932 127.565 27.0909C127.959 26.9886 128.372 26.9167 128.804 26.875C129.312 26.822 129.721 26.7727 130.031 26.7273C130.342 26.678 130.567 26.6061 130.707 26.5114C130.848 26.4167 130.918 26.2765 130.918 26.0909V26.0568C130.918 25.697 130.804 25.4186 130.577 25.2216C130.353 25.0246 130.035 24.9261 129.622 24.9261C129.187 24.9261 128.84 25.0227 128.582 25.2159C128.325 25.4053 128.154 25.6439 128.071 25.9318L125.832 25.75C125.946 25.2197 126.17 24.7614 126.503 24.375C126.836 23.9848 127.266 23.6856 127.793 23.4773C128.323 23.2652 128.937 23.1591 129.634 23.1591C130.118 23.1591 130.582 23.2159 131.026 23.3295C131.473 23.4432 131.868 23.6193 132.213 23.858C132.562 24.0966 132.836 24.4034 133.037 24.7784C133.238 25.1496 133.338 25.5947 133.338 26.1136V32H131.043V30.7898H130.974C130.834 31.0625 130.647 31.303 130.412 31.5114C130.177 31.7159 129.895 31.8769 129.565 31.9943C129.236 32.108 128.855 32.1648 128.423 32.1648ZM129.116 30.4943C129.473 30.4943 129.787 30.4242 130.06 30.2841C130.332 30.1402 130.546 29.947 130.702 29.7045C130.857 29.4621 130.935 29.1875 130.935 28.8807V27.9545C130.859 28.0038 130.755 28.0492 130.622 28.0909C130.493 28.1288 130.348 28.1648 130.185 28.1989C130.022 28.2292 129.859 28.2576 129.696 28.2841C129.533 28.3068 129.385 28.3277 129.253 28.3466C128.969 28.3883 128.721 28.4545 128.509 28.5455C128.296 28.6364 128.132 28.7595 128.014 28.9148C127.897 29.0663 127.838 29.2557 127.838 29.483C127.838 29.8125 127.957 30.0644 128.196 30.2386C128.438 30.4091 128.745 30.4943 129.116 30.4943ZM135.216 32V23.2727H137.523V24.8125H137.625C137.807 24.3011 138.11 23.8977 138.534 23.6023C138.958 23.3068 139.466 23.1591 140.057 23.1591C140.655 23.1591 141.165 23.3087 141.585 23.608C142.006 23.9034 142.286 24.3049 142.426 24.8125H142.517C142.695 24.3125 143.017 23.9129 143.483 23.6136C143.953 23.3106 144.508 23.1591 145.148 23.1591C145.962 23.1591 146.623 23.4186 147.131 23.9375C147.642 24.4527 147.898 25.1837 147.898 26.1307V32H145.483V26.608C145.483 26.1231 145.354 25.7595 145.097 25.517C144.839 25.2746 144.517 25.1534 144.131 25.1534C143.691 25.1534 143.348 25.2936 143.102 25.5739C142.856 25.8504 142.733 26.2159 142.733 26.6705V32H140.386V26.5568C140.386 26.1288 140.263 25.7879 140.017 25.5341C139.775 25.2803 139.455 25.1534 139.057 25.1534C138.788 25.1534 138.545 25.2216 138.33 25.358C138.117 25.4905 137.949 25.678 137.824 25.9205C137.699 26.1591 137.636 26.4394 137.636 26.7614V32H135.216ZM153.787 32.1705C152.889 32.1705 152.116 31.9886 151.469 31.625C150.825 31.2576 150.329 30.7386 149.98 30.0682C149.632 29.3939 149.457 28.5966 149.457 27.6761C149.457 26.7784 149.632 25.9905 149.98 25.3125C150.329 24.6345 150.819 24.1061 151.452 23.7273C152.088 23.3485 152.834 23.1591 153.69 23.1591C154.266 23.1591 154.802 23.2519 155.298 23.4375C155.798 23.6193 156.234 23.8939 156.605 24.2614C156.98 24.6288 157.272 25.0909 157.48 25.6477C157.688 26.2008 157.793 26.8485 157.793 27.5909V28.2557H150.423V26.7557H155.514C155.514 26.4072 155.438 26.0985 155.287 25.8295C155.135 25.5606 154.925 25.3504 154.656 25.1989C154.391 25.0436 154.082 24.9659 153.73 24.9659C153.363 24.9659 153.037 25.0511 152.753 25.2216C152.473 25.3883 152.253 25.6136 152.094 25.8977C151.935 26.178 151.853 26.4905 151.849 26.8352V28.2614C151.849 28.6932 151.929 29.0663 152.088 29.3807C152.251 29.6951 152.48 29.9375 152.776 30.108C153.071 30.2784 153.421 30.3636 153.827 30.3636C154.096 30.3636 154.342 30.3258 154.565 30.25C154.789 30.1742 154.98 30.0606 155.139 29.9091C155.298 29.7576 155.42 29.572 155.503 29.3523L157.741 29.5C157.628 30.0379 157.395 30.5076 157.043 30.9091C156.694 31.3068 156.243 31.6174 155.69 31.8409C155.141 32.0606 154.507 32.1705 153.787 32.1705ZM161.793 26.9545V32H159.372V23.2727H161.679V24.8125H161.781C161.974 24.3049 162.298 23.9034 162.753 23.608C163.207 23.3087 163.759 23.1591 164.406 23.1591C165.012 23.1591 165.541 23.2917 165.991 23.5568C166.442 23.822 166.793 24.2008 167.043 24.6932C167.293 25.1818 167.418 25.7652 167.418 26.4432V32H164.997V26.875C165.001 26.3409 164.865 25.9242 164.588 25.625C164.312 25.322 163.931 25.1705 163.446 25.1705C163.12 25.1705 162.832 25.2405 162.582 25.3807C162.336 25.5208 162.143 25.7254 162.003 25.9943C161.866 26.2595 161.796 26.5795 161.793 26.9545ZM173.967 23.2727V25.0909H168.712V23.2727H173.967ZM169.905 21.1818H172.325V29.3182C172.325 29.5417 172.359 29.7159 172.428 29.8409C172.496 29.9621 172.59 30.0473 172.712 30.0966C172.837 30.1458 172.981 30.1705 173.143 30.1705C173.257 30.1705 173.371 30.161 173.484 30.142C173.598 30.1193 173.685 30.1023 173.746 30.0909L174.126 31.892C174.005 31.9299 173.835 31.9735 173.615 32.0227C173.395 32.0758 173.128 32.108 172.814 32.1193C172.231 32.142 171.719 32.0644 171.28 31.8864C170.844 31.7083 170.505 31.4318 170.263 31.0568C170.02 30.6818 169.901 30.2083 169.905 29.6364V21.1818Z" fill="white"/>
<path d="M197.138 48V34.9091H205.805V37.1911H199.906V40.3104H205.23V42.5923H199.906V48H197.138ZM211.37 48.1918C210.36 48.1918 209.49 47.9872 208.762 47.5781C208.037 47.1648 207.479 46.581 207.087 45.8267C206.695 45.0682 206.499 44.1712 206.499 43.1357C206.499 42.1257 206.695 41.2393 207.087 40.4766C207.479 39.7138 208.031 39.1193 208.743 38.6932C209.458 38.267 210.298 38.054 211.261 38.054C211.909 38.054 212.512 38.1584 213.07 38.3672C213.632 38.5717 214.123 38.8807 214.54 39.294C214.962 39.7074 215.29 40.2273 215.525 40.8537C215.759 41.4759 215.876 42.2045 215.876 43.0398V43.7876H207.586V42.1001H213.313C213.313 41.7081 213.228 41.3608 213.057 41.0582C212.887 40.7557 212.65 40.5192 212.348 40.3487C212.049 40.174 211.702 40.0866 211.306 40.0866C210.892 40.0866 210.526 40.1825 210.206 40.3743C209.891 40.5618 209.644 40.8153 209.465 41.1349C209.286 41.4503 209.194 41.8018 209.19 42.1896V43.794C209.19 44.2798 209.279 44.6996 209.458 45.0533C209.642 45.407 209.9 45.6797 210.232 45.8714C210.564 46.0632 210.958 46.1591 211.414 46.1591C211.717 46.1591 211.994 46.1165 212.245 46.0312C212.497 45.946 212.712 45.8182 212.891 45.6477C213.07 45.4773 213.206 45.2685 213.3 45.0213L215.819 45.1875C215.691 45.7926 215.429 46.321 215.032 46.7727C214.64 47.2202 214.133 47.5696 213.511 47.821C212.893 48.0682 212.179 48.1918 211.37 48.1918ZM217.704 48V34.9091H220.427V39.831H220.51C220.63 39.5668 220.802 39.2983 221.028 39.0256C221.258 38.7486 221.556 38.5185 221.923 38.3352C222.294 38.1477 222.754 38.054 223.304 38.054C224.02 38.054 224.68 38.2415 225.285 38.6165C225.89 38.9872 226.374 39.5476 226.736 40.2976C227.098 41.0433 227.279 41.9787 227.279 43.1037C227.279 44.1989 227.103 45.1236 226.749 45.8778C226.4 46.6278 225.922 47.1967 225.317 47.5845C224.716 47.968 224.043 48.1598 223.297 48.1598C222.769 48.1598 222.319 48.0724 221.949 47.8977C221.582 47.723 221.282 47.5036 221.047 47.2393C220.813 46.9709 220.634 46.7003 220.51 46.4276H220.389V48H217.704ZM220.37 43.0909C220.37 43.6747 220.451 44.1839 220.613 44.6186C220.775 45.0533 221.009 45.392 221.316 45.6349C221.623 45.8736 221.995 45.9929 222.434 45.9929C222.877 45.9929 223.252 45.8714 223.559 45.6286C223.866 45.3814 224.098 45.0405 224.256 44.6058C224.418 44.1669 224.499 43.6619 224.499 43.0909C224.499 42.5241 224.42 42.0256 224.262 41.5952C224.105 41.1648 223.873 40.8281 223.566 40.5852C223.259 40.3423 222.882 40.2209 222.434 40.2209C221.991 40.2209 221.616 40.3381 221.309 40.5724C221.007 40.8068 220.775 41.1392 220.613 41.5696C220.451 42 220.37 42.5071 220.37 43.0909Z" fill="white"/>
<mask id="path-6-inside-2_150_30" fill="white">
<path d="M207.011 4.72727V28H202.091V9.39773H201.955L196.625 12.7386V8.375L202.386 4.72727H207.011ZM213.463 28L223.111 8.90909V8.75H211.872V4.72727H228.202V8.80682L218.543 28H213.463Z"/>
</mask>
<path d="M207.011 4.72727V28H202.091V9.39773H201.955L196.625 12.7386V8.375L202.386 4.72727H207.011ZM213.463 28L223.111 8.90909V8.75H211.872V4.72727H228.202V8.80682L218.543 28H213.463Z" fill="url(#paint2_linear_150_30)"/>
<path d="M207.011 4.72727H208.011V3.72727H207.011V4.72727ZM207.011 28V29H208.011V28H207.011ZM202.091 28H201.091V29H202.091V28ZM202.091 9.39773H203.091V8.39773H202.091V9.39773ZM201.955 9.39773V8.39773H201.667L201.423 8.55044L201.955 9.39773ZM196.625 12.7386H195.625V14.5457L197.156 13.5859L196.625 12.7386ZM196.625 8.375L196.09 7.53011L195.625 7.82456V8.375H196.625ZM202.386 4.72727V3.72727H202.096L201.851 3.88238L202.386 4.72727ZM206.011 4.72727V28H208.011V4.72727H206.011ZM207.011 27H202.091V29H207.011V27ZM203.091 28V9.39773H201.091V28H203.091ZM202.091 8.39773H201.955V10.3977H202.091V8.39773ZM201.423 8.55044L196.094 11.8913L197.156 13.5859L202.486 10.245L201.423 8.55044ZM197.625 12.7386V8.375H195.625V12.7386H197.625ZM197.16 9.21989L202.921 5.57217L201.851 3.88238L196.09 7.53011L197.16 9.21989ZM202.386 5.72727H207.011V3.72727H202.386V5.72727ZM213.463 28L212.571 27.549L211.837 29H213.463V28ZM223.111 8.90909L224.003 9.36012L224.111 9.14742V8.90909H223.111ZM223.111 8.75H224.111V7.75H223.111V8.75ZM211.872 8.75H210.872V9.75H211.872V8.75ZM211.872 4.72727V3.72727H210.872V4.72727H211.872ZM228.202 4.72727H229.202V3.72727H228.202V4.72727ZM228.202 8.80682L229.095 9.25636L229.202 9.04426V8.80682H228.202ZM218.543 28V29H219.159L219.436 28.4495L218.543 28ZM214.356 28.451L224.003 9.36012L222.218 8.45806L212.571 27.549L214.356 28.451ZM224.111 8.90909V8.75H222.111V8.90909H224.111ZM223.111 7.75H211.872V9.75H223.111V7.75ZM212.872 8.75V4.72727H210.872V8.75H212.872ZM211.872 5.72727H228.202V3.72727H211.872V5.72727ZM227.202 4.72727V8.80682H229.202V4.72727H227.202ZM227.308 8.35728L217.649 27.5505L219.436 28.4495L229.095 9.25636L227.308 8.35728ZM218.543 27H213.463V29H218.543V27Z" fill="url(#paint3_linear_150_30)" mask="url(#path-6-inside-2_150_30)"/>
<path d="M243.011 24V12.3636H247.67C248.527 12.3636 249.241 12.4905 249.812 12.7443C250.384 12.9981 250.814 13.3504 251.102 13.8011C251.39 14.2481 251.534 14.7633 251.534 15.3466C251.534 15.8011 251.443 16.2008 251.261 16.5455C251.08 16.8864 250.83 17.1667 250.511 17.3864C250.197 17.6023 249.837 17.7557 249.432 17.8466V17.9602C249.875 17.9792 250.29 18.1042 250.676 18.3352C251.066 18.5663 251.383 18.8902 251.625 19.3068C251.867 19.7197 251.989 20.2121 251.989 20.7841C251.989 21.4015 251.835 21.9527 251.528 22.4375C251.225 22.9186 250.777 23.2992 250.182 23.5795C249.587 23.8598 248.854 24 247.983 24H243.011ZM245.472 21.9886H247.477C248.163 21.9886 248.663 21.858 248.977 21.5966C249.292 21.3314 249.449 20.9792 249.449 20.5398C249.449 20.2178 249.371 19.9337 249.216 19.6875C249.061 19.4413 248.839 19.2481 248.551 19.108C248.267 18.9678 247.928 18.8977 247.534 18.8977H245.472V21.9886ZM245.472 17.233H247.295C247.633 17.233 247.932 17.1742 248.193 17.0568C248.458 16.9356 248.667 16.7652 248.818 16.5455C248.973 16.3258 249.051 16.0625 249.051 15.7557C249.051 15.3352 248.902 14.9962 248.602 14.7386C248.307 14.4811 247.886 14.3523 247.341 14.3523H245.472V17.233ZM255.964 12.3636V24H253.544V12.3636H255.964ZM260.392 24.1648C259.835 24.1648 259.339 24.0682 258.903 23.875C258.468 23.678 258.123 23.3883 257.869 23.0057C257.619 22.6193 257.494 22.1383 257.494 21.5625C257.494 21.0777 257.583 20.6705 257.761 20.3409C257.939 20.0114 258.182 19.7462 258.489 19.5455C258.795 19.3447 259.144 19.1932 259.534 19.0909C259.928 18.9886 260.341 18.9167 260.773 18.875C261.28 18.822 261.689 18.7727 262 18.7273C262.311 18.678 262.536 18.6061 262.676 18.5114C262.816 18.4167 262.886 18.2765 262.886 18.0909V18.0568C262.886 17.697 262.773 17.4186 262.545 17.2216C262.322 17.0246 262.004 16.9261 261.591 16.9261C261.155 16.9261 260.809 17.0227 260.551 17.2159C260.294 17.4053 260.123 17.6439 260.04 17.9318L257.801 17.75C257.915 17.2197 258.138 16.7614 258.472 16.375C258.805 15.9848 259.235 15.6856 259.761 15.4773C260.292 15.2652 260.905 15.1591 261.602 15.1591C262.087 15.1591 262.551 15.2159 262.994 15.3295C263.441 15.4432 263.837 15.6193 264.182 15.858C264.53 16.0966 264.805 16.4034 265.006 16.7784C265.206 17.1496 265.307 17.5947 265.307 18.1136V24H263.011V22.7898H262.943C262.803 23.0625 262.616 23.303 262.381 23.5114C262.146 23.7159 261.864 23.8769 261.534 23.9943C261.205 24.108 260.824 24.1648 260.392 24.1648ZM261.085 22.4943C261.441 22.4943 261.756 22.4242 262.028 22.2841C262.301 22.1402 262.515 21.947 262.67 21.7045C262.826 21.4621 262.903 21.1875 262.903 20.8807V19.9545C262.828 20.0038 262.723 20.0492 262.591 20.0909C262.462 20.1288 262.316 20.1648 262.153 20.1989C261.991 20.2292 261.828 20.2576 261.665 20.2841C261.502 20.3068 261.354 20.3277 261.222 20.3466C260.938 20.3883 260.689 20.4545 260.477 20.5455C260.265 20.6364 260.1 20.7595 259.983 20.9148C259.866 21.0663 259.807 21.2557 259.807 21.483C259.807 21.8125 259.926 22.0644 260.165 22.2386C260.407 22.4091 260.714 22.4943 261.085 22.4943ZM271.128 24.1705C270.234 24.1705 269.465 23.9811 268.821 23.6023C268.181 23.2197 267.688 22.6894 267.344 22.0114C267.003 21.3333 266.832 20.553 266.832 19.6705C266.832 18.7765 267.005 17.9924 267.349 17.3182C267.698 16.6402 268.192 16.1117 268.832 15.733C269.473 15.3504 270.234 15.1591 271.116 15.1591C271.878 15.1591 272.545 15.2973 273.116 15.5739C273.688 15.8504 274.141 16.2386 274.474 16.7386C274.808 17.2386 274.991 17.8258 275.026 18.5H272.741C272.677 18.0644 272.507 17.714 272.23 17.4489C271.957 17.1799 271.599 17.0455 271.156 17.0455C270.781 17.0455 270.454 17.1477 270.173 17.3523C269.897 17.553 269.681 17.8466 269.526 18.233C269.37 18.6193 269.293 19.0871 269.293 19.6364C269.293 20.1932 269.368 20.6667 269.52 21.0568C269.675 21.447 269.893 21.7443 270.173 21.9489C270.454 22.1534 270.781 22.2557 271.156 22.2557C271.433 22.2557 271.681 22.1989 271.901 22.0852C272.124 21.9716 272.308 21.8068 272.452 21.5909C272.599 21.3712 272.696 21.108 272.741 20.8011H275.026C274.988 21.4678 274.806 22.0549 274.48 22.5625C274.158 23.0663 273.713 23.4602 273.145 23.7443C272.577 24.0284 271.904 24.1705 271.128 24.1705ZM278.768 21.4886L278.774 18.5852H279.126L281.922 15.2727H284.7L280.945 19.6591H280.371L278.768 21.4886ZM276.575 24V12.3636H278.996V24H276.575ZM282.03 24L279.462 20.1989L281.075 18.4886L284.865 24H282.03ZM294.295 12.3636H296.727V20.4773C296.727 21.2273 296.559 21.8788 296.222 22.4318C295.888 22.9848 295.424 23.411 294.83 23.7102C294.235 24.0095 293.544 24.1591 292.756 24.1591C292.055 24.1591 291.419 24.036 290.847 23.7898C290.278 23.5398 289.828 23.161 289.494 22.6534C289.161 22.142 288.996 21.5 289 20.7273H291.449C291.456 21.0341 291.519 21.2973 291.636 21.517C291.758 21.733 291.922 21.8996 292.131 22.017C292.343 22.1307 292.593 22.1875 292.881 22.1875C293.184 22.1875 293.439 22.1231 293.648 21.9943C293.86 21.8617 294.021 21.6686 294.131 21.4148C294.241 21.161 294.295 20.8485 294.295 20.4773V12.3636ZM301.205 24.1648C300.648 24.1648 300.152 24.0682 299.716 23.875C299.28 23.678 298.936 23.3883 298.682 23.0057C298.432 22.6193 298.307 22.1383 298.307 21.5625C298.307 21.0777 298.396 20.6705 298.574 20.3409C298.752 20.0114 298.994 19.7462 299.301 19.5455C299.608 19.3447 299.956 19.1932 300.347 19.0909C300.741 18.9886 301.153 18.9167 301.585 18.875C302.093 18.822 302.502 18.7727 302.812 18.7273C303.123 18.678 303.348 18.6061 303.489 18.5114C303.629 18.4167 303.699 18.2765 303.699 18.0909V18.0568C303.699 17.697 303.585 17.4186 303.358 17.2216C303.134 17.0246 302.816 16.9261 302.403 16.9261C301.968 16.9261 301.621 17.0227 301.364 17.2159C301.106 17.4053 300.936 17.6439 300.852 17.9318L298.614 17.75C298.727 17.2197 298.951 16.7614 299.284 16.375C299.617 15.9848 300.047 15.6856 300.574 15.4773C301.104 15.2652 301.718 15.1591 302.415 15.1591C302.9 15.1591 303.364 15.2159 303.807 15.3295C304.254 15.4432 304.65 15.6193 304.994 15.858C305.343 16.0966 305.617 16.4034 305.818 16.7784C306.019 17.1496 306.119 17.5947 306.119 18.1136V24H303.824V22.7898H303.756C303.616 23.0625 303.428 23.303 303.193 23.5114C302.958 23.7159 302.676 23.8769 302.347 23.9943C302.017 24.108 301.636 24.1648 301.205 24.1648ZM301.898 22.4943C302.254 22.4943 302.568 22.4242 302.841 22.2841C303.114 22.1402 303.328 21.947 303.483 21.7045C303.638 21.4621 303.716 21.1875 303.716 20.8807V19.9545C303.64 20.0038 303.536 20.0492 303.403 20.0909C303.275 20.1288 303.129 20.1648 302.966 20.1989C302.803 20.2292 302.64 20.2576 302.477 20.2841C302.314 20.3068 302.167 20.3277 302.034 20.3466C301.75 20.3883 301.502 20.4545 301.29 20.5455C301.078 20.6364 300.913 20.7595 300.795 20.9148C300.678 21.0663 300.619 21.2557 300.619 21.483C300.619 21.8125 300.739 22.0644 300.977 22.2386C301.22 22.4091 301.527 22.4943 301.898 22.4943ZM311.94 24.1705C311.046 24.1705 310.277 23.9811 309.634 23.6023C308.993 23.2197 308.501 22.6894 308.156 22.0114C307.815 21.3333 307.645 20.553 307.645 19.6705C307.645 18.7765 307.817 17.9924 308.162 17.3182C308.51 16.6402 309.005 16.1117 309.645 15.733C310.285 15.3504 311.046 15.1591 311.929 15.1591C312.69 15.1591 313.357 15.2973 313.929 15.5739C314.501 15.8504 314.954 16.2386 315.287 16.7386C315.62 17.2386 315.804 17.8258 315.838 18.5H313.554C313.49 18.0644 313.319 17.714 313.043 17.4489C312.77 17.1799 312.412 17.0455 311.969 17.0455C311.594 17.0455 311.266 17.1477 310.986 17.3523C310.709 17.553 310.493 17.8466 310.338 18.233C310.183 18.6193 310.105 19.0871 310.105 19.6364C310.105 20.1932 310.181 20.6667 310.332 21.0568C310.488 21.447 310.705 21.7443 310.986 21.9489C311.266 22.1534 311.594 22.2557 311.969 22.2557C312.245 22.2557 312.493 22.1989 312.713 22.0852C312.937 21.9716 313.12 21.8068 313.264 21.5909C313.412 21.3712 313.509 21.108 313.554 20.8011H315.838C315.8 21.4678 315.618 22.0549 315.293 22.5625C314.971 23.0663 314.526 23.4602 313.957 23.7443C313.389 24.0284 312.717 24.1705 311.94 24.1705ZM319.581 21.4886L319.587 18.5852H319.939L322.734 15.2727H325.513L321.757 19.6591H321.183L319.581 21.4886ZM317.388 24V12.3636H319.808V24H317.388ZM322.842 24L320.274 20.1989L321.888 18.4886L325.678 24H322.842ZM332.892 24.1648C332.335 24.1648 331.839 24.0682 331.403 23.875C330.968 23.678 330.623 23.3883 330.369 23.0057C330.119 22.6193 329.994 22.1383 329.994 21.5625C329.994 21.0777 330.083 20.6705 330.261 20.3409C330.439 20.0114 330.682 19.7462 330.989 19.5455C331.295 19.3447 331.644 19.1932 332.034 19.0909C332.428 18.9886 332.841 18.9167 333.273 18.875C333.78 18.822 334.189 18.7727 334.5 18.7273C334.811 18.678 335.036 18.6061 335.176 18.5114C335.316 18.4167 335.386 18.2765 335.386 18.0909V18.0568C335.386 17.697 335.273 17.4186 335.045 17.2216C334.822 17.0246 334.504 16.9261 334.091 16.9261C333.655 16.9261 333.309 17.0227 333.051 17.2159C332.794 17.4053 332.623 17.6439 332.54 17.9318L330.301 17.75C330.415 17.2197 330.638 16.7614 330.972 16.375C331.305 15.9848 331.735 15.6856 332.261 15.4773C332.792 15.2652 333.405 15.1591 334.102 15.1591C334.587 15.1591 335.051 15.2159 335.494 15.3295C335.941 15.4432 336.337 15.6193 336.682 15.858C337.03 16.0966 337.305 16.4034 337.506 16.7784C337.706 17.1496 337.807 17.5947 337.807 18.1136V24H335.511V22.7898H335.443C335.303 23.0625 335.116 23.303 334.881 23.5114C334.646 23.7159 334.364 23.8769 334.034 23.9943C333.705 24.108 333.324 24.1648 332.892 24.1648ZM333.585 22.4943C333.941 22.4943 334.256 22.4242 334.528 22.2841C334.801 22.1402 335.015 21.947 335.17 21.7045C335.326 21.4621 335.403 21.1875 335.403 20.8807V19.9545C335.328 20.0038 335.223 20.0492 335.091 20.0909C334.962 20.1288 334.816 20.1648 334.653 20.1989C334.491 20.2292 334.328 20.2576 334.165 20.2841C334.002 20.3068 333.854 20.3277 333.722 20.3466C333.438 20.3883 333.189 20.4545 332.977 20.5455C332.765 20.6364 332.6 20.7595 332.483 20.9148C332.366 21.0663 332.307 21.2557 332.307 21.483C332.307 21.8125 332.426 22.0644 332.665 22.2386C332.907 22.4091 333.214 22.4943 333.585 22.4943ZM342.105 18.9545V24H339.685V15.2727H341.991V16.8125H342.094C342.287 16.3049 342.611 15.9034 343.065 15.608C343.52 15.3087 344.071 15.1591 344.719 15.1591C345.325 15.1591 345.853 15.2917 346.304 15.5568C346.755 15.822 347.105 16.2008 347.355 16.6932C347.605 17.1818 347.73 17.7652 347.73 18.4432V24H345.31V18.875C345.313 18.3409 345.177 17.9242 344.901 17.625C344.624 17.322 344.243 17.1705 343.759 17.1705C343.433 17.1705 343.145 17.2405 342.895 17.3807C342.649 17.5208 342.455 17.7254 342.315 17.9943C342.179 18.2595 342.109 18.5795 342.105 18.9545ZM352.854 24.142C352.191 24.142 351.59 23.9716 351.053 23.6307C350.518 23.286 350.094 22.7803 349.78 22.1136C349.469 21.4432 349.314 20.6212 349.314 19.6477C349.314 18.6477 349.475 17.8163 349.797 17.1534C350.119 16.4867 350.547 15.9886 351.081 15.6591C351.619 15.3258 352.208 15.1591 352.848 15.1591C353.337 15.1591 353.744 15.2424 354.07 15.4091C354.399 15.572 354.664 15.7765 354.865 16.0227C355.07 16.2652 355.225 16.5038 355.331 16.7386H355.405V12.3636H357.82V24H355.433V22.6023H355.331C355.217 22.8447 355.056 23.0852 354.848 23.3239C354.643 23.5587 354.376 23.7538 354.047 23.9091C353.721 24.0644 353.323 24.142 352.854 24.142ZM353.621 22.2159C354.011 22.2159 354.34 22.1098 354.609 21.8977C354.882 21.6818 355.09 21.3807 355.234 20.9943C355.382 20.608 355.456 20.1553 355.456 19.6364C355.456 19.1174 355.384 18.6667 355.24 18.2841C355.096 17.9015 354.888 17.6061 354.615 17.3977C354.342 17.1894 354.011 17.0852 353.621 17.0852C353.223 17.0852 352.888 17.1932 352.615 17.4091C352.342 17.625 352.136 17.9242 351.996 18.3068C351.856 18.6894 351.786 19.1326 351.786 19.6364C351.786 20.1439 351.856 20.5928 351.996 20.983C352.14 21.3693 352.346 21.6723 352.615 21.892C352.888 22.108 353.223 22.2159 353.621 22.2159ZM365.564 24H362.928L366.945 12.3636H370.115L374.126 24H371.49L368.575 15.0227H368.484L365.564 24ZM365.399 19.4261H371.626V21.3466H365.399V19.4261ZM375.482 24V15.2727H377.788V16.8125H377.891C378.072 16.3011 378.375 15.8977 378.8 15.6023C379.224 15.3068 379.732 15.1591 380.322 15.1591C380.921 15.1591 381.43 15.3087 381.851 15.608C382.271 15.9034 382.552 16.3049 382.692 16.8125H382.783C382.961 16.3125 383.283 15.9129 383.749 15.6136C384.218 15.3106 384.773 15.1591 385.413 15.1591C386.228 15.1591 386.889 15.4186 387.396 15.9375C387.908 16.4527 388.163 17.1837 388.163 18.1307V24H385.749V18.608C385.749 18.1231 385.62 17.7595 385.362 17.517C385.105 17.2746 384.783 17.1534 384.396 17.1534C383.957 17.1534 383.614 17.2936 383.368 17.5739C383.122 17.8504 382.999 18.2159 382.999 18.6705V24H380.652V18.5568C380.652 18.1288 380.529 17.7879 380.283 17.5341C380.04 17.2803 379.72 17.1534 379.322 17.1534C379.054 17.1534 378.811 17.2216 378.595 17.358C378.383 17.4905 378.214 17.678 378.089 17.9205C377.964 18.1591 377.902 18.4394 377.902 18.7614V24H375.482ZM394.053 24.1705C393.155 24.1705 392.382 23.9886 391.734 23.625C391.09 23.2576 390.594 22.7386 390.246 22.0682C389.897 21.3939 389.723 20.5966 389.723 19.6761C389.723 18.7784 389.897 17.9905 390.246 17.3125C390.594 16.6345 391.085 16.1061 391.717 15.7273C392.354 15.3485 393.1 15.1591 393.956 15.1591C394.532 15.1591 395.068 15.2519 395.564 15.4375C396.064 15.6193 396.5 15.8939 396.871 16.2614C397.246 16.6288 397.537 17.0909 397.746 17.6477C397.954 18.2008 398.058 18.8485 398.058 19.5909V20.2557H390.689V18.7557H395.78C395.78 18.4072 395.704 18.0985 395.553 17.8295C395.401 17.5606 395.191 17.3504 394.922 17.1989C394.657 17.0436 394.348 16.9659 393.996 16.9659C393.628 16.9659 393.303 17.0511 393.018 17.2216C392.738 17.3883 392.518 17.6136 392.359 17.8977C392.2 18.178 392.119 18.4905 392.115 18.8352V20.2614C392.115 20.6932 392.195 21.0663 392.354 21.3807C392.517 21.6951 392.746 21.9375 393.041 22.108C393.337 22.2784 393.687 22.3636 394.092 22.3636C394.361 22.3636 394.607 22.3258 394.831 22.25C395.054 22.1742 395.246 22.0606 395.405 21.9091C395.564 21.7576 395.685 21.572 395.768 21.3523L398.007 21.5C397.893 22.0379 397.661 22.5076 397.308 22.9091C396.96 23.3068 396.509 23.6174 395.956 23.8409C395.407 24.0606 394.772 24.1705 394.053 24.1705ZM399.638 24V15.2727H401.984V16.7955H402.075C402.234 16.2538 402.501 15.8447 402.876 15.5682C403.251 15.2879 403.683 15.1477 404.172 15.1477C404.293 15.1477 404.424 15.1553 404.564 15.1705C404.704 15.1856 404.827 15.2064 404.933 15.233V17.3807C404.82 17.3466 404.662 17.3163 404.462 17.2898C404.261 17.2633 404.077 17.25 403.911 17.25C403.554 17.25 403.236 17.3277 402.956 17.483C402.679 17.6345 402.46 17.8466 402.297 18.1193C402.138 18.392 402.058 18.7064 402.058 19.0625V24H399.638ZM406.185 24V15.2727H408.605V24H406.185ZM407.401 14.1477C407.041 14.1477 406.732 14.0284 406.474 13.7898C406.221 13.5473 406.094 13.2576 406.094 12.9205C406.094 12.5871 406.221 12.3011 406.474 12.0625C406.732 11.8201 407.041 11.6989 407.401 11.6989C407.76 11.6989 408.067 11.8201 408.321 12.0625C408.579 12.3011 408.707 12.5871 408.707 12.9205C408.707 13.2576 408.579 13.5473 408.321 13.7898C408.067 14.0284 407.76 14.1477 407.401 14.1477ZM414.487 24.1705C413.593 24.1705 412.824 23.9811 412.18 23.6023C411.54 23.2197 411.048 22.6894 410.703 22.0114C410.362 21.3333 410.192 20.553 410.192 19.6705C410.192 18.7765 410.364 17.9924 410.709 17.3182C411.057 16.6402 411.552 16.1117 412.192 15.733C412.832 15.3504 413.593 15.1591 414.476 15.1591C415.237 15.1591 415.904 15.2973 416.476 15.5739C417.048 15.8504 417.5 16.2386 417.834 16.7386C418.167 17.2386 418.351 17.8258 418.385 18.5H416.101C416.036 18.0644 415.866 17.714 415.589 17.4489C415.317 17.1799 414.959 17.0455 414.516 17.0455C414.141 17.0455 413.813 17.1477 413.533 17.3523C413.256 17.553 413.04 17.8466 412.885 18.233C412.73 18.6193 412.652 19.0871 412.652 19.6364C412.652 20.1932 412.728 20.6667 412.879 21.0568C413.035 21.447 413.252 21.7443 413.533 21.9489C413.813 22.1534 414.141 22.2557 414.516 22.2557C414.792 22.2557 415.04 22.1989 415.26 22.0852C415.483 21.9716 415.667 21.8068 415.811 21.5909C415.959 21.3712 416.055 21.108 416.101 20.8011H418.385C418.347 21.4678 418.165 22.0549 417.839 22.5625C417.518 23.0663 417.072 23.4602 416.504 23.7443C415.936 24.0284 415.264 24.1705 414.487 24.1705ZM422.423 24.1648C421.866 24.1648 421.37 24.0682 420.935 23.875C420.499 23.678 420.154 23.3883 419.901 23.0057C419.651 22.6193 419.526 22.1383 419.526 21.5625C419.526 21.0777 419.615 20.6705 419.793 20.3409C419.971 20.0114 420.213 19.7462 420.52 19.5455C420.827 19.3447 421.175 19.1932 421.565 19.0909C421.959 18.9886 422.372 18.9167 422.804 18.875C423.312 18.822 423.721 18.7727 424.031 18.7273C424.342 18.678 424.567 18.6061 424.707 18.5114C424.848 18.4167 424.918 18.2765 424.918 18.0909V18.0568C424.918 17.697 424.804 17.4186 424.577 17.2216C424.353 17.0246 424.035 16.9261 423.622 16.9261C423.187 16.9261 422.84 17.0227 422.582 17.2159C422.325 17.4053 422.154 17.6439 422.071 17.9318L419.832 17.75C419.946 17.2197 420.17 16.7614 420.503 16.375C420.836 15.9848 421.266 15.6856 421.793 15.4773C422.323 15.2652 422.937 15.1591 423.634 15.1591C424.118 15.1591 424.582 15.2159 425.026 15.3295C425.473 15.4432 425.868 15.6193 426.213 15.858C426.562 16.0966 426.836 16.4034 427.037 16.7784C427.238 17.1496 427.338 17.5947 427.338 18.1136V24H425.043V22.7898H424.974C424.834 23.0625 424.647 23.303 424.412 23.5114C424.177 23.7159 423.895 23.8769 423.565 23.9943C423.236 24.108 422.855 24.1648 422.423 24.1648ZM423.116 22.4943C423.473 22.4943 423.787 22.4242 424.06 22.2841C424.332 22.1402 424.546 21.947 424.702 21.7045C424.857 21.4621 424.935 21.1875 424.935 20.8807V19.9545C424.859 20.0038 424.755 20.0492 424.622 20.0909C424.493 20.1288 424.348 20.1648 424.185 20.1989C424.022 20.2292 423.859 20.2576 423.696 20.2841C423.533 20.3068 423.385 20.3277 423.253 20.3466C422.969 20.3883 422.721 20.4545 422.509 20.5455C422.296 20.6364 422.132 20.7595 422.014 20.9148C421.897 21.0663 421.838 21.2557 421.838 21.483C421.838 21.8125 421.957 22.0644 422.196 22.2386C422.438 22.4091 422.745 22.4943 423.116 22.4943ZM431.636 18.9545V24H429.216V15.2727H431.523V16.8125H431.625C431.818 16.3049 432.142 15.9034 432.597 15.608C433.051 15.3087 433.602 15.1591 434.25 15.1591C434.856 15.1591 435.384 15.2917 435.835 15.5568C436.286 15.822 436.636 16.2008 436.886 16.6932C437.136 17.1818 437.261 17.7652 437.261 18.4432V24H434.841V18.875C434.845 18.3409 434.708 17.9242 434.432 17.625C434.155 17.322 433.775 17.1705 433.29 17.1705C432.964 17.1705 432.676 17.2405 432.426 17.3807C432.18 17.5208 431.987 17.7254 431.847 17.9943C431.71 18.2595 431.64 18.5795 431.636 18.9545ZM442.872 24V15.2727H445.219V16.7955H445.31C445.469 16.2538 445.736 15.8447 446.111 15.5682C446.486 15.2879 446.918 15.1477 447.406 15.1477C447.527 15.1477 447.658 15.1553 447.798 15.1705C447.938 15.1856 448.062 15.2064 448.168 15.233V17.3807C448.054 17.3466 447.897 17.3163 447.696 17.2898C447.495 17.2633 447.312 17.25 447.145 17.25C446.789 17.25 446.471 17.3277 446.19 17.483C445.914 17.6345 445.694 17.8466 445.531 18.1193C445.372 18.392 445.293 18.7064 445.293 19.0625V24H442.872ZM452.956 24.1705C452.073 24.1705 451.31 23.983 450.666 23.608C450.026 23.2292 449.532 22.7027 449.183 22.0284C448.835 21.3504 448.661 20.5644 448.661 19.6705C448.661 18.7689 448.835 17.9811 449.183 17.3068C449.532 16.6288 450.026 16.1023 450.666 15.7273C451.31 15.3485 452.073 15.1591 452.956 15.1591C453.839 15.1591 454.6 15.3485 455.24 15.7273C455.884 16.1023 456.38 16.6288 456.729 17.3068C457.077 17.9811 457.251 18.7689 457.251 19.6705C457.251 20.5644 457.077 21.3504 456.729 22.0284C456.38 22.7027 455.884 23.2292 455.24 23.608C454.6 23.983 453.839 24.1705 452.956 24.1705ZM452.967 22.2955C453.369 22.2955 453.704 22.1818 453.973 21.9545C454.242 21.7235 454.445 21.4091 454.581 21.0114C454.721 20.6136 454.791 20.161 454.791 19.6534C454.791 19.1458 454.721 18.6932 454.581 18.2955C454.445 17.8977 454.242 17.5833 453.973 17.3523C453.704 17.1212 453.369 17.0057 452.967 17.0057C452.562 17.0057 452.221 17.1212 451.945 17.3523C451.672 17.5833 451.465 17.8977 451.325 18.2955C451.189 18.6932 451.121 19.1458 451.121 19.6534C451.121 20.161 451.189 20.6136 451.325 21.0114C451.465 21.4091 451.672 21.7235 451.945 21.9545C452.221 22.1818 452.562 22.2955 452.967 22.2955ZM464.422 20.2841V15.2727H466.842V24H464.518V22.4148H464.428C464.231 22.9261 463.903 23.3371 463.445 23.6477C462.99 23.9583 462.435 24.1136 461.78 24.1136C461.196 24.1136 460.683 23.9811 460.24 23.7159C459.797 23.4508 459.45 23.0739 459.2 22.5852C458.954 22.0966 458.829 21.5114 458.825 20.8295V15.2727H461.246V20.3977C461.25 20.9129 461.388 21.3201 461.661 21.6193C461.933 21.9186 462.299 22.0682 462.757 22.0682C463.049 22.0682 463.321 22.0019 463.575 21.8693C463.829 21.733 464.034 21.5322 464.189 21.267C464.348 21.0019 464.426 20.6742 464.422 20.2841ZM471.199 12.3636V24H468.778V12.3636H471.199ZM477.115 24.1705C476.217 24.1705 475.445 23.9886 474.797 23.625C474.153 23.2576 473.657 22.7386 473.308 22.0682C472.96 21.3939 472.786 20.5966 472.786 19.6761C472.786 18.7784 472.96 17.9905 473.308 17.3125C473.657 16.6345 474.147 16.1061 474.78 15.7273C475.416 15.3485 476.162 15.1591 477.018 15.1591C477.594 15.1591 478.13 15.2519 478.626 15.4375C479.126 15.6193 479.562 15.8939 479.933 16.2614C480.308 16.6288 480.6 17.0909 480.808 17.6477C481.017 18.2008 481.121 18.8485 481.121 19.5909V20.2557H473.751V18.7557H478.842C478.842 18.4072 478.767 18.0985 478.615 17.8295C478.464 17.5606 478.253 17.3504 477.984 17.1989C477.719 17.0436 477.411 16.9659 477.058 16.9659C476.691 16.9659 476.365 17.0511 476.081 17.2216C475.801 17.3883 475.581 17.6136 475.422 17.8977C475.263 18.178 475.181 18.4905 475.178 18.8352V20.2614C475.178 20.6932 475.257 21.0663 475.416 21.3807C475.579 21.6951 475.808 21.9375 476.104 22.108C476.399 22.2784 476.75 22.3636 477.155 22.3636C477.424 22.3636 477.67 22.3258 477.893 22.25C478.117 22.1742 478.308 22.0606 478.467 21.9091C478.626 21.7576 478.748 21.572 478.831 21.3523L481.07 21.5C480.956 22.0379 480.723 22.5076 480.371 22.9091C480.022 23.3068 479.571 23.6174 479.018 23.8409C478.469 24.0606 477.835 24.1705 477.115 24.1705ZM487.342 15.2727V17.0909H482.087V15.2727H487.342ZM483.28 13.1818H485.7V21.3182C485.7 21.5417 485.734 21.7159 485.803 21.8409C485.871 21.9621 485.965 22.0473 486.087 22.0966C486.212 22.1458 486.356 22.1705 486.518 22.1705C486.632 22.1705 486.746 22.161 486.859 22.142C486.973 22.1193 487.06 22.1023 487.121 22.0909L487.501 23.892C487.38 23.9299 487.21 23.9735 486.99 24.0227C486.77 24.0758 486.503 24.108 486.189 24.1193C485.606 24.142 485.094 24.0644 484.655 23.8864C484.219 23.7083 483.88 23.4318 483.638 23.0568C483.395 22.6818 483.276 22.2083 483.28 21.6364V13.1818ZM493.561 15.2727V17.0909H488.305V15.2727H493.561ZM489.499 13.1818H491.919V21.3182C491.919 21.5417 491.953 21.7159 492.021 21.8409C492.089 21.9621 492.184 22.0473 492.305 22.0966C492.43 22.1458 492.574 22.1705 492.737 22.1705C492.851 22.1705 492.964 22.161 493.078 22.142C493.192 22.1193 493.279 22.1023 493.339 22.0909L493.72 23.892C493.599 23.9299 493.429 23.9735 493.209 24.0227C492.989 24.0758 492.722 24.108 492.408 24.1193C491.824 24.142 491.313 24.0644 490.874 23.8864C490.438 23.7083 490.099 23.4318 489.857 23.0568C489.614 22.6818 489.495 22.2083 489.499 21.6364V13.1818ZM499.021 24.1705C498.124 24.1705 497.351 23.9886 496.703 23.625C496.059 23.2576 495.563 22.7386 495.214 22.0682C494.866 21.3939 494.692 20.5966 494.692 19.6761C494.692 18.7784 494.866 17.9905 495.214 17.3125C495.563 16.6345 496.054 16.1061 496.686 15.7273C497.322 15.3485 498.069 15.1591 498.925 15.1591C499.5 15.1591 500.036 15.2519 500.533 15.4375C501.033 15.6193 501.468 15.8939 501.839 16.2614C502.214 16.6288 502.506 17.0909 502.714 17.6477C502.923 18.2008 503.027 18.8485 503.027 19.5909V20.2557H495.658V18.7557H500.749C500.749 18.4072 500.673 18.0985 500.521 17.8295C500.37 17.5606 500.16 17.3504 499.891 17.1989C499.625 17.0436 499.317 16.9659 498.964 16.9659C498.597 16.9659 498.271 17.0511 497.987 17.2216C497.707 17.3883 497.487 17.6136 497.328 17.8977C497.169 18.178 497.088 18.4905 497.084 18.8352V20.2614C497.084 20.6932 497.163 21.0663 497.322 21.3807C497.485 21.6951 497.714 21.9375 498.01 22.108C498.305 22.2784 498.656 22.3636 499.061 22.3636C499.33 22.3636 499.576 22.3258 499.8 22.25C500.023 22.1742 500.214 22.0606 500.374 21.9091C500.533 21.7576 500.654 21.572 500.737 21.3523L502.976 21.5C502.862 22.0379 502.629 22.5076 502.277 22.9091C501.929 23.3068 501.478 23.6174 500.925 23.8409C500.375 24.0606 499.741 24.1705 499.021 24.1705ZM250.727 35.125C250.648 34.8485 250.536 34.6042 250.392 34.392C250.248 34.1761 250.072 33.9943 249.864 33.8466C249.659 33.6951 249.424 33.5795 249.159 33.5C248.898 33.4205 248.608 33.3807 248.29 33.3807C247.695 33.3807 247.172 33.5284 246.722 33.8239C246.275 34.1193 245.926 34.5492 245.676 35.1136C245.426 35.6742 245.301 36.3598 245.301 37.1705C245.301 37.9811 245.424 38.6705 245.67 39.2386C245.917 39.8068 246.265 40.2405 246.716 40.5398C247.167 40.8352 247.699 40.983 248.312 40.983C248.869 40.983 249.345 40.8845 249.739 40.6875C250.136 40.4867 250.439 40.2045 250.648 39.8409C250.86 39.4773 250.966 39.0473 250.966 38.5511L251.466 38.625H248.466V36.7727H253.335V38.2386C253.335 39.2614 253.119 40.1402 252.688 40.875C252.256 41.6061 251.661 42.1705 250.903 42.5682C250.146 42.9621 249.278 43.1591 248.301 43.1591C247.21 43.1591 246.252 42.9186 245.426 42.4375C244.6 41.9527 243.956 41.2652 243.494 40.375C243.036 39.4811 242.807 38.4205 242.807 37.1932C242.807 36.25 242.943 35.4091 243.216 34.6705C243.492 33.928 243.879 33.2992 244.375 32.7841C244.871 32.2689 245.449 31.8769 246.108 31.608C246.767 31.339 247.481 31.2045 248.25 31.2045C248.909 31.2045 249.523 31.3011 250.091 31.4943C250.659 31.6837 251.163 31.9527 251.602 32.3011C252.045 32.6496 252.407 33.0644 252.688 33.5455C252.968 34.0227 253.148 34.5492 253.227 35.125H250.727ZM255.138 43V34.2727H257.484V35.7955H257.575C257.734 35.2538 258.001 34.8447 258.376 34.5682C258.751 34.2879 259.183 34.1477 259.672 34.1477C259.793 34.1477 259.924 34.1553 260.064 34.1705C260.204 34.1856 260.327 34.2064 260.433 34.233V36.3807C260.32 36.3466 260.162 36.3163 259.962 36.2898C259.761 36.2633 259.577 36.25 259.411 36.25C259.054 36.25 258.736 36.3277 258.456 36.483C258.179 36.6345 257.96 36.8466 257.797 37.1193C257.638 37.392 257.558 37.7064 257.558 38.0625V43H255.138ZM263.923 43.1648C263.366 43.1648 262.87 43.0682 262.435 42.875C261.999 42.678 261.654 42.3883 261.401 42.0057C261.151 41.6193 261.026 41.1383 261.026 40.5625C261.026 40.0777 261.115 39.6705 261.293 39.3409C261.471 39.0114 261.713 38.7462 262.02 38.5455C262.327 38.3447 262.675 38.1932 263.065 38.0909C263.459 37.9886 263.872 37.9167 264.304 37.875C264.812 37.822 265.221 37.7727 265.531 37.7273C265.842 37.678 266.067 37.6061 266.207 37.5114C266.348 37.4167 266.418 37.2765 266.418 37.0909V37.0568C266.418 36.697 266.304 36.4186 266.077 36.2216C265.853 36.0246 265.535 35.9261 265.122 35.9261C264.687 35.9261 264.34 36.0227 264.082 36.2159C263.825 36.4053 263.654 36.6439 263.571 36.9318L261.332 36.75C261.446 36.2197 261.67 35.7614 262.003 35.375C262.336 34.9848 262.766 34.6856 263.293 34.4773C263.823 34.2652 264.437 34.1591 265.134 34.1591C265.618 34.1591 266.082 34.2159 266.526 34.3295C266.973 34.4432 267.368 34.6193 267.713 34.858C268.062 35.0966 268.336 35.4034 268.537 35.7784C268.738 36.1496 268.838 36.5947 268.838 37.1136V43H266.543V41.7898H266.474C266.334 42.0625 266.147 42.303 265.912 42.5114C265.677 42.7159 265.395 42.8769 265.065 42.9943C264.736 43.108 264.355 43.1648 263.923 43.1648ZM264.616 41.4943C264.973 41.4943 265.287 41.4242 265.56 41.2841C265.832 41.1402 266.046 40.947 266.202 40.7045C266.357 40.4621 266.435 40.1875 266.435 39.8807V38.9545C266.359 39.0038 266.255 39.0492 266.122 39.0909C265.993 39.1288 265.848 39.1648 265.685 39.1989C265.522 39.2292 265.359 39.2576 265.196 39.2841C265.033 39.3068 264.885 39.3277 264.753 39.3466C264.469 39.3883 264.221 39.4545 264.009 39.5455C263.796 39.6364 263.632 39.7595 263.514 39.9148C263.397 40.0663 263.338 40.2557 263.338 40.483C263.338 40.8125 263.457 41.0644 263.696 41.2386C263.938 41.4091 264.245 41.4943 264.616 41.4943ZM273.136 37.9545V43H270.716V34.2727H273.023V35.8125H273.125C273.318 35.3049 273.642 34.9034 274.097 34.608C274.551 34.3087 275.102 34.1591 275.75 34.1591C276.356 34.1591 276.884 34.2917 277.335 34.5568C277.786 34.822 278.136 35.2008 278.386 35.6932C278.636 36.1818 278.761 36.7652 278.761 37.4432V43H276.341V37.875C276.345 37.3409 276.208 36.9242 275.932 36.625C275.655 36.322 275.275 36.1705 274.79 36.1705C274.464 36.1705 274.176 36.2405 273.926 36.3807C273.68 36.5208 273.487 36.7254 273.347 36.9943C273.21 37.2595 273.14 37.5795 273.136 37.9545ZM283.885 43.142C283.222 43.142 282.622 42.9716 282.084 42.6307C281.55 42.286 281.125 41.7803 280.811 41.1136C280.5 40.4432 280.345 39.6212 280.345 38.6477C280.345 37.6477 280.506 36.8163 280.828 36.1534C281.15 35.4867 281.578 34.9886 282.112 34.6591C282.65 34.3258 283.239 34.1591 283.879 34.1591C284.368 34.1591 284.775 34.2424 285.101 34.4091C285.43 34.572 285.696 34.7765 285.896 35.0227C286.101 35.2652 286.256 35.5038 286.362 35.7386H286.436V31.3636H288.851V43H286.464V41.6023H286.362C286.249 41.8447 286.088 42.0852 285.879 42.3239C285.675 42.5587 285.408 42.7538 285.078 42.9091C284.752 43.0644 284.355 43.142 283.885 43.142ZM284.652 41.2159C285.042 41.2159 285.372 41.1098 285.641 40.8977C285.913 40.6818 286.122 40.3807 286.266 39.9943C286.413 39.608 286.487 39.1553 286.487 38.6364C286.487 38.1174 286.415 37.6667 286.271 37.2841C286.127 36.9015 285.919 36.6061 285.646 36.3977C285.374 36.1894 285.042 36.0852 284.652 36.0852C284.254 36.0852 283.919 36.1932 283.646 36.4091C283.374 36.625 283.167 36.9242 283.027 37.3068C282.887 37.6894 282.817 38.1326 282.817 38.6364C282.817 39.1439 282.887 39.5928 283.027 39.983C283.171 40.3693 283.377 40.6723 283.646 40.892C283.919 41.108 284.254 41.2159 284.652 41.2159ZM294.589 43V31.3636H302.294V33.392H297.05V36.1648H301.783V38.1932H297.05V43H294.589ZM303.903 43V34.2727H306.324V43H303.903ZM305.119 33.1477C304.759 33.1477 304.451 33.0284 304.193 32.7898C303.939 32.5473 303.812 32.2576 303.812 31.9205C303.812 31.5871 303.939 31.3011 304.193 31.0625C304.451 30.8201 304.759 30.6989 305.119 30.6989C305.479 30.6989 305.786 30.8201 306.04 31.0625C306.297 31.3011 306.426 31.5871 306.426 31.9205C306.426 32.2576 306.297 32.5473 306.04 32.7898C305.786 33.0284 305.479 33.1477 305.119 33.1477ZM310.683 37.9545V43H308.263V34.2727H310.57V35.8125H310.672C310.865 35.3049 311.189 34.9034 311.643 34.608C312.098 34.3087 312.649 34.1591 313.297 34.1591C313.903 34.1591 314.431 34.2917 314.882 34.5568C315.333 34.822 315.683 35.2008 315.933 35.6932C316.183 36.1818 316.308 36.7652 316.308 37.4432V43H313.888V37.875C313.892 37.3409 313.755 36.9242 313.479 36.625C313.202 36.322 312.821 36.1705 312.337 36.1705C312.011 36.1705 311.723 36.2405 311.473 36.3807C311.227 36.5208 311.034 36.7254 310.893 36.9943C310.757 37.2595 310.687 37.5795 310.683 37.9545ZM320.705 43.1648C320.148 43.1648 319.652 43.0682 319.216 42.875C318.78 42.678 318.436 42.3883 318.182 42.0057C317.932 41.6193 317.807 41.1383 317.807 40.5625C317.807 40.0777 317.896 39.6705 318.074 39.3409C318.252 39.0114 318.494 38.7462 318.801 38.5455C319.108 38.3447 319.456 38.1932 319.847 38.0909C320.241 37.9886 320.653 37.9167 321.085 37.875C321.593 37.822 322.002 37.7727 322.312 37.7273C322.623 37.678 322.848 37.6061 322.989 37.5114C323.129 37.4167 323.199 37.2765 323.199 37.0909V37.0568C323.199 36.697 323.085 36.4186 322.858 36.2216C322.634 36.0246 322.316 35.9261 321.903 35.9261C321.468 35.9261 321.121 36.0227 320.864 36.2159C320.606 36.4053 320.436 36.6439 320.352 36.9318L318.114 36.75C318.227 36.2197 318.451 35.7614 318.784 35.375C319.117 34.9848 319.547 34.6856 320.074 34.4773C320.604 34.2652 321.218 34.1591 321.915 34.1591C322.4 34.1591 322.864 34.2159 323.307 34.3295C323.754 34.4432 324.15 34.6193 324.494 34.858C324.843 35.0966 325.117 35.4034 325.318 35.7784C325.519 36.1496 325.619 36.5947 325.619 37.1136V43H323.324V41.7898H323.256C323.116 42.0625 322.928 42.303 322.693 42.5114C322.458 42.7159 322.176 42.8769 321.847 42.9943C321.517 43.108 321.136 43.1648 320.705 43.1648ZM321.398 41.4943C321.754 41.4943 322.068 41.4242 322.341 41.2841C322.614 41.1402 322.828 40.947 322.983 40.7045C323.138 40.4621 323.216 40.1875 323.216 39.8807V38.9545C323.14 39.0038 323.036 39.0492 322.903 39.0909C322.775 39.1288 322.629 39.1648 322.466 39.1989C322.303 39.2292 322.14 39.2576 321.977 39.2841C321.814 39.3068 321.667 39.3277 321.534 39.3466C321.25 39.3883 321.002 39.4545 320.79 39.5455C320.578 39.6364 320.413 39.7595 320.295 39.9148C320.178 40.0663 320.119 40.2557 320.119 40.483C320.119 40.8125 320.239 41.0644 320.477 41.2386C320.72 41.4091 321.027 41.4943 321.398 41.4943ZM329.918 31.3636V43H327.497V31.3636H329.918Z" fill="white"/>
<path d="M185 1V52" stroke="url(#paint4_linear_150_30)" stroke-width="2" stroke-linecap="round"/>
<defs>
<linearGradient id="paint0_linear_150_30" x1="31" y1="29" x2="31" y2="4" gradientUnits="userSpaceOnUse">
<stop stop-color="#FFF0DA"/>
<stop offset="0.0416667" stop-color="#94641E"/>
<stop offset="0.828125" stop-color="#FFF2DB"/>
<stop offset="0.9375" stop-color="#EAC885"/>
<stop offset="0.979167" stop-color="#FBF5D1"/>
<stop offset="0.9999" stop-color="#BD9A4B"/>
<stop offset="1" stop-color="#ECD8A3"/>
</linearGradient>
<linearGradient id="paint1_linear_150_30" x1="18.5" y1="8.24359" x2="18.5" y2="25.3462" gradientUnits="userSpaceOnUse">
<stop stop-color="#FCF6D1"/>
<stop offset="0.104167" stop-color="#BD9457"/>
<stop offset="0.25" stop-color="#E3CA89"/>
<stop offset="0.697917" stop-color="#FEE8C8"/>
<stop offset="0.854167" stop-color="#4D3A1A"/>
<stop offset="1" stop-color="#FCF0D1"/>
</linearGradient>
<linearGradient id="paint2_linear_150_30" x1="224.474" y1="24.4615" x2="224.474" y2="8.24359" gradientUnits="userSpaceOnUse">
<stop stop-color="#FFF0DA"/>
<stop offset="0.0416667" stop-color="#94641E"/>
<stop offset="0.828125" stop-color="#FFF2DB"/>
<stop offset="0.9375" stop-color="#EAC885"/>
<stop offset="0.979167" stop-color="#FBF5D1"/>
<stop offset="0.9999" stop-color="#BD9A4B"/>
<stop offset="1" stop-color="#ECD8A3"/>
</linearGradient>
<linearGradient id="paint3_linear_150_30" x1="212.5" y1="8.24359" x2="212.5" y2="25.3462" gradientUnits="userSpaceOnUse">
<stop stop-color="#FCF6D1"/>
<stop offset="0.104167" stop-color="#BD9457"/>
<stop offset="0.25" stop-color="#E3CA89"/>
<stop offset="0.697917" stop-color="#FEE8C8"/>
<stop offset="0.854167" stop-color="#4D3A1A"/>
<stop offset="1" stop-color="#FCF0D1"/>
</linearGradient>
<linearGradient id="paint4_linear_150_30" x1="185.5" y1="1" x2="185.5" y2="52" gradientUnits="userSpaceOnUse">
<stop stop-color="#FCF6D1"/>
<stop offset="0.104167" stop-color="#BD9457"/>
<stop offset="0.25" stop-color="#E3CA89"/>
<stop offset="0.697917" stop-color="#FEE8C8"/>
<stop offset="0.854167" stop-color="#4D3A1A"/>
<stop offset="1" stop-color="#FCF0D1"/>
</linearGradient>
</defs>
</svg>
