<svg xmlns="http://www.w3.org/2000/svg" width="504" height="53" fill="none"><path fill="#fff" d="M4.138 48V34.91h8.667v2.281h-5.9v3.12h5.325v2.281H6.906V48zm14.232.192q-1.516 0-2.608-.614a4.2 4.2 0 0 1-1.675-1.751q-.588-1.139-.588-2.691 0-1.515.588-2.66a4.35 4.35 0 0 1 1.656-1.783q1.074-.639 2.518-.639.971 0 1.809.313a4 4 0 0 1 1.47.927q.633.62.985 1.56.351.933.351 2.186v.748h-8.29V42.1h5.727q0-.589-.256-1.042a1.83 1.83 0 0 0-.71-.71 2 2 0 0 0-1.041-.261q-.62 0-1.1.287a2 2 0 0 0-.741.76q-.269.474-.275 1.056v1.604q0 .729.268 1.26.276.53.774.817.499.288 1.182.288.454 0 .831-.128.378-.128.646-.383.268-.256.41-.627l2.518.166a3.44 3.44 0 0 1-.787 1.586q-.588.671-1.521 1.048-.927.37-2.141.37M24.704 48V34.91h2.723v4.921h.083q.18-.397.518-.805a2.7 2.7 0 0 1 .895-.69q.555-.282 1.38-.282a3.7 3.7 0 0 1 1.982.563q.908.555 1.451 1.68.544 1.12.544 2.807 0 1.643-.531 2.774-.525 1.125-1.432 1.706-.9.576-2.02.576-.792 0-1.349-.262a2.8 2.8 0 0 1-.9-.659 3.4 3.4 0 0 1-.538-.811h-.121V48zm2.666-4.91q0 .877.243 1.529t.703 1.016q.46.358 1.118.358.666 0 1.125-.364.461-.371.697-1.023.243-.66.243-1.515 0-.85-.237-1.496-.236-.645-.696-1.01-.46-.364-1.132-.364-.665 0-1.125.351-.454.352-.696.998-.243.645-.243 1.52"/><mask id="c" fill="#fff"><path d="M12.011 4.727V28h-4.92V9.398h-.136l-5.33 3.34V8.376l5.761-3.648zm14.463 23.591a10.5 10.5 0 0 1-3.465-.602q-1.66-.591-2.978-1.92-1.317-1.33-2.09-3.523-.762-2.193-.762-5.387.012-2.931.67-5.238.67-2.318 1.91-3.932 1.25-1.614 2.988-2.455 1.74-.852 3.898-.852 2.33 0 4.114.91 1.784.897 2.863 2.442a7.4 7.4 0 0 1 1.318 3.466h-4.852q-.285-1.215-1.193-1.909-.909-.693-2.25-.693-2.273 0-3.455 1.977-1.17 1.978-1.193 5.375h.16a5.4 5.4 0 0 1 1.408-1.761A6.4 6.4 0 0 1 25.6 13.09a7.3 7.3 0 0 1 2.42-.398q2.07 0 3.683.978a6.93 6.93 0 0 1 2.545 2.659q.932 1.692.932 3.875 0 2.363-1.102 4.204-1.091 1.841-3.057 2.887-1.954 1.034-4.546 1.022m-.022-3.864q1.136 0 2.034-.545a3.9 3.9 0 0 0 1.409-1.477q.51-.931.511-2.091 0-1.16-.511-2.08a3.85 3.85 0 0 0-1.386-1.465q-.887-.546-2.023-.546-.852 0-1.58.318a4 4 0 0 0-1.261.886 4.3 4.3 0 0 0-.841 1.319 4.1 4.1 0 0 0-.307 1.58q0 1.125.512 2.056a4.1 4.1 0 0 0 1.409 1.489q.897.556 2.034.556"/></mask><path fill="url(#a)" d="M12.011 4.727V28h-4.92V9.398h-.136l-5.33 3.34V8.376l5.761-3.648zm14.463 23.591a10.5 10.5 0 0 1-3.465-.602q-1.66-.591-2.978-1.92-1.317-1.33-2.09-3.523-.762-2.193-.762-5.387.012-2.931.67-5.238.67-2.318 1.91-3.932 1.25-1.614 2.988-2.455 1.74-.852 3.898-.852 2.33 0 4.114.91 1.784.897 2.863 2.442a7.4 7.4 0 0 1 1.318 3.466h-4.852q-.285-1.215-1.193-1.909-.909-.693-2.25-.693-2.273 0-3.455 1.977-1.17 1.978-1.193 5.375h.16a5.4 5.4 0 0 1 1.408-1.761A6.4 6.4 0 0 1 25.6 13.09a7.3 7.3 0 0 1 2.42-.398q2.07 0 3.683.978a6.93 6.93 0 0 1 2.545 2.659q.932 1.692.932 3.875 0 2.363-1.102 4.204-1.091 1.841-3.057 2.887-1.954 1.034-4.546 1.022m-.022-3.864q1.136 0 2.034-.545a3.9 3.9 0 0 0 1.409-1.477q.51-.931.511-2.091 0-1.16-.511-2.08a3.85 3.85 0 0 0-1.386-1.465q-.887-.546-2.023-.546-.852 0-1.58.318a4 4 0 0 0-1.261.886 4.3 4.3 0 0 0-.841 1.319 4.1 4.1 0 0 0-.307 1.58q0 1.125.512 2.056a4.1 4.1 0 0 0 1.409 1.489q.897.556 2.034.556"/><path fill="url(#b)" d="M12.011 4.727h1v-1h-1zm0 23.273v1h1v-1zm-4.92 0h-1v1h1zm0-18.602h1v-1h-1zm-.136 0v-1h-.288l-.244.152zm-5.33 3.34h-1v1.808l1.531-.96zm0-4.363L1.09 7.53l-.465.295v.55zm5.761-3.648v-1h-.29l-.245.155zm3.625 0V28h2V4.727zm1 22.273h-4.92v2h4.92zm-3.92 1V9.398h-2V28zm-1-19.602h-.136v2h.136zm-.668.152-5.33 3.341 1.063 1.695 5.33-3.341zM2.625 12.74V8.375h-2v4.364zm-.465-3.52L7.92 5.573l-1.07-1.69-5.76 3.648zm5.226-3.492h4.625v-2H7.386zm19.088 22.591-.006 1h.002zm-3.465-.602-.336.942h.002zm-2.978-1.92-.71.704zm-2.09-3.523-.945.328.001.004zm-.762-5.387-1-.003v.003zm.67-5.238-.96-.278-.001.003zm1.91-3.932-.791-.612-.003.003zm2.988-2.455.436.9.004-.002zm8.012.057-.454.891.004.002zm2.863 2.443-.82.573.003.004zm1.318 3.466v1h1.126l-.133-1.117zm-4.852 0-.974.228.18.772h.794zm-6.898-.625-.858-.513-.002.004zm-1.193 5.375-1-.006-.007 1.006h1.007zm.16 0v1h.614l.278-.549zm1.408-1.761.635.773zM25.6 13.09l.322.947.006-.002zm6.103.58-.518.855.004.002zm2.375 10.738-.858-.514-.003.004zm-3.057 2.887.468.883h.001zm-2.534-3.387.52.855zm1.409-1.477.877.48zm0-4.17-.879.477.005.008zm-1.386-1.466.524-.852zm-3.603-.228-.4-.916-.006.002zm-1.261.886-.721-.692-.008.008zm-.841 1.319.924.383.002-.005zm.205 3.636-.877.481.004.008zm1.409 1.489-.532.846.005.003zm2.063 3.42a9.5 9.5 0 0 1-3.139-.545l-.667 1.886a11.5 11.5 0 0 0 3.793.66zm-3.137-.544c-.956-.34-1.823-.896-2.603-1.683l-1.42 1.409c.978.985 2.096 1.71 3.352 2.158zm-2.603-1.683c-.752-.759-1.38-1.795-1.857-3.15l-1.887.664c.553 1.569 1.319 2.88 2.324 3.895zm-1.856-3.146c-.46-1.326-.706-3.003-.706-5.059h-2c0 2.202.262 4.116.817 5.715zm-.706-5.055c.007-1.882.223-3.535.632-4.968l-1.923-.549c-.47 1.643-.701 3.483-.709 5.51zm.631-4.964c.419-1.448 1.005-2.641 1.742-3.601l-1.587-1.218c-.914 1.191-1.6 2.62-2.076 4.263zm1.74-3.598c.743-.96 1.62-1.677 2.633-2.166l-.871-1.8c-1.306.63-2.422 1.55-3.344 2.742zm2.637-2.169c1.007-.493 2.153-.75 3.458-.75v-2c-1.574 0-3.027.312-4.338.954zm3.458-.75c1.42 0 2.632.277 3.66.8l.907-1.782c-1.35-.688-2.882-1.018-4.567-1.018zm3.664.802c1.05.529 1.874 1.237 2.493 2.123l1.64-1.145c-.82-1.175-1.906-2.096-3.234-2.764zm2.496 2.127a6.4 6.4 0 0 1 1.142 3.007l1.986-.235a8.4 8.4 0 0 0-1.494-3.925zm2.135 1.89h-4.852v2h4.852zM31.062 11c-.237-1.015-.753-1.86-1.56-2.477l-1.213 1.59c.403.308.683.735.825 1.342zm-1.56-2.477c-.81-.617-1.783-.898-2.857-.898v2c.714 0 1.24.181 1.643.488zm-2.857-.898c-1.873 0-3.348.85-4.313 2.464l1.717 1.026c.61-1.02 1.438-1.49 2.596-1.49zm-4.315 2.468c-.904 1.526-1.317 3.514-1.333 5.878l2 .013c.015-2.167.397-3.762 1.054-4.872zm-.333 6.884h.16v-2h-.16zm1.052-.549a4.4 4.4 0 0 1 1.15-1.439l-1.268-1.546a6.4 6.4 0 0 0-1.667 2.083zm1.152-1.44a5.4 5.4 0 0 1 1.72-.95l-.643-1.894a7.4 7.4 0 0 0-2.348 1.3zm1.726-.952a6.3 6.3 0 0 1 2.093-.343v-2a8.3 8.3 0 0 0-2.748.453zm2.093-.343c1.214 0 2.259.285 3.164.833l1.036-1.71c-1.247-.756-2.657-1.123-4.2-1.123zm3.168.835a5.93 5.93 0 0 1 2.183 2.284l1.752-.965a7.93 7.93 0 0 0-2.908-3.035zm2.183 2.284c.53.963.808 2.084.808 3.392h2c0-1.6-.343-3.062-1.056-4.357zm.808 3.392c0 1.414-.328 2.635-.96 3.691l1.716 1.028c.837-1.398 1.244-2.98 1.244-4.718zm-.963 3.695c-.63 1.063-1.51 1.9-2.666 2.514l.94 1.765c1.465-.78 2.622-1.867 3.447-3.26zm-2.664 2.512c-1.134.6-2.482.914-4.073.907l-.009 2c1.864.008 3.546-.36 5.018-1.139zm-4.1-.957c.925 0 1.785-.224 2.553-.69l-1.038-1.71c-.43.261-.925.4-1.515.4zm2.553-.69a4.9 4.9 0 0 0 1.767-1.851l-1.754-.962c-.257.47-.605.832-1.052 1.104zm1.767-1.851c.429-.782.634-1.647.634-2.572h-2c0 .62-.135 1.15-.388 1.61zm.634-2.572c0-.925-.205-1.789-.637-2.565l-1.748.971c.25.45.385.974.385 1.594zm-.632-2.557a4.85 4.85 0 0 0-1.741-1.84l-1.049 1.703c.441.272.782.63 1.032 1.092zm-1.741-1.84c-.763-.47-1.622-.694-2.547-.694v2c.59 0 1.08.14 1.498.397zm-2.547-.694c-.696 0-1.36.13-1.98.402l.801 1.832a2.9 2.9 0 0 1 1.179-.234zm-1.986.404a5 5 0 0 0-1.576 1.108l1.442 1.385q.41-.428.946-.665zm-1.584 1.116a5.3 5.3 0 0 0-1.038 1.624l1.852.757q.24-.584.643-1.011zm-1.035 1.62a5.1 5.1 0 0 0-.384 1.962h2c0-.436.079-.831.23-1.196zm-.384 1.962c0 .908.208 1.76.635 2.538l1.753-.962a3.2 3.2 0 0 1-.388-1.576zm.64 2.546a5.1 5.1 0 0 0 1.749 1.846l1.064-1.693c-.447-.28-.8-.652-1.07-1.131zm1.753 1.85c.77.476 1.633.706 2.562.706v-2c-.586 0-1.08-.14-1.507-.406z" mask="url(#c)"/><path fill="#fff" d="M55.324 23.71q-.068-.687-.585-1.068-.517-.38-1.404-.38-.602 0-1.017.17-.414.165-.636.46-.216.295-.216.67a.96.96 0 0 0 .13.546q.15.233.404.403.255.165.59.29.336.12.717.205l1.045.25q.762.17 1.398.454t1.102.7q.465.414.722.976.261.563.267 1.29-.006 1.068-.546 1.852-.533.78-1.545 1.21-1.006.427-2.426.427-1.41 0-2.455-.432-1.039-.432-1.625-1.279-.58-.852-.608-2.107h2.381q.04.585.335.977.302.386.801.585a3.2 3.2 0 0 0 1.142.193q.626 0 1.086-.181.465-.183.721-.506.256-.324.256-.744a.97.97 0 0 0-.233-.66q-.227-.267-.67-.454a7 7 0 0 0-1.074-.341l-1.267-.318q-1.472-.358-2.324-1.12-.852-.76-.847-2.05-.006-1.057.563-1.847.573-.79 1.574-1.233 1-.444 2.272-.444 1.296 0 2.262.444.97.442 1.511 1.233.54.789.557 1.83zm6.547-3.346V32h-2.42V20.364zm5.882 11.806q-1.324 0-2.29-.562a3.85 3.85 0 0 1-1.483-1.58q-.523-1.017-.523-2.357 0-1.353.523-2.364a3.8 3.8 0 0 1 1.483-1.58q.966-.568 2.29-.568t2.284.568q.966.563 1.489 1.58.522 1.011.522 2.364 0 1.34-.522 2.357a3.84 3.84 0 0 1-1.49 1.58q-.96.562-2.283.562m.011-1.875q.603 0 1.006-.34.404-.347.608-.944.21-.596.21-1.358 0-.761-.21-1.357-.205-.597-.608-.944-.404-.345-1.006-.346-.608 0-1.022.346-.41.347-.62.944-.204.596-.204 1.357 0 .762.204 1.358.21.597.62.944.414.34 1.022.34m10.5-7.022v1.818H73.01v-1.818zm-4.062-2.091h2.42v8.136q0 .336.102.523a.56.56 0 0 0 .284.256q.189.073.432.073.171 0 .341-.028l.262-.051.38 1.801a7 7 0 0 1-.511.13 4 4 0 0 1-.801.097q-.876.034-1.534-.233a2.14 2.14 0 0 1-1.017-.83q-.364-.561-.358-1.42zm13.984 2.09v1.819H82.93v-1.818zm-4.062-2.09h2.42v8.136q0 .336.102.523a.56.56 0 0 0 .284.256q.188.073.432.073.171 0 .341-.028l.261-.051.381 1.801a7 7 0 0 1-.511.13 4 4 0 0 1-.801.097q-.876.034-1.534-.233a2.14 2.14 0 0 1-1.017-.83q-.364-.561-.358-1.42zm9.488 10.988q-1.323 0-2.29-.562a3.85 3.85 0 0 1-1.483-1.58q-.522-1.017-.522-2.357 0-1.353.523-2.364a3.8 3.8 0 0 1 1.482-1.58q.966-.568 2.29-.568t2.284.568q.966.563 1.489 1.58.523 1.011.523 2.364 0 1.34-.523 2.357a3.84 3.84 0 0 1-1.489 1.58q-.96.562-2.284.562m.012-1.875q.602 0 1.005-.34.404-.347.608-.944.21-.596.21-1.358 0-.761-.21-1.357-.204-.597-.608-.944-.404-.345-1.005-.346-.609 0-1.023.346-.41.347-.62.944-.204.596-.204 1.357 0 .762.204 1.358.21.597.62.944.414.34 1.023.34m11.454-2.01v-5.012h2.421V32h-2.324v-1.585h-.091a2.6 2.6 0 0 1-.983 1.233q-.683.466-1.665.466-.875 0-1.54-.398a2.74 2.74 0 0 1-1.04-1.13q-.368-.735-.374-1.756v-5.557h2.42v5.125q.006.773.415 1.221.409.45 1.096.45.438 0 .819-.2.38-.204.613-.602.239-.398.233-.983M109.435 32v-8.727h2.346v1.523h.091q.239-.813.801-1.228.563-.42 1.296-.42a3.7 3.7 0 0 1 .761.085v2.148a3 3 0 0 0-.471-.091 4 4 0 0 0-.552-.04q-.534 0-.954.233a1.7 1.7 0 0 0-.659.636 1.84 1.84 0 0 0-.239.944V32zm8.967-5.046V32h-2.42v-8.727h2.306v1.54h.103q.29-.762.971-1.205.682-.45 1.654-.449.909 0 1.585.398t1.051 1.136q.375.733.375 1.75V32h-2.42v-5.125q.005-.8-.41-1.25-.414-.454-1.142-.454-.488 0-.863.21-.37.21-.58.613-.204.398-.21.96m10.021 5.21q-.835 0-1.488-.289a2.4 2.4 0 0 1-1.034-.87q-.375-.58-.375-1.442 0-.727.267-1.222t.727-.796 1.045-.454a8 8 0 0 1 1.239-.216q.762-.08 1.227-.148.466-.073.676-.216a.47.47 0 0 0 .211-.42v-.034q0-.54-.341-.835-.336-.296-.955-.296-.653 0-1.04.29-.386.285-.511.716l-2.239-.182a3.05 3.05 0 0 1 .671-1.375q.5-.586 1.29-.898.795-.318 1.841-.318.726 0 1.392.17.67.17 1.187.529.523.358.824.92.301.558.301 1.336V32h-2.295v-1.21h-.069q-.21.41-.562.721a2.6 2.6 0 0 1-.847.483q-.494.17-1.142.17m.693-1.67q.535 0 .944-.21a1.7 1.7 0 0 0 .642-.58q.233-.364.233-.823v-.927q-.114.075-.313.137a6 6 0 0 1-.437.108q-.245.046-.489.085l-.443.063a3 3 0 0 0-.744.198 1.2 1.2 0 0 0-.495.37.9.9 0 0 0-.176.568q0 .494.358.756.363.255.92.255m6.1 1.506v-8.727h2.307v1.54h.102q.273-.768.909-1.21.636-.444 1.523-.444.898 0 1.528.449.631.443.841 1.204h.091q.267-.75.966-1.198.705-.455 1.665-.455 1.221 0 1.983.779.767.773.767 2.193V32h-2.415v-5.392q0-.728-.386-1.091-.387-.363-.966-.364-.66 0-1.029.42-.369.416-.369 1.098V32h-2.347v-5.443q0-.643-.369-1.023-.363-.38-.96-.38a1.33 1.33 0 0 0-.727.204q-.319.199-.506.563a1.8 1.8 0 0 0-.188.84V32zm18.571.17q-1.347 0-2.318-.545a3.74 3.74 0 0 1-1.489-1.557q-.523-1.01-.523-2.392 0-1.346.523-2.363a3.87 3.87 0 0 1 1.472-1.586q.954-.568 2.238-.568.864 0 1.608.279.75.272 1.307.823.563.552.875 1.387.312.829.313 1.943v.665h-7.37v-1.5h5.091a1.86 1.86 0 0 0-.227-.927 1.63 1.63 0 0 0-.631-.63 1.8 1.8 0 0 0-.926-.233q-.55 0-.977.256-.42.25-.659.676-.239.42-.245.937v1.426q0 .648.239 1.12.244.47.688.727.442.255 1.051.256.404 0 .738-.114a1.48 1.48 0 0 0 .938-.898l2.238.148a3.05 3.05 0 0 1-.698 1.41q-.524.595-1.353.93-.823.33-1.903.33m8.006-5.216V32h-2.421v-8.727h2.307v1.54h.102q.29-.762.972-1.205.682-.45 1.653-.449.91 0 1.585.398.677.398 1.052 1.136.375.733.375 1.75V32h-2.421v-5.125q.006-.8-.409-1.25-.414-.454-1.142-.454-.489 0-.864.21-.369.21-.579.613-.205.398-.21.96m12.174-3.681v1.818h-5.255v-1.818zm-4.062-2.091h2.42v8.136q0 .336.103.523a.56.56 0 0 0 .284.256q.188.073.431.073.171 0 .341-.028l.262-.051.38 1.801a7 7 0 0 1-.511.13q-.33.08-.801.097-.875.034-1.534-.233a2.14 2.14 0 0 1-1.017-.83q-.364-.561-.358-1.42zM197.138 48V34.91h8.667v2.281h-5.899v3.12h5.324v2.281h-5.324V48zm14.232.192q-1.515 0-2.608-.614a4.2 4.2 0 0 1-1.675-1.751q-.588-1.139-.588-2.691 0-1.515.588-2.66a4.35 4.35 0 0 1 1.656-1.783q1.073-.639 2.518-.639a5.1 5.1 0 0 1 1.809.313 4 4 0 0 1 1.47.927q.633.62.985 1.56.351.933.351 2.186v.748h-8.29V42.1h5.727q0-.589-.256-1.042a1.83 1.83 0 0 0-.709-.71 2.03 2.03 0 0 0-1.042-.261q-.62 0-1.1.287a2 2 0 0 0-.741.76 2.15 2.15 0 0 0-.275 1.056v1.604q0 .729.268 1.26.276.53.774.817.498.288 1.182.288.454 0 .831-.128a1.7 1.7 0 0 0 .646-.383q.268-.256.409-.627l2.519.166a3.44 3.44 0 0 1-.787 1.586q-.588.671-1.521 1.048-.927.37-2.141.37m6.334-.192V34.91h2.723v4.921h.083q.18-.397.518-.805.345-.416.895-.69.556-.282 1.381-.282 1.074 0 1.981.563.908.555 1.451 1.68.543 1.12.543 2.807 0 1.643-.53 2.774-.524 1.125-1.432 1.706a3.68 3.68 0 0 1-2.02.576q-.792 0-1.348-.262a2.8 2.8 0 0 1-.902-.659 3.4 3.4 0 0 1-.537-.811h-.121V48zm2.666-4.91q0 .877.243 1.529t.703 1.016q.46.358 1.118.358.665 0 1.125-.364.46-.371.697-1.023.243-.66.243-1.515 0-.85-.237-1.496-.236-.645-.696-1.01-.46-.364-1.132-.364-.665 0-1.125.351-.453.352-.696.998-.243.645-.243 1.52"/><mask id="f" fill="#fff"><path d="M207.011 4.727V28h-4.92V9.398h-.136l-5.33 3.34V8.376l5.761-3.648zM213.463 28l9.648-19.09v-.16h-11.239V4.727h16.33v4.08L218.543 28z"/></mask><path fill="url(#d)" d="M207.011 4.727V28h-4.92V9.398h-.136l-5.33 3.34V8.376l5.761-3.648zM213.463 28l9.648-19.09v-.16h-11.239V4.727h16.33v4.08L218.543 28z"/><path fill="url(#e)" d="M207.011 4.727h1v-1h-1zm0 23.273v1h1v-1zm-4.92 0h-1v1h1zm0-18.602h1v-1h-1zm-.136 0v-1h-.288l-.244.152zm-5.33 3.34h-1v1.808l1.531-.96zm0-4.363-.535-.845-.465.295v.55zm5.761-3.648v-1h-.29l-.245.155zm3.625 0V28h2V4.727zm1 22.273h-4.92v2h4.92zm-3.92 1V9.398h-2V28zm-1-19.602h-.136v2h.136zm-.668.152-5.329 3.341 1.062 1.695 5.33-3.341zm-3.798 4.189V8.375h-2v4.364zm-.465-3.52 5.761-3.647-1.07-1.69-5.761 3.648zm5.226-3.492h4.625v-2h-4.625zM213.463 28l-.892-.451-.734 1.451h1.626zm9.648-19.09.892.45.108-.213V8.91zm0-.16h1v-1h-1zm-11.239 0h-1v1h1zm0-4.023v-1h-1v1zm16.33 0h1v-1h-1zm0 4.08.893.45.107-.213v-.237zM218.543 28v1h.616l.277-.55zm-4.187.451 9.647-19.09-1.785-.903-9.647 19.091zm9.755-19.542V8.75h-2v.16zm-1-1.159h-11.239v2h11.239zm-10.239 1V4.727h-2V8.75zm-1-3.023h16.33v-2h-16.33zm15.33-1v4.08h2v-4.08zm.106 3.63-9.659 19.194 1.787.899 9.659-19.194zM218.543 27h-5.08v2h5.08z" mask="url(#f)"/><path fill="#fff" d="M243.011 24V12.364h4.659q1.285 0 2.142.38.858.38 1.29 1.057.432.67.432 1.546 0 .681-.273 1.199-.271.51-.75.84a3.1 3.1 0 0 1-1.079.46v.114q.665.03 1.244.375.585.346.949.972.363.62.364 1.477 0 .926-.461 1.654-.454.72-1.346 1.142-.893.42-2.199.42zm2.461-2.011h2.005q1.029 0 1.5-.392.472-.399.472-1.057 0-.483-.233-.852a1.6 1.6 0 0 0-.665-.58q-.426-.21-1.017-.21h-2.062zm0-4.756h1.823q.507 0 .898-.176.398-.182.625-.511.233-.33.233-.79 0-.63-.449-1.017-.443-.387-1.261-.387h-1.869zm10.492-4.87V24h-2.42V12.364zm4.428 11.802q-.835 0-1.489-.29a2.4 2.4 0 0 1-1.034-.87q-.375-.58-.375-1.442 0-.727.267-1.222t.728-.796 1.045-.454a8 8 0 0 1 1.239-.216q.76-.08 1.227-.148.466-.073.676-.216a.48.48 0 0 0 .21-.42v-.034q0-.54-.341-.835-.334-.296-.954-.296-.653 0-1.04.29-.386.285-.511.716l-2.239-.182a3.04 3.04 0 0 1 .671-1.375q.5-.585 1.289-.898.796-.318 1.841-.318.728 0 1.392.17.67.17 1.188.529.522.358.824.92.3.558.301 1.336V24h-2.296v-1.21h-.068q-.21.41-.562.721a2.6 2.6 0 0 1-.847.483q-.494.17-1.142.17m.693-1.67q.534 0 .943-.21.41-.217.642-.58.233-.364.233-.824v-.927q-.113.075-.312.137a6 6 0 0 1-.438.108q-.243.046-.488.085l-.443.063a3 3 0 0 0-.745.198q-.318.136-.494.37a.9.9 0 0 0-.176.568q0 .494.358.756.363.255.92.255m10.043 1.675q-1.341 0-2.307-.568a3.84 3.84 0 0 1-1.477-1.59q-.512-1.018-.512-2.341 0-1.342.517-2.353a3.85 3.85 0 0 1 1.483-1.585q.961-.574 2.284-.574 1.143 0 2 .415a3.34 3.34 0 0 1 1.358 1.165q.5.75.552 1.761h-2.285q-.096-.654-.511-1.051-.41-.404-1.074-.404-.562 0-.983.307-.414.302-.647.881-.233.58-.233 1.403 0 .835.227 1.42.233.586.653.893.421.306.983.307.415 0 .745-.17.335-.172.551-.495.221-.33.289-.79h2.285q-.057 1-.546 1.762a3.3 3.3 0 0 1-1.335 1.181q-.852.426-2.017.427m7.64-2.681.006-2.904h.352l2.796-3.312h2.778l-3.755 4.386h-.574zM276.575 24V12.364h2.421V24zm5.455 0-2.568-3.801 1.613-1.71 3.79 5.511zm12.265-11.636h2.432v8.113q0 1.125-.505 1.955a3.35 3.35 0 0 1-1.392 1.278q-.892.45-2.074.45a4.8 4.8 0 0 1-1.909-.37 3.05 3.05 0 0 1-1.353-1.137q-.5-.767-.494-1.926h2.449q.011.46.187.79.182.324.495.5.318.17.75.17.454 0 .767-.193.318-.198.483-.58.164-.38.164-.937zm6.91 11.8q-.835 0-1.489-.289a2.4 2.4 0 0 1-1.034-.87q-.375-.58-.375-1.442 0-.727.267-1.222t.727-.796 1.046-.454a8 8 0 0 1 1.238-.216q.762-.08 1.227-.148.466-.073.677-.216a.48.48 0 0 0 .21-.42v-.034q0-.54-.341-.835-.336-.296-.955-.296-.653 0-1.039.29-.387.285-.512.716l-2.238-.182q.17-.796.67-1.375.5-.585 1.29-.898.795-.318 1.841-.318.728 0 1.392.17.67.17 1.187.529.523.358.824.92.301.558.301 1.336V24h-2.295v-1.21h-.068q-.21.41-.563.721a2.6 2.6 0 0 1-.846.483q-.495.17-1.142.17m.693-1.67q.534 0 .943-.21.41-.216.642-.58t.233-.823v-.927q-.114.075-.313.137a6 6 0 0 1-.437.108q-.245.046-.489.085l-.443.063a3 3 0 0 0-.744.198q-.318.136-.495.37a.9.9 0 0 0-.176.568q0 .494.358.756.365.255.921.255m10.042 1.677q-1.341 0-2.306-.569a3.84 3.84 0 0 1-1.478-1.59q-.511-1.018-.511-2.341 0-1.342.517-2.353a3.84 3.84 0 0 1 1.483-1.585q.96-.574 2.284-.574 1.142 0 2 .415a3.34 3.34 0 0 1 1.358 1.165q.5.75.551 1.761h-2.284q-.096-.654-.511-1.051-.41-.404-1.074-.404-.563 0-.983.307-.415.302-.648.881-.233.58-.233 1.403 0 .835.227 1.42.233.586.654.893.42.306.983.307.414 0 .744-.17.335-.172.551-.495.222-.33.29-.79h2.284q-.057 1-.545 1.762a3.3 3.3 0 0 1-1.336 1.181q-.852.426-2.017.427m7.641-2.682.006-2.904h.352l2.795-3.312h2.779l-3.756 4.386h-.574zM317.388 24V12.364h2.42V24zm5.454 0-2.568-3.801 1.614-1.71 3.79 5.511zm10.05.165q-.835 0-1.489-.29a2.4 2.4 0 0 1-1.034-.87q-.375-.58-.375-1.442 0-.727.267-1.222t.728-.796 1.045-.454a8 8 0 0 1 1.239-.216q.76-.08 1.227-.148.466-.073.676-.216a.48.48 0 0 0 .21-.42v-.034q0-.54-.341-.835-.334-.296-.954-.296-.653 0-1.04.29-.386.285-.511.716l-2.239-.182a3.04 3.04 0 0 1 .671-1.375q.5-.585 1.289-.898.796-.318 1.841-.318.728 0 1.392.17.67.17 1.188.529.522.358.824.92.3.558.301 1.336V24h-2.296v-1.21h-.068q-.21.41-.562.721a2.6 2.6 0 0 1-.847.483q-.494.17-1.142.17m.693-1.67q.534 0 .943-.21.41-.217.642-.58.233-.364.233-.824v-.927q-.113.075-.312.137a6 6 0 0 1-.438.108q-.243.046-.488.085l-.443.063a3 3 0 0 0-.745.198q-.318.136-.494.37a.9.9 0 0 0-.176.568q0 .494.358.756.363.255.92.255m8.52-3.54V24h-2.42v-8.727h2.306v1.54h.103q.29-.762.971-1.205.682-.45 1.654-.449.909 0 1.585.398t1.051 1.136q.375.733.375 1.75V24h-2.42v-5.125q.005-.8-.409-1.25-.416-.454-1.142-.454-.489 0-.864.21-.37.21-.58.613-.204.398-.21.96m10.749 5.187q-.995 0-1.801-.511-.802-.517-1.273-1.517-.466-1.006-.466-2.466 0-1.5.483-2.495.483-.999 1.284-1.494a3.3 3.3 0 0 1 1.767-.5q.733 0 1.222.25.494.244.795.614.307.362.466.716h.074v-4.375h2.415V24h-2.387v-1.398h-.102a3.1 3.1 0 0 1-.483.722 2.4 2.4 0 0 1-.801.585q-.49.233-1.193.233m.767-1.926q.585 0 .988-.318.41-.324.625-.904.222-.58.222-1.358t-.216-1.352-.625-.886q-.41-.313-.994-.313-.597 0-1.006.324t-.619.898-.21 1.33q0 .76.21 1.346.216.58.619.909.41.324 1.006.324M365.564 24h-2.636l4.017-11.636h3.17L374.126 24h-2.636l-2.915-8.977h-.091zm-.165-4.574h6.227v1.92h-6.227zM375.482 24v-8.727h2.306v1.54h.103q.271-.768.909-1.21.637-.444 1.522-.444.898 0 1.529.449.63.443.841 1.204h.091q.267-.75.966-1.198.704-.455 1.664-.455 1.222 0 1.983.778.768.774.767 2.194V24h-2.414v-5.392q0-.728-.387-1.091-.385-.364-.966-.364-.659 0-1.028.42-.369.416-.369 1.098V24h-2.347v-5.443q0-.643-.369-1.023-.364-.38-.961-.38-.403 0-.727.204-.318.199-.506.563a1.8 1.8 0 0 0-.187.84V24zm18.571.17q-1.347 0-2.319-.545a3.73 3.73 0 0 1-1.488-1.557q-.523-1.01-.523-2.392 0-1.346.523-2.363a3.86 3.86 0 0 1 1.471-1.586q.955-.568 2.239-.568.864 0 1.608.278.75.273 1.307.824.562.552.875 1.387.312.829.312 1.943v.665h-7.369v-1.5h5.091a1.86 1.86 0 0 0-.227-.927 1.63 1.63 0 0 0-.631-.63 1.8 1.8 0 0 0-.926-.233q-.551 0-.978.256-.42.25-.659.676-.238.42-.244.937v1.426q0 .648.239 1.12.244.47.687.727.444.255 1.051.256.403 0 .739-.114.335-.115.574-.34.238-.228.363-.558l2.239.148a3.05 3.05 0 0 1-.699 1.41q-.522.595-1.352.93-.824.33-1.903.33m5.585-.17v-8.727h2.346v1.523h.091q.238-.813.801-1.228.563-.42 1.296-.42a3.7 3.7 0 0 1 .761.085v2.148a3 3 0 0 0-.471-.091 4 4 0 0 0-.551-.04q-.535 0-.955.233a1.7 1.7 0 0 0-.659.636 1.84 1.84 0 0 0-.239.944V24zm6.547 0v-8.727h2.42V24zm1.216-9.852q-.54 0-.927-.358a1.16 1.16 0 0 1-.38-.87q0-.5.38-.857.387-.364.927-.364.539 0 .92.364.386.357.386.857 0 .506-.386.87a1.3 1.3 0 0 1-.92.358m7.086 10.023q-1.341 0-2.307-.569a3.84 3.84 0 0 1-1.477-1.59q-.511-1.018-.511-2.341 0-1.342.517-2.353a3.84 3.84 0 0 1 1.483-1.585q.96-.574 2.284-.574 1.142 0 2 .415a3.35 3.35 0 0 1 1.358 1.165q.5.75.551 1.761h-2.284q-.097-.654-.512-1.051-.408-.404-1.073-.404-.563 0-.983.307-.415.302-.648.881-.233.58-.233 1.403 0 .835.227 1.42.233.586.654.893.42.306.983.307.414 0 .744-.17.335-.172.551-.495.222-.33.29-.79h2.284q-.057 1-.546 1.762a3.3 3.3 0 0 1-1.335 1.181q-.852.426-2.017.427m7.936-.006q-.835 0-1.488-.29a2.4 2.4 0 0 1-1.034-.87q-.375-.58-.375-1.442 0-.727.267-1.222t.727-.796 1.045-.454a8 8 0 0 1 1.239-.216q.762-.08 1.227-.148.466-.073.676-.216a.47.47 0 0 0 .211-.42v-.034q0-.54-.341-.835-.336-.296-.955-.296-.653 0-1.04.29-.386.285-.511.716l-2.239-.182a3.05 3.05 0 0 1 .671-1.375q.5-.585 1.29-.898.795-.318 1.841-.318.726 0 1.392.17.67.17 1.187.529.523.358.824.92.301.558.301 1.336V24h-2.295v-1.21h-.069q-.21.41-.562.721a2.6 2.6 0 0 1-.847.483q-.494.17-1.142.17m.693-1.67q.535 0 .944-.21a1.7 1.7 0 0 0 .642-.58q.233-.364.233-.824v-.927q-.114.075-.313.137a6 6 0 0 1-.437.108q-.244.046-.489.085l-.443.063a3 3 0 0 0-.744.198 1.2 1.2 0 0 0-.495.37.9.9 0 0 0-.176.568q0 .494.358.756.363.255.92.255m8.52-3.54V24h-2.42v-8.727h2.307v1.54h.102q.29-.762.972-1.205.681-.45 1.653-.449.909 0 1.585.398t1.051 1.136q.375.733.375 1.75V24h-2.42v-5.125q.005-.8-.409-1.25-.415-.454-1.142-.454-.489 0-.864.21-.369.21-.579.613-.205.398-.211.96M442.872 24v-8.727h2.347v1.523h.091q.238-.813.801-1.228.563-.42 1.295-.42a3.7 3.7 0 0 1 .762.085v2.148a3 3 0 0 0-.472-.091 4 4 0 0 0-.551-.04 1.94 1.94 0 0 0-.955.233 1.7 1.7 0 0 0-.659.636 1.84 1.84 0 0 0-.238.944V24zm10.084.17q-1.324 0-2.29-.562a3.85 3.85 0 0 1-1.483-1.58q-.522-1.017-.522-2.357 0-1.353.522-2.364a3.8 3.8 0 0 1 1.483-1.58q.966-.568 2.29-.568t2.284.568q.966.563 1.489 1.58.522 1.011.522 2.364 0 1.34-.522 2.357a3.84 3.84 0 0 1-1.489 1.58q-.96.563-2.284.563m.011-1.875q.603 0 1.006-.34.404-.347.608-.944.21-.596.21-1.358 0-.761-.21-1.357-.204-.597-.608-.944-.403-.345-1.006-.346-.608 0-1.022.346-.41.347-.62.944-.204.596-.204 1.357 0 .762.204 1.358.21.597.62.944.414.34 1.022.34m11.455-2.01v-5.012h2.42V24h-2.324v-1.585h-.09a2.6 2.6 0 0 1-.983 1.233q-.682.465-1.665.466-.876 0-1.54-.398a2.74 2.74 0 0 1-1.04-1.13q-.369-.735-.375-1.756v-5.557h2.421v5.125q.006.773.415 1.221.408.45 1.096.45.438 0 .818-.2.381-.204.614-.602.239-.398.233-.983m6.777-7.921V24h-2.421V12.364zm5.916 11.807q-1.347 0-2.318-.546a3.74 3.74 0 0 1-1.489-1.557q-.522-1.01-.522-2.392 0-1.346.522-2.363a3.87 3.87 0 0 1 1.472-1.586q.954-.568 2.238-.568.864 0 1.608.278.75.273 1.307.824.563.552.875 1.387.313.829.313 1.943v.665h-7.37v-1.5h5.091a1.85 1.85 0 0 0-.227-.927 1.63 1.63 0 0 0-.631-.63 1.8 1.8 0 0 0-.926-.233q-.55 0-.977.256-.42.25-.659.676-.239.42-.244.937v1.426q0 .648.238 1.12.244.47.688.727.443.255 1.051.256.403 0 .738-.114a1.48 1.48 0 0 0 .938-.898l2.239.148a3.06 3.06 0 0 1-.699 1.41q-.524.595-1.353.93-.823.33-1.903.33m10.227-8.898v1.818h-5.255v-1.818zm-4.062-2.091h2.42v8.136q0 .336.103.523a.56.56 0 0 0 .284.256q.188.073.431.073.171 0 .341-.028l.262-.051.38 1.801a7 7 0 0 1-.511.13q-.33.08-.801.097-.875.034-1.534-.233a2.14 2.14 0 0 1-1.017-.83q-.364-.561-.358-1.42zm10.281 2.09v1.819h-5.256v-1.818zm-4.062-2.09h2.42v8.136q0 .336.102.523a.56.56 0 0 0 .284.256q.187.073.432.073.17 0 .341-.028l.261-.051.381 1.801a7 7 0 0 1-.511.13q-.33.08-.801.097-.876.034-1.534-.233a2.14 2.14 0 0 1-1.017-.83q-.364-.561-.358-1.42zm9.522 10.989q-1.346 0-2.318-.546a3.74 3.74 0 0 1-1.489-1.557q-.522-1.01-.522-2.392 0-1.346.522-2.363a3.87 3.87 0 0 1 1.472-1.586q.954-.568 2.239-.568a4.6 4.6 0 0 1 1.608.278q.75.273 1.306.824.563.552.875 1.387.313.829.313 1.943v.665h-7.369v-1.5h5.091a1.85 1.85 0 0 0-.228-.927 1.6 1.6 0 0 0-.63-.63 1.8 1.8 0 0 0-.927-.233q-.55 0-.977.256-.42.25-.659.676-.238.42-.244.937v1.426q0 .648.238 1.12.244.47.688.727.443.255 1.051.256.403 0 .739-.114.334-.115.574-.34.238-.228.363-.558l2.239.148a3.06 3.06 0 0 1-.699 1.41q-.522.595-1.352.93-.825.33-1.904.33M250.727 35.125a2.5 2.5 0 0 0-.335-.733 2.1 2.1 0 0 0-.528-.545 2.3 2.3 0 0 0-.705-.347 3 3 0 0 0-.869-.12q-.893 0-1.568.444-.67.443-1.046 1.29-.375.84-.375 2.057 0 1.215.369 2.068.37.852 1.046 1.3.676.444 1.596.444.836 0 1.427-.295.595-.301.909-.847.318-.546.318-1.29l.5.074h-3v-1.852h4.869v1.466q0 1.533-.647 2.636a4.4 4.4 0 0 1-1.785 1.693q-1.136.591-2.602.591-1.636 0-2.875-.721-1.239-.728-1.932-2.063-.687-1.341-.687-3.182 0-1.414.409-2.523a5.4 5.4 0 0 1 1.159-1.886 5 5 0 0 1 1.733-1.176 5.6 5.6 0 0 1 2.142-.404q.989 0 1.841.29.852.285 1.511.807.665.523 1.086 1.244.42.717.539 1.58zM255.138 43v-8.727h2.346v1.522h.091q.238-.812.801-1.227.563-.42 1.296-.42a3.7 3.7 0 0 1 .761.085v2.148a3 3 0 0 0-.471-.091 4 4 0 0 0-.551-.04q-.535 0-.955.233a1.7 1.7 0 0 0-.659.636 1.84 1.84 0 0 0-.239.944V43zm8.785.165q-.836 0-1.488-.29a2.4 2.4 0 0 1-1.034-.87q-.375-.579-.375-1.443 0-.727.267-1.221t.727-.796 1.045-.454a8 8 0 0 1 1.239-.216q.762-.08 1.227-.148.466-.073.676-.216a.47.47 0 0 0 .211-.42v-.034q0-.54-.341-.835-.336-.296-.955-.296-.653 0-1.04.29-.386.284-.511.716l-2.239-.182a3.05 3.05 0 0 1 .671-1.375q.5-.585 1.29-.898.795-.318 1.841-.318.726 0 1.392.17.67.17 1.187.529.523.358.824.92.301.558.301 1.336V43h-2.295v-1.21h-.069q-.21.41-.562.721a2.6 2.6 0 0 1-.847.483q-.494.17-1.142.17m.693-1.67q.535 0 .944-.21a1.7 1.7 0 0 0 .642-.58q.233-.364.233-.824v-.926q-.114.073-.313.136a6 6 0 0 1-.437.108q-.244.045-.489.085l-.443.063a3 3 0 0 0-.744.198 1.2 1.2 0 0 0-.495.37.9.9 0 0 0-.176.568q0 .494.358.756.363.255.92.255m8.52-3.54V43h-2.42v-8.727h2.307v1.54h.102q.29-.762.972-1.205.681-.45 1.653-.449.909 0 1.585.398t1.051 1.136q.375.733.375 1.75V43h-2.42v-5.125q.005-.8-.409-1.25-.415-.455-1.142-.455-.489 0-.864.21-.369.21-.579.614-.205.399-.211.96m10.749 5.187q-.994 0-1.801-.511-.801-.517-1.273-1.517-.466-1.006-.466-2.466 0-1.5.483-2.495.483-.999 1.284-1.494a3.3 3.3 0 0 1 1.767-.5q.733 0 1.222.25.494.244.795.614.307.362.466.716h.074v-4.375h2.415V43h-2.387v-1.398h-.102a3 3 0 0 1-.483.722 2.4 2.4 0 0 1-.801.585q-.489.233-1.193.233m.767-1.926q.585 0 .989-.318.408-.324.625-.904.22-.58.221-1.358 0-.779-.216-1.352t-.625-.886-.994-.313q-.597 0-1.006.324-.408.324-.619.898-.21.574-.21 1.33 0 .76.21 1.346.216.58.619.909.41.324 1.006.324M294.589 43V31.364h7.705v2.028h-5.244v2.773h4.733v2.028h-4.733V43zm9.314 0v-8.727h2.421V43zm1.216-9.852q-.54 0-.926-.358a1.16 1.16 0 0 1-.381-.87q0-.5.381-.858.386-.363.926-.363t.921.363q.386.36.386.858 0 .506-.386.87a1.3 1.3 0 0 1-.921.358m5.564 4.807V43h-2.42v-8.727h2.307v1.54h.102q.29-.762.971-1.205.682-.45 1.654-.449.909 0 1.585.398t1.051 1.136q.375.733.375 1.75V43h-2.42v-5.125q.006-.8-.409-1.25-.416-.455-1.142-.455-.489 0-.864.21-.369.21-.58.614-.204.399-.21.96m10.022 5.21q-.835 0-1.489-.29a2.4 2.4 0 0 1-1.034-.87q-.375-.579-.375-1.443 0-.727.267-1.221t.727-.796 1.046-.454a8 8 0 0 1 1.238-.216q.762-.08 1.227-.148.466-.073.677-.216a.48.48 0 0 0 .21-.42v-.034q0-.54-.341-.835-.336-.296-.955-.296-.653 0-1.039.29-.387.284-.512.716l-2.238-.182q.17-.795.67-1.375.5-.585 1.29-.898.795-.318 1.841-.318.728 0 1.392.17.67.17 1.187.529.523.358.824.92.301.558.301 1.336V43h-2.295v-1.21h-.068q-.21.41-.563.721a2.6 2.6 0 0 1-.846.483q-.495.17-1.142.17m.693-1.67q.534 0 .943-.21.41-.217.642-.58.233-.364.233-.824v-.926q-.114.073-.313.136a6 6 0 0 1-.437.108q-.245.045-.489.085l-.443.063a3 3 0 0 0-.744.198q-.318.137-.495.37a.9.9 0 0 0-.176.568q0 .494.358.756.365.255.921.255m8.52-10.131V43h-2.421V31.364z"/><path stroke="url(#g)" stroke-linecap="round" stroke-width="2" d="M185 1v51"/><defs><linearGradient id="a" x1="31" x2="31" y1="29" y2="4" gradientUnits="userSpaceOnUse"><stop stop-color="#FFF0DA"/><stop offset=".042" stop-color="#94641E"/><stop offset=".828" stop-color="#FFF2DB"/><stop offset=".938" stop-color="#EAC885"/><stop offset=".979" stop-color="#FBF5D1"/><stop offset="1" stop-color="#BD9A4B"/><stop offset="1" stop-color="#ECD8A3"/></linearGradient><linearGradient id="b" x1="18.5" x2="18.5" y1="8.244" y2="25.346" gradientUnits="userSpaceOnUse"><stop stop-color="#FCF6D1"/><stop offset=".104" stop-color="#BD9457"/><stop offset=".25" stop-color="#E3CA89"/><stop offset=".698" stop-color="#FEE8C8"/><stop offset=".854" stop-color="#4D3A1A"/><stop offset="1" stop-color="#FCF0D1"/></linearGradient><linearGradient id="d" x1="224.474" x2="224.474" y1="24.462" y2="8.244" gradientUnits="userSpaceOnUse"><stop stop-color="#FFF0DA"/><stop offset=".042" stop-color="#94641E"/><stop offset=".828" stop-color="#FFF2DB"/><stop offset=".938" stop-color="#EAC885"/><stop offset=".979" stop-color="#FBF5D1"/><stop offset="1" stop-color="#BD9A4B"/><stop offset="1" stop-color="#ECD8A3"/></linearGradient><linearGradient id="e" x1="212.5" x2="212.5" y1="8.244" y2="25.346" gradientUnits="userSpaceOnUse"><stop stop-color="#FCF6D1"/><stop offset=".104" stop-color="#BD9457"/><stop offset=".25" stop-color="#E3CA89"/><stop offset=".698" stop-color="#FEE8C8"/><stop offset=".854" stop-color="#4D3A1A"/><stop offset="1" stop-color="#FCF0D1"/></linearGradient><linearGradient id="g" x1="185.5" x2="185.5" y1="1" y2="52" gradientUnits="userSpaceOnUse"><stop stop-color="#FCF6D1"/><stop offset=".104" stop-color="#BD9457"/><stop offset=".25" stop-color="#E3CA89"/><stop offset=".698" stop-color="#FEE8C8"/><stop offset=".854" stop-color="#4D3A1A"/><stop offset="1" stop-color="#FCF0D1"/></linearGradient></defs></svg>