<svg width="167" height="81" viewBox="0 0 167 81" fill="none" xmlns="http://www.w3.org/2000/svg">
<rect x="1.12332" y="1.12332" width="164.753" height="78.7534" rx="8.61211" fill="#122135" stroke="url(#paint0_linear_455_190)" stroke-width="2.24664"/>
<g style="mix-blend-mode:color-dodge">
<circle cx="16.4294" cy="40.4294" r="8.42942" fill="url(#paint1_diamond_455_190)"/>
</g>
<g style="mix-blend-mode:color-dodge">
<circle cx="152.461" cy="65.4612" r="8.42942" transform="rotate(-7.52921 152.461 65.4612)" fill="url(#paint2_diamond_455_190)"/>
</g>
<path d="M14.7217 32.0004V14.5459H21.2671C22.608 14.5459 23.733 14.7959 24.6421 15.2959C25.5569 15.7959 26.2472 16.4834 26.7132 17.3584C27.1847 18.2277 27.4205 19.2164 27.4205 20.3243C27.4205 21.4436 27.1847 22.4379 26.7132 23.3073C26.2416 24.1766 25.5455 24.8612 24.6251 25.3612C23.7046 25.8556 22.5711 26.1027 21.2245 26.1027H16.8865V23.5033H20.7984C21.5825 23.5033 22.2245 23.3669 22.7245 23.0942C23.2245 22.8215 23.5938 22.4465 23.8325 21.9692C24.0768 21.4919 24.199 20.9436 24.199 20.3243C24.199 19.705 24.0768 19.1595 23.8325 18.6879C23.5938 18.2164 23.2217 17.8499 22.716 17.5885C22.216 17.3215 21.5711 17.1879 20.7813 17.1879H17.8836V32.0004H14.7217Z" fill="white"/>
<path d="M30.167 32.0004V14.5459H36.7124C38.0534 14.5459 39.1784 14.7789 40.0874 15.2448C41.0022 15.7107 41.6926 16.3641 42.1585 17.205C42.6301 18.0402 42.8659 19.0146 42.8659 20.1283C42.8659 21.2476 42.6272 22.2192 42.1499 23.0431C41.6784 23.8612 40.9823 24.4948 40.0619 24.9436C39.1414 25.3868 38.0107 25.6084 36.6698 25.6084H32.0079V22.9834H36.2437C37.0278 22.9834 37.6698 22.8754 38.1698 22.6595C38.6698 22.4379 39.0392 22.1169 39.2778 21.6965C39.5221 21.2703 39.6443 20.7476 39.6443 20.1283C39.6443 19.509 39.5221 18.9806 39.2778 18.5431C39.0335 18.0999 38.6613 17.7646 38.1613 17.5374C37.6613 17.3044 37.0164 17.1879 36.2267 17.1879H33.3289V32.0004H30.167ZM39.184 24.0914L43.5051 32.0004H39.9767L35.7323 24.0914H39.184Z" fill="white"/>
<path d="M48.9383 14.5459V32.0004H45.7764V14.5459H48.9383Z" fill="white"/>
<path d="M52.0384 32.0004V30.0317L60.9873 17.1965H51.9873V14.5459H64.9078V16.5146L55.9674 29.3499H64.9589V32.0004H52.0384Z" fill="white"/>
<path d="M68.0186 32.0004V14.5459H79.3708V17.1965H71.1805V21.9351H78.7828V24.5857H71.1805V29.3499H79.439V32.0004H68.0186Z" fill="white"/>
<path d="M88.5498 32.0004V14.5459H99.7316V17.1965H91.7117V21.9351H98.9646V24.5857H91.7117V32.0004H88.5498Z" fill="white"/>
<path d="M113.615 14.5459H116.777V25.9493C116.777 27.1993 116.482 28.2987 115.891 29.2476C115.305 30.1965 114.482 30.9379 113.419 31.472C112.357 32.0004 111.115 32.2646 109.695 32.2646C108.269 32.2646 107.024 32.0004 105.962 31.472C104.899 30.9379 104.075 30.1965 103.49 29.2476C102.905 28.2987 102.612 27.1993 102.612 25.9493V14.5459H105.774V25.6851C105.774 26.4124 105.933 27.0601 106.252 27.6283C106.575 28.1965 107.03 28.6425 107.615 28.9664C108.2 29.2845 108.894 29.4436 109.695 29.4436C110.496 29.4436 111.189 29.2845 111.774 28.9664C112.365 28.6425 112.82 28.1965 113.138 27.6283C113.456 27.0601 113.615 26.4124 113.615 25.6851V14.5459Z" fill="white"/>
<path d="M134.558 14.5459V32.0004H131.745L123.521 20.1112H123.376V32.0004H120.214V14.5459H123.043L131.259 26.4436H131.413V14.5459H134.558Z" fill="white"/>
<path d="M143.918 32.0004H138.003V14.5459H144.037C145.77 14.5459 147.259 14.8953 148.503 15.5942C149.753 16.2874 150.713 17.2845 151.384 18.5857C152.054 19.8868 152.389 21.4436 152.389 23.2561C152.389 25.0743 152.051 26.6368 151.375 27.9436C150.705 29.2504 149.736 30.2533 148.469 30.9521C147.207 31.651 145.69 32.0004 143.918 32.0004ZM141.165 29.2646H143.764C144.98 29.2646 145.994 29.0431 146.807 28.5999C147.619 28.151 148.23 27.4834 148.639 26.597C149.048 25.705 149.253 24.5914 149.253 23.2561C149.253 21.9209 149.048 20.8129 148.639 19.9323C148.23 19.0459 147.625 18.384 146.824 17.9465C146.029 17.5033 145.04 17.2817 143.858 17.2817H141.165V29.2646Z" fill="white"/>
<g filter="url(#filter0_d_455_190)">
<mask id="path-5-outside-1_455_190" maskUnits="userSpaceOnUse" x="13.1934" y="39.4541" width="138" height="30" fill="black">
<rect fill="white" x="13.1934" y="39.4541" width="138" height="30"/>
<path d="M23.0982 67.7268V40.4541H24.8453V67.7268H23.0982ZM27.7324 49.4562C27.6472 48.5969 27.2814 47.9292 26.6351 47.4534C25.9888 46.9775 25.1117 46.7396 24.0037 46.7396C23.2509 46.7396 22.6152 46.8461 22.0968 47.0592C21.5783 47.2652 21.1806 47.5528 20.9036 47.9221C20.6337 48.2915 20.4988 48.7105 20.4988 49.1792C20.4846 49.5699 20.5662 49.9108 20.7438 50.202C20.9284 50.4932 21.1806 50.7453 21.5002 50.9584C21.8198 51.1643 22.1891 51.3454 22.6081 51.5017C23.0272 51.6508 23.4746 51.7787 23.9505 51.8852L25.9107 52.354C26.8624 52.567 27.736 52.8511 28.5314 53.2062C29.3269 53.5613 30.0158 53.9981 30.5982 54.5166C31.1806 55.0351 31.6316 55.6459 31.9512 56.349C32.2779 57.0521 32.4448 57.8582 32.4519 58.7673C32.4448 60.1025 32.1039 61.2602 31.4292 62.2403C30.7615 63.2133 29.7956 63.9697 28.5314 64.5095C27.2743 65.0422 25.758 65.3085 23.9824 65.3085C22.2211 65.3085 20.687 65.0386 19.3801 64.4988C18.0804 63.9591 17.0648 63.1601 16.3333 62.1018C15.6088 61.0365 15.2289 59.719 15.1934 58.1494H19.6571C19.7069 58.881 19.9164 59.4917 20.2857 59.9818C20.6621 60.4648 21.1628 60.8305 21.7878 61.0791C22.4199 61.3206 23.1337 61.4413 23.9292 61.4413C24.7104 61.4413 25.3887 61.3277 25.964 61.1004C26.5463 60.8731 26.9973 60.5571 27.3169 60.1523C27.6365 59.7474 27.7963 59.2822 27.7963 58.7567C27.7963 58.2666 27.6507 57.8547 27.3596 57.5209C27.0755 57.1871 26.6564 56.903 26.1025 56.6686C25.5556 56.4342 24.8844 56.2211 24.089 56.0294L21.7132 55.4328C19.8738 54.9854 18.4213 54.2858 17.356 53.3341C16.2907 52.3824 15.7615 51.1004 15.7686 49.4882C15.7615 48.1672 16.1131 47.0131 16.8233 46.0258C17.5407 45.0386 18.5243 44.268 19.7743 43.714C21.0243 43.1601 22.4448 42.8831 24.0357 42.8831C25.655 42.8831 27.0684 43.1601 28.2757 43.714C29.4902 44.268 30.4348 45.0386 31.1096 46.0258C31.7843 47.0131 32.1323 48.1565 32.1536 49.4562H27.7324Z"/>
<path d="M44.919 43.1814V64.9996H40.3061V47.5599H40.1783L35.1818 50.692V46.6011L40.5831 43.1814H44.919Z"/>
<path d="M58.6593 65.479C56.8269 65.4719 55.2502 65.0209 53.9292 64.126C52.6152 63.2311 51.6032 61.9349 50.8929 60.2375C50.1898 58.54 49.8418 56.4981 49.8489 54.1118C49.8489 51.7325 50.2005 49.7048 50.9036 48.0287C51.6138 46.3525 52.6259 45.0777 53.9398 44.2041C55.2608 43.3234 56.834 42.8831 58.6593 42.8831C60.4846 42.8831 62.0542 43.3234 63.3681 44.2041C64.6891 45.0848 65.7047 46.3632 66.415 48.0393C67.1252 49.7084 67.4767 51.7325 67.4696 54.1118C67.4696 56.5052 67.1145 58.5507 66.4043 60.2481C65.7012 61.9456 64.6927 63.2417 63.3787 64.1366C62.0648 65.0315 60.4917 65.479 58.6593 65.479ZM58.6593 61.6544C59.9093 61.6544 60.9071 61.0258 61.6529 59.7687C62.3986 58.5116 62.7679 56.626 62.7608 54.1118C62.7608 52.4569 62.5904 51.0791 62.2495 49.9783C61.9157 48.8774 61.4398 48.05 60.8219 47.496C60.2111 46.942 59.4902 46.665 58.6593 46.665C57.4164 46.665 56.4221 47.2865 55.6763 48.5294C54.9306 49.7723 54.5542 51.6331 54.5471 54.1118C54.5471 55.7879 54.714 57.1871 55.0478 58.3092C55.3887 59.4243 55.8681 60.2623 56.486 60.8234C57.1039 61.3774 57.8283 61.6544 58.6593 61.6544Z"/>
<path d="M79.3136 65.479C77.4812 65.4719 75.9045 65.0209 74.5835 64.126C73.2695 63.2311 72.2575 61.9349 71.5472 60.2375C70.8441 58.54 70.4961 56.4981 70.5032 54.1118C70.5032 51.7325 70.8548 49.7048 71.5579 48.0287C72.2681 46.3525 73.2802 45.0777 74.5941 44.2041C75.9151 43.3234 77.4883 42.8831 79.3136 42.8831C81.1389 42.8831 82.7084 43.3234 84.0224 44.2041C85.3434 45.0848 86.359 46.3632 87.0692 48.0393C87.7795 49.7084 88.131 51.7325 88.1239 54.1118C88.1239 56.5052 87.7688 58.5507 87.0586 60.2481C86.3555 61.9456 85.3469 63.2417 84.033 64.1366C82.7191 65.0315 81.146 65.479 79.3136 65.479ZM79.3136 61.6544C80.5636 61.6544 81.5614 61.0258 82.3072 59.7687C83.0529 58.5116 83.4222 56.626 83.4151 54.1118C83.4151 52.4569 83.2447 51.0791 82.9038 49.9783C82.57 48.8774 82.0941 48.05 81.4762 47.496C80.8654 46.942 80.1445 46.665 79.3136 46.665C78.0707 46.665 77.0764 47.2865 76.3306 48.5294C75.5849 49.7723 75.2085 51.6331 75.2014 54.1118C75.2014 55.7879 75.3683 57.1871 75.7021 58.3092C76.043 59.4243 76.5224 60.2623 77.1403 60.8234C77.7582 61.3774 78.4826 61.6544 79.3136 61.6544Z"/>
<path d="M99.9679 65.479C98.1355 65.4719 96.5588 65.0209 95.2377 64.126C93.9238 63.2311 92.9118 61.9349 92.2015 60.2375C91.4984 58.54 91.1504 56.4981 91.1575 54.1118C91.1575 51.7325 91.5091 49.7048 92.2122 48.0287C92.9224 46.3525 93.9345 45.0777 95.2484 44.2041C96.5694 43.3234 98.1426 42.8831 99.9679 42.8831C101.793 42.8831 103.363 43.3234 104.677 44.2041C105.998 45.0848 107.013 46.3632 107.724 48.0393C108.434 49.7084 108.785 51.7325 108.778 54.1118C108.778 56.5052 108.423 58.5507 107.713 60.2481C107.01 61.9456 106.001 63.2417 104.687 64.1366C103.373 65.0315 101.8 65.479 99.9679 65.479ZM99.9679 61.6544C101.218 61.6544 102.216 61.0258 102.961 59.7687C103.707 58.5116 104.077 56.626 104.069 54.1118C104.069 52.4569 103.899 51.0791 103.558 49.9783C103.224 48.8774 102.748 48.05 102.131 47.496C101.52 46.942 100.799 46.665 99.9679 46.665C98.725 46.665 97.7306 47.2865 96.9849 48.5294C96.2392 49.7723 95.8627 51.6331 95.8556 54.1118C95.8556 55.7879 96.0225 57.1871 96.3564 58.3092C96.6973 59.4243 97.1767 60.2623 97.7946 60.8234C98.4125 61.3774 99.1369 61.6544 99.9679 61.6544Z"/>
<path d="M120.622 65.479C118.79 65.4719 117.213 65.0209 115.892 64.126C114.578 63.2311 113.566 61.9349 112.856 60.2375C112.153 58.54 111.805 56.4981 111.812 54.1118C111.812 51.7325 112.163 49.7048 112.866 48.0287C113.577 46.3525 114.589 45.0777 115.903 44.2041C117.224 43.3234 118.797 42.8831 120.622 42.8831C122.447 42.8831 124.017 43.3234 125.331 44.2041C126.652 45.0848 127.668 46.3632 128.378 48.0393C129.088 49.7084 129.44 51.7325 129.433 54.1118C129.433 56.5052 129.077 58.5507 128.367 60.2481C127.664 61.9456 126.656 63.2417 125.342 64.1366C124.028 65.0315 122.455 65.479 120.622 65.479ZM120.622 61.6544C121.872 61.6544 122.87 61.0258 123.616 59.7687C124.362 58.5116 124.731 56.626 124.724 54.1118C124.724 52.4569 124.553 51.0791 124.212 49.9783C123.879 48.8774 123.403 48.05 122.785 47.496C122.174 46.942 121.453 46.665 120.622 46.665C119.379 46.665 118.385 47.2865 117.639 48.5294C116.893 49.7723 116.517 51.6331 116.51 54.1118C116.51 55.7879 116.677 57.1871 117.011 58.3092C117.352 59.4243 117.831 60.2623 118.449 60.8234C119.067 61.3774 119.791 61.6544 120.622 61.6544Z"/>
<path d="M141.276 65.479C139.444 65.4719 137.867 65.0209 136.546 64.126C135.232 63.2311 134.22 61.9349 133.51 60.2375C132.807 58.54 132.459 56.4981 132.466 54.1118C132.466 51.7325 132.818 49.7048 133.521 48.0287C134.231 46.3525 135.243 45.0777 136.557 44.2041C137.878 43.3234 139.451 42.8831 141.276 42.8831C143.102 42.8831 144.671 43.3234 145.985 44.2041C147.306 45.0848 148.322 46.3632 149.032 48.0393C149.742 49.7084 150.094 51.7325 150.087 54.1118C150.087 56.5052 149.732 58.5507 149.021 60.2481C148.318 61.9456 147.31 63.2417 145.996 64.1366C144.682 65.0315 143.109 65.479 141.276 65.479ZM141.276 61.6544C142.526 61.6544 143.524 61.0258 144.27 59.7687C145.016 58.5116 145.385 56.626 145.378 54.1118C145.378 52.4569 145.208 51.0791 144.867 49.9783C144.533 48.8774 144.057 48.05 143.439 47.496C142.828 46.942 142.107 46.665 141.276 46.665C140.034 46.665 139.039 47.2865 138.294 48.5294C137.548 49.7723 137.171 51.6331 137.164 54.1118C137.164 55.7879 137.331 57.1871 137.665 58.3092C138.006 59.4243 138.485 60.2623 139.103 60.8234C139.721 61.3774 140.445 61.6544 141.276 61.6544Z"/>
</mask>
<path d="M23.0982 67.7268V40.4541H24.8453V67.7268H23.0982ZM27.7324 49.4562C27.6472 48.5969 27.2814 47.9292 26.6351 47.4534C25.9888 46.9775 25.1117 46.7396 24.0037 46.7396C23.2509 46.7396 22.6152 46.8461 22.0968 47.0592C21.5783 47.2652 21.1806 47.5528 20.9036 47.9221C20.6337 48.2915 20.4988 48.7105 20.4988 49.1792C20.4846 49.5699 20.5662 49.9108 20.7438 50.202C20.9284 50.4932 21.1806 50.7453 21.5002 50.9584C21.8198 51.1643 22.1891 51.3454 22.6081 51.5017C23.0272 51.6508 23.4746 51.7787 23.9505 51.8852L25.9107 52.354C26.8624 52.567 27.736 52.8511 28.5314 53.2062C29.3269 53.5613 30.0158 53.9981 30.5982 54.5166C31.1806 55.0351 31.6316 55.6459 31.9512 56.349C32.2779 57.0521 32.4448 57.8582 32.4519 58.7673C32.4448 60.1025 32.1039 61.2602 31.4292 62.2403C30.7615 63.2133 29.7956 63.9697 28.5314 64.5095C27.2743 65.0422 25.758 65.3085 23.9824 65.3085C22.2211 65.3085 20.687 65.0386 19.3801 64.4988C18.0804 63.9591 17.0648 63.1601 16.3333 62.1018C15.6088 61.0365 15.2289 59.719 15.1934 58.1494H19.6571C19.7069 58.881 19.9164 59.4917 20.2857 59.9818C20.6621 60.4648 21.1628 60.8305 21.7878 61.0791C22.4199 61.3206 23.1337 61.4413 23.9292 61.4413C24.7104 61.4413 25.3887 61.3277 25.964 61.1004C26.5463 60.8731 26.9973 60.5571 27.3169 60.1523C27.6365 59.7474 27.7963 59.2822 27.7963 58.7567C27.7963 58.2666 27.6507 57.8547 27.3596 57.5209C27.0755 57.1871 26.6564 56.903 26.1025 56.6686C25.5556 56.4342 24.8844 56.2211 24.089 56.0294L21.7132 55.4328C19.8738 54.9854 18.4213 54.2858 17.356 53.3341C16.2907 52.3824 15.7615 51.1004 15.7686 49.4882C15.7615 48.1672 16.1131 47.0131 16.8233 46.0258C17.5407 45.0386 18.5243 44.268 19.7743 43.714C21.0243 43.1601 22.4448 42.8831 24.0357 42.8831C25.655 42.8831 27.0684 43.1601 28.2757 43.714C29.4902 44.268 30.4348 45.0386 31.1096 46.0258C31.7843 47.0131 32.1323 48.1565 32.1536 49.4562H27.7324Z" fill="url(#paint3_linear_455_190)"/>
<path d="M44.919 43.1814V64.9996H40.3061V47.5599H40.1783L35.1818 50.692V46.6011L40.5831 43.1814H44.919Z" fill="url(#paint4_linear_455_190)"/>
<path d="M58.6593 65.479C56.8269 65.4719 55.2502 65.0209 53.9292 64.126C52.6152 63.2311 51.6032 61.9349 50.8929 60.2375C50.1898 58.54 49.8418 56.4981 49.8489 54.1118C49.8489 51.7325 50.2005 49.7048 50.9036 48.0287C51.6138 46.3525 52.6259 45.0777 53.9398 44.2041C55.2608 43.3234 56.834 42.8831 58.6593 42.8831C60.4846 42.8831 62.0542 43.3234 63.3681 44.2041C64.6891 45.0848 65.7047 46.3632 66.415 48.0393C67.1252 49.7084 67.4767 51.7325 67.4696 54.1118C67.4696 56.5052 67.1145 58.5507 66.4043 60.2481C65.7012 61.9456 64.6927 63.2417 63.3787 64.1366C62.0648 65.0315 60.4917 65.479 58.6593 65.479ZM58.6593 61.6544C59.9093 61.6544 60.9071 61.0258 61.6529 59.7687C62.3986 58.5116 62.7679 56.626 62.7608 54.1118C62.7608 52.4569 62.5904 51.0791 62.2495 49.9783C61.9157 48.8774 61.4398 48.05 60.8219 47.496C60.2111 46.942 59.4902 46.665 58.6593 46.665C57.4164 46.665 56.4221 47.2865 55.6763 48.5294C54.9306 49.7723 54.5542 51.6331 54.5471 54.1118C54.5471 55.7879 54.714 57.1871 55.0478 58.3092C55.3887 59.4243 55.8681 60.2623 56.486 60.8234C57.1039 61.3774 57.8283 61.6544 58.6593 61.6544Z" fill="url(#paint5_linear_455_190)"/>
<path d="M79.3136 65.479C77.4812 65.4719 75.9045 65.0209 74.5835 64.126C73.2695 63.2311 72.2575 61.9349 71.5472 60.2375C70.8441 58.54 70.4961 56.4981 70.5032 54.1118C70.5032 51.7325 70.8548 49.7048 71.5579 48.0287C72.2681 46.3525 73.2802 45.0777 74.5941 44.2041C75.9151 43.3234 77.4883 42.8831 79.3136 42.8831C81.1389 42.8831 82.7084 43.3234 84.0224 44.2041C85.3434 45.0848 86.359 46.3632 87.0692 48.0393C87.7795 49.7084 88.131 51.7325 88.1239 54.1118C88.1239 56.5052 87.7688 58.5507 87.0586 60.2481C86.3555 61.9456 85.3469 63.2417 84.033 64.1366C82.7191 65.0315 81.146 65.479 79.3136 65.479ZM79.3136 61.6544C80.5636 61.6544 81.5614 61.0258 82.3072 59.7687C83.0529 58.5116 83.4222 56.626 83.4151 54.1118C83.4151 52.4569 83.2447 51.0791 82.9038 49.9783C82.57 48.8774 82.0941 48.05 81.4762 47.496C80.8654 46.942 80.1445 46.665 79.3136 46.665C78.0707 46.665 77.0764 47.2865 76.3306 48.5294C75.5849 49.7723 75.2085 51.6331 75.2014 54.1118C75.2014 55.7879 75.3683 57.1871 75.7021 58.3092C76.043 59.4243 76.5224 60.2623 77.1403 60.8234C77.7582 61.3774 78.4826 61.6544 79.3136 61.6544Z" fill="url(#paint6_linear_455_190)"/>
<path d="M99.9679 65.479C98.1355 65.4719 96.5588 65.0209 95.2377 64.126C93.9238 63.2311 92.9118 61.9349 92.2015 60.2375C91.4984 58.54 91.1504 56.4981 91.1575 54.1118C91.1575 51.7325 91.5091 49.7048 92.2122 48.0287C92.9224 46.3525 93.9345 45.0777 95.2484 44.2041C96.5694 43.3234 98.1426 42.8831 99.9679 42.8831C101.793 42.8831 103.363 43.3234 104.677 44.2041C105.998 45.0848 107.013 46.3632 107.724 48.0393C108.434 49.7084 108.785 51.7325 108.778 54.1118C108.778 56.5052 108.423 58.5507 107.713 60.2481C107.01 61.9456 106.001 63.2417 104.687 64.1366C103.373 65.0315 101.8 65.479 99.9679 65.479ZM99.9679 61.6544C101.218 61.6544 102.216 61.0258 102.961 59.7687C103.707 58.5116 104.077 56.626 104.069 54.1118C104.069 52.4569 103.899 51.0791 103.558 49.9783C103.224 48.8774 102.748 48.05 102.131 47.496C101.52 46.942 100.799 46.665 99.9679 46.665C98.725 46.665 97.7306 47.2865 96.9849 48.5294C96.2392 49.7723 95.8627 51.6331 95.8556 54.1118C95.8556 55.7879 96.0225 57.1871 96.3564 58.3092C96.6973 59.4243 97.1767 60.2623 97.7946 60.8234C98.4125 61.3774 99.1369 61.6544 99.9679 61.6544Z" fill="url(#paint7_linear_455_190)"/>
<path d="M120.622 65.479C118.79 65.4719 117.213 65.0209 115.892 64.126C114.578 63.2311 113.566 61.9349 112.856 60.2375C112.153 58.54 111.805 56.4981 111.812 54.1118C111.812 51.7325 112.163 49.7048 112.866 48.0287C113.577 46.3525 114.589 45.0777 115.903 44.2041C117.224 43.3234 118.797 42.8831 120.622 42.8831C122.447 42.8831 124.017 43.3234 125.331 44.2041C126.652 45.0848 127.668 46.3632 128.378 48.0393C129.088 49.7084 129.44 51.7325 129.433 54.1118C129.433 56.5052 129.077 58.5507 128.367 60.2481C127.664 61.9456 126.656 63.2417 125.342 64.1366C124.028 65.0315 122.455 65.479 120.622 65.479ZM120.622 61.6544C121.872 61.6544 122.87 61.0258 123.616 59.7687C124.362 58.5116 124.731 56.626 124.724 54.1118C124.724 52.4569 124.553 51.0791 124.212 49.9783C123.879 48.8774 123.403 48.05 122.785 47.496C122.174 46.942 121.453 46.665 120.622 46.665C119.379 46.665 118.385 47.2865 117.639 48.5294C116.893 49.7723 116.517 51.6331 116.51 54.1118C116.51 55.7879 116.677 57.1871 117.011 58.3092C117.352 59.4243 117.831 60.2623 118.449 60.8234C119.067 61.3774 119.791 61.6544 120.622 61.6544Z" fill="url(#paint8_linear_455_190)"/>
<path d="M141.276 65.479C139.444 65.4719 137.867 65.0209 136.546 64.126C135.232 63.2311 134.22 61.9349 133.51 60.2375C132.807 58.54 132.459 56.4981 132.466 54.1118C132.466 51.7325 132.818 49.7048 133.521 48.0287C134.231 46.3525 135.243 45.0777 136.557 44.2041C137.878 43.3234 139.451 42.8831 141.276 42.8831C143.102 42.8831 144.671 43.3234 145.985 44.2041C147.306 45.0848 148.322 46.3632 149.032 48.0393C149.742 49.7084 150.094 51.7325 150.087 54.1118C150.087 56.5052 149.732 58.5507 149.021 60.2481C148.318 61.9456 147.31 63.2417 145.996 64.1366C144.682 65.0315 143.109 65.479 141.276 65.479ZM141.276 61.6544C142.526 61.6544 143.524 61.0258 144.27 59.7687C145.016 58.5116 145.385 56.626 145.378 54.1118C145.378 52.4569 145.208 51.0791 144.867 49.9783C144.533 48.8774 144.057 48.05 143.439 47.496C142.828 46.942 142.107 46.665 141.276 46.665C140.034 46.665 139.039 47.2865 138.294 48.5294C137.548 49.7723 137.171 51.6331 137.164 54.1118C137.164 55.7879 137.331 57.1871 137.665 58.3092C138.006 59.4243 138.485 60.2623 139.103 60.8234C139.721 61.3774 140.445 61.6544 141.276 61.6544Z" fill="url(#paint9_linear_455_190)"/>
<path d="M23.0982 67.7268V40.4541H24.8453V67.7268H23.0982ZM27.7324 49.4562C27.6472 48.5969 27.2814 47.9292 26.6351 47.4534C25.9888 46.9775 25.1117 46.7396 24.0037 46.7396C23.2509 46.7396 22.6152 46.8461 22.0968 47.0592C21.5783 47.2652 21.1806 47.5528 20.9036 47.9221C20.6337 48.2915 20.4988 48.7105 20.4988 49.1792C20.4846 49.5699 20.5662 49.9108 20.7438 50.202C20.9284 50.4932 21.1806 50.7453 21.5002 50.9584C21.8198 51.1643 22.1891 51.3454 22.6081 51.5017C23.0272 51.6508 23.4746 51.7787 23.9505 51.8852L25.9107 52.354C26.8624 52.567 27.736 52.8511 28.5314 53.2062C29.3269 53.5613 30.0158 53.9981 30.5982 54.5166C31.1806 55.0351 31.6316 55.6459 31.9512 56.349C32.2779 57.0521 32.4448 57.8582 32.4519 58.7673C32.4448 60.1025 32.1039 61.2602 31.4292 62.2403C30.7615 63.2133 29.7956 63.9697 28.5314 64.5095C27.2743 65.0422 25.758 65.3085 23.9824 65.3085C22.2211 65.3085 20.687 65.0386 19.3801 64.4988C18.0804 63.9591 17.0648 63.1601 16.3333 62.1018C15.6088 61.0365 15.2289 59.719 15.1934 58.1494H19.6571C19.7069 58.881 19.9164 59.4917 20.2857 59.9818C20.6621 60.4648 21.1628 60.8305 21.7878 61.0791C22.4199 61.3206 23.1337 61.4413 23.9292 61.4413C24.7104 61.4413 25.3887 61.3277 25.964 61.1004C26.5463 60.8731 26.9973 60.5571 27.3169 60.1523C27.6365 59.7474 27.7963 59.2822 27.7963 58.7567C27.7963 58.2666 27.6507 57.8547 27.3596 57.5209C27.0755 57.1871 26.6564 56.903 26.1025 56.6686C25.5556 56.4342 24.8844 56.2211 24.089 56.0294L21.7132 55.4328C19.8738 54.9854 18.4213 54.2858 17.356 53.3341C16.2907 52.3824 15.7615 51.1004 15.7686 49.4882C15.7615 48.1672 16.1131 47.0131 16.8233 46.0258C17.5407 45.0386 18.5243 44.268 19.7743 43.714C21.0243 43.1601 22.4448 42.8831 24.0357 42.8831C25.655 42.8831 27.0684 43.1601 28.2757 43.714C29.4902 44.268 30.4348 45.0386 31.1096 46.0258C31.7843 47.0131 32.1323 48.1565 32.1536 49.4562H27.7324Z" stroke="url(#paint10_linear_455_190)" stroke-width="2" mask="url(#path-5-outside-1_455_190)"/>
<path d="M44.919 43.1814V64.9996H40.3061V47.5599H40.1783L35.1818 50.692V46.6011L40.5831 43.1814H44.919Z" stroke="url(#paint11_linear_455_190)" stroke-width="2" mask="url(#path-5-outside-1_455_190)"/>
<path d="M58.6593 65.479C56.8269 65.4719 55.2502 65.0209 53.9292 64.126C52.6152 63.2311 51.6032 61.9349 50.8929 60.2375C50.1898 58.54 49.8418 56.4981 49.8489 54.1118C49.8489 51.7325 50.2005 49.7048 50.9036 48.0287C51.6138 46.3525 52.6259 45.0777 53.9398 44.2041C55.2608 43.3234 56.834 42.8831 58.6593 42.8831C60.4846 42.8831 62.0542 43.3234 63.3681 44.2041C64.6891 45.0848 65.7047 46.3632 66.415 48.0393C67.1252 49.7084 67.4767 51.7325 67.4696 54.1118C67.4696 56.5052 67.1145 58.5507 66.4043 60.2481C65.7012 61.9456 64.6927 63.2417 63.3787 64.1366C62.0648 65.0315 60.4917 65.479 58.6593 65.479ZM58.6593 61.6544C59.9093 61.6544 60.9071 61.0258 61.6529 59.7687C62.3986 58.5116 62.7679 56.626 62.7608 54.1118C62.7608 52.4569 62.5904 51.0791 62.2495 49.9783C61.9157 48.8774 61.4398 48.05 60.8219 47.496C60.2111 46.942 59.4902 46.665 58.6593 46.665C57.4164 46.665 56.4221 47.2865 55.6763 48.5294C54.9306 49.7723 54.5542 51.6331 54.5471 54.1118C54.5471 55.7879 54.714 57.1871 55.0478 58.3092C55.3887 59.4243 55.8681 60.2623 56.486 60.8234C57.1039 61.3774 57.8283 61.6544 58.6593 61.6544Z" stroke="url(#paint12_linear_455_190)" stroke-width="2" mask="url(#path-5-outside-1_455_190)"/>
<path d="M79.3136 65.479C77.4812 65.4719 75.9045 65.0209 74.5835 64.126C73.2695 63.2311 72.2575 61.9349 71.5472 60.2375C70.8441 58.54 70.4961 56.4981 70.5032 54.1118C70.5032 51.7325 70.8548 49.7048 71.5579 48.0287C72.2681 46.3525 73.2802 45.0777 74.5941 44.2041C75.9151 43.3234 77.4883 42.8831 79.3136 42.8831C81.1389 42.8831 82.7084 43.3234 84.0224 44.2041C85.3434 45.0848 86.359 46.3632 87.0692 48.0393C87.7795 49.7084 88.131 51.7325 88.1239 54.1118C88.1239 56.5052 87.7688 58.5507 87.0586 60.2481C86.3555 61.9456 85.3469 63.2417 84.033 64.1366C82.7191 65.0315 81.146 65.479 79.3136 65.479ZM79.3136 61.6544C80.5636 61.6544 81.5614 61.0258 82.3072 59.7687C83.0529 58.5116 83.4222 56.626 83.4151 54.1118C83.4151 52.4569 83.2447 51.0791 82.9038 49.9783C82.57 48.8774 82.0941 48.05 81.4762 47.496C80.8654 46.942 80.1445 46.665 79.3136 46.665C78.0707 46.665 77.0764 47.2865 76.3306 48.5294C75.5849 49.7723 75.2085 51.6331 75.2014 54.1118C75.2014 55.7879 75.3683 57.1871 75.7021 58.3092C76.043 59.4243 76.5224 60.2623 77.1403 60.8234C77.7582 61.3774 78.4826 61.6544 79.3136 61.6544Z" stroke="url(#paint13_linear_455_190)" stroke-width="2" mask="url(#path-5-outside-1_455_190)"/>
<path d="M99.9679 65.479C98.1355 65.4719 96.5588 65.0209 95.2377 64.126C93.9238 63.2311 92.9118 61.9349 92.2015 60.2375C91.4984 58.54 91.1504 56.4981 91.1575 54.1118C91.1575 51.7325 91.5091 49.7048 92.2122 48.0287C92.9224 46.3525 93.9345 45.0777 95.2484 44.2041C96.5694 43.3234 98.1426 42.8831 99.9679 42.8831C101.793 42.8831 103.363 43.3234 104.677 44.2041C105.998 45.0848 107.013 46.3632 107.724 48.0393C108.434 49.7084 108.785 51.7325 108.778 54.1118C108.778 56.5052 108.423 58.5507 107.713 60.2481C107.01 61.9456 106.001 63.2417 104.687 64.1366C103.373 65.0315 101.8 65.479 99.9679 65.479ZM99.9679 61.6544C101.218 61.6544 102.216 61.0258 102.961 59.7687C103.707 58.5116 104.077 56.626 104.069 54.1118C104.069 52.4569 103.899 51.0791 103.558 49.9783C103.224 48.8774 102.748 48.05 102.131 47.496C101.52 46.942 100.799 46.665 99.9679 46.665C98.725 46.665 97.7306 47.2865 96.9849 48.5294C96.2392 49.7723 95.8627 51.6331 95.8556 54.1118C95.8556 55.7879 96.0225 57.1871 96.3564 58.3092C96.6973 59.4243 97.1767 60.2623 97.7946 60.8234C98.4125 61.3774 99.1369 61.6544 99.9679 61.6544Z" stroke="url(#paint14_linear_455_190)" stroke-width="2" mask="url(#path-5-outside-1_455_190)"/>
<path d="M120.622 65.479C118.79 65.4719 117.213 65.0209 115.892 64.126C114.578 63.2311 113.566 61.9349 112.856 60.2375C112.153 58.54 111.805 56.4981 111.812 54.1118C111.812 51.7325 112.163 49.7048 112.866 48.0287C113.577 46.3525 114.589 45.0777 115.903 44.2041C117.224 43.3234 118.797 42.8831 120.622 42.8831C122.447 42.8831 124.017 43.3234 125.331 44.2041C126.652 45.0848 127.668 46.3632 128.378 48.0393C129.088 49.7084 129.44 51.7325 129.433 54.1118C129.433 56.5052 129.077 58.5507 128.367 60.2481C127.664 61.9456 126.656 63.2417 125.342 64.1366C124.028 65.0315 122.455 65.479 120.622 65.479ZM120.622 61.6544C121.872 61.6544 122.87 61.0258 123.616 59.7687C124.362 58.5116 124.731 56.626 124.724 54.1118C124.724 52.4569 124.553 51.0791 124.212 49.9783C123.879 48.8774 123.403 48.05 122.785 47.496C122.174 46.942 121.453 46.665 120.622 46.665C119.379 46.665 118.385 47.2865 117.639 48.5294C116.893 49.7723 116.517 51.6331 116.51 54.1118C116.51 55.7879 116.677 57.1871 117.011 58.3092C117.352 59.4243 117.831 60.2623 118.449 60.8234C119.067 61.3774 119.791 61.6544 120.622 61.6544Z" stroke="url(#paint15_linear_455_190)" stroke-width="2" mask="url(#path-5-outside-1_455_190)"/>
<path d="M141.276 65.479C139.444 65.4719 137.867 65.0209 136.546 64.126C135.232 63.2311 134.22 61.9349 133.51 60.2375C132.807 58.54 132.459 56.4981 132.466 54.1118C132.466 51.7325 132.818 49.7048 133.521 48.0287C134.231 46.3525 135.243 45.0777 136.557 44.2041C137.878 43.3234 139.451 42.8831 141.276 42.8831C143.102 42.8831 144.671 43.3234 145.985 44.2041C147.306 45.0848 148.322 46.3632 149.032 48.0393C149.742 49.7084 150.094 51.7325 150.087 54.1118C150.087 56.5052 149.732 58.5507 149.021 60.2481C148.318 61.9456 147.31 63.2417 145.996 64.1366C144.682 65.0315 143.109 65.479 141.276 65.479ZM141.276 61.6544C142.526 61.6544 143.524 61.0258 144.27 59.7687C145.016 58.5116 145.385 56.626 145.378 54.1118C145.378 52.4569 145.208 51.0791 144.867 49.9783C144.533 48.8774 144.057 48.05 143.439 47.496C142.828 46.942 142.107 46.665 141.276 46.665C140.034 46.665 139.039 47.2865 138.294 48.5294C137.548 49.7723 137.171 51.6331 137.164 54.1118C137.164 55.7879 137.331 57.1871 137.665 58.3092C138.006 59.4243 138.485 60.2623 139.103 60.8234C139.721 61.3774 140.445 61.6544 141.276 61.6544Z" stroke="url(#paint16_linear_455_190)" stroke-width="2" mask="url(#path-5-outside-1_455_190)"/>
</g>
<defs>
<filter id="filter0_d_455_190" x="10.1704" y="39.4541" width="144.917" height="37.2725" filterUnits="userSpaceOnUse" color-interpolation-filters="sRGB">
<feFlood flood-opacity="0" result="BackgroundImageFix"/>
<feColorMatrix in="SourceAlpha" type="matrix" values="0 0 0 0 0 0 0 0 0 0 0 0 0 0 0 0 0 0 127 0" result="hardAlpha"/>
<feOffset dy="4"/>
<feGaussianBlur stdDeviation="2"/>
<feComposite in2="hardAlpha" operator="out"/>
<feColorMatrix type="matrix" values="0 0 0 0 0 0 0 0 0 0 0 0 0 0 0 0 0 0 0.6 0"/>
<feBlend mode="normal" in2="BackgroundImageFix" result="effect1_dropShadow_455_190"/>
<feBlend mode="normal" in="SourceGraphic" in2="effect1_dropShadow_455_190" result="shape"/>
</filter>
<linearGradient id="paint0_linear_455_190" x1="83.5" y1="0" x2="83.5" y2="81" gradientUnits="userSpaceOnUse">
<stop stop-color="#FCF6D1"/>
<stop offset="0.104167" stop-color="#BD9457"/>
<stop offset="0.25" stop-color="#E3CA89"/>
<stop offset="0.697917" stop-color="#FEE8C8"/>
<stop offset="0.854167" stop-color="#4D3A1A"/>
<stop offset="1" stop-color="#FCF0D1"/>
</linearGradient>
<radialGradient id="paint1_diamond_455_190" cx="0" cy="0" r="1" gradientUnits="userSpaceOnUse" gradientTransform="translate(16.4294 40.4294) rotate(90) scale(8.42942)">
<stop stop-color="white"/>
<stop offset="1"/>
</radialGradient>
<radialGradient id="paint2_diamond_455_190" cx="0" cy="0" r="1" gradientUnits="userSpaceOnUse" gradientTransform="translate(152.461 65.4612) rotate(90) scale(8.42942)">
<stop stop-color="white"/>
<stop offset="1"/>
</radialGradient>
<linearGradient id="paint3_linear_455_190" x1="129.5" y1="69.5" x2="129" y2="41" gradientUnits="userSpaceOnUse">
<stop offset="0.0104167" stop-color="#FFF0DA"/>
<stop offset="0.0416667" stop-color="#94641E"/>
<stop offset="0.828125" stop-color="#FFF2DB"/>
<stop offset="0.9375" stop-color="#EAC885"/>
<stop offset="0.979167" stop-color="#FBF5D1"/>
<stop offset="0.9999" stop-color="#BD9A4B"/>
<stop offset="1" stop-color="#ECD8A3"/>
</linearGradient>
<linearGradient id="paint4_linear_455_190" x1="129.5" y1="69.5" x2="129" y2="41" gradientUnits="userSpaceOnUse">
<stop offset="0.0104167" stop-color="#FFF0DA"/>
<stop offset="0.0416667" stop-color="#94641E"/>
<stop offset="0.828125" stop-color="#FFF2DB"/>
<stop offset="0.9375" stop-color="#EAC885"/>
<stop offset="0.979167" stop-color="#FBF5D1"/>
<stop offset="0.9999" stop-color="#BD9A4B"/>
<stop offset="1" stop-color="#ECD8A3"/>
</linearGradient>
<linearGradient id="paint5_linear_455_190" x1="129.5" y1="69.5" x2="129" y2="41" gradientUnits="userSpaceOnUse">
<stop offset="0.0104167" stop-color="#FFF0DA"/>
<stop offset="0.0416667" stop-color="#94641E"/>
<stop offset="0.828125" stop-color="#FFF2DB"/>
<stop offset="0.9375" stop-color="#EAC885"/>
<stop offset="0.979167" stop-color="#FBF5D1"/>
<stop offset="0.9999" stop-color="#BD9A4B"/>
<stop offset="1" stop-color="#ECD8A3"/>
</linearGradient>
<linearGradient id="paint6_linear_455_190" x1="129.5" y1="69.5" x2="129" y2="41" gradientUnits="userSpaceOnUse">
<stop offset="0.0104167" stop-color="#FFF0DA"/>
<stop offset="0.0416667" stop-color="#94641E"/>
<stop offset="0.828125" stop-color="#FFF2DB"/>
<stop offset="0.9375" stop-color="#EAC885"/>
<stop offset="0.979167" stop-color="#FBF5D1"/>
<stop offset="0.9999" stop-color="#BD9A4B"/>
<stop offset="1" stop-color="#ECD8A3"/>
</linearGradient>
<linearGradient id="paint7_linear_455_190" x1="129.5" y1="69.5" x2="129" y2="41" gradientUnits="userSpaceOnUse">
<stop offset="0.0104167" stop-color="#FFF0DA"/>
<stop offset="0.0416667" stop-color="#94641E"/>
<stop offset="0.828125" stop-color="#FFF2DB"/>
<stop offset="0.9375" stop-color="#EAC885"/>
<stop offset="0.979167" stop-color="#FBF5D1"/>
<stop offset="0.9999" stop-color="#BD9A4B"/>
<stop offset="1" stop-color="#ECD8A3"/>
</linearGradient>
<linearGradient id="paint8_linear_455_190" x1="129.5" y1="69.5" x2="129" y2="41" gradientUnits="userSpaceOnUse">
<stop offset="0.0104167" stop-color="#FFF0DA"/>
<stop offset="0.0416667" stop-color="#94641E"/>
<stop offset="0.828125" stop-color="#FFF2DB"/>
<stop offset="0.9375" stop-color="#EAC885"/>
<stop offset="0.979167" stop-color="#FBF5D1"/>
<stop offset="0.9999" stop-color="#BD9A4B"/>
<stop offset="1" stop-color="#ECD8A3"/>
</linearGradient>
<linearGradient id="paint9_linear_455_190" x1="129.5" y1="69.5" x2="129" y2="41" gradientUnits="userSpaceOnUse">
<stop offset="0.0104167" stop-color="#FFF0DA"/>
<stop offset="0.0416667" stop-color="#94641E"/>
<stop offset="0.828125" stop-color="#FFF2DB"/>
<stop offset="0.9375" stop-color="#EAC885"/>
<stop offset="0.979167" stop-color="#FBF5D1"/>
<stop offset="0.9999" stop-color="#BD9A4B"/>
<stop offset="1" stop-color="#ECD8A3"/>
</linearGradient>
<linearGradient id="paint10_linear_455_190" x1="82.6401" y1="40.4541" x2="82.6401" y2="67.7268" gradientUnits="userSpaceOnUse">
<stop stop-color="#FCF6D1"/>
<stop offset="0.104167" stop-color="#BD9457"/>
<stop offset="0.25" stop-color="#E3CA89"/>
<stop offset="0.697917" stop-color="#FEE8C8"/>
<stop offset="0.854167" stop-color="#4D3A1A"/>
<stop offset="1" stop-color="#FCF0D1"/>
</linearGradient>
<linearGradient id="paint11_linear_455_190" x1="82.6401" y1="40.4541" x2="82.6401" y2="67.7268" gradientUnits="userSpaceOnUse">
<stop stop-color="#FCF6D1"/>
<stop offset="0.104167" stop-color="#BD9457"/>
<stop offset="0.25" stop-color="#E3CA89"/>
<stop offset="0.697917" stop-color="#FEE8C8"/>
<stop offset="0.854167" stop-color="#4D3A1A"/>
<stop offset="1" stop-color="#FCF0D1"/>
</linearGradient>
<linearGradient id="paint12_linear_455_190" x1="82.6401" y1="40.4541" x2="82.6401" y2="67.7268" gradientUnits="userSpaceOnUse">
<stop stop-color="#FCF6D1"/>
<stop offset="0.104167" stop-color="#BD9457"/>
<stop offset="0.25" stop-color="#E3CA89"/>
<stop offset="0.697917" stop-color="#FEE8C8"/>
<stop offset="0.854167" stop-color="#4D3A1A"/>
<stop offset="1" stop-color="#FCF0D1"/>
</linearGradient>
<linearGradient id="paint13_linear_455_190" x1="82.6401" y1="40.4541" x2="82.6401" y2="67.7268" gradientUnits="userSpaceOnUse">
<stop stop-color="#FCF6D1"/>
<stop offset="0.104167" stop-color="#BD9457"/>
<stop offset="0.25" stop-color="#E3CA89"/>
<stop offset="0.697917" stop-color="#FEE8C8"/>
<stop offset="0.854167" stop-color="#4D3A1A"/>
<stop offset="1" stop-color="#FCF0D1"/>
</linearGradient>
<linearGradient id="paint14_linear_455_190" x1="82.6401" y1="40.4541" x2="82.6401" y2="67.7268" gradientUnits="userSpaceOnUse">
<stop stop-color="#FCF6D1"/>
<stop offset="0.104167" stop-color="#BD9457"/>
<stop offset="0.25" stop-color="#E3CA89"/>
<stop offset="0.697917" stop-color="#FEE8C8"/>
<stop offset="0.854167" stop-color="#4D3A1A"/>
<stop offset="1" stop-color="#FCF0D1"/>
</linearGradient>
<linearGradient id="paint15_linear_455_190" x1="82.6401" y1="40.4541" x2="82.6401" y2="67.7268" gradientUnits="userSpaceOnUse">
<stop stop-color="#FCF6D1"/>
<stop offset="0.104167" stop-color="#BD9457"/>
<stop offset="0.25" stop-color="#E3CA89"/>
<stop offset="0.697917" stop-color="#FEE8C8"/>
<stop offset="0.854167" stop-color="#4D3A1A"/>
<stop offset="1" stop-color="#FCF0D1"/>
</linearGradient>
<linearGradient id="paint16_linear_455_190" x1="82.6401" y1="40.4541" x2="82.6401" y2="67.7268" gradientUnits="userSpaceOnUse">
<stop stop-color="#FCF6D1"/>
<stop offset="0.104167" stop-color="#BD9457"/>
<stop offset="0.25" stop-color="#E3CA89"/>
<stop offset="0.697917" stop-color="#FEE8C8"/>
<stop offset="0.854167" stop-color="#4D3A1A"/>
<stop offset="1" stop-color="#FCF0D1"/>
</linearGradient>
</defs>
</svg>
