<svg width="167" height="81" viewBox="0 0 167 81" fill="none" xmlns="http://www.w3.org/2000/svg">
<rect x="1.12332" y="1.12332" width="164.753" height="78.7534" rx="8.61211" fill="#122135" stroke="url(#paint0_linear_150_44)" stroke-width="2.24664"/>
<g style="mix-blend-mode:color-dodge">
<circle cx="16.4294" cy="40.4294" r="8.42942" fill="url(#paint1_diamond_150_44)"/>
</g>
<g style="mix-blend-mode:color-dodge">
<circle cx="152.461" cy="65.4612" r="8.42942" transform="rotate(-7.52921 152.461 65.4612)" fill="url(#paint2_diamond_150_44)"/>
</g>
<path d="M14.7216 32V14.5455H21.267C22.608 14.5455 23.733 14.7955 24.642 15.2955C25.5568 15.7955 26.2472 16.483 26.7131 17.358C27.1847 18.2273 27.4205 19.2159 27.4205 20.3239C27.4205 21.4432 27.1847 22.4375 26.7131 23.3068C26.2415 24.1761 25.5455 24.8608 24.625 25.3608C23.7045 25.8551 22.571 26.1023 21.2244 26.1023H16.8864V23.5028H20.7983C21.5824 23.5028 22.2244 23.3665 22.7244 23.0938C23.2244 22.821 23.5938 22.446 23.8324 21.9688C24.0767 21.4915 24.1989 20.9432 24.1989 20.3239C24.1989 19.7045 24.0767 19.1591 23.8324 18.6875C23.5938 18.2159 23.2216 17.8494 22.7159 17.5881C22.2159 17.321 21.571 17.1875 20.7812 17.1875H17.8835V32H14.7216ZM30.1669 32V14.5455H36.7124C38.0533 14.5455 39.1783 14.7784 40.0874 15.2443C41.0021 15.7102 41.6925 16.3636 42.1584 17.2045C42.63 18.0398 42.8658 19.0142 42.8658 20.1278C42.8658 21.2472 42.6271 22.2187 42.1499 23.0426C41.6783 23.8608 40.9822 24.4943 40.0618 24.9432C39.1413 25.3864 38.0107 25.608 36.6697 25.608H32.0078V22.983H36.2436C37.0277 22.983 37.6697 22.875 38.1697 22.6591C38.6697 22.4375 39.0391 22.1165 39.2777 21.696C39.522 21.2699 39.6442 20.7472 39.6442 20.1278C39.6442 19.5085 39.522 18.9801 39.2777 18.5426C39.0334 18.0994 38.6612 17.7642 38.1612 17.5369C37.6612 17.304 37.0163 17.1875 36.2266 17.1875H33.3288V32H30.1669ZM39.1839 24.0909L43.505 32H39.9766L35.7322 24.0909H39.1839ZM48.9382 14.5455V32H45.7763V14.5455H48.9382ZM52.0384 32V30.0312L60.9872 17.196H51.9872V14.5455H64.9077V16.5142L55.9673 29.3494H64.9588V32H52.0384ZM68.0185 32V14.5455H79.3707V17.196H71.1804V21.9347H78.7827V24.5852H71.1804V29.3494H79.4389V32H68.0185ZM88.5497 32V14.5455H99.7315V17.196H91.7116V21.9347H98.9645V24.5852H91.7116V32H88.5497ZM113.615 14.5455H116.777V25.9489C116.777 27.1989 116.482 28.2983 115.891 29.2472C115.305 30.196 114.482 30.9375 113.419 31.4716C112.357 32 111.115 32.2642 109.695 32.2642C108.268 32.2642 107.024 32 105.962 31.4716C104.899 30.9375 104.075 30.196 103.49 29.2472C102.905 28.2983 102.612 27.1989 102.612 25.9489V14.5455H105.774V25.6847C105.774 26.4119 105.933 27.0597 106.251 27.6278C106.575 28.196 107.03 28.642 107.615 28.9659C108.2 29.2841 108.893 29.4432 109.695 29.4432C110.496 29.4432 111.189 29.2841 111.774 28.9659C112.365 28.642 112.82 28.196 113.138 27.6278C113.456 27.0597 113.615 26.4119 113.615 25.6847V14.5455ZM134.558 14.5455V32H131.745L123.521 20.1108H123.376V32H120.214V14.5455H123.043L131.259 26.4432H131.413V14.5455H134.558ZM143.918 32H138.003V14.5455H144.037C145.77 14.5455 147.259 14.8949 148.503 15.5938C149.753 16.2869 150.713 17.2841 151.384 18.5852C152.054 19.8864 152.389 21.4432 152.389 23.2557C152.389 25.0739 152.051 26.6364 151.375 27.9432C150.705 29.25 149.736 30.2528 148.469 30.9517C147.207 31.6506 145.69 32 143.918 32ZM141.165 29.2642H143.764C144.98 29.2642 145.994 29.0426 146.807 28.5994C147.619 28.1506 148.23 27.483 148.639 26.5966C149.048 25.7045 149.253 24.5909 149.253 23.2557C149.253 21.9205 149.048 20.8125 148.639 19.9318C148.23 19.0455 147.625 18.3835 146.824 17.946C146.028 17.5028 145.04 17.2812 143.858 17.2812H141.165V29.2642Z" fill="white"/>
<g filter="url(#filter0_d_150_44)">
<mask id="path-5-outside-1_150_44" maskUnits="userSpaceOnUse" x="14" y="39" width="138" height="30" fill="black">
<rect fill="white" x="14" y="39" width="138" height="30"/>
<path d="M23.098 67.7273V40.4545H24.8452V67.7273H23.098ZM27.7322 49.4567C27.647 48.5973 27.2813 47.9297 26.6349 47.4538C25.9886 46.978 25.1115 46.7401 24.0036 46.7401C23.2507 46.7401 22.6151 46.8466 22.0966 47.0597C21.5781 47.2656 21.1804 47.5533 20.9034 47.9226C20.6335 48.2919 20.4986 48.7109 20.4986 49.1797C20.4844 49.5703 20.5661 49.9112 20.7436 50.2024C20.9283 50.4936 21.1804 50.7457 21.5 50.9588C21.8196 51.1648 22.1889 51.3459 22.608 51.5021C23.027 51.6513 23.4744 51.7791 23.9503 51.8857L25.9105 52.3544C26.8622 52.5675 27.7358 52.8516 28.5312 53.2067C29.3267 53.5618 30.0156 53.9986 30.598 54.517C31.1804 55.0355 31.6314 55.6463 31.951 56.3494C32.2777 57.0526 32.4446 57.8587 32.4517 58.7678C32.4446 60.103 32.1037 61.2607 31.429 62.2408C30.7614 63.2138 29.7955 63.9702 28.5312 64.5099C27.2741 65.0426 25.7578 65.3089 23.9822 65.3089C22.2209 65.3089 20.6868 65.0391 19.38 64.4993C18.0803 63.9595 17.0646 63.1605 16.3331 62.1023C15.6087 61.0369 15.2287 59.7195 15.1932 58.1499H19.657C19.7067 58.8814 19.9162 59.4922 20.2855 59.9822C20.6619 60.4652 21.1626 60.831 21.7876 61.0795C22.4197 61.321 23.1335 61.4418 23.929 61.4418C24.7102 61.4418 25.3885 61.3281 25.9638 61.1009C26.5462 60.8736 26.9972 60.5575 27.3168 60.1527C27.6364 59.7479 27.7962 59.2827 27.7962 58.7571C27.7962 58.267 27.6506 57.8551 27.3594 57.5213C27.0753 57.1875 26.6563 56.9034 26.1023 56.669C25.5554 56.4347 24.8842 56.2216 24.0888 56.0298L21.7131 55.4332C19.8736 54.9858 18.4212 54.2862 17.3558 53.3345C16.2905 52.3828 15.7614 51.1009 15.7685 49.4886C15.7614 48.1676 16.1129 47.0135 16.8232 46.0263C17.5405 45.0391 18.5241 44.2685 19.7741 43.7145C21.0241 43.1605 22.4446 42.8835 24.0355 42.8835C25.6548 42.8835 27.0682 43.1605 28.2756 43.7145C29.4901 44.2685 30.4347 45.0391 31.1094 46.0263C31.7841 47.0135 32.1321 48.157 32.1534 49.4567H27.7322ZM44.9189 43.1818V65H40.3059V47.5604H40.1781L35.1816 50.6925V46.6016L40.5829 43.1818H44.9189ZM58.6591 65.4794C56.8267 65.4723 55.25 65.0213 53.929 64.1264C52.6151 63.2315 51.603 61.9354 50.8928 60.2379C50.1896 58.5405 49.8416 56.4986 49.8487 54.1122C49.8487 51.733 50.2003 49.7053 50.9034 48.0291C51.6136 46.353 52.6257 45.0781 53.9396 44.2045C55.2607 43.3239 56.8338 42.8835 58.6591 42.8835C60.4844 42.8835 62.054 43.3239 63.3679 44.2045C64.6889 45.0852 65.7045 46.3636 66.4148 48.0398C67.125 49.7088 67.4766 51.733 67.4695 54.1122C67.4695 56.5057 67.1143 58.5511 66.4041 60.2486C65.701 61.946 64.6925 63.2422 63.3786 64.1371C62.0646 65.032 60.4915 65.4794 58.6591 65.4794ZM58.6591 61.6548C59.9091 61.6548 60.907 61.0263 61.6527 59.7692C62.3984 58.5121 62.7678 56.6264 62.7607 54.1122C62.7607 52.4574 62.5902 51.0795 62.2493 49.9787C61.9155 48.8778 61.4396 48.0504 60.8217 47.4964C60.2109 46.9425 59.4901 46.6655 58.6591 46.6655C57.4162 46.6655 56.4219 47.2869 55.6761 48.5298C54.9304 49.7727 54.554 51.6335 54.5469 54.1122C54.5469 55.7884 54.7138 57.1875 55.0476 58.3097C55.3885 59.4247 55.8679 60.2628 56.4858 60.8239C57.1037 61.3778 57.8281 61.6548 58.6591 61.6548ZM79.3134 65.4794C77.481 65.4723 75.9043 65.0213 74.5833 64.1264C73.2694 63.2315 72.2573 61.9354 71.5471 60.2379C70.8439 58.5405 70.4959 56.4986 70.503 54.1122C70.503 51.733 70.8546 49.7053 71.5577 48.0291C72.2679 46.353 73.28 45.0781 74.5939 44.2045C75.915 43.3239 77.4881 42.8835 79.3134 42.8835C81.1387 42.8835 82.7083 43.3239 84.0222 44.2045C85.3432 45.0852 86.3588 46.3636 87.0691 48.0398C87.7793 49.7088 88.1309 51.733 88.1238 54.1122C88.1238 56.5057 87.7686 58.5511 87.0584 60.2486C86.3553 61.946 85.3468 63.2422 84.0328 64.1371C82.7189 65.032 81.1458 65.4794 79.3134 65.4794ZM79.3134 61.6548C80.5634 61.6548 81.5613 61.0263 82.307 59.7692C83.0527 58.5121 83.4221 56.6264 83.415 54.1122C83.415 52.4574 83.2445 51.0795 82.9036 49.9787C82.5698 48.8778 82.0939 48.0504 81.476 47.4964C80.8652 46.9425 80.1444 46.6655 79.3134 46.6655C78.0705 46.6655 77.0762 47.2869 76.3304 48.5298C75.5847 49.7727 75.2083 51.6335 75.2012 54.1122C75.2012 55.7884 75.3681 57.1875 75.7019 58.3097C76.0428 59.4247 76.5222 60.2628 77.1401 60.8239C77.758 61.3778 78.4824 61.6548 79.3134 61.6548ZM99.9677 65.4794C98.1353 65.4723 96.5586 65.0213 95.2376 64.1264C93.9237 63.2315 92.9116 61.9354 92.2013 60.2379C91.4982 58.5405 91.1502 56.4986 91.1573 54.1122C91.1573 51.733 91.5089 49.7053 92.212 48.0291C92.9222 46.353 93.9343 45.0781 95.2482 44.2045C96.5692 43.3239 98.1424 42.8835 99.9677 42.8835C101.793 42.8835 103.363 43.3239 104.676 44.2045C105.998 45.0852 107.013 46.3636 107.723 48.0398C108.434 49.7088 108.785 51.733 108.778 54.1122C108.778 56.5057 108.423 58.5511 107.713 60.2486C107.01 61.946 106.001 63.2422 104.687 64.1371C103.373 65.032 101.8 65.4794 99.9677 65.4794ZM99.9677 61.6548C101.218 61.6548 102.216 61.0263 102.961 59.7692C103.707 58.5121 104.076 56.6264 104.069 54.1122C104.069 52.4574 103.899 51.0795 103.558 49.9787C103.224 48.8778 102.748 48.0504 102.13 47.4964C101.52 46.9425 100.799 46.6655 99.9677 46.6655C98.7248 46.6655 97.7305 47.2869 96.9847 48.5298C96.239 49.7727 95.8626 51.6335 95.8555 54.1122C95.8555 55.7884 96.0224 57.1875 96.3562 58.3097C96.6971 59.4247 97.1765 60.2628 97.7944 60.8239C98.4123 61.3778 99.1367 61.6548 99.9677 61.6548ZM120.622 65.4794C118.79 65.4723 117.213 65.0213 115.892 64.1264C114.578 63.2315 113.566 61.9354 112.856 60.2379C112.153 58.5405 111.805 56.4986 111.812 54.1122C111.812 51.733 112.163 49.7053 112.866 48.0291C113.577 46.353 114.589 45.0781 115.903 44.2045C117.224 43.3239 118.797 42.8835 120.622 42.8835C122.447 42.8835 124.017 43.3239 125.331 44.2045C126.652 45.0852 127.667 46.3636 128.378 48.0398C129.088 49.7088 129.439 51.733 129.432 54.1122C129.432 56.5057 129.077 58.5511 128.367 60.2486C127.664 61.946 126.655 63.2422 125.341 64.1371C124.028 65.032 122.454 65.4794 120.622 65.4794ZM120.622 61.6548C121.872 61.6548 122.87 61.0263 123.616 59.7692C124.361 58.5121 124.731 56.6264 124.724 54.1122C124.724 52.4574 124.553 51.0795 124.212 49.9787C123.878 48.8778 123.403 48.0504 122.785 47.4964C122.174 46.9425 121.453 46.6655 120.622 46.6655C119.379 46.6655 118.385 47.2869 117.639 48.5298C116.893 49.7727 116.517 51.6335 116.51 54.1122C116.51 55.7884 116.677 57.1875 117.01 58.3097C117.351 59.4247 117.831 60.2628 118.449 60.8239C119.067 61.3778 119.791 61.6548 120.622 61.6548ZM141.276 65.4794C139.444 65.4723 137.867 65.0213 136.546 64.1264C135.232 63.2315 134.22 61.9354 133.51 60.2379C132.807 58.5405 132.459 56.4986 132.466 54.1122C132.466 51.733 132.817 49.7053 133.521 48.0291C134.231 46.353 135.243 45.0781 136.557 44.2045C137.878 43.3239 139.451 42.8835 141.276 42.8835C143.102 42.8835 144.671 43.3239 145.985 44.2045C147.306 45.0852 148.322 46.3636 149.032 48.0398C149.742 49.7088 150.094 51.733 150.087 54.1122C150.087 56.5057 149.732 58.5511 149.021 60.2486C148.318 61.946 147.31 63.2422 145.996 64.1371C144.682 65.032 143.109 65.4794 141.276 65.4794ZM141.276 61.6548C142.526 61.6548 143.524 61.0263 144.27 59.7692C145.016 58.5121 145.385 56.6264 145.378 54.1122C145.378 52.4574 145.207 51.0795 144.866 49.9787C144.533 48.8778 144.057 48.0504 143.439 47.4964C142.828 46.9425 142.107 46.6655 141.276 46.6655C140.033 46.6655 139.039 47.2869 138.293 48.5298C137.548 49.7727 137.171 51.6335 137.164 54.1122C137.164 55.7884 137.331 57.1875 137.665 58.3097C138.006 59.4247 138.485 60.2628 139.103 60.8239C139.721 61.3778 140.445 61.6548 141.276 61.6548Z"/>
</mask>
<path d="M23.098 67.7273V40.4545H24.8452V67.7273H23.098ZM27.7322 49.4567C27.647 48.5973 27.2813 47.9297 26.6349 47.4538C25.9886 46.978 25.1115 46.7401 24.0036 46.7401C23.2507 46.7401 22.6151 46.8466 22.0966 47.0597C21.5781 47.2656 21.1804 47.5533 20.9034 47.9226C20.6335 48.2919 20.4986 48.7109 20.4986 49.1797C20.4844 49.5703 20.5661 49.9112 20.7436 50.2024C20.9283 50.4936 21.1804 50.7457 21.5 50.9588C21.8196 51.1648 22.1889 51.3459 22.608 51.5021C23.027 51.6513 23.4744 51.7791 23.9503 51.8857L25.9105 52.3544C26.8622 52.5675 27.7358 52.8516 28.5312 53.2067C29.3267 53.5618 30.0156 53.9986 30.598 54.517C31.1804 55.0355 31.6314 55.6463 31.951 56.3494C32.2777 57.0526 32.4446 57.8587 32.4517 58.7678C32.4446 60.103 32.1037 61.2607 31.429 62.2408C30.7614 63.2138 29.7955 63.9702 28.5312 64.5099C27.2741 65.0426 25.7578 65.3089 23.9822 65.3089C22.2209 65.3089 20.6868 65.0391 19.38 64.4993C18.0803 63.9595 17.0646 63.1605 16.3331 62.1023C15.6087 61.0369 15.2287 59.7195 15.1932 58.1499H19.657C19.7067 58.8814 19.9162 59.4922 20.2855 59.9822C20.6619 60.4652 21.1626 60.831 21.7876 61.0795C22.4197 61.321 23.1335 61.4418 23.929 61.4418C24.7102 61.4418 25.3885 61.3281 25.9638 61.1009C26.5462 60.8736 26.9972 60.5575 27.3168 60.1527C27.6364 59.7479 27.7962 59.2827 27.7962 58.7571C27.7962 58.267 27.6506 57.8551 27.3594 57.5213C27.0753 57.1875 26.6563 56.9034 26.1023 56.669C25.5554 56.4347 24.8842 56.2216 24.0888 56.0298L21.7131 55.4332C19.8736 54.9858 18.4212 54.2862 17.3558 53.3345C16.2905 52.3828 15.7614 51.1009 15.7685 49.4886C15.7614 48.1676 16.1129 47.0135 16.8232 46.0263C17.5405 45.0391 18.5241 44.2685 19.7741 43.7145C21.0241 43.1605 22.4446 42.8835 24.0355 42.8835C25.6548 42.8835 27.0682 43.1605 28.2756 43.7145C29.4901 44.2685 30.4347 45.0391 31.1094 46.0263C31.7841 47.0135 32.1321 48.157 32.1534 49.4567H27.7322ZM44.9189 43.1818V65H40.3059V47.5604H40.1781L35.1816 50.6925V46.6016L40.5829 43.1818H44.9189ZM58.6591 65.4794C56.8267 65.4723 55.25 65.0213 53.929 64.1264C52.6151 63.2315 51.603 61.9354 50.8928 60.2379C50.1896 58.5405 49.8416 56.4986 49.8487 54.1122C49.8487 51.733 50.2003 49.7053 50.9034 48.0291C51.6136 46.353 52.6257 45.0781 53.9396 44.2045C55.2607 43.3239 56.8338 42.8835 58.6591 42.8835C60.4844 42.8835 62.054 43.3239 63.3679 44.2045C64.6889 45.0852 65.7045 46.3636 66.4148 48.0398C67.125 49.7088 67.4766 51.733 67.4695 54.1122C67.4695 56.5057 67.1143 58.5511 66.4041 60.2486C65.701 61.946 64.6925 63.2422 63.3786 64.1371C62.0646 65.032 60.4915 65.4794 58.6591 65.4794ZM58.6591 61.6548C59.9091 61.6548 60.907 61.0263 61.6527 59.7692C62.3984 58.5121 62.7678 56.6264 62.7607 54.1122C62.7607 52.4574 62.5902 51.0795 62.2493 49.9787C61.9155 48.8778 61.4396 48.0504 60.8217 47.4964C60.2109 46.9425 59.4901 46.6655 58.6591 46.6655C57.4162 46.6655 56.4219 47.2869 55.6761 48.5298C54.9304 49.7727 54.554 51.6335 54.5469 54.1122C54.5469 55.7884 54.7138 57.1875 55.0476 58.3097C55.3885 59.4247 55.8679 60.2628 56.4858 60.8239C57.1037 61.3778 57.8281 61.6548 58.6591 61.6548ZM79.3134 65.4794C77.481 65.4723 75.9043 65.0213 74.5833 64.1264C73.2694 63.2315 72.2573 61.9354 71.5471 60.2379C70.8439 58.5405 70.4959 56.4986 70.503 54.1122C70.503 51.733 70.8546 49.7053 71.5577 48.0291C72.2679 46.353 73.28 45.0781 74.5939 44.2045C75.915 43.3239 77.4881 42.8835 79.3134 42.8835C81.1387 42.8835 82.7083 43.3239 84.0222 44.2045C85.3432 45.0852 86.3588 46.3636 87.0691 48.0398C87.7793 49.7088 88.1309 51.733 88.1238 54.1122C88.1238 56.5057 87.7686 58.5511 87.0584 60.2486C86.3553 61.946 85.3468 63.2422 84.0328 64.1371C82.7189 65.032 81.1458 65.4794 79.3134 65.4794ZM79.3134 61.6548C80.5634 61.6548 81.5613 61.0263 82.307 59.7692C83.0527 58.5121 83.4221 56.6264 83.415 54.1122C83.415 52.4574 83.2445 51.0795 82.9036 49.9787C82.5698 48.8778 82.0939 48.0504 81.476 47.4964C80.8652 46.9425 80.1444 46.6655 79.3134 46.6655C78.0705 46.6655 77.0762 47.2869 76.3304 48.5298C75.5847 49.7727 75.2083 51.6335 75.2012 54.1122C75.2012 55.7884 75.3681 57.1875 75.7019 58.3097C76.0428 59.4247 76.5222 60.2628 77.1401 60.8239C77.758 61.3778 78.4824 61.6548 79.3134 61.6548ZM99.9677 65.4794C98.1353 65.4723 96.5586 65.0213 95.2376 64.1264C93.9237 63.2315 92.9116 61.9354 92.2013 60.2379C91.4982 58.5405 91.1502 56.4986 91.1573 54.1122C91.1573 51.733 91.5089 49.7053 92.212 48.0291C92.9222 46.353 93.9343 45.0781 95.2482 44.2045C96.5692 43.3239 98.1424 42.8835 99.9677 42.8835C101.793 42.8835 103.363 43.3239 104.676 44.2045C105.998 45.0852 107.013 46.3636 107.723 48.0398C108.434 49.7088 108.785 51.733 108.778 54.1122C108.778 56.5057 108.423 58.5511 107.713 60.2486C107.01 61.946 106.001 63.2422 104.687 64.1371C103.373 65.032 101.8 65.4794 99.9677 65.4794ZM99.9677 61.6548C101.218 61.6548 102.216 61.0263 102.961 59.7692C103.707 58.5121 104.076 56.6264 104.069 54.1122C104.069 52.4574 103.899 51.0795 103.558 49.9787C103.224 48.8778 102.748 48.0504 102.13 47.4964C101.52 46.9425 100.799 46.6655 99.9677 46.6655C98.7248 46.6655 97.7305 47.2869 96.9847 48.5298C96.239 49.7727 95.8626 51.6335 95.8555 54.1122C95.8555 55.7884 96.0224 57.1875 96.3562 58.3097C96.6971 59.4247 97.1765 60.2628 97.7944 60.8239C98.4123 61.3778 99.1367 61.6548 99.9677 61.6548ZM120.622 65.4794C118.79 65.4723 117.213 65.0213 115.892 64.1264C114.578 63.2315 113.566 61.9354 112.856 60.2379C112.153 58.5405 111.805 56.4986 111.812 54.1122C111.812 51.733 112.163 49.7053 112.866 48.0291C113.577 46.353 114.589 45.0781 115.903 44.2045C117.224 43.3239 118.797 42.8835 120.622 42.8835C122.447 42.8835 124.017 43.3239 125.331 44.2045C126.652 45.0852 127.667 46.3636 128.378 48.0398C129.088 49.7088 129.439 51.733 129.432 54.1122C129.432 56.5057 129.077 58.5511 128.367 60.2486C127.664 61.946 126.655 63.2422 125.341 64.1371C124.028 65.032 122.454 65.4794 120.622 65.4794ZM120.622 61.6548C121.872 61.6548 122.87 61.0263 123.616 59.7692C124.361 58.5121 124.731 56.6264 124.724 54.1122C124.724 52.4574 124.553 51.0795 124.212 49.9787C123.878 48.8778 123.403 48.0504 122.785 47.4964C122.174 46.9425 121.453 46.6655 120.622 46.6655C119.379 46.6655 118.385 47.2869 117.639 48.5298C116.893 49.7727 116.517 51.6335 116.51 54.1122C116.51 55.7884 116.677 57.1875 117.01 58.3097C117.351 59.4247 117.831 60.2628 118.449 60.8239C119.067 61.3778 119.791 61.6548 120.622 61.6548ZM141.276 65.4794C139.444 65.4723 137.867 65.0213 136.546 64.1264C135.232 63.2315 134.22 61.9354 133.51 60.2379C132.807 58.5405 132.459 56.4986 132.466 54.1122C132.466 51.733 132.817 49.7053 133.521 48.0291C134.231 46.353 135.243 45.0781 136.557 44.2045C137.878 43.3239 139.451 42.8835 141.276 42.8835C143.102 42.8835 144.671 43.3239 145.985 44.2045C147.306 45.0852 148.322 46.3636 149.032 48.0398C149.742 49.7088 150.094 51.733 150.087 54.1122C150.087 56.5057 149.732 58.5511 149.021 60.2486C148.318 61.946 147.31 63.2422 145.996 64.1371C144.682 65.032 143.109 65.4794 141.276 65.4794ZM141.276 61.6548C142.526 61.6548 143.524 61.0263 144.27 59.7692C145.016 58.5121 145.385 56.6264 145.378 54.1122C145.378 52.4574 145.207 51.0795 144.866 49.9787C144.533 48.8778 144.057 48.0504 143.439 47.4964C142.828 46.9425 142.107 46.6655 141.276 46.6655C140.033 46.6655 139.039 47.2869 138.293 48.5298C137.548 49.7727 137.171 51.6335 137.164 54.1122C137.164 55.7884 137.331 57.1875 137.665 58.3097C138.006 59.4247 138.485 60.2628 139.103 60.8239C139.721 61.3778 140.445 61.6548 141.276 61.6548Z" fill="url(#paint3_linear_150_44)"/>
<path d="M23.098 67.7273H22.098V68.7273H23.098V67.7273ZM23.098 40.4545V39.4545H22.098V40.4545H23.098ZM24.8452 40.4545H25.8452V39.4545H24.8452V40.4545ZM24.8452 67.7273V68.7273H25.8452V67.7273H24.8452ZM27.7322 49.4567L26.7371 49.5554L26.8265 50.4567H27.7322V49.4567ZM22.0966 47.0597L22.4658 47.9891L22.4767 47.9846L22.0966 47.0597ZM20.9034 47.9226L20.1033 47.3225L20.096 47.3326L20.9034 47.9226ZM20.4986 49.1797L21.4979 49.216L21.4986 49.1979V49.1797H20.4986ZM20.7436 50.2024L19.8898 50.723L19.8944 50.7305L19.8991 50.738L20.7436 50.2024ZM21.5 50.9588L20.9453 51.7909L20.9518 51.7952L20.9583 51.7994L21.5 50.9588ZM22.608 51.5021L22.2586 52.4391L22.2656 52.4417L22.2726 52.4442L22.608 51.5021ZM23.9503 51.8857L24.1829 50.9131L24.1758 50.9114L24.1688 50.9098L23.9503 51.8857ZM25.9105 52.3544L25.6779 53.327L25.685 53.3287L25.692 53.3302L25.9105 52.3544ZM28.5312 53.2067L28.1236 54.1198L28.1236 54.1198L28.5312 53.2067ZM30.598 54.517L31.2629 53.7701L31.2629 53.7701L30.598 54.517ZM31.951 56.3494L31.0406 56.7632L31.0441 56.7708L31.951 56.3494ZM32.4517 58.7678L33.4518 58.7731L33.4517 58.7599L32.4517 58.7678ZM31.429 62.2408L30.6053 61.6737L30.6044 61.675L31.429 62.2408ZM28.5312 64.5099L28.9214 65.4307L28.9239 65.4296L28.5312 64.5099ZM19.38 64.4993L18.9964 65.4228L18.9982 65.4236L19.38 64.4993ZM16.3331 62.1023L15.5061 62.6646L15.5105 62.6709L16.3331 62.1023ZM15.1932 58.1499V57.1499H14.1703L14.1934 58.1725L15.1932 58.1499ZM19.657 58.1499L20.6547 58.0821L20.5913 57.1499H19.657V58.1499ZM20.2855 59.9822L19.4869 60.5841L19.4918 60.5906L19.4968 60.597L20.2855 59.9822ZM21.7876 61.0795L21.418 62.0088L21.4308 62.0137L21.7876 61.0795ZM25.9638 61.1009L25.6002 60.1693L25.5964 60.1708L25.9638 61.1009ZM27.3168 60.1527L28.1016 60.7723L28.1016 60.7723L27.3168 60.1527ZM27.3594 57.5213L26.5978 58.1695L26.6058 58.1787L27.3594 57.5213ZM26.1023 56.669L25.7083 57.5882L25.7126 57.59L26.1023 56.669ZM24.0888 56.0298L23.8452 56.9998L23.8544 57.002L24.0888 56.0298ZM21.7131 55.4332L21.9566 54.4633L21.9494 54.4616L21.7131 55.4332ZM17.3558 53.3345L16.6896 54.0803L16.6896 54.0803L17.3558 53.3345ZM15.7685 49.4886L16.7685 49.493L16.7685 49.4833L15.7685 49.4886ZM16.8232 46.0263L16.0142 45.4384L16.0114 45.4423L16.8232 46.0263ZM28.2756 43.7145L27.8585 44.6234L27.8606 44.6243L28.2756 43.7145ZM31.1094 46.0263L30.2838 46.5905L30.2838 46.5905L31.1094 46.0263ZM32.1534 49.4567V50.4567H33.1699L33.1533 49.4403L32.1534 49.4567ZM24.098 67.7273V40.4545H22.098V67.7273H24.098ZM23.098 41.4545H24.8452V39.4545H23.098V41.4545ZM23.8452 40.4545V67.7273H25.8452V40.4545H23.8452ZM24.8452 66.7273H23.098V68.7273H24.8452V66.7273ZM28.7274 49.358C28.6166 48.2408 28.121 47.3062 27.2278 46.6486L26.042 48.2591C26.4415 48.5532 26.6775 48.9538 26.7371 49.5554L28.7274 49.358ZM27.2278 46.6486C26.3552 46.0061 25.2454 45.7401 24.0036 45.7401V47.7401C24.9776 47.7401 25.6221 47.9499 26.042 48.2591L27.2278 46.6486ZM24.0036 45.7401C23.1625 45.7401 22.3892 45.8583 21.7165 46.1347L22.4767 47.9846C22.8409 47.8349 23.3389 47.7401 24.0036 47.7401V45.7401ZM21.7274 46.1303C21.0736 46.39 20.512 46.7778 20.1034 47.3226L21.7034 48.5226C21.8488 48.3287 22.0827 48.1412 22.4658 47.989L21.7274 46.1303ZM20.096 47.3326C19.6977 47.8776 19.4986 48.5044 19.4986 49.1797H21.4986C21.4986 48.9174 21.5694 48.7062 21.7108 48.5126L20.096 47.3326ZM19.4992 49.1433C19.479 49.7004 19.5959 50.241 19.8898 50.723L21.5974 49.6818C21.5362 49.5815 21.4898 49.4402 21.4979 49.216L19.4992 49.1433ZM19.8991 50.738C20.1667 51.1599 20.5227 51.5092 20.9453 51.7909L22.0547 50.1268C21.838 49.9823 21.6898 49.8273 21.5881 49.6669L19.8991 50.738ZM20.9583 51.7994C21.3478 52.0504 21.7836 52.262 22.2586 52.4391L22.9573 50.5651C22.5942 50.4298 22.2914 50.2791 22.0417 50.1182L20.9583 51.7994ZM22.2726 52.4442C22.7333 52.6082 23.2201 52.7469 23.7318 52.8615L24.1688 50.9098C23.7288 50.8113 23.3206 50.6943 22.9433 50.56L22.2726 52.4442ZM23.7177 52.8582L25.6779 53.327L26.1431 51.3818L24.1829 50.9131L23.7177 52.8582ZM25.692 53.3302C26.5863 53.5305 27.3957 53.7948 28.1236 54.1198L28.9389 52.2935C28.0759 51.9083 27.1381 51.6045 26.129 51.3786L25.692 53.3302ZM28.1236 54.1198C28.8361 54.4379 29.4358 54.8213 29.9331 55.264L31.2629 53.7701C30.5954 53.1759 29.8173 52.6857 28.9389 52.2935L28.1236 54.1198ZM29.9331 55.264C30.4124 55.6906 30.7793 56.1883 31.0406 56.7632L32.8614 55.9356C32.4835 55.1043 31.9484 54.3804 31.2629 53.7701L29.9331 55.264ZM31.0441 56.7708C31.3011 57.3239 31.4456 57.985 31.4517 58.7756L33.4517 58.7599C33.4436 57.7324 33.2543 56.7813 32.8579 55.9281L31.0441 56.7708ZM31.4517 58.7624C31.4455 59.9224 31.1526 60.8787 30.6053 61.6737L32.2527 62.8078C33.0548 61.6426 33.4437 60.2835 33.4517 58.7731L31.4517 58.7624ZM30.6044 61.675C30.061 62.467 29.2575 63.1125 28.1386 63.5903L28.9239 65.4296C30.3334 64.8278 31.4618 63.9605 32.2535 62.8065L30.6044 61.675ZM28.1411 63.5892C27.0385 64.0564 25.6622 64.3089 23.9822 64.3089V66.3089C25.8534 66.3089 27.5098 66.0288 28.9214 65.4307L28.1411 63.5892ZM23.9822 64.3089C22.3207 64.3089 20.9217 64.0541 19.7617 63.575L18.9982 65.4236C20.4519 66.024 22.121 66.3089 23.9822 66.3089V64.3089ZM19.7635 63.5758C18.6239 63.1025 17.7678 62.4191 17.1557 61.5336L15.5105 62.6709C16.3615 63.9019 17.5366 64.8166 18.9964 65.4228L19.7635 63.5758ZM17.16 61.54C16.5657 60.6659 16.225 59.5465 16.1929 58.1272L14.1934 58.1725C14.2324 59.8924 14.6517 61.408 15.5062 62.6646L17.16 61.54ZM15.1932 59.1499H19.657V57.1499H15.1932V59.1499ZM18.6593 58.2177C18.7195 59.1045 18.9797 59.9111 19.4869 60.5841L21.0841 59.3804C20.8527 59.0733 20.6938 58.6583 20.6547 58.0821L18.6593 58.2177ZM19.4968 60.597C19.9931 61.2337 20.6446 61.7011 21.4181 62.0087L22.1572 60.1503C21.6807 59.9608 21.3308 59.6967 21.0742 59.3675L19.4968 60.597ZM21.4308 62.0137C22.1949 62.3056 23.0325 62.4418 23.929 62.4418V60.4418C23.2345 60.4418 22.6446 60.3364 22.1445 60.1454L21.4308 62.0137ZM23.929 62.4418C24.8042 62.4418 25.6126 62.3148 26.3312 62.0309L25.5964 60.1708C25.1644 60.3415 24.6162 60.4418 23.929 60.4418V62.4418ZM26.3273 62.0324C27.0403 61.7542 27.6506 61.3436 28.1016 60.7723L26.5319 59.5331C26.3437 59.7714 26.052 59.993 25.6002 60.1693L26.3273 62.0324ZM28.1016 60.7723C28.5634 60.1874 28.7962 59.5029 28.7962 58.7571H26.7962C26.7962 59.0624 26.7093 59.3083 26.5319 59.5331L28.1016 60.7723ZM28.7962 58.7571C28.7962 58.053 28.5803 57.3997 28.1129 56.8639L26.6058 58.1787C26.7209 58.3106 26.7962 58.4811 26.7962 58.7571H28.7962ZM28.1209 56.8732C27.7054 56.3849 27.1388 56.0218 26.4919 55.7481L25.7126 57.59C26.1737 57.7851 26.4452 57.9901 26.5978 58.1694L28.1209 56.8732ZM26.4962 55.7499C25.8826 55.4869 25.1545 55.2581 24.3231 55.0577L23.8544 57.002C24.614 57.1851 25.2282 57.3824 25.7084 57.5882L26.4962 55.7499ZM24.3323 55.0599L21.9566 54.4634L21.4695 56.4031L23.8452 56.9997L24.3323 55.0599ZM21.9494 54.4616C20.2196 54.0408 18.9315 53.4012 18.022 52.5888L16.6896 54.0803C17.9109 55.1713 19.5275 55.9308 21.4767 56.4049L21.9494 54.4616ZM18.022 52.5888C17.199 51.8535 16.7624 50.8599 16.7685 49.493L14.7685 49.4842C14.7603 51.3418 15.382 52.9121 16.6896 54.0803L18.022 52.5888ZM16.7685 49.4833C16.7624 48.3544 17.0589 47.4109 17.6349 46.6103L16.0114 45.4423C15.1669 46.6161 14.7603 47.9808 14.7685 49.494L16.7685 49.4833ZM17.6321 46.6141C18.2339 45.7859 19.0705 45.1201 20.1793 44.6287L19.369 42.8002C17.9778 43.4168 16.847 44.2922 16.0142 45.4385L17.6321 46.6141ZM20.1793 44.6287C21.2825 44.1398 22.5615 43.8835 24.0355 43.8835V41.8835C22.3277 41.8835 20.7658 42.1812 19.369 42.8002L20.1793 44.6287ZM24.0355 43.8835C25.5418 43.8835 26.8074 44.1411 27.8585 44.6234L28.6926 42.8056C27.329 42.1799 25.7679 41.8835 24.0355 41.8835V43.8835ZM27.8606 44.6243C28.9291 45.1117 29.7235 45.7708 30.2838 46.5905L31.935 45.462C31.1458 44.3073 30.051 43.4252 28.6906 42.8047L27.8606 44.6243ZM30.2838 46.5905C30.8384 47.402 31.1352 48.3513 31.1535 49.4731L33.1533 49.4403C33.1291 47.9626 32.7298 46.625 31.935 45.462L30.2838 46.5905ZM32.1534 48.4567H27.7322V50.4567H32.1534V48.4567ZM44.9189 43.1818H45.9189V42.1818H44.9189V43.1818ZM44.9189 65V66H45.9189V65H44.9189ZM40.3059 65H39.3059V66H40.3059V65ZM40.3059 47.5604H41.3059V46.5604H40.3059V47.5604ZM40.1781 47.5604V46.5604H39.8906L39.647 46.7131L40.1781 47.5604ZM35.1816 50.6925H34.1816V52.4996L35.7128 51.5398L35.1816 50.6925ZM35.1816 46.6016L34.6467 45.7567L34.1816 46.0511V46.6016H35.1816ZM40.5829 43.1818V42.1818H40.293L40.048 42.3369L40.5829 43.1818ZM43.9189 43.1818V65H45.9189V43.1818H43.9189ZM44.9189 64H40.3059V66H44.9189V64ZM41.3059 65V47.5604H39.3059V65H41.3059ZM40.3059 46.5604H40.1781V48.5604H40.3059V46.5604ZM39.647 46.7131L34.6505 49.8452L35.7128 51.5398L40.7092 48.4077L39.647 46.7131ZM36.1816 50.6925V46.6016H34.1816V50.6925H36.1816ZM35.7166 47.4465L41.1179 44.0267L40.048 42.3369L34.6467 45.7567L35.7166 47.4465ZM40.5829 44.1818H44.9189V42.1818H40.5829V44.1818ZM58.6591 65.4794L58.6552 66.4794H58.6591V65.4794ZM53.929 64.1264L53.3661 64.9529L53.3681 64.9543L53.929 64.1264ZM50.8928 60.2379L49.9689 60.6206L49.9703 60.6239L50.8928 60.2379ZM49.8487 54.1122L50.8487 54.1152V54.1122H49.8487ZM50.9034 48.0291L49.9827 47.639L49.9813 47.6423L50.9034 48.0291ZM53.9396 44.2045L54.4933 45.0373L54.4943 45.0366L53.9396 44.2045ZM63.3679 44.2045L62.8111 45.0352L62.8132 45.0366L63.3679 44.2045ZM66.4148 48.0398L65.494 48.4299L65.4946 48.4313L66.4148 48.0398ZM67.4695 54.1122L66.4695 54.1092V54.1122H67.4695ZM66.4041 60.2486L65.4816 59.8626L65.4802 59.8659L66.4041 60.2486ZM63.3786 64.1371L63.9415 64.9636L63.9415 64.9636L63.3786 64.1371ZM61.6527 59.7692L62.5128 60.2794L62.5128 60.2794L61.6527 59.7692ZM62.7607 54.1122L61.7606 54.1122L61.7607 54.115L62.7607 54.1122ZM62.2493 49.9787L61.2923 50.2689L61.294 50.2745L62.2493 49.9787ZM60.8217 47.4964L60.1499 48.2372L60.1542 48.241L60.8217 47.4964ZM55.6761 48.5298L54.8186 48.0153L54.8186 48.0153L55.6761 48.5298ZM54.5469 54.1122L53.5469 54.1093V54.1122H54.5469ZM55.0476 58.3097L54.0891 58.5948L54.0913 58.602L55.0476 58.3097ZM56.4858 60.8239L55.8135 61.5642L55.8183 61.5684L56.4858 60.8239ZM58.663 64.4794C56.9989 64.473 55.623 64.0661 54.4898 63.2985L53.3681 64.9543C54.877 65.9765 56.6545 66.4716 58.6552 66.4794L58.663 64.4794ZM54.4919 63.2999C53.3619 62.5303 52.4628 61.3996 51.8153 59.8519L49.9703 60.6239C50.7431 62.4711 51.8682 63.9328 53.3661 64.9529L54.4919 63.2999ZM51.8166 59.8552C51.1768 58.3106 50.8419 56.407 50.8487 54.1152L48.8487 54.1092C48.8413 56.5902 49.2024 58.7703 49.9689 60.6206L51.8166 59.8552ZM50.8487 54.1122C50.8487 51.8267 51.187 49.9381 51.8256 48.416L49.9813 47.6423C49.2135 49.4724 48.8487 51.6392 48.8487 54.1122H50.8487ZM51.8242 48.4193C52.47 46.895 53.3664 45.7865 54.4933 45.0373L53.386 43.3718C51.885 44.3697 50.7572 45.811 49.9827 47.639L51.8242 48.4193ZM54.4943 45.0366C55.6275 44.2811 57.0009 43.8835 58.6591 43.8835V41.8835C56.6668 41.8835 54.8938 42.3666 53.3849 43.3725L54.4943 45.0366ZM58.6591 43.8835C60.3175 43.8835 61.6862 44.2812 62.8111 45.0352L63.9247 43.3739C62.4218 42.3665 60.6513 41.8835 58.6591 41.8835V43.8835ZM62.8132 45.0366C63.9488 45.7937 64.8485 46.9066 65.494 48.4299L67.3355 47.6496C66.5606 45.8207 65.4291 44.3768 63.9226 43.3725L62.8132 45.0366ZM65.4946 48.4313C66.138 49.9433 66.4763 51.8253 66.4695 54.1092L68.4695 54.1152C68.4768 51.6406 68.112 49.4743 67.3349 47.6482L65.4946 48.4313ZM66.4695 54.1122C66.4695 56.4112 66.1278 58.3182 65.4816 59.8626L67.3266 60.6346C68.1009 58.7841 68.4695 56.6002 68.4695 54.1122H66.4695ZM65.4802 59.8659C64.8398 61.4121 63.9447 62.5416 62.8156 63.3106L63.9415 64.9636C65.4403 63.9428 66.5622 62.4799 67.328 60.6313L65.4802 59.8659ZM62.8156 63.3106C61.692 64.0759 60.3222 64.4794 58.6591 64.4794V66.4794C60.6607 66.4794 62.4373 65.9881 63.9415 64.9636L62.8156 63.3106ZM58.6591 62.6548C60.3276 62.6548 61.623 61.7792 62.5128 60.2794L60.7926 59.259C60.1909 60.2733 59.4906 60.6548 58.6591 60.6548V62.6548ZM62.5128 60.2794C63.3952 58.7919 63.7679 56.6901 63.7606 54.1094L61.7607 54.115C61.7676 56.5628 61.4017 58.2323 60.7926 59.259L62.5128 60.2794ZM63.7607 54.1122C63.7607 52.3969 63.5849 50.9113 63.2045 49.6829L61.294 50.2745C61.5955 51.2478 61.7607 52.5179 61.7607 54.1122H63.7607ZM63.2063 49.6885C62.839 48.4773 62.2862 47.4664 61.4893 46.7519L60.1542 48.241C60.593 48.6344 60.992 49.2783 61.2923 50.2689L63.2063 49.6885ZM61.4935 46.7557C60.6972 46.0335 59.7363 45.6655 58.6591 45.6655V47.6655C59.2438 47.6655 59.7247 47.8515 60.1499 48.2372L61.4935 46.7557ZM58.6591 45.6655C57.001 45.6655 55.7096 46.5304 54.8186 48.0153L56.5336 49.0443C57.1342 48.0434 57.8314 47.6655 58.6591 47.6655V45.6655ZM54.8186 48.0153C53.9356 49.487 53.5542 51.563 53.5469 54.1093L55.5469 54.1151C55.5538 51.7041 55.9252 50.0584 56.5336 49.0443L54.8186 48.0153ZM53.5469 54.1122C53.5469 55.847 53.7187 57.3497 54.0891 58.5948L56.0061 58.0245C55.7088 57.0253 55.5469 55.7297 55.5469 54.1122H53.5469ZM54.0913 58.602C54.4649 59.8241 55.0196 60.8433 55.8135 61.5642L57.158 60.0835C56.7162 59.6823 56.3121 59.0253 56.0039 58.0173L54.0913 58.602ZM55.8183 61.5684C56.6199 62.2871 57.5821 62.6548 58.6591 62.6548V60.6548C58.0741 60.6548 57.5875 60.4686 57.1533 60.0793L55.8183 61.5684ZM79.3134 65.4794L79.3095 66.4794H79.3134V65.4794ZM74.5833 64.1264L74.0204 64.9529L74.0224 64.9543L74.5833 64.1264ZM71.5471 60.2379L70.6232 60.6206L70.6245 60.6239L71.5471 60.2379ZM70.503 54.1122L71.503 54.1152V54.1122H70.503ZM71.5577 48.0291L70.6369 47.639L70.6356 47.6423L71.5577 48.0291ZM74.5939 44.2045L75.1476 45.0373L75.1486 45.0366L74.5939 44.2045ZM84.0222 44.2045L83.4654 45.0352L83.4675 45.0366L84.0222 44.2045ZM87.0691 48.0398L86.1483 48.4299L86.1489 48.4313L87.0691 48.0398ZM88.1238 54.1122L87.1238 54.1092V54.1122H88.1238ZM87.0584 60.2486L86.1359 59.8626L86.1345 59.8659L87.0584 60.2486ZM84.0328 64.1371L84.5958 64.9636L84.5958 64.9636L84.0328 64.1371ZM82.307 59.7692L83.1671 60.2794L83.1671 60.2794L82.307 59.7692ZM83.415 54.1122L82.4149 54.1122L82.415 54.115L83.415 54.1122ZM82.9036 49.9787L81.9466 50.2689L81.9483 50.2745L82.9036 49.9787ZM81.476 47.4964L80.8042 48.2372L80.8085 48.241L81.476 47.4964ZM76.3304 48.5298L75.4729 48.0153L75.4729 48.0153L76.3304 48.5298ZM75.2012 54.1122L74.2012 54.1093V54.1122H75.2012ZM75.7019 58.3097L74.7434 58.5948L74.7456 58.602L75.7019 58.3097ZM77.1401 60.8239L76.4678 61.5642L76.4725 61.5684L77.1401 60.8239ZM79.3173 64.4794C77.6532 64.473 76.2773 64.0661 75.1441 63.2985L74.0224 64.9543C75.5313 65.9765 77.3088 66.4716 79.3095 66.4794L79.3173 64.4794ZM75.1462 63.2999C74.0162 62.5303 73.1171 61.3996 72.4696 59.8519L70.6245 60.6239C71.3974 62.4711 72.5225 63.9328 74.0204 64.9529L75.1462 63.2999ZM72.4709 59.8552C71.8311 58.3106 71.4962 56.407 71.503 54.1152L69.503 54.1092C69.4956 56.5902 69.8567 58.7703 70.6232 60.6206L72.4709 59.8552ZM71.503 54.1122C71.503 51.8267 71.8413 49.9381 72.4799 48.416L70.6356 47.6423C69.8678 49.4724 69.503 51.6392 69.503 54.1122H71.503ZM72.4785 48.4193C73.1243 46.895 74.0207 45.7865 75.1476 45.0373L74.0403 43.3718C72.5393 44.3697 71.4115 45.811 70.637 47.639L72.4785 48.4193ZM75.1486 45.0366C76.2818 44.2811 77.6551 43.8835 79.3134 43.8835V41.8835C77.3211 41.8835 75.5481 42.3666 74.0392 43.3725L75.1486 45.0366ZM79.3134 43.8835C80.9718 43.8835 82.3405 44.2812 83.4654 45.0352L84.579 43.3739C83.0761 42.3665 81.3056 41.8835 79.3134 41.8835V43.8835ZM83.4675 45.0366C84.6031 45.7937 85.5028 46.9066 86.1483 48.4299L87.9898 47.6496C87.2149 45.8207 86.0834 44.3768 84.5769 43.3725L83.4675 45.0366ZM86.1489 48.4313C86.7923 49.9433 87.1306 51.8253 87.1238 54.1092L89.1238 54.1152C89.1311 51.6406 88.7663 49.4743 87.9892 47.6482L86.1489 48.4313ZM87.1238 54.1122C87.1238 56.4112 86.7821 58.3182 86.1359 59.8626L87.9809 60.6346C88.7552 58.7841 89.1238 56.6002 89.1238 54.1122H87.1238ZM86.1345 59.8659C85.4941 61.4121 84.599 62.5416 83.4699 63.3106L84.5958 64.9636C86.0946 63.9428 87.2165 62.4799 87.9823 60.6313L86.1345 59.8659ZM83.4699 63.3106C82.3463 64.0759 80.9765 64.4794 79.3134 64.4794V66.4794C81.315 66.4794 83.0916 65.9881 84.5958 64.9636L83.4699 63.3106ZM79.3134 62.6548C80.9819 62.6548 82.2773 61.7792 83.1671 60.2794L81.4469 59.259C80.8452 60.2733 80.1449 60.6548 79.3134 60.6548V62.6548ZM83.1671 60.2794C84.0495 58.7919 84.4222 56.6901 84.4149 54.1094L82.415 54.115C82.4219 56.5628 82.056 58.2323 81.4469 59.259L83.1671 60.2794ZM84.415 54.1122C84.415 52.3969 84.2392 50.9113 83.8588 49.6829L81.9483 50.2745C82.2498 51.2478 82.415 52.5179 82.415 54.1122H84.415ZM83.8606 49.6885C83.4933 48.4773 82.9405 47.4664 82.1436 46.7519L80.8085 48.241C81.2473 48.6344 81.6463 49.2783 81.9466 50.2689L83.8606 49.6885ZM82.1478 46.7557C81.3515 46.0335 80.3906 45.6655 79.3134 45.6655V47.6655C79.8981 47.6655 80.379 47.8515 80.8042 48.2372L82.1478 46.7557ZM79.3134 45.6655C77.6553 45.6655 76.3639 46.5304 75.4729 48.0153L77.1879 49.0443C77.7885 48.0434 78.4857 47.6655 79.3134 47.6655V45.6655ZM75.4729 48.0153C74.5899 49.487 74.2085 51.563 74.2012 54.1093L76.2012 54.1151C76.2081 51.7041 76.5795 50.0584 77.1879 49.0443L75.4729 48.0153ZM74.2012 54.1122C74.2012 55.847 74.373 57.3497 74.7434 58.5948L76.6604 58.0245C76.3631 57.0253 76.2012 55.7297 76.2012 54.1122H74.2012ZM74.7456 58.602C75.1192 59.8241 75.6739 60.8433 76.4678 61.5642L77.8123 60.0835C77.3705 59.6823 76.9664 59.0253 76.6582 58.0173L74.7456 58.602ZM76.4725 61.5684C77.2742 62.2871 78.2364 62.6548 79.3134 62.6548V60.6548C78.7284 60.6548 78.2418 60.4686 77.8076 60.0793L76.4725 61.5684ZM99.9677 65.4794L99.9638 66.4794H99.9677V65.4794ZM95.2376 64.1264L94.6746 64.9529L94.6767 64.9543L95.2376 64.1264ZM92.2013 60.2379L91.2775 60.6206L91.2788 60.6239L92.2013 60.2379ZM91.1573 54.1122L92.1573 54.1152V54.1122H91.1573ZM92.212 48.0291L91.2912 47.639L91.2899 47.6423L92.212 48.0291ZM95.2482 44.2045L95.8019 45.0373L95.8029 45.0366L95.2482 44.2045ZM104.676 44.2045L104.12 45.0352L104.122 45.0366L104.676 44.2045ZM107.723 48.0398L106.803 48.4299L106.803 48.4313L107.723 48.0398ZM108.778 54.1122L107.778 54.1092V54.1122H108.778ZM107.713 60.2486L106.79 59.8626L106.789 59.8659L107.713 60.2486ZM104.687 64.1371L105.25 64.9636L105.25 64.9636L104.687 64.1371ZM102.961 59.7692L103.821 60.2794L103.821 60.2794L102.961 59.7692ZM104.069 54.1122L103.069 54.1122L103.069 54.115L104.069 54.1122ZM103.558 49.9787L102.601 50.2689L102.603 50.2745L103.558 49.9787ZM102.13 47.4964L101.459 48.2372L101.463 48.241L102.13 47.4964ZM96.9847 48.5298L96.1272 48.0153L96.1272 48.0153L96.9847 48.5298ZM95.8555 54.1122L94.8555 54.1093V54.1122H95.8555ZM96.3562 58.3097L95.3977 58.5948L95.3999 58.602L96.3562 58.3097ZM97.7944 60.8239L97.1221 61.5642L97.1268 61.5684L97.7944 60.8239ZM99.9716 64.4794C98.3075 64.473 96.9315 64.0661 95.7984 63.2985L94.6767 64.9543C96.1856 65.9765 97.9631 66.4716 99.9638 66.4794L99.9716 64.4794ZM95.8005 63.2999C94.6705 62.5303 93.7714 61.3996 93.1239 59.8519L91.2788 60.6239C92.0517 62.4711 93.1768 63.9328 94.6747 64.9529L95.8005 63.2999ZM93.1252 59.8552C92.4854 58.3106 92.1505 56.407 92.1573 54.1152L90.1573 54.1092C90.1499 56.5902 90.511 58.7703 91.2775 60.6206L93.1252 59.8552ZM92.1573 54.1122C92.1573 51.8267 92.4956 49.9381 93.1342 48.416L91.2899 47.6423C90.5221 49.4724 90.1573 51.6392 90.1573 54.1122H92.1573ZM93.1328 48.4193C93.7786 46.895 94.675 45.7865 95.8019 45.0373L94.6946 43.3718C93.1936 44.3697 92.0658 45.811 91.2913 47.639L93.1328 48.4193ZM95.8029 45.0366C96.9361 44.2811 98.3094 43.8835 99.9677 43.8835V41.8835C97.9754 41.8835 96.2024 42.3666 94.6935 43.3725L95.8029 45.0366ZM99.9677 43.8835C101.626 43.8835 102.995 44.2812 104.12 45.0352L105.233 43.3739C103.73 42.3665 101.96 41.8835 99.9677 41.8835V43.8835ZM104.122 45.0366C105.257 45.7937 106.157 46.9066 106.803 48.4299L108.644 47.6496C107.869 45.8207 106.738 44.3768 105.231 43.3725L104.122 45.0366ZM106.803 48.4313C107.447 49.9433 107.785 51.8253 107.778 54.1092L109.778 54.1152C109.785 51.6406 109.421 49.4743 108.644 47.6482L106.803 48.4313ZM107.778 54.1122C107.778 56.4112 107.436 58.3182 106.79 59.8626L108.635 60.6346C109.409 58.7841 109.778 56.6002 109.778 54.1122H107.778ZM106.789 59.8659C106.148 61.4121 105.253 62.5416 104.124 63.3106L105.25 64.9636C106.749 63.9428 107.871 62.4799 108.637 60.6313L106.789 59.8659ZM104.124 63.3106C103.001 64.0759 101.631 64.4794 99.9677 64.4794V66.4794C101.969 66.4794 103.746 65.9881 105.25 64.9636L104.124 63.3106ZM99.9677 62.6548C101.636 62.6548 102.932 61.7792 103.821 60.2794L102.101 59.259C101.5 60.2733 100.799 60.6548 99.9677 60.6548V62.6548ZM103.821 60.2794C104.704 58.7919 105.077 56.6901 105.069 54.1094L103.069 54.115C103.076 56.5628 102.71 58.2323 102.101 59.259L103.821 60.2794ZM105.069 54.1122C105.069 52.3969 104.894 50.9113 104.513 49.6829L102.603 50.2745C102.904 51.2478 103.069 52.5179 103.069 54.1122H105.069ZM104.515 49.6885C104.148 48.4773 103.595 47.4664 102.798 46.7519L101.463 48.241C101.902 48.6344 102.301 49.2783 102.601 50.2689L104.515 49.6885ZM102.802 46.7557C102.006 46.0335 101.045 45.6655 99.9677 45.6655V47.6655C100.552 47.6655 101.033 47.8515 101.459 48.2372L102.802 46.7557ZM99.9677 45.6655C98.3096 45.6655 97.0182 46.5304 96.1272 48.0153L97.8422 49.0443C98.4428 48.0434 99.14 47.6655 99.9677 47.6655V45.6655ZM96.1272 48.0153C95.2442 49.487 94.8628 51.563 94.8555 54.1093L96.8555 54.1151C96.8624 51.7041 97.2338 50.0584 97.8422 49.0443L96.1272 48.0153ZM94.8555 54.1122C94.8555 55.847 95.0273 57.3497 95.3977 58.5948L97.3147 58.0245C97.0174 57.0253 96.8555 55.7297 96.8555 54.1122H94.8555ZM95.3999 58.602C95.7735 59.8241 96.3282 60.8433 97.1221 61.5642L98.4666 60.0835C98.0248 59.6823 97.6207 59.0253 97.3125 58.0173L95.3999 58.602ZM97.1268 61.5684C97.9285 62.2871 98.8907 62.6548 99.9677 62.6548V60.6548C99.3827 60.6548 98.8961 60.4686 98.4619 60.0793L97.1268 61.5684ZM120.622 65.4794L120.618 66.4794H120.622V65.4794ZM115.892 64.1264L115.329 64.9529L115.331 64.9543L115.892 64.1264ZM112.856 60.2379L111.932 60.6206L111.933 60.6239L112.856 60.2379ZM111.812 54.1122L112.812 54.1152V54.1122H111.812ZM112.866 48.0291L111.946 47.639L111.944 47.6423L112.866 48.0291ZM115.903 44.2045L116.456 45.0373L116.457 45.0366L115.903 44.2045ZM125.331 44.2045L124.774 45.0352L124.776 45.0366L125.331 44.2045ZM128.378 48.0398L127.457 48.4299L127.458 48.4313L128.378 48.0398ZM129.432 54.1122L128.432 54.1092V54.1122H129.432ZM128.367 60.2486L127.444 59.8626L127.443 59.8659L128.367 60.2486ZM125.341 64.1371L125.904 64.9636L125.904 64.9636L125.341 64.1371ZM123.616 59.7692L124.476 60.2794L124.476 60.2794L123.616 59.7692ZM124.724 54.1122L123.724 54.1122L123.724 54.115L124.724 54.1122ZM124.212 49.9787L123.255 50.2689L123.257 50.2745L124.212 49.9787ZM122.785 47.4964L122.113 48.2372L122.117 48.241L122.785 47.4964ZM117.639 48.5298L116.782 48.0153L116.782 48.0153L117.639 48.5298ZM116.51 54.1122L115.51 54.1093V54.1122H116.51ZM117.01 58.3097L116.052 58.5948L116.054 58.602L117.01 58.3097ZM118.449 60.8239L117.776 61.5642L117.781 61.5684L118.449 60.8239ZM120.626 64.4794C118.962 64.473 117.586 64.0661 116.453 63.2985L115.331 64.9543C116.84 65.9765 118.617 66.4716 120.618 66.4794L120.626 64.4794ZM116.455 63.2999C115.325 62.5303 114.426 61.3996 113.778 59.8519L111.933 60.6239C112.706 62.4711 113.831 63.9328 115.329 64.9529L116.455 63.2999ZM113.78 59.8552C113.14 58.3106 112.805 56.407 112.812 54.1152L110.812 54.1092C110.804 56.5902 111.165 58.7703 111.932 60.6206L113.78 59.8552ZM112.812 54.1122C112.812 51.8267 113.15 49.9381 113.788 48.416L111.944 47.6423C111.176 49.4724 110.812 51.6392 110.812 54.1122H112.812ZM113.787 48.4193C114.433 46.895 115.329 45.7865 116.456 45.0373L115.349 43.3718C113.848 44.3697 112.72 45.811 111.946 47.639L113.787 48.4193ZM116.457 45.0366C117.59 44.2811 118.964 43.8835 120.622 43.8835V41.8835C118.63 41.8835 116.857 42.3666 115.348 43.3725L116.457 45.0366ZM120.622 43.8835C122.28 43.8835 123.649 44.2812 124.774 45.0352L125.888 43.3739C124.385 42.3665 122.614 41.8835 120.622 41.8835V43.8835ZM124.776 45.0366C125.912 45.7937 126.811 46.9066 127.457 48.4299L129.298 47.6496C128.523 45.8207 127.392 44.3768 125.885 43.3725L124.776 45.0366ZM127.458 48.4313C128.101 49.9433 128.439 51.8253 128.432 54.1092L130.432 54.1152C130.44 51.6406 130.075 49.4743 129.298 47.6482L127.458 48.4313ZM128.432 54.1122C128.432 56.4112 128.091 58.3182 127.445 59.8626L129.29 60.6346C130.064 58.7841 130.432 56.6002 130.432 54.1122H128.432ZM127.443 59.8659C126.803 61.4121 125.908 62.5416 124.779 63.3106L125.904 64.9636C127.403 63.9428 128.525 62.4799 129.291 60.6313L127.443 59.8659ZM124.779 63.3106C123.655 64.0759 122.285 64.4794 120.622 64.4794V66.4794C122.624 66.4794 124.4 65.9881 125.904 64.9636L124.779 63.3106ZM120.622 62.6548C122.291 62.6548 123.586 61.7792 124.476 60.2794L122.756 59.259C122.154 60.2733 121.453 60.6548 120.622 60.6548V62.6548ZM124.476 60.2794C125.358 58.7919 125.731 56.6901 125.724 54.1094L123.724 54.115C123.73 56.5628 123.365 58.2323 122.756 59.259L124.476 60.2794ZM125.724 54.1122C125.724 52.3969 125.548 50.9113 125.167 49.6829L123.257 50.2745C123.558 51.2478 123.724 52.5179 123.724 54.1122H125.724ZM125.169 49.6885C124.802 48.4773 124.249 47.4664 123.452 46.7519L122.117 48.241C122.556 48.6344 122.955 49.2783 123.255 50.2689L125.169 49.6885ZM123.456 46.7557C122.66 46.0335 121.699 45.6655 120.622 45.6655V47.6655C121.207 47.6655 121.688 47.8515 122.113 48.2372L123.456 46.7557ZM120.622 45.6655C118.964 45.6655 117.672 46.5304 116.782 48.0153L118.497 49.0443C119.097 48.0434 119.794 47.6655 120.622 47.6655V45.6655ZM116.782 48.0153C115.899 49.487 115.517 51.563 115.51 54.1093L117.51 54.1151C117.517 51.7041 117.888 50.0584 118.497 49.0443L116.782 48.0153ZM115.51 54.1122C115.51 55.847 115.682 57.3497 116.052 58.5948L117.969 58.0245C117.672 57.0253 117.51 55.7297 117.51 54.1122H115.51ZM116.054 58.602C116.428 59.8241 116.983 60.8433 117.776 61.5642L119.121 60.0835C118.679 59.6823 118.275 59.0253 117.967 58.0173L116.054 58.602ZM117.781 61.5684C118.583 62.2871 119.545 62.6548 120.622 62.6548V60.6548C120.037 60.6548 119.55 60.4686 119.116 60.0793L117.781 61.5684ZM141.276 65.4794L141.272 66.4794H141.276V65.4794ZM136.546 64.1264L135.983 64.9529L135.985 64.9543L136.546 64.1264ZM133.51 60.2379L132.586 60.6206L132.587 60.6239L133.51 60.2379ZM132.466 54.1122L133.466 54.1152V54.1122H132.466ZM133.521 48.0291L132.6 47.639L132.598 47.6423L133.521 48.0291ZM136.557 44.2045L137.11 45.0373L137.112 45.0366L136.557 44.2045ZM145.985 44.2045L145.428 45.0352L145.43 45.0366L145.985 44.2045ZM149.032 48.0398L148.111 48.4299L148.112 48.4313L149.032 48.0398ZM150.087 54.1122L149.087 54.1092V54.1122H150.087ZM149.021 60.2486L148.099 59.8626L148.097 59.8659L149.021 60.2486ZM145.996 64.1371L146.559 64.9636L146.559 64.9636L145.996 64.1371ZM144.27 59.7692L145.13 60.2794L145.13 60.2794L144.27 59.7692ZM145.378 54.1122L144.378 54.1122L144.378 54.115L145.378 54.1122ZM144.866 49.9787L143.909 50.2689L143.911 50.2745L144.866 49.9787ZM143.439 47.4964L142.767 48.2372L142.771 48.241L143.439 47.4964ZM138.293 48.5298L137.436 48.0153L137.436 48.0153L138.293 48.5298ZM137.164 54.1122L136.164 54.1093V54.1122H137.164ZM137.665 58.3097L136.706 58.5948L136.708 58.602L137.665 58.3097ZM139.103 60.8239L138.431 61.5642L138.435 61.5684L139.103 60.8239ZM141.28 64.4794C139.616 64.473 138.24 64.0661 137.107 63.2985L135.985 64.9543C137.494 65.9765 139.272 66.4716 141.272 66.4794L141.28 64.4794ZM137.109 63.2999C135.979 62.5303 135.08 61.3996 134.432 59.8519L132.587 60.6239C133.36 62.4711 134.485 63.9328 135.983 64.9529L137.109 63.2999ZM134.434 59.8552C133.794 58.3106 133.459 56.407 133.466 54.1152L131.466 54.1092C131.459 56.5902 131.82 58.7703 132.586 60.6206L134.434 59.8552ZM133.466 54.1122C133.466 51.8267 133.804 49.9381 134.443 48.416L132.598 47.6423C131.831 49.4724 131.466 51.6392 131.466 54.1122H133.466ZM134.441 48.4193C135.087 46.895 135.984 45.7865 137.11 45.0373L136.003 43.3718C134.502 44.3697 133.374 45.811 132.6 47.639L134.441 48.4193ZM137.112 45.0366C138.245 44.2811 139.618 43.8835 141.276 43.8835V41.8835C139.284 41.8835 137.511 42.3666 136.002 43.3725L137.112 45.0366ZM141.276 43.8835C142.935 43.8835 144.303 44.2812 145.428 45.0352L146.542 43.3739C145.039 42.3665 143.268 41.8835 141.276 41.8835V43.8835ZM145.43 45.0366C146.566 45.7937 147.466 46.9066 148.111 48.4299L149.953 47.6496C149.178 45.8207 148.046 44.3768 146.54 43.3725L145.43 45.0366ZM148.112 48.4313C148.755 49.9433 149.093 51.8253 149.087 54.1092L151.087 54.1152C151.094 51.6406 150.729 49.4743 149.952 47.6482L148.112 48.4313ZM149.087 54.1122C149.087 56.4112 148.745 58.3182 148.099 59.8626L149.944 60.6346C150.718 58.7841 151.087 56.6002 151.087 54.1122H149.087ZM148.097 59.8659C147.457 61.4121 146.562 62.5416 145.433 63.3106L146.559 64.9636C148.057 63.9428 149.179 62.4799 149.945 60.6313L148.097 59.8659ZM145.433 63.3106C144.309 64.0759 142.939 64.4794 141.276 64.4794V66.4794C143.278 66.4794 145.054 65.9881 146.559 64.9636L145.433 63.3106ZM141.276 62.6548C142.945 62.6548 144.24 61.7792 145.13 60.2794L143.41 59.259C142.808 60.2733 142.108 60.6548 141.276 60.6548V62.6548ZM145.13 60.2794C146.012 58.7919 146.385 56.6901 146.378 54.1094L144.378 54.115C144.385 56.5628 144.019 58.2323 143.41 59.259L145.13 60.2794ZM146.378 54.1122C146.378 52.3969 146.202 50.9113 145.822 49.6829L143.911 50.2745C144.213 51.2478 144.378 52.5179 144.378 54.1122H146.378ZM145.823 49.6885C145.456 48.4773 144.903 47.4664 144.106 46.7519L142.771 48.241C143.21 48.6344 143.609 49.2783 143.91 50.2689L145.823 49.6885ZM144.111 46.7557C143.314 46.0335 142.353 45.6655 141.276 45.6655V47.6655C141.861 47.6655 142.342 47.8515 142.767 48.2372L144.111 46.7557ZM141.276 45.6655C139.618 45.6655 138.327 46.5304 137.436 48.0153L139.151 49.0443C139.751 48.0434 140.449 47.6655 141.276 47.6655V45.6655ZM137.436 48.0153C136.553 49.487 136.171 51.563 136.164 54.1093L138.164 54.1151C138.171 51.7041 138.542 50.0584 139.151 49.0443L137.436 48.0153ZM136.164 54.1122C136.164 55.847 136.336 57.3497 136.706 58.5948L138.623 58.0245C138.326 57.0253 138.164 55.7297 138.164 54.1122H136.164ZM136.708 58.602C137.082 59.8241 137.637 60.8433 138.431 61.5642L139.775 60.0835C139.333 59.6823 138.929 59.0253 138.621 58.0173L136.708 58.602ZM138.435 61.5684C139.237 62.2871 140.199 62.6548 141.276 62.6548V60.6548C140.691 60.6548 140.205 60.4686 139.771 60.0793L138.435 61.5684Z" fill="url(#paint4_linear_150_44)" mask="url(#path-5-outside-1_150_44)"/>
</g>
<defs>
<filter id="filter0_d_150_44" x="11.1934" y="40.4541" width="142.904" height="35.2734" filterUnits="userSpaceOnUse" color-interpolation-filters="sRGB">
<feFlood flood-opacity="0" result="BackgroundImageFix"/>
<feColorMatrix in="SourceAlpha" type="matrix" values="0 0 0 0 0 0 0 0 0 0 0 0 0 0 0 0 0 0 127 0" result="hardAlpha"/>
<feOffset dy="4"/>
<feGaussianBlur stdDeviation="2"/>
<feComposite in2="hardAlpha" operator="out"/>
<feColorMatrix type="matrix" values="0 0 0 0 0 0 0 0 0 0 0 0 0 0 0 0 0 0 0.6 0"/>
<feBlend mode="normal" in2="BackgroundImageFix" result="effect1_dropShadow_150_44"/>
<feBlend mode="normal" in="SourceGraphic" in2="effect1_dropShadow_150_44" result="shape"/>
</filter>
<linearGradient id="paint0_linear_150_44" x1="83.5" y1="0" x2="83.5" y2="81" gradientUnits="userSpaceOnUse">
<stop stop-color="#FCF6D1"/>
<stop offset="0.104167" stop-color="#BD9457"/>
<stop offset="0.25" stop-color="#E3CA89"/>
<stop offset="0.697917" stop-color="#FEE8C8"/>
<stop offset="0.854167" stop-color="#4D3A1A"/>
<stop offset="1" stop-color="#FCF0D1"/>
</linearGradient>
<radialGradient id="paint1_diamond_150_44" cx="0" cy="0" r="1" gradientUnits="userSpaceOnUse" gradientTransform="translate(16.4294 40.4294) rotate(90) scale(8.42942)">
<stop stop-color="white"/>
<stop offset="1"/>
</radialGradient>
<radialGradient id="paint2_diamond_150_44" cx="0" cy="0" r="1" gradientUnits="userSpaceOnUse" gradientTransform="translate(152.461 65.4612) rotate(90) scale(8.42942)">
<stop stop-color="white"/>
<stop offset="1"/>
</radialGradient>
<linearGradient id="paint3_linear_150_44" x1="129.5" y1="69.5" x2="129" y2="41" gradientUnits="userSpaceOnUse">
<stop offset="0.0104167" stop-color="#FFF0DA"/>
<stop offset="0.0416667" stop-color="#94641E"/>
<stop offset="0.828125" stop-color="#FFF2DB"/>
<stop offset="0.9375" stop-color="#EAC885"/>
<stop offset="0.979167" stop-color="#FBF5D1"/>
<stop offset="0.9999" stop-color="#BD9A4B"/>
<stop offset="1" stop-color="#ECD8A3"/>
</linearGradient>
<linearGradient id="paint4_linear_150_44" x1="83" y1="36" x2="83" y2="72" gradientUnits="userSpaceOnUse">
<stop stop-color="#FCF6D1"/>
<stop offset="0.104167" stop-color="#BD9457"/>
<stop offset="0.25" stop-color="#E3CA89"/>
<stop offset="0.697917" stop-color="#FEE8C8"/>
<stop offset="0.854167" stop-color="#4D3A1A"/>
<stop offset="1" stop-color="#FCF0D1"/>
</linearGradient>
</defs>
</svg>
