<svg width="295" height="31" viewBox="0 0 295 31" fill="none" xmlns="http://www.w3.org/2000/svg">
<mask id="path-1-outside-1_108_8631" maskUnits="userSpaceOnUse" x="-1" y="-1" width="297" height="33" fill="black">
<rect fill="white" x="-1" y="-1" width="297" height="33"/>
<path d="M0.590909 5.3267V0.90909H23.8011V5.3267H14.8097V30H9.58239V5.3267H0.590909ZM54.1808 15.4545C54.1808 18.589 53.5937 21.2737 52.4195 23.5085C51.2547 25.7339 49.6638 27.4384 47.6467 28.6222C45.6392 29.8059 43.3617 30.3977 40.8143 30.3977C38.267 30.3977 35.9848 29.8059 33.9678 28.6222C31.9602 27.429 30.3693 25.7197 29.195 23.4943C28.0303 21.2595 27.4479 18.5795 27.4479 15.4545C27.4479 12.3201 28.0303 9.64015 29.195 7.41477C30.3693 5.17992 31.9602 3.47064 33.9678 2.28693C35.9848 1.10322 38.267 0.511363 40.8143 0.511363C43.3617 0.511363 45.6392 1.10322 47.6467 2.28693C49.6638 3.47064 51.2547 5.17992 52.4195 7.41477C53.5937 9.64015 54.1808 12.3201 54.1808 15.4545ZM48.8825 15.4545C48.8825 13.2481 48.5369 11.3873 47.8456 9.87216C47.1638 8.34754 46.2168 7.19697 45.0047 6.42045C43.7926 5.63447 42.3958 5.24148 40.8143 5.24148C39.2329 5.24148 37.8361 5.63447 36.624 6.42045C35.4119 7.19697 34.4602 8.34754 33.7689 9.87216C33.0871 11.3873 32.7462 13.2481 32.7462 15.4545C32.7462 17.661 33.0871 19.5265 33.7689 21.0511C34.4602 22.5663 35.4119 23.7169 36.624 24.5028C37.8361 25.2794 39.2329 25.6676 40.8143 25.6676C42.3958 25.6676 43.7926 25.2794 45.0047 24.5028C46.2168 23.7169 47.1638 22.5663 47.8456 21.0511C48.5369 19.5265 48.8825 17.661 48.8825 15.4545ZM78.7011 0.90909H83.971V19.9148C83.971 21.9981 83.4786 23.8305 82.4938 25.4119C81.5184 26.9934 80.1453 28.2292 78.3744 29.1193C76.6036 30 74.5345 30.4403 72.167 30.4403C69.7902 30.4403 67.7163 30 65.9455 29.1193C64.1746 28.2292 62.8015 26.9934 61.8261 25.4119C60.8508 23.8305 60.3631 21.9981 60.3631 19.9148V0.90909H65.633V19.4744C65.633 20.6866 65.8981 21.7661 66.4284 22.7131C66.9682 23.66 67.7258 24.4034 68.7011 24.9432C69.6765 25.4735 70.8318 25.7386 72.167 25.7386C73.5023 25.7386 74.6576 25.4735 75.633 24.9432C76.6178 24.4034 77.3754 23.66 77.9057 22.7131C78.436 21.7661 78.7011 20.6866 78.7011 19.4744V0.90909ZM90.899 30V0.90909H101.808C104.043 0.90909 105.918 1.29735 107.433 2.07386C108.958 2.85038 110.108 3.93939 110.885 5.34091C111.671 6.73295 112.064 8.35701 112.064 10.2131C112.064 12.0786 111.666 13.6979 110.871 15.071C110.085 16.4347 108.925 17.4905 107.39 18.2386C105.856 18.9773 103.972 19.3466 101.737 19.3466H93.9672V14.9716H101.027C102.334 14.9716 103.404 14.7917 104.237 14.4318C105.07 14.0625 105.686 13.5275 106.084 12.8267C106.491 12.1165 106.694 11.2453 106.694 10.2131C106.694 9.18087 106.491 8.30019 106.084 7.57102C105.676 6.83239 105.056 6.27367 104.223 5.89489C103.39 5.50663 102.315 5.3125 100.998 5.3125H96.1689V30H90.899ZM105.927 16.8182L113.129 30H107.248L100.175 16.8182H105.927ZM142.021 0.90909V30H137.333L123.626 10.1847H123.385V30H118.115V0.90909H122.831L136.524 20.7386H136.779V0.90909H142.021ZM152.699 30H147.074L157.315 0.90909H163.821L174.077 30H168.452L160.682 6.875H160.455L152.699 30ZM152.884 18.5938H168.224V22.8267H152.884V18.5938ZM179.108 0.90909H185.557L194.194 21.9886H194.535L203.171 0.90909H209.62V30H204.563V10.0142H204.293L196.253 29.9148H192.475L184.435 9.97159H184.165V30H179.108V0.90909ZM216.558 30V0.90909H235.479V5.3267H221.828V13.2244H234.499V17.642H221.828V25.5824H235.592V30H216.558ZM265.962 0.90909V30H261.274L247.567 10.1847H247.325V30H242.055V0.90909H246.771L260.464 20.7386H260.72V0.90909H265.962ZM271.625 5.3267V0.90909H294.836V5.3267H285.844V30H280.617V5.3267H271.625Z"/>
</mask>
<path d="M0.590909 5.3267V0.90909H23.8011V5.3267H14.8097V30H9.58239V5.3267H0.590909ZM54.1808 15.4545C54.1808 18.589 53.5937 21.2737 52.4195 23.5085C51.2547 25.7339 49.6638 27.4384 47.6467 28.6222C45.6392 29.8059 43.3617 30.3977 40.8143 30.3977C38.267 30.3977 35.9848 29.8059 33.9678 28.6222C31.9602 27.429 30.3693 25.7197 29.195 23.4943C28.0303 21.2595 27.4479 18.5795 27.4479 15.4545C27.4479 12.3201 28.0303 9.64015 29.195 7.41477C30.3693 5.17992 31.9602 3.47064 33.9678 2.28693C35.9848 1.10322 38.267 0.511363 40.8143 0.511363C43.3617 0.511363 45.6392 1.10322 47.6467 2.28693C49.6638 3.47064 51.2547 5.17992 52.4195 7.41477C53.5937 9.64015 54.1808 12.3201 54.1808 15.4545ZM48.8825 15.4545C48.8825 13.2481 48.5369 11.3873 47.8456 9.87216C47.1638 8.34754 46.2168 7.19697 45.0047 6.42045C43.7926 5.63447 42.3958 5.24148 40.8143 5.24148C39.2329 5.24148 37.8361 5.63447 36.624 6.42045C35.4119 7.19697 34.4602 8.34754 33.7689 9.87216C33.0871 11.3873 32.7462 13.2481 32.7462 15.4545C32.7462 17.661 33.0871 19.5265 33.7689 21.0511C34.4602 22.5663 35.4119 23.7169 36.624 24.5028C37.8361 25.2794 39.2329 25.6676 40.8143 25.6676C42.3958 25.6676 43.7926 25.2794 45.0047 24.5028C46.2168 23.7169 47.1638 22.5663 47.8456 21.0511C48.5369 19.5265 48.8825 17.661 48.8825 15.4545ZM78.7011 0.90909H83.971V19.9148C83.971 21.9981 83.4786 23.8305 82.4938 25.4119C81.5184 26.9934 80.1453 28.2292 78.3744 29.1193C76.6036 30 74.5345 30.4403 72.167 30.4403C69.7902 30.4403 67.7163 30 65.9455 29.1193C64.1746 28.2292 62.8015 26.9934 61.8261 25.4119C60.8508 23.8305 60.3631 21.9981 60.3631 19.9148V0.90909H65.633V19.4744C65.633 20.6866 65.8981 21.7661 66.4284 22.7131C66.9682 23.66 67.7258 24.4034 68.7011 24.9432C69.6765 25.4735 70.8318 25.7386 72.167 25.7386C73.5023 25.7386 74.6576 25.4735 75.633 24.9432C76.6178 24.4034 77.3754 23.66 77.9057 22.7131C78.436 21.7661 78.7011 20.6866 78.7011 19.4744V0.90909ZM90.899 30V0.90909H101.808C104.043 0.90909 105.918 1.29735 107.433 2.07386C108.958 2.85038 110.108 3.93939 110.885 5.34091C111.671 6.73295 112.064 8.35701 112.064 10.2131C112.064 12.0786 111.666 13.6979 110.871 15.071C110.085 16.4347 108.925 17.4905 107.39 18.2386C105.856 18.9773 103.972 19.3466 101.737 19.3466H93.9672V14.9716H101.027C102.334 14.9716 103.404 14.7917 104.237 14.4318C105.07 14.0625 105.686 13.5275 106.084 12.8267C106.491 12.1165 106.694 11.2453 106.694 10.2131C106.694 9.18087 106.491 8.30019 106.084 7.57102C105.676 6.83239 105.056 6.27367 104.223 5.89489C103.39 5.50663 102.315 5.3125 100.998 5.3125H96.1689V30H90.899ZM105.927 16.8182L113.129 30H107.248L100.175 16.8182H105.927ZM142.021 0.90909V30H137.333L123.626 10.1847H123.385V30H118.115V0.90909H122.831L136.524 20.7386H136.779V0.90909H142.021ZM152.699 30H147.074L157.315 0.90909H163.821L174.077 30H168.452L160.682 6.875H160.455L152.699 30ZM152.884 18.5938H168.224V22.8267H152.884V18.5938ZM179.108 0.90909H185.557L194.194 21.9886H194.535L203.171 0.90909H209.62V30H204.563V10.0142H204.293L196.253 29.9148H192.475L184.435 9.97159H184.165V30H179.108V0.90909ZM216.558 30V0.90909H235.479V5.3267H221.828V13.2244H234.499V17.642H221.828V25.5824H235.592V30H216.558ZM265.962 0.90909V30H261.274L247.567 10.1847H247.325V30H242.055V0.90909H246.771L260.464 20.7386H260.72V0.90909H265.962ZM271.625 5.3267V0.90909H294.836V5.3267H285.844V30H280.617V5.3267H271.625Z" fill="url(#paint0_linear_108_8631)"/>
<path d="M0.590909 5.3267H-0.409091V6.3267H0.590909V5.3267ZM0.590909 0.90909V-0.09091H-0.409091V0.90909H0.590909ZM23.8011 0.90909H24.8011V-0.09091H23.8011V0.90909ZM23.8011 5.3267V6.3267H24.8011V5.3267H23.8011ZM14.8097 5.3267V4.3267H13.8097V5.3267H14.8097ZM14.8097 30V31H15.8097V30H14.8097ZM9.58239 30H8.58239V31H9.58239V30ZM9.58239 5.3267H10.5824V4.3267H9.58239V5.3267ZM1.59091 5.3267V0.90909H-0.409091V5.3267H1.59091ZM0.590909 1.90909H23.8011V-0.09091H0.590909V1.90909ZM22.8011 0.90909V5.3267H24.8011V0.90909H22.8011ZM23.8011 4.3267H14.8097V6.3267H23.8011V4.3267ZM13.8097 5.3267V30H15.8097V5.3267H13.8097ZM14.8097 29H9.58239V31H14.8097V29ZM10.5824 30V5.3267H8.58239V30H10.5824ZM9.58239 4.3267H0.590909V6.3267H9.58239V4.3267ZM52.4195 23.5085L51.5342 23.0434L51.5335 23.0448L52.4195 23.5085ZM47.6467 28.6222L47.1406 27.7597L47.1388 27.7607L47.6467 28.6222ZM33.9678 28.6222L33.4568 29.4818L33.4616 29.4846L33.9678 28.6222ZM29.195 23.4943L28.3082 23.9565L28.3106 23.961L29.195 23.4943ZM29.195 7.41477L28.3098 6.94964L28.309 6.95105L29.195 7.41477ZM33.9678 2.28693L33.4616 1.42447L33.4599 1.42552L33.9678 2.28693ZM47.6467 2.28693L47.1388 3.14834L47.1406 3.14938L47.6467 2.28693ZM52.4195 7.41477L51.5327 7.87696L51.535 7.88145L52.4195 7.41477ZM47.8456 9.87216L46.9327 10.2804L46.9358 10.2872L47.8456 9.87216ZM45.0047 6.42045L44.4606 7.25951L44.4653 7.26249L45.0047 6.42045ZM36.624 6.42045L37.1634 7.2625L37.1681 7.2595L36.624 6.42045ZM33.7689 9.87216L32.8581 9.45921L32.857 9.46179L33.7689 9.87216ZM33.7689 21.0511L32.856 21.4594L32.8591 21.4662L33.7689 21.0511ZM36.624 24.5028L36.0799 25.3419L36.0846 25.3449L36.624 24.5028ZM45.0047 24.5028L45.5441 25.3449L45.5488 25.3419L45.0047 24.5028ZM47.8456 21.0511L46.9348 20.6382L46.9337 20.6408L47.8456 21.0511ZM53.1808 15.4545C53.1808 18.4654 52.617 20.9826 51.5342 23.0434L53.3047 23.9737C54.5704 21.5648 55.1808 18.7126 55.1808 15.4545H53.1808ZM51.5335 23.0448C50.4488 25.1171 48.9842 26.6778 47.1406 27.7597L48.1529 29.4846C50.3434 28.1991 52.0606 26.3507 53.3054 23.9722L51.5335 23.0448ZM47.1388 27.7607C45.2993 28.8454 43.2002 29.3977 40.8143 29.3977V31.3977C43.5232 31.3977 45.9791 30.7663 48.1546 29.4836L47.1388 27.7607ZM40.8143 29.3977C38.4286 29.3977 36.3239 28.8454 34.4739 27.7597L33.4616 29.4846C35.6457 30.7663 38.1054 31.3977 40.8143 31.3977V29.3977ZM34.4787 27.7625C32.6417 26.6707 31.1747 25.1032 30.0795 23.0276L28.3106 23.961C29.5639 26.3362 31.2787 28.1872 33.4568 29.4818L34.4787 27.7625ZM30.0818 23.0321C29.0072 20.9702 28.4479 18.4566 28.4479 15.4545H26.4479C26.4479 18.7025 27.0533 21.5487 28.3082 23.9565L30.0818 23.0321ZM28.4479 15.4545C28.4479 12.4423 29.0074 9.92962 30.081 7.8785L28.309 6.95105C27.0531 9.35068 26.4479 12.1978 26.4479 15.4545H28.4479ZM30.0803 7.8799C31.1755 5.79543 32.6416 4.22977 34.4757 3.14834L33.4599 1.42552C31.2788 2.71152 29.563 4.56441 28.3098 6.94964L30.0803 7.8799ZM34.4739 3.14938C36.3239 2.06368 38.4286 1.51136 40.8143 1.51136V-0.488638C38.1054 -0.488638 35.6457 0.142759 33.4616 1.42448L34.4739 3.14938ZM40.8143 1.51136C43.2002 1.51136 45.2993 2.06369 47.1388 3.14834L48.1546 1.42552C45.9791 0.142751 43.5232 -0.488638 40.8143 -0.488638V1.51136ZM47.1406 3.14938C48.9831 4.23066 50.4477 5.79517 51.5327 7.87695L53.3062 6.95259C52.0617 4.56467 50.3445 2.71062 48.1529 1.42448L47.1406 3.14938ZM51.535 7.88145C52.617 9.93188 53.1808 12.4435 53.1808 15.4545H55.1808C55.1808 12.1967 54.5704 9.34843 53.3039 6.9481L51.535 7.88145ZM49.8825 15.4545C49.8825 13.1492 49.5221 11.1376 48.7554 9.45707L46.9358 10.2872C47.5517 11.637 47.8825 13.347 47.8825 15.4545H49.8825ZM48.7585 9.46391C48.0101 7.79058 46.9453 6.47606 45.5441 5.57842L44.4653 7.26249C45.4883 7.91788 46.3174 8.9045 46.9327 10.2804L48.7585 9.46391ZM45.5488 5.58141C44.1594 4.68049 42.5699 4.24148 40.8143 4.24148V6.24148C42.2217 6.24148 43.4258 6.58845 44.4606 7.2595L45.5488 5.58141ZM40.8143 4.24148C39.0588 4.24148 37.4693 4.68049 36.0799 5.58141L37.1681 7.2595C38.2029 6.58845 39.407 6.24148 40.8143 6.24148V4.24148ZM36.0846 5.57842C34.6847 6.47519 33.6159 7.78798 32.8581 9.45921L34.6796 10.2851C35.3045 8.90709 36.139 7.91875 37.1634 7.26249L36.0846 5.57842ZM32.857 9.46179C32.1014 11.1409 31.7462 13.1507 31.7462 15.4545H33.7462C33.7462 13.3455 34.0728 11.6337 34.6808 10.2825L32.857 9.46179ZM31.7462 15.4545C31.7462 17.7587 32.1015 19.7721 32.856 21.4594L34.6818 20.6429C34.0727 19.2809 33.7462 17.5633 33.7462 15.4545H31.7462ZM32.8591 21.4662C33.6171 23.1276 34.6848 24.4372 36.0799 25.3419L37.1681 23.6638C36.139 22.9965 35.3033 22.005 34.6787 20.636L32.8591 21.4662ZM36.0846 25.3449C37.4734 26.2346 39.0613 26.6676 40.8143 26.6676V24.6676C39.4046 24.6676 38.1988 24.3241 37.1634 23.6608L36.0846 25.3449ZM40.8143 26.6676C42.5674 26.6676 44.1553 26.2346 45.5441 25.3449L44.4653 23.6608C43.4299 24.3241 42.2241 24.6676 40.8143 24.6676V26.6676ZM45.5488 25.3419C46.9453 24.4363 48.009 23.125 48.7575 21.4615L46.9337 20.6408C46.3186 22.0076 45.4883 22.9974 44.4606 23.6638L45.5488 25.3419ZM48.7564 21.4641C49.522 19.7754 49.8825 17.7602 49.8825 15.4545H47.8825C47.8825 17.5618 47.5518 19.2776 46.9348 20.6382L48.7564 21.4641ZM78.7011 0.90909V-0.09091H77.7011V0.90909H78.7011ZM83.971 0.90909H84.971V-0.09091H83.971V0.90909ZM82.4938 25.4119L81.6449 24.8833L81.6426 24.887L82.4938 25.4119ZM78.3744 29.1193L78.8197 30.0147L78.8236 30.0128L78.3744 29.1193ZM65.9455 29.1193L65.4963 30.0128L65.5002 30.0147L65.9455 29.1193ZM61.8261 25.4119L62.6773 24.887L61.8261 25.4119ZM60.3631 0.90909V-0.09091H59.3631V0.90909H60.3631ZM65.633 0.90909H66.633V-0.09091H65.633V0.90909ZM66.4284 22.7131L65.5559 23.2017L65.5596 23.2083L66.4284 22.7131ZM68.7011 24.9432L68.2169 25.8182L68.2235 25.8217L68.7011 24.9432ZM75.633 24.9432L76.1106 25.8217L76.1136 25.8201L75.633 24.9432ZM77.9057 22.7131L78.7782 23.2017L77.9057 22.7131ZM78.7011 1.90909H83.971V-0.09091H78.7011V1.90909ZM82.971 0.90909V19.9148H84.971V0.90909H82.971ZM82.971 19.9148C82.971 21.834 82.5196 23.4788 81.6449 24.8833L83.3426 25.9406C84.4376 24.1822 84.971 22.1622 84.971 19.9148H82.971ZM81.6426 24.887C80.7711 26.3001 79.5421 27.4131 77.9253 28.2258L78.8236 30.0128C80.7484 29.0452 82.2657 27.6866 83.3449 25.9369L81.6426 24.887ZM77.9291 28.2239C76.3213 29.0235 74.4101 29.4403 72.167 29.4403V31.4403C74.6589 31.4403 76.8859 30.9765 78.8197 30.0147L77.9291 28.2239ZM72.167 29.4403C69.9138 29.4403 67.998 29.0233 66.3908 28.2239L65.5002 30.0147C67.4345 30.9767 69.6665 31.4403 72.167 31.4403V29.4403ZM66.3946 28.2258C64.7778 27.4131 63.5488 26.3001 62.6773 24.887L60.975 25.9369C62.0542 27.6866 63.5714 29.0452 65.4963 30.0128L66.3946 28.2258ZM62.6773 24.887C61.8107 23.4819 61.3631 21.8358 61.3631 19.9148H59.3631C59.3631 22.1604 59.8908 24.1791 60.975 25.9369L62.6773 24.887ZM61.3631 19.9148V0.90909H59.3631V19.9148H61.3631ZM60.3631 1.90909H65.633V-0.09091H60.3631V1.90909ZM64.633 0.90909V19.4744H66.633V0.90909H64.633ZM64.633 19.4744C64.633 20.8373 64.9326 22.0886 65.5559 23.2017L67.3009 22.2245C66.8636 21.4436 66.633 20.5358 66.633 19.4744H64.633ZM65.5596 23.2083C66.1925 24.3185 67.0848 25.1916 68.2169 25.8181L69.1853 24.0682C68.3667 23.6152 67.7439 23.0016 67.2972 22.2179L65.5596 23.2083ZM68.2235 25.8217C69.3724 26.4464 70.6986 26.7386 72.167 26.7386V24.7386C70.965 24.7386 69.9806 24.5006 69.1788 24.0646L68.2235 25.8217ZM72.167 26.7386C73.6355 26.7386 74.9617 26.4464 76.1106 25.8217L75.1553 24.0646C74.3535 24.5006 73.3691 24.7386 72.167 24.7386V26.7386ZM76.1136 25.8201C77.2569 25.1935 78.153 24.3181 78.7782 23.2017L77.0332 22.2245C76.5978 23.0019 75.9787 23.6133 75.1523 24.0663L76.1136 25.8201ZM78.7782 23.2017C79.4015 22.0886 79.7011 20.8373 79.7011 19.4744H77.7011C77.7011 20.5358 77.4705 21.4436 77.0332 22.2245L78.7782 23.2017ZM79.7011 19.4744V0.90909H77.7011V19.4744H79.7011ZM90.899 30H89.899V31H90.899V30ZM90.899 0.90909V-0.09091H89.899V0.90909H90.899ZM107.433 2.07386L106.977 2.9638L106.979 2.96494L107.433 2.07386ZM110.885 5.34091L110.01 5.82556L110.014 5.83257L110.885 5.34091ZM110.871 15.071L110.005 14.5697L110.004 14.5716L110.871 15.071ZM107.39 18.2386L107.824 19.1396L107.829 19.1375L107.39 18.2386ZM93.9672 19.3466H92.9672V20.3466H93.9672V19.3466ZM93.9672 14.9716V13.9716H92.9672V14.9716H93.9672ZM104.237 14.4318L104.634 15.3499L104.642 15.3461L104.237 14.4318ZM106.084 12.8267L105.216 12.3293L105.214 12.3331L106.084 12.8267ZM106.084 7.57102L105.208 8.05381L105.211 8.05859L106.084 7.57102ZM104.223 5.89489L103.801 6.80137L103.809 6.80525L104.223 5.89489ZM96.1689 5.3125V4.3125H95.1689V5.3125H96.1689ZM96.1689 30V31H97.1689V30H96.1689ZM105.927 16.8182L106.805 16.3387L106.521 15.8182H105.927V16.8182ZM113.129 30V31H114.815L114.007 29.5205L113.129 30ZM107.248 30L106.367 30.4729L106.65 31H107.248V30ZM100.175 16.8182V15.8182H98.503L99.2934 17.291L100.175 16.8182ZM91.899 30V0.90909H89.899V30H91.899ZM90.899 1.90909H101.808V-0.09091H90.899V1.90909ZM101.808 1.90909C103.932 1.90909 105.64 2.27864 106.977 2.9638L107.889 1.18393C106.196 0.316054 104.154 -0.09091 101.808 -0.09091V1.90909ZM106.979 2.96494C108.339 3.65742 109.337 4.61048 110.01 5.82555L111.76 4.85627C110.88 3.2683 109.577 2.04333 107.887 1.18278L106.979 2.96494ZM110.014 5.83257C110.703 7.05197 111.064 8.50129 111.064 10.2131H113.064C113.064 8.21272 112.639 6.41394 111.756 4.84924L110.014 5.83257ZM111.064 10.2131C111.064 11.9337 110.698 13.3738 110.005 14.5698L111.736 15.5723C112.634 14.022 113.064 12.2235 113.064 10.2131H111.064ZM110.004 14.5716C109.326 15.7477 108.323 16.6714 106.952 17.3398L107.829 19.1375C109.526 18.3096 110.843 17.1216 111.737 15.5704L110.004 14.5716ZM106.957 17.3376C105.593 17.9941 103.867 18.3466 101.737 18.3466V20.3466C104.077 20.3466 106.119 19.9605 107.824 19.1396L106.957 17.3376ZM101.737 18.3466H93.9672V20.3466H101.737V18.3466ZM94.9672 19.3466V14.9716H92.9672V19.3466H94.9672ZM93.9672 15.9716H101.027V13.9716H93.9672V15.9716ZM101.027 15.9716C102.415 15.9716 103.633 15.7821 104.634 15.3499L103.841 13.5138C103.175 13.8013 102.253 13.9716 101.027 13.9716V15.9716ZM104.642 15.3461C105.645 14.9018 106.436 14.2315 106.953 13.3203L105.214 12.3331C104.936 12.8235 104.496 13.2232 103.832 13.5176L104.642 15.3461ZM106.951 13.3241C107.465 12.4278 107.694 11.375 107.694 10.2131H105.694C105.694 11.1156 105.517 11.8051 105.216 12.3293L106.951 13.3241ZM107.694 10.2131C107.694 9.05 107.465 7.99293 106.957 7.08345L105.211 8.05859C105.517 8.60744 105.694 9.31174 105.694 10.2131H107.694ZM106.959 7.08824C106.439 6.14473 105.648 5.44435 104.637 4.98452L103.809 6.80525C104.464 7.103 104.914 7.52005 105.208 8.0538L106.959 7.08824ZM104.645 4.98844C103.635 4.5179 102.402 4.3125 100.998 4.3125V6.3125C102.227 6.3125 103.144 6.49535 103.801 6.80133L104.645 4.98844ZM100.998 4.3125H96.1689V6.3125H100.998V4.3125ZM95.1689 5.3125V30H97.1689V5.3125H95.1689ZM96.1689 29H90.899V31H96.1689V29ZM105.05 17.2976L112.252 30.4795L114.007 29.5205L106.805 16.3387L105.05 17.2976ZM113.129 29H107.248V31H113.129V29ZM108.13 29.5271L101.056 16.3453L99.2934 17.291L106.367 30.4729L108.13 29.5271ZM100.175 17.8182H105.927V15.8182H100.175V17.8182ZM142.021 0.90909H143.021V-0.09091H142.021V0.90909ZM142.021 30V31H143.021V30H142.021ZM137.333 30L136.511 30.5689L136.809 31H137.333V30ZM123.626 10.1847L124.448 9.61576L124.15 9.18466H123.626V10.1847ZM123.385 10.1847V9.18466H122.385V10.1847H123.385ZM123.385 30V31H124.385V30H123.385ZM118.115 30H117.115V31H118.115V30ZM118.115 0.90909V-0.09091H117.115V0.90909H118.115ZM122.831 0.90909L123.653 0.340861L123.355 -0.09091H122.831V0.90909ZM136.524 20.7386L135.701 21.3069L135.999 21.7386H136.524V20.7386ZM136.779 20.7386V21.7386H137.779V20.7386H136.779ZM136.779 0.90909V-0.09091H135.779V0.90909H136.779ZM141.021 0.90909V30H143.021V0.90909H141.021ZM142.021 29H137.333V31H142.021V29ZM138.156 29.4311L124.448 9.61576L122.804 10.7536L136.511 30.5689L138.156 29.4311ZM123.626 9.18466H123.385V11.1847H123.626V9.18466ZM122.385 10.1847V30H124.385V10.1847H122.385ZM123.385 29H118.115V31H123.385V29ZM119.115 30V0.90909H117.115V30H119.115ZM118.115 1.90909H122.831V-0.09091H118.115V1.90909ZM122.008 1.47732L135.701 21.3069L137.347 20.1704L123.653 0.340861L122.008 1.47732ZM136.524 21.7386H136.779V19.7386H136.524V21.7386ZM137.779 20.7386V0.90909H135.779V20.7386H137.779ZM136.779 1.90909H142.021V-0.09091H136.779V1.90909ZM152.699 30V31H153.418L153.647 30.318L152.699 30ZM147.074 30L146.131 29.6679L145.662 31H147.074V30ZM157.315 0.90909V-0.09091H156.607L156.372 0.577017L157.315 0.90909ZM163.821 0.90909L164.764 0.576607L164.529 -0.09091H163.821V0.90909ZM174.077 30V31H175.49L175.02 29.6675L174.077 30ZM168.452 30L167.504 30.3185L167.733 31H168.452V30ZM160.682 6.875L161.63 6.5565L161.401 5.875H160.682V6.875ZM160.455 6.875V5.875H159.735L159.506 6.55703L160.455 6.875ZM152.884 18.5938V17.5938H151.884V18.5938H152.884ZM168.224 18.5938H169.224V17.5938H168.224V18.5938ZM168.224 22.8267V23.8267H169.224V22.8267H168.224ZM152.884 22.8267H151.884V23.8267H152.884V22.8267ZM152.699 29H147.074V31H152.699V29ZM148.017 30.3321L158.259 1.24116L156.372 0.577017L146.131 29.6679L148.017 30.3321ZM157.315 1.90909H163.821V-0.09091H157.315V1.90909ZM162.878 1.24157L173.134 30.3325L175.02 29.6675L164.764 0.576607L162.878 1.24157ZM174.077 29H168.452V31H174.077V29ZM169.4 29.6815L161.63 6.5565L159.734 7.1935L167.504 30.3185L169.4 29.6815ZM160.682 5.875H160.455V7.875H160.682V5.875ZM159.506 6.55703L151.751 29.682L153.647 30.318L161.403 7.19297L159.506 6.55703ZM152.884 19.5938H168.224V17.5938H152.884V19.5938ZM167.224 18.5938V22.8267H169.224V18.5938H167.224ZM168.224 21.8267H152.884V23.8267H168.224V21.8267ZM153.884 22.8267V18.5938H151.884V22.8267H153.884ZM179.108 0.90909V-0.09091H178.108V0.90909H179.108ZM185.557 0.90909L186.483 0.529972L186.228 -0.09091H185.557V0.90909ZM194.194 21.9886L193.268 22.3678L193.523 22.9886H194.194V21.9886ZM194.535 21.9886V22.9886H195.205L195.46 22.3678L194.535 21.9886ZM203.171 0.90909V-0.09091H202.5L202.246 0.529972L203.171 0.90909ZM209.62 0.90909H210.62V-0.09091H209.62V0.90909ZM209.62 30V31H210.62V30H209.62ZM204.563 30H203.563V31H204.563V30ZM204.563 10.0142H205.563V9.0142H204.563V10.0142ZM204.293 10.0142V9.0142H203.619L203.366 9.63962L204.293 10.0142ZM196.253 29.9148V30.9148H196.928L197.18 30.2894L196.253 29.9148ZM192.475 29.9148L191.547 30.2887L191.8 30.9148H192.475V29.9148ZM184.435 9.97159L185.363 9.59769L185.11 8.97159H184.435V9.97159ZM184.165 9.97159V8.97159H183.165V9.97159H184.165ZM184.165 30V31H185.165V30H184.165ZM179.108 30H178.108V31H179.108V30ZM179.108 1.90909H185.557V-0.09091H179.108V1.90909ZM184.632 1.28821L193.268 22.3678L195.119 21.6095L186.483 0.529972L184.632 1.28821ZM194.194 22.9886H194.535V20.9886H194.194V22.9886ZM195.46 22.3678L204.096 1.28821L202.246 0.529972L193.609 21.6095L195.46 22.3678ZM203.171 1.90909H209.62V-0.09091H203.171V1.90909ZM208.62 0.90909V30H210.62V0.90909H208.62ZM209.62 29H204.563V31H209.62V29ZM205.563 30V10.0142H203.563V30H205.563ZM204.563 9.0142H204.293V11.0142H204.563V9.0142ZM203.366 9.63962L195.326 29.5402L197.18 30.2894L205.22 10.3888L203.366 9.63962ZM196.253 28.9148H192.475V30.9148H196.253V28.9148ZM193.402 29.5409L185.363 9.59769L183.508 10.3455L191.547 30.2887L193.402 29.5409ZM184.435 8.97159H184.165V10.9716H184.435V8.97159ZM183.165 9.97159V30H185.165V9.97159H183.165ZM184.165 29H179.108V31H184.165V29ZM180.108 30V0.90909H178.108V30H180.108ZM216.558 30H215.558V31H216.558V30ZM216.558 0.90909V-0.09091H215.558V0.90909H216.558ZM235.479 0.90909H236.479V-0.09091H235.479V0.90909ZM235.479 5.3267V6.3267H236.479V5.3267H235.479ZM221.828 5.3267V4.3267H220.828V5.3267H221.828ZM221.828 13.2244H220.828V14.2244H221.828V13.2244ZM234.499 13.2244H235.499V12.2244H234.499V13.2244ZM234.499 17.642V18.642H235.499V17.642H234.499ZM221.828 17.642V16.642H220.828V17.642H221.828ZM221.828 25.5824H220.828V26.5824H221.828V25.5824ZM235.592 25.5824H236.592V24.5824H235.592V25.5824ZM235.592 30V31H236.592V30H235.592ZM217.558 30V0.90909H215.558V30H217.558ZM216.558 1.90909H235.479V-0.09091H216.558V1.90909ZM234.479 0.90909V5.3267H236.479V0.90909H234.479ZM235.479 4.3267H221.828V6.3267H235.479V4.3267ZM220.828 5.3267V13.2244H222.828V5.3267H220.828ZM221.828 14.2244H234.499V12.2244H221.828V14.2244ZM233.499 13.2244V17.642H235.499V13.2244H233.499ZM234.499 16.642H221.828V18.642H234.499V16.642ZM220.828 17.642V25.5824H222.828V17.642H220.828ZM221.828 26.5824H235.592V24.5824H221.828V26.5824ZM234.592 25.5824V30H236.592V25.5824H234.592ZM235.592 29H216.558V31H235.592V29ZM265.962 0.90909H266.962V-0.09091H265.962V0.90909ZM265.962 30V31H266.962V30H265.962ZM261.274 30L260.452 30.5689L260.75 31H261.274V30ZM247.567 10.1847L248.389 9.61576L248.091 9.18466H247.567V10.1847ZM247.325 10.1847V9.18466H246.325V10.1847H247.325ZM247.325 30V31H248.325V30H247.325ZM242.055 30H241.055V31H242.055V30ZM242.055 0.90909V-0.09091H241.055V0.90909H242.055ZM246.771 0.90909L247.594 0.340861L247.296 -0.09091H246.771V0.90909ZM260.464 20.7386L259.641 21.3069L259.94 21.7386H260.464V20.7386ZM260.72 20.7386V21.7386H261.72V20.7386H260.72ZM260.72 0.90909V-0.09091H259.72V0.90909H260.72ZM264.962 0.90909V30H266.962V0.90909H264.962ZM265.962 29H261.274V31H265.962V29ZM262.096 29.4311L248.389 9.61576L246.744 10.7536L260.452 30.5689L262.096 29.4311ZM247.567 9.18466H247.325V11.1847H247.567V9.18466ZM246.325 10.1847V30H248.325V10.1847H246.325ZM247.325 29H242.055V31H247.325V29ZM243.055 30V0.90909H241.055V30H243.055ZM242.055 1.90909H246.771V-0.09091H242.055V1.90909ZM245.948 1.47732L259.641 21.3069L261.287 20.1704L247.594 0.340861L245.948 1.47732ZM260.464 21.7386H260.72V19.7386H260.464V21.7386ZM261.72 20.7386V0.90909H259.72V20.7386H261.72ZM260.72 1.90909H265.962V-0.09091H260.72V1.90909ZM271.625 5.3267H270.625V6.3267H271.625V5.3267ZM271.625 0.90909V-0.09091H270.625V0.90909H271.625ZM294.836 0.90909H295.836V-0.09091H294.836V0.90909ZM294.836 5.3267V6.3267H295.836V5.3267H294.836ZM285.844 5.3267V4.3267H284.844V5.3267H285.844ZM285.844 30V31H286.844V30H285.844ZM280.617 30H279.617V31H280.617V30ZM280.617 5.3267H281.617V4.3267H280.617V5.3267ZM272.625 5.3267V0.90909H270.625V5.3267H272.625ZM271.625 1.90909H294.836V-0.09091H271.625V1.90909ZM293.836 0.90909V5.3267H295.836V0.90909H293.836ZM294.836 4.3267H285.844V6.3267H294.836V4.3267ZM284.844 5.3267V30H286.844V5.3267H284.844ZM285.844 29H280.617V31H285.844V29ZM281.617 30V5.3267H279.617V30H281.617ZM280.617 4.3267H271.625V6.3267H280.617V4.3267Z" fill="url(#paint1_linear_108_8631)" mask="url(#path-1-outside-1_108_8631)"/>
<defs>
<linearGradient id="paint0_linear_108_8631" x1="148" y1="-0.67347" x2="148" y2="35.5714" gradientUnits="userSpaceOnUse">
<stop stop-color="#FCF6D1"/>
<stop offset="0.104167" stop-color="#BD9457"/>
<stop offset="0.25" stop-color="#E3CA89"/>
<stop offset="0.697917" stop-color="#FEE8C8"/>
<stop offset="0.854167" stop-color="#4D3A1A"/>
<stop offset="1" stop-color="#FCF0D1"/>
</linearGradient>
<linearGradient id="paint1_linear_108_8631" x1="247.917" y1="39" x2="247.917" y2="-9" gradientUnits="userSpaceOnUse">
<stop offset="0.0104167" stop-color="#FFF0DA"/>
<stop offset="0.0416667" stop-color="#94641E"/>
<stop offset="0.828125" stop-color="#FFF2DB"/>
<stop offset="0.9375" stop-color="#EAC885"/>
<stop offset="0.979167" stop-color="#FBF5D1"/>
<stop offset="0.9999" stop-color="#BD9A4B"/>
<stop offset="1" stop-color="#ECD8A3"/>
</linearGradient>
</defs>
</svg>
