<svg xmlns="http://www.w3.org/2000/svg" width="295" height="31" fill="none"><mask id="c" width="297" height="33" x="-1" y="-1" fill="#000" maskUnits="userSpaceOnUse"><path fill="#fff" d="M-1-1h297v33H-1z"/><path d="M.59 5.327V.909h23.211v4.418H14.81V30H9.582V5.327zm53.59 10.128q0 4.701-1.76 8.054-1.748 3.338-4.773 5.113-3.012 1.776-6.833 1.776t-6.846-1.776q-3.012-1.79-4.773-5.128-1.747-3.352-1.747-8.04 0-4.701 1.747-8.04 1.761-3.351 4.773-5.127Q36.994.51 40.814.51q3.822 0 6.833 1.776 3.025 1.776 4.773 5.128 1.76 3.338 1.76 8.04m-5.297 0q0-3.31-1.037-5.583-1.024-2.286-2.841-3.452-1.819-1.179-4.19-1.179-2.373 0-4.191 1.18-1.818 1.165-2.855 3.451-1.023 2.272-1.023 5.583 0 3.309 1.023 5.596 1.037 2.273 2.855 3.452 1.818 1.164 4.19 1.165 2.373 0 4.19-1.165 1.82-1.18 2.842-3.452 1.036-2.287 1.037-5.596M78.7.909h5.27v19.006q0 3.125-1.477 5.497-1.464 2.372-4.12 3.707-2.656 1.321-6.207 1.321-3.565 0-6.222-1.32-2.655-1.336-4.119-3.708t-1.463-5.497V.909h5.27v18.565q0 1.819.795 3.24a5.8 5.8 0 0 0 2.273 2.23q1.463.795 3.466.795 2.002 0 3.466-.796a5.66 5.66 0 0 0 2.273-2.23q.795-1.42.795-3.239zM90.9 30V.91h10.909q3.353 0 5.625 1.164 2.287 1.164 3.452 3.267 1.179 2.088 1.179 4.872 0 2.799-1.193 4.858-1.179 2.046-3.481 3.168-2.3 1.107-5.653 1.108h-7.77v-4.375h7.06q1.96 0 3.21-.54 1.25-.555 1.847-1.605.61-1.066.61-2.614t-.61-2.642q-.612-1.108-1.861-1.676-1.25-.582-3.225-.582h-4.83V30zm15.028-13.182L113.129 30h-5.881l-7.073-13.182zM142.021.91V30h-4.688l-13.707-19.815h-.241V30h-5.27V.91h4.716l13.693 19.829h.255V.909zM152.699 30h-5.625L157.315.91h6.506L174.077 30h-5.625l-7.77-23.125h-.227zm.185-11.406h15.34v4.233h-15.34zM179.108.909h6.449l8.637 21.08h.341l8.636-21.08h6.449V30h-5.057V10.014h-.27l-8.04 19.9h-3.778l-8.04-19.942h-.27V30h-5.057zM216.558 30V.91h18.921v4.417h-13.651v7.897h12.671v4.418h-12.671v7.94h13.764V30zM265.962.91V30h-4.688l-13.707-19.815h-.242V30h-5.27V.91h4.716l13.693 19.829h.256V.909zm5.663 4.417V.909h23.211v4.418h-8.992V30h-5.227V5.327z"/></mask><path fill="url(#a)" d="M.59 5.327V.909h23.211v4.418H14.81V30H9.582V5.327zm53.59 10.128q0 4.701-1.76 8.054-1.748 3.338-4.773 5.113-3.012 1.776-6.833 1.776t-6.846-1.776q-3.012-1.79-4.773-5.128-1.747-3.352-1.747-8.04 0-4.701 1.747-8.04 1.761-3.351 4.773-5.127Q36.994.51 40.814.51q3.822 0 6.833 1.776 3.025 1.776 4.773 5.128 1.76 3.338 1.76 8.04m-5.297 0q0-3.31-1.037-5.583-1.024-2.286-2.841-3.452-1.819-1.179-4.19-1.179-2.373 0-4.191 1.18-1.818 1.165-2.855 3.451-1.023 2.272-1.023 5.583 0 3.309 1.023 5.596 1.037 2.273 2.855 3.452 1.818 1.164 4.19 1.165 2.373 0 4.19-1.165 1.82-1.18 2.842-3.452 1.036-2.287 1.037-5.596M78.7.909h5.27v19.006q0 3.125-1.477 5.497-1.464 2.372-4.12 3.707-2.656 1.321-6.207 1.321-3.565 0-6.222-1.32-2.655-1.336-4.119-3.708t-1.463-5.497V.909h5.27v18.565q0 1.819.795 3.24a5.8 5.8 0 0 0 2.273 2.23q1.463.795 3.466.795 2.002 0 3.466-.796a5.66 5.66 0 0 0 2.273-2.23q.795-1.42.795-3.239zM90.9 30V.91h10.909q3.353 0 5.625 1.164 2.287 1.164 3.452 3.267 1.179 2.088 1.179 4.872 0 2.799-1.193 4.858-1.179 2.046-3.481 3.168-2.3 1.107-5.653 1.108h-7.77v-4.375h7.06q1.96 0 3.21-.54 1.25-.555 1.847-1.605.61-1.066.61-2.614t-.61-2.642q-.612-1.108-1.861-1.676-1.25-.582-3.225-.582h-4.83V30zm15.028-13.182L113.129 30h-5.881l-7.073-13.182zM142.021.91V30h-4.688l-13.707-19.815h-.241V30h-5.27V.91h4.716l13.693 19.829h.255V.909zM152.699 30h-5.625L157.315.91h6.506L174.077 30h-5.625l-7.77-23.125h-.227zm.185-11.406h15.34v4.233h-15.34zM179.108.909h6.449l8.637 21.08h.341l8.636-21.08h6.449V30h-5.057V10.014h-.27l-8.04 19.9h-3.778l-8.04-19.942h-.27V30h-5.057zM216.558 30V.91h18.921v4.417h-13.651v7.897h12.671v4.418h-12.671v7.94h13.764V30zM265.962.91V30h-4.688l-13.707-19.815h-.242V30h-5.27V.91h4.716l13.693 19.829h.256V.909zm5.663 4.417V.909h23.211v4.418h-8.992V30h-5.227V5.327z"/><path fill="url(#b)" d="M.59 5.327h-1v1h1zm0-4.418v-1h-1v1zm23.211 0h1v-1h-1zm0 4.418v1h1v-1zm-8.991 0v-1h-1v1zm0 24.673v1h1v-1zm-5.228 0h-1v1h1zm0-24.673h1v-1h-1zm-7.991 0V.909h-2v4.418zm-1-3.418H23.8v-2H.591zm22.21-1v4.418h2V.909zm1 3.418H14.81v2H23.8zm-9.991 1V30h2V5.327zm1 23.673H9.582v2h5.228zm-4.228 1V5.327h-2V30zm-1-25.673H.591v2h8.991zM52.42 23.509l-.885-.466v.002zm-4.772 5.113-.506-.862h-.002zm-13.68 0-.51.86.005.003zm-4.772-5.128-.887.462.003.005zm0-16.08-.885-.464-.001.001zm4.773-5.127-.506-.863-.002.002zm13.679 0-.508.861.002.001zm4.773 5.128-.887.462.002.004zm-4.574 2.457-.913.408.003.007zM45.005 6.42l-.544.84.004.002zm-8.381 0 .54.843.004-.003zm-2.855 3.452-.91-.413-.002.003zm0 11.18-.913.407.003.007zm2.855 3.45-.544.84.005.003zm8.38 0 .54.843.005-.003zm2.842-3.45-.911-.414-.001.003zm5.335-5.597c0 3.01-.564 5.528-1.647 7.588l1.77.93c1.266-2.408 1.877-5.26 1.877-8.518zm-1.648 7.59c-1.084 2.072-2.549 3.633-4.392 4.715l1.012 1.725c2.19-1.286 3.908-3.134 5.152-5.513zM47.14 27.76c-1.84 1.084-3.939 1.637-6.325 1.637v2c2.71 0 5.165-.632 7.34-1.914zm-6.325 1.637c-2.385 0-4.49-.553-6.34-1.638l-1.012 1.725c2.184 1.281 4.643 1.913 7.352 1.913zm-6.335-1.636c-1.837-1.091-3.304-2.659-4.4-4.734l-1.768.933c1.253 2.375 2.968 4.226 5.146 5.52zm-4.397-4.73c-1.075-2.062-1.634-4.575-1.634-7.578h-2c0 3.249.605 6.095 1.86 8.502zm-1.634-7.578c0-3.012.56-5.524 1.633-7.576l-1.772-.927c-1.256 2.4-1.861 5.247-1.861 8.503zM30.08 7.88c1.096-2.085 2.562-3.65 4.396-4.732L33.46 1.426c-2.181 1.286-3.897 3.138-5.15 5.524zm4.394-4.73c1.85-1.086 3.955-1.639 6.34-1.639v-2c-2.709 0-5.168.632-7.352 1.913zm6.34-1.639c2.386 0 4.485.553 6.325 1.637l1.016-1.722C45.979.143 43.523-.49 40.815-.49zm6.327 1.638c1.842 1.082 3.307 2.646 4.392 4.728l1.773-.924c-1.244-2.388-2.962-4.242-5.153-5.529zm4.394 4.732c1.082 2.05 1.646 4.563 1.646 7.573h2c0-3.257-.61-6.106-1.877-8.506zm-1.652 7.573c0-2.305-.36-4.316-1.128-5.997l-1.82.83c.617 1.35.947 3.06.947 5.167zm-1.125-5.99c-.748-1.673-1.813-2.988-3.214-3.886l-1.079 1.684c1.023.656 1.852 1.643 2.468 3.018zm-3.21-3.883c-1.389-.9-2.978-1.34-4.734-1.34v2c1.408 0 2.612.347 3.647 1.019zm-4.734-1.34c-1.755 0-3.345.44-4.734 1.34l1.088 1.678c1.035-.67 2.239-1.018 3.646-1.018zm-4.73 1.337c-1.4.897-2.468 2.21-3.226 3.881l1.822.826c.624-1.378 1.459-2.366 2.483-3.023zm-3.227 3.884c-.756 1.679-1.11 3.689-1.11 5.993h2c0-2.11.326-3.821.934-5.172zm-1.11 5.993c0 2.304.355 4.317 1.109 6.004l1.826-.816c-.61-1.362-.936-3.08-.936-5.189zm1.112 6.011c.758 1.662 1.826 2.971 3.22 3.876l1.09-1.678c-1.03-.668-1.866-1.659-2.49-3.028zm3.226 3.879c1.388.89 2.976 1.323 4.73 1.323v-2c-1.41 0-2.616-.344-3.652-1.007zm4.73 1.323c1.752 0 3.34-.433 4.73-1.323l-1.08-1.684c-1.035.663-2.24 1.007-3.65 1.007zm4.734-1.326c1.396-.906 2.46-2.217 3.209-3.88l-1.824-.821c-.615 1.367-1.446 2.356-2.473 3.023zm3.207-3.878c.766-1.689 1.127-3.704 1.127-6.01h-2c0 2.108-.331 3.824-.948 5.184zM78.701.91v-1h-1v1zm5.27 0h1v-1h-1zm-1.477 24.503-.85-.529-.001.004zm-4.12 3.707.446.896.004-.002zm-12.428 0-.45.894.004.002zm-4.12-3.707.851-.525zM60.363.909v-1h-1v1zm5.27 0h1v-1h-1zm.795 21.804-.872.489.004.006zm2.273 2.23-.484.875.007.004zm6.932 0 .478.879.003-.002zm2.273-2.23.872.489zM78.7 1.91h5.27v-2h-5.27zm4.27-1v19.006h2V.909zm0 19.006c0 1.919-.451 3.564-1.326 4.968l1.698 1.058c1.095-1.759 1.628-3.779 1.628-6.026zm-1.328 4.972c-.872 1.413-2.1 2.526-3.718 3.339l.899 1.787c1.924-.968 3.442-2.326 4.52-4.076zm-3.714 3.337c-1.608.8-3.519 1.216-5.762 1.216v2c2.492 0 4.719-.463 6.653-1.425zm-5.762 1.216c-2.253 0-4.169-.417-5.776-1.216l-.89 1.79c1.933.963 4.165 1.426 6.666 1.426zm-5.772-1.214c-1.617-.813-2.846-1.926-3.718-3.339l-1.702 1.05c1.08 1.75 2.596 3.108 4.521 4.076zm-3.718-3.339c-.866-1.405-1.314-3.051-1.314-4.972h-2c0 2.245.528 4.264 1.612 6.022zm-1.314-4.972V.909h-2v19.006zm-1-18.006h5.27v-2h-5.27zm4.27-1v18.565h2V.91zm0 18.565c0 1.363.3 2.615.923 3.728l1.745-.978c-.437-.78-.668-1.688-.668-2.75zm.927 3.734a6.8 6.8 0 0 0 2.657 2.61l.968-1.75a4.8 4.8 0 0 1-1.888-1.85zm2.663 2.614c1.15.624 2.476.917 3.944.917v-2c-1.202 0-2.186-.238-2.988-.674zm3.944.917c1.468 0 2.795-.293 3.944-.917l-.956-1.757c-.802.436-1.786.674-2.988.674zm3.947-.919a6.66 6.66 0 0 0 2.664-2.618l-1.745-.978a4.67 4.67 0 0 1-1.88 1.842zm2.664-2.618c.623-1.113.923-2.365.923-3.728h-2c0 1.062-.23 1.97-.668 2.75zm.923-3.728V.91h-2v18.565zM90.9 30h-1v1h1zm0-29.09v-1h-1v1zm16.534 1.164-.456.89h.002zm3.452 3.267-.875.485.004.007zm-.014 9.73-.866-.501-.001.002zm-3.481 3.168.434.9.005-.002zm-13.423 1.108h-1v1h1zm0-4.375v-1h-1v1zm10.27-.54.397.918.008-.004zm1.847-1.605-.868-.498-.002.004zm0-5.256-.876.483.003.005zm-1.861-1.676-.422.906.008.004zm-8.054-.582v-1h-1v1zm0 24.687v1h1v-1zm9.758-13.182.878-.48-.284-.52h-.594zM113.129 30v1h1.686l-.808-1.48zm-5.881 0-.881.473.283.527h.598zm-7.073-13.182v-1h-1.672l.79 1.473zM91.899 30V.91h-2V30zm-1-28.09h10.909v-2H90.899zm10.909 0c2.124 0 3.832.369 5.169 1.054l.912-1.78c-1.693-.868-3.735-1.275-6.081-1.275zm5.171 1.055c1.36.692 2.358 1.645 3.031 2.86l1.75-.969c-.88-1.588-2.183-2.813-3.873-3.673zm3.035 2.868c.689 1.219 1.05 2.668 1.05 4.38h2c0-2-.425-3.8-1.308-5.364zm1.05 4.38c0 1.72-.366 3.16-1.059 4.357l1.731 1.002c.898-1.55 1.328-3.348 1.328-5.359zm-1.06 4.359c-.678 1.176-1.681 2.1-3.052 2.768l.877 1.797c1.697-.827 3.014-2.015 3.908-3.567zm-3.047 2.766c-1.364.656-3.09 1.009-5.22 1.009v2c2.34 0 4.382-.387 6.087-1.207zm-5.22 1.009h-7.77v2h7.77zm-6.77 1v-4.375h-2v4.375zm-1-3.375h7.06v-2h-7.06zm7.06 0c1.388 0 2.606-.19 3.607-.622l-.793-1.836c-.666.287-1.588.458-2.814.458zm3.615-.626c1.003-.444 1.794-1.114 2.311-2.026l-1.739-.987c-.278.49-.718.89-1.382 1.185zm2.309-2.022c.514-.896.743-1.949.743-3.11h-2c0 .902-.177 1.591-.478 2.115zm.743-3.11c0-1.164-.229-2.221-.737-3.13l-1.746.975c.306.548.483 1.253.483 2.154zm-.735-3.126c-.52-.943-1.311-1.644-2.322-2.103l-.828 1.82c.655.298 1.105.715 1.399 1.249zm-2.314-2.1c-1.01-.47-2.243-.676-3.647-.676v2c1.229 0 2.146.183 2.803.49zm-3.647-.676h-4.83v2h4.83zm-5.83 1V30h2V5.313zm1 23.688H90.9v2h5.27zm8.882-11.702 7.202 13.182 1.755-.96-7.202-13.181zM113.129 29h-5.881v2h5.881zm-4.999.527-7.074-13.182-1.763.946 7.074 13.182zm-7.955-11.709h5.752v-2h-5.752zM142.021.91h1v-1h-1zm0 29.091v1h1v-1zm-4.688 0-.822.569.298.431h.524zm-13.707-19.815.822-.57-.298-.43h-.524zm-.241 0v-1h-1v1zm0 19.815v1h1v-1zm-5.27 0h-1v1h1zm0-29.09v-1h-1v1zm4.716 0 .822-.57-.298-.43h-.524zm13.693 19.829-.823.568.298.432h.525zm.255 0v1h1v-1zm0-19.83v-1h-1v1zm4.242 0V30h2V.91zm1 28.091h-4.688v2h4.688zm-3.865.431L124.448 9.616l-1.644 1.138 13.707 19.815zm-14.53-20.246h-.241v2h.241zm-1.241 1V30h2V10.185zm1 18.815h-5.27v2h5.27zm-4.27 1V.91h-2V30zm-1-28.09h4.716v-2h-4.716zm3.893-.433 13.693 19.83 1.646-1.137L123.653.34zm14.516 20.262h.255v-2h-.255zm1.255-1V.909h-2v19.83zm-1-18.83h5.242v-2h-5.242zM152.699 30v1h.719l.229-.682zm-5.625 0-.943-.332-.469 1.332h1.412zM157.315.91v-1h-.708l-.235.667zm6.506 0 .943-.333-.235-.668h-.708zM174.077 30v1h1.413l-.47-1.332zm-5.625 0-.948.319.229.681h.719zm-7.77-23.125.948-.319-.229-.681h-.719zm-.227 0v-1h-.72l-.229.682zm-7.571 11.719v-1h-1v1zm15.34 0h1v-1h-1zm0 4.233v1h1v-1zm-15.34 0h-1v1h1zM152.699 29h-5.625v2h5.625zm-4.682 1.332 10.242-29.09-1.887-.665-10.241 29.09zm9.298-28.423h6.506v-2h-6.506zm5.563-.667 10.256 29.09 1.886-.665L164.764.578zM174.077 29h-5.625v2h5.625zm-4.677.681-7.77-23.124-1.896.636 7.77 23.126zm-8.718-23.806h-.227v2h.227zm-1.176.682-7.755 23.125 1.896.636 7.756-23.125zm-6.622 13.037h15.34v-2h-15.34zm14.34-1v4.233h2v-4.233zm1 3.233h-15.34v2h15.34zm-14.34 1v-4.233h-2v4.233zM179.108.909v-1h-1v1zm6.449 0 .926-.379-.255-.62h-.671zm8.637 21.08-.926.379.255.62h.671zm.341 0v1h.67l.255-.621zm8.636-21.08v-1h-.671l-.254.621zm6.449 0h1v-1h-1zm0 29.091v1h1v-1zm-5.057 0h-1v1h1zm0-19.986h1v-1h-1zm-.27 0v-1h-.674l-.253.626zm-8.04 19.9v1h.675l.252-.625zm-3.778 0-.928.375.253.626h.675zm-8.04-19.942.928-.374-.253-.626h-.675zm-.27 0v-1h-1v1zm0 20.028v1h1v-1zm-5.057 0h-1v1h1zm0-28.09h6.449v-2h-6.449zm5.524-.622 8.636 21.08 1.851-.758L186.483.53zm9.562 21.7h.341v-2h-.341zm1.266-.62 8.636-21.08-1.85-.758-8.637 21.08zm7.711-20.459h6.449v-2h-6.449zm5.449-1V30h2V.91zm1 28.091h-5.057v2h5.057zm-4.057 1V10.014h-2V30zm-1-20.986h-.27v2h.27zm-1.197.626-8.04 19.9 1.854.75 8.04-19.901zm-7.113 19.275h-3.778v2h3.778zm-2.851.626-8.039-19.943-1.855.747 8.039 19.944zm-8.967-20.57h-.27v2h.27zm-1.27 1V30h2V9.972zm1 19.029h-5.057v2h5.057zm-4.057 1V.91h-2V30zm36.45 0h-1v1h1zm0-29.09v-1h-1v1zm18.921 0h1v-1h-1zm0 4.417v1h1v-1zm-13.651 0v-1h-1v1zm0 7.897h-1v1h1zm12.671 0h1v-1h-1zm0 4.418v1h1v-1zm-12.671 0v-1h-1v1zm0 7.94h-1v1h1zm13.764 0h1v-1h-1zm0 4.418v1h1v-1zm-18.034 0V.91h-2V30zm-1-28.09h18.921v-2h-18.921zm17.921-1v4.417h2V.909zm1 3.417h-13.651v2h13.651zm-14.651 1v7.897h2V5.327zm1 8.897h12.671v-2h-12.671zm11.671-1v4.418h2v-4.418zm1 3.418h-12.671v2h12.671zm-13.671 1v7.94h2v-7.94zm1 8.94h13.764v-2h-13.764zm12.764-1V30h2v-4.418zm1 3.418h-19.034v2h19.034zM265.962.91h1v-1h-1zm0 29.09v1h1v-1zm-4.688 0-.822.569.298.431h.524zm-13.707-19.815.822-.57-.298-.43h-.524zm-.242 0v-1h-1v1zm0 19.815v1h1v-1zm-5.27 0h-1v1h1zm0-29.09v-1h-1v1zm4.716 0 .823-.57-.298-.43h-.525zm13.693 19.829-.823.568.299.432h.524zm.256 0v1h1v-1zm0-19.83v-1h-1v1zm4.242 0V30h2V.91zm1 28.091h-4.688v2h4.688zm-3.866.431L248.389 9.616l-1.645 1.138 13.708 19.815zM247.567 9.185h-.242v2h.242zm-1.242 1V30h2V10.185zm1 18.815h-5.27v2h5.27zm-4.27 1V.91h-2V30zm-1-28.09h4.716v-2h-4.716zm3.893-.433 13.693 19.83 1.646-1.137L247.594.34zm14.516 20.262h.256v-2h-.256zm1.256-1V.909h-2v19.83zm-1-18.83h5.242v-2h-5.242zm10.905 3.418h-1v1h1zm0-4.418v-1h-1v1zm23.211 0h1v-1h-1zm0 4.418v1h1v-1zm-8.992 0v-1h-1v1zm0 24.673v1h1v-1zm-5.227 0h-1v1h1zm0-24.673h1v-1h-1zm-7.992 0V.909h-2v4.418zm-1-3.418h23.211v-2h-23.211zm22.211-1v4.418h2V.909zm1 3.418h-8.992v2h8.992zm-9.992 1V30h2V5.327zm1 23.673h-5.227v2h5.227zm-4.227 1V5.327h-2V30zm-1-25.673h-8.992v2h8.992z" mask="url(#c)"/><defs><linearGradient id="a" x1="148" x2="148" y1="-.673" y2="35.571" gradientUnits="userSpaceOnUse"><stop stop-color="#FCF6D1"/><stop offset=".104" stop-color="#BD9457"/><stop offset=".25" stop-color="#E3CA89"/><stop offset=".698" stop-color="#FEE8C8"/><stop offset=".854" stop-color="#4D3A1A"/><stop offset="1" stop-color="#FCF0D1"/></linearGradient><linearGradient id="b" x1="247.917" x2="247.917" y1="39" y2="-9" gradientUnits="userSpaceOnUse"><stop offset=".01" stop-color="#FFF0DA"/><stop offset=".042" stop-color="#94641E"/><stop offset=".828" stop-color="#FFF2DB"/><stop offset=".938" stop-color="#EAC885"/><stop offset=".979" stop-color="#FBF5D1"/><stop offset="1" stop-color="#BD9A4B"/><stop offset="1" stop-color="#ECD8A3"/></linearGradient></defs></svg>